<svg width="284" height="374" viewBox="0 0 284 374" fill="none" xmlns="http://www.w3.org/2000/svg" preserveAspectRatio="none">
<mask id="mask0_2022_2" style="mask-type:alpha" maskUnits="userSpaceOnUse" x="2" y="1" width="281" height="333">
<path d="M259.478 1L24.6471 1C12.2158 1 2 11.1007 2 23.6649V289.295C2 301.736 12.0927 311.96 24.6471 311.96H185.967L220.83 334V311.96H259.355C271.786 311.96 282.002 301.86 282.002 289.295V23.5417C282.125 11.1007 272.032 1 259.478 1Z" fill="#FFD500"/>
</mask>
<g mask="url(#mask0_2022_2)">
<g opacity="0.08">
<path d="M17.4244 50.7324H-3.00771C-4.14848 50.7324 -5.08594 51.6618 -5.08594 52.8178V66.1912C-5.08594 67.3359 -4.15977 68.2765 -3.00771 68.2765H7.69969L13.8779 73.5012V68.2765H17.4131C18.5539 68.2765 19.4914 67.3472 19.4914 66.1912V52.8064C19.5027 51.6618 18.5765 50.7324 17.4244 50.7324Z" fill="#FED402"/>
<path d="M204.453 50.7324H184.021C182.88 50.7324 181.942 51.6618 181.942 52.8178V66.1912C181.942 67.3359 182.869 68.2765 184.021 68.2765H194.728L200.906 73.5012V68.2765H204.441C205.582 68.2765 206.52 67.3472 206.52 66.1912V52.8064C206.531 51.6618 205.605 50.7324 204.453 50.7324Z" fill="#FED402"/>
<path d="M17.4244 199.929H-3.00771C-4.14848 199.929 -5.08594 200.858 -5.08594 202.014V215.387C-5.08594 216.532 -4.15977 217.473 -3.00771 217.473H7.69969L13.8779 222.698V217.473H17.4131C18.5539 217.473 19.4914 216.543 19.4914 215.387V202.003C19.5027 200.858 18.5765 199.929 17.4244 199.929Z" fill="#FED402"/>
<path d="M204.453 199.929H184.021C182.88 199.929 181.942 200.858 181.942 202.014V215.387C181.942 216.532 182.869 217.473 184.021 217.473H194.728L200.906 222.698V217.473H204.441C205.582 217.473 206.52 216.543 206.52 215.387V202.003C206.531 200.858 205.605 199.929 204.453 199.929Z" fill="#FED402"/>
<path d="M48.5953 50.7324H28.1632C27.0224 50.7324 26.085 51.6618 26.085 52.8178V66.1912C26.085 67.3359 27.0111 68.2765 28.1632 68.2765H38.8706L45.0488 73.5012V68.2765H48.584C49.7248 68.2765 50.6623 67.3472 50.6623 66.1912V52.8064C50.6736 51.6618 49.7474 50.7324 48.5953 50.7324Z" fill="#FED402"/>
<path d="M235.624 50.7324H215.192C214.051 50.7324 213.113 51.6618 213.113 52.8178V66.1912C213.113 67.3359 214.039 68.2765 215.192 68.2765H225.899L232.077 73.5012V68.2765H235.612C236.753 68.2765 237.691 67.3472 237.691 66.1912V52.8064C237.702 51.6618 236.776 50.7324 235.624 50.7324Z" fill="#FED402"/>
<path d="M48.5953 199.929H28.1632C27.0224 199.929 26.085 200.858 26.085 202.014V215.387C26.085 216.532 27.0111 217.473 28.1632 217.473H38.8706L45.0488 222.698V217.473H48.584C49.7248 217.473 50.6623 216.543 50.6623 215.387V202.003C50.6736 200.858 49.7474 199.929 48.5953 199.929Z" fill="#FED402"/>
<path d="M235.624 199.929H215.192C214.051 199.929 213.113 200.858 213.113 202.014V215.387C213.113 216.532 214.039 217.473 215.192 217.473H225.899L232.077 222.698V217.473H235.612C236.753 217.473 237.691 216.543 237.691 215.387V202.003C237.702 200.858 236.776 199.929 235.624 199.929Z" fill="#FED402"/>
<path d="M79.7672 50.7324H59.3351C58.1943 50.7324 57.2568 51.6618 57.2568 52.8178V66.1912C57.2568 67.3359 58.183 68.2765 59.3351 68.2765H70.0425L76.2207 73.5012V68.2765H79.7559C80.8967 68.2765 81.8342 67.3472 81.8342 66.1912V52.8064C81.8454 51.6618 80.9193 50.7324 79.7672 50.7324Z" fill="#FED402"/>
<path d="M266.797 50.7324H246.364C245.224 50.7324 244.286 51.6618 244.286 52.8178V66.1912C244.286 67.3359 245.212 68.2765 246.364 68.2765H257.072L263.25 73.5012V68.2765H266.785C267.926 68.2765 268.863 67.3472 268.863 66.1912V52.8064C268.875 51.6618 267.949 50.7324 266.797 50.7324Z" fill="#FED402"/>
<path d="M79.7672 199.929H59.3351C58.1943 199.929 57.2568 200.858 57.2568 202.014V215.387C57.2568 216.532 58.183 217.473 59.3351 217.473H70.0425L76.2207 222.698V217.473H79.7559C80.8967 217.473 81.8342 216.543 81.8342 215.387V202.003C81.8454 200.858 80.9193 199.929 79.7672 199.929Z" fill="#FED402"/>
<path d="M266.797 199.929H246.364C245.224 199.929 244.286 200.858 244.286 202.014V215.387C244.286 216.532 245.212 217.473 246.364 217.473H257.072L263.25 222.698V217.473H266.785C267.926 217.473 268.863 216.543 268.863 215.387V202.003C268.875 200.858 267.949 199.929 266.797 199.929Z" fill="#FED402"/>
<path d="M110.939 50.7324H90.5069C89.3662 50.7324 88.4287 51.6618 88.4287 52.8178V66.1912C88.4287 67.3359 89.3549 68.2765 90.5069 68.2765H101.214L107.393 73.5012V68.2765H110.928C112.069 68.2765 113.006 67.3472 113.006 66.1912V52.8064C113.017 51.6618 112.091 50.7324 110.939 50.7324Z" fill="#FED402"/>
<path d="M297.967 50.7324H277.535C276.394 50.7324 275.457 51.6618 275.457 52.8178V66.1912C275.457 67.3359 276.383 68.2765 277.535 68.2765H288.243L294.421 73.5012V68.2765H297.956C299.097 68.2765 300.034 67.3472 300.034 66.1912V52.8064C300.046 51.6618 299.119 50.7324 297.967 50.7324Z" fill="#FED402"/>
<path d="M110.939 199.929H90.5069C89.3662 199.929 88.4287 200.858 88.4287 202.014V215.387C88.4287 216.532 89.3549 217.473 90.5069 217.473H101.214L107.393 222.698V217.473H110.928C112.069 217.473 113.006 216.543 113.006 215.387V202.003C113.017 200.858 112.091 199.929 110.939 199.929Z" fill="#FED402"/>
<path d="M297.967 199.929H277.535C276.394 199.929 275.457 200.858 275.457 202.014V215.387C275.457 216.532 276.383 217.473 277.535 217.473H288.243L294.421 222.698V217.473H297.956C299.097 217.473 300.034 216.543 300.034 215.387V202.003C300.046 200.858 299.119 199.929 297.967 199.929Z" fill="#FED402"/>
<path d="M142.11 50.7324H121.678C120.537 50.7324 119.6 51.6618 119.6 52.8178V66.1912C119.6 67.3359 120.526 68.2765 121.678 68.2765H132.385L138.563 73.5012V68.2765H142.099C143.239 68.2765 144.177 67.3472 144.177 66.1912V52.8064C144.188 51.6618 143.262 50.7324 142.11 50.7324Z" fill="#FED402"/>
<path d="M142.11 199.929H121.678C120.537 199.929 119.6 200.858 119.6 202.014V215.387C119.6 216.532 120.526 217.473 121.678 217.473H132.385L138.563 222.698V217.473H142.099C143.239 217.473 144.177 216.543 144.177 215.387V202.003C144.188 200.858 143.262 199.929 142.11 199.929Z" fill="#FED402"/>
<path d="M173.281 50.7324H152.849C151.708 50.7324 150.771 51.6618 150.771 52.8178V66.1912C150.771 67.3359 151.697 68.2765 152.849 68.2765H163.556L169.734 73.5012V68.2765H173.27C174.41 68.2765 175.348 67.3472 175.348 66.1912V52.8064C175.359 51.6618 174.433 50.7324 173.281 50.7324Z" fill="#FED402"/>
<path d="M173.281 199.929H152.849C151.708 199.929 150.771 200.858 150.771 202.014V215.387C150.771 216.532 151.697 217.473 152.849 217.473H163.556L169.734 222.698V217.473H173.27C174.41 217.473 175.348 216.543 175.348 215.387V202.003C175.359 200.858 174.433 199.929 173.281 199.929Z" fill="#FED402"/>
<path d="M17.4244 1.00098H-3.00771C-4.14848 1.00098 -5.08594 1.93032 -5.08594 3.08632V16.4597C-5.08594 17.6044 -4.15977 18.5451 -3.00771 18.5451H7.69969L13.8779 23.7698V18.5451H17.4131C18.5539 18.5451 19.4914 17.6157 19.4914 16.4597V3.07499C19.5027 1.93032 18.5765 1.00098 17.4244 1.00098Z" fill="#FED402"/>
<path d="M204.453 1.00098H184.021C182.88 1.00098 181.942 1.93032 181.942 3.08632V16.4597C181.942 17.6044 182.869 18.5451 184.021 18.5451H194.728L200.906 23.7698V18.5451H204.441C205.582 18.5451 206.52 17.6157 206.52 16.4597V3.07499C206.531 1.93032 205.605 1.00098 204.453 1.00098Z" fill="#FED402"/>
<path d="M17.4244 150.196H-3.00771C-4.14848 150.196 -5.08594 151.126 -5.08594 152.282V165.655C-5.08594 166.8 -4.15977 167.74 -3.00771 167.74H7.69969L13.8779 172.965V167.74H17.4131C18.5539 167.74 19.4914 166.811 19.4914 165.655V152.27C19.5027 151.126 18.5765 150.196 17.4244 150.196Z" fill="#FED402"/>
<path d="M204.453 150.196H184.021C182.88 150.196 181.942 151.126 181.942 152.282V165.655C181.942 166.8 182.869 167.74 184.021 167.74H194.728L200.906 172.965V167.74H204.441C205.582 167.74 206.52 166.811 206.52 165.655V152.27C206.531 151.126 205.605 150.196 204.453 150.196Z" fill="#FED402"/>
<path d="M17.4244 100.465H-3.00771C-4.14848 100.465 -5.08594 101.394 -5.08594 102.55V115.924C-5.08594 117.068 -4.15977 118.009 -3.00771 118.009H7.69969L13.8779 123.234V118.009H17.4131C18.5539 118.009 19.4914 117.08 19.4914 115.924V102.539C19.5027 101.394 18.5765 100.465 17.4244 100.465Z" fill="#FED402"/>
<path d="M204.453 100.465H184.021C182.88 100.465 181.942 101.394 181.942 102.55V115.924C181.942 117.068 182.869 118.009 184.021 118.009H194.728L200.906 123.234V118.009H204.441C205.582 118.009 206.52 117.08 206.52 115.924V102.539C206.531 101.394 205.605 100.465 204.453 100.465Z" fill="#FED402"/>
<path d="M17.4244 249.66H-3.00771C-4.14848 249.66 -5.08594 250.589 -5.08594 251.746V265.119C-5.08594 266.264 -4.15977 267.204 -3.00771 267.204H7.69969L13.8779 272.429V267.204H17.4131C18.5539 267.204 19.4914 266.275 19.4914 265.119V251.734C19.5027 250.589 18.5765 249.66 17.4244 249.66Z" fill="#FED402"/>
<path d="M204.453 249.66H184.021C182.88 249.66 181.942 250.589 181.942 251.746V265.119C181.942 266.264 182.869 267.204 184.021 267.204H194.728L200.906 272.429V267.204H204.441C205.582 267.204 206.52 266.275 206.52 265.119V251.734C206.531 250.589 205.605 249.66 204.453 249.66Z" fill="#FED402"/>
<path d="M48.5953 1.00098H28.1632C27.0224 1.00098 26.085 1.93032 26.085 3.08632V16.4597C26.085 17.6044 27.0111 18.5451 28.1632 18.5451H38.8706L45.0488 23.7698V18.5451H48.584C49.7248 18.5451 50.6623 17.6157 50.6623 16.4597V3.07499C50.6736 1.93032 49.7474 1.00098 48.5953 1.00098Z" fill="#FED402"/>
<path d="M235.624 1.00098H215.192C214.051 1.00098 213.113 1.93032 213.113 3.08632V16.4597C213.113 17.6044 214.039 18.5451 215.192 18.5451H225.899L232.077 23.7698V18.5451H235.612C236.753 18.5451 237.691 17.6157 237.691 16.4597V3.07499C237.702 1.93032 236.776 1.00098 235.624 1.00098Z" fill="#FED402"/>
<path d="M48.5953 150.196H28.1632C27.0224 150.196 26.085 151.126 26.085 152.282V165.655C26.085 166.8 27.0111 167.74 28.1632 167.74H38.8706L45.0488 172.965V167.74H48.584C49.7248 167.74 50.6623 166.811 50.6623 165.655V152.27C50.6736 151.126 49.7474 150.196 48.5953 150.196Z" fill="#FED402"/>
<path d="M235.624 150.196H215.192C214.051 150.196 213.113 151.126 213.113 152.282V165.655C213.113 166.8 214.039 167.74 215.192 167.74H225.899L232.077 172.965V167.74H235.612C236.753 167.74 237.691 166.811 237.691 165.655V152.27C237.702 151.126 236.776 150.196 235.624 150.196Z" fill="#FED402"/>
<path d="M48.5953 100.465H28.1632C27.0224 100.465 26.085 101.394 26.085 102.55V115.924C26.085 117.068 27.0111 118.009 28.1632 118.009H38.8706L45.0488 123.234V118.009H48.584C49.7248 118.009 50.6623 117.08 50.6623 115.924V102.539C50.6736 101.394 49.7474 100.465 48.5953 100.465Z" fill="#FED402"/>
<path d="M235.624 100.465H215.192C214.051 100.465 213.113 101.394 213.113 102.55V115.924C213.113 117.068 214.039 118.009 215.192 118.009H225.899L232.077 123.234V118.009H235.612C236.753 118.009 237.691 117.08 237.691 115.924V102.539C237.702 101.394 236.776 100.465 235.624 100.465Z" fill="#FED402"/>
<path d="M48.5953 249.66H28.1632C27.0224 249.66 26.085 250.589 26.085 251.746V265.119C26.085 266.264 27.0111 267.204 28.1632 267.204H38.8706L45.0488 272.429V267.204H48.584C49.7248 267.204 50.6623 266.275 50.6623 265.119V251.734C50.6736 250.589 49.7474 249.66 48.5953 249.66Z" fill="#FED402"/>
<path d="M235.624 249.66H215.192C214.051 249.66 213.113 250.589 213.113 251.746V265.119C213.113 266.264 214.039 267.204 215.192 267.204H225.899L232.077 272.429V267.204H235.612C236.753 267.204 237.691 266.275 237.691 265.119V251.734C237.702 250.589 236.776 249.66 235.624 249.66Z" fill="#FED402"/>
<path d="M79.7672 1.00098H59.3351C58.1943 1.00098 57.2568 1.93032 57.2568 3.08632V16.4597C57.2568 17.6044 58.183 18.5451 59.3351 18.5451H70.0425L76.2207 23.7698V18.5451H79.7559C80.8967 18.5451 81.8342 17.6157 81.8342 16.4597V3.07499C81.8454 1.93032 80.9193 1.00098 79.7672 1.00098Z" fill="#FED402"/>
<path d="M266.797 1.00098H246.364C245.224 1.00098 244.286 1.93032 244.286 3.08632V16.4597C244.286 17.6044 245.212 18.5451 246.364 18.5451H257.072L263.25 23.7698V18.5451H266.785C267.926 18.5451 268.863 17.6157 268.863 16.4597V3.07499C268.875 1.93032 267.949 1.00098 266.797 1.00098Z" fill="#FED402"/>
<path d="M79.7672 150.196H59.3351C58.1943 150.196 57.2568 151.126 57.2568 152.282V165.655C57.2568 166.8 58.183 167.74 59.3351 167.74H70.0425L76.2207 172.965V167.74H79.7559C80.8967 167.74 81.8342 166.811 81.8342 165.655V152.27C81.8454 151.126 80.9193 150.196 79.7672 150.196Z" fill="#FED402"/>
<path d="M266.797 150.196H246.364C245.224 150.196 244.286 151.126 244.286 152.282V165.655C244.286 166.8 245.212 167.74 246.364 167.74H257.072L263.25 172.965V167.74H266.785C267.926 167.74 268.863 166.811 268.863 165.655V152.27C268.875 151.126 267.949 150.196 266.797 150.196Z" fill="#FED402"/>
<path d="M79.7672 100.465H59.3351C58.1943 100.465 57.2568 101.394 57.2568 102.55V115.924C57.2568 117.068 58.183 118.009 59.3351 118.009H70.0425L76.2207 123.234V118.009H79.7559C80.8967 118.009 81.8342 117.08 81.8342 115.924V102.539C81.8454 101.394 80.9193 100.465 79.7672 100.465Z" fill="#FED402"/>
<path d="M266.797 100.465H246.364C245.224 100.465 244.286 101.394 244.286 102.55V115.924C244.286 117.068 245.212 118.009 246.364 118.009H257.072L263.25 123.234V118.009H266.785C267.926 118.009 268.863 117.08 268.863 115.924V102.539C268.875 101.394 267.949 100.465 266.797 100.465Z" fill="#FED402"/>
<path d="M79.7672 249.66H59.3351C58.1943 249.66 57.2568 250.589 57.2568 251.746V265.119C57.2568 266.264 58.183 267.204 59.3351 267.204H70.0425L76.2207 272.429V267.204H79.7559C80.8967 267.204 81.8342 266.275 81.8342 265.119V251.734C81.8454 250.589 80.9193 249.66 79.7672 249.66Z" fill="#FED402"/>
<path d="M266.797 249.66H246.364C245.224 249.66 244.286 250.589 244.286 251.746V265.119C244.286 266.264 245.212 267.204 246.364 267.204H257.072L263.25 272.429V267.204H266.785C267.926 267.204 268.863 266.275 268.863 265.119V251.734C268.875 250.589 267.949 249.66 266.797 249.66Z" fill="#FED402"/>
<path d="M110.939 1.00098H90.5069C89.3662 1.00098 88.4287 1.93032 88.4287 3.08632V16.4597C88.4287 17.6044 89.3549 18.5451 90.5069 18.5451H101.214L107.393 23.7698V18.5451H110.928C112.069 18.5451 113.006 17.6157 113.006 16.4597V3.07499C113.017 1.93032 112.091 1.00098 110.939 1.00098Z" fill="#FED402"/>
<path d="M297.967 1.00098H277.535C276.394 1.00098 275.457 1.93032 275.457 3.08632V16.4597C275.457 17.6044 276.383 18.5451 277.535 18.5451H288.243L294.421 23.7698V18.5451H297.956C299.097 18.5451 300.034 17.6157 300.034 16.4597V3.07499C300.046 1.93032 299.119 1.00098 297.967 1.00098Z" fill="#FED402"/>
<path d="M110.939 150.196H90.5069C89.3662 150.196 88.4287 151.126 88.4287 152.282V165.655C88.4287 166.8 89.3549 167.74 90.5069 167.74H101.214L107.393 172.965V167.74H110.928C112.069 167.74 113.006 166.811 113.006 165.655V152.27C113.017 151.126 112.091 150.196 110.939 150.196Z" fill="#FED402"/>
<path d="M297.967 150.196H277.535C276.394 150.196 275.457 151.126 275.457 152.282V165.655C275.457 166.8 276.383 167.74 277.535 167.74H288.243L294.421 172.965V167.74H297.956C299.097 167.74 300.034 166.811 300.034 165.655V152.27C300.046 151.126 299.119 150.196 297.967 150.196Z" fill="#FED402"/>
<path d="M110.939 100.465H90.5069C89.3662 100.465 88.4287 101.394 88.4287 102.55V115.924C88.4287 117.068 89.3549 118.009 90.5069 118.009H101.214L107.393 123.234V118.009H110.928C112.069 118.009 113.006 117.08 113.006 115.924V102.539C113.017 101.394 112.091 100.465 110.939 100.465Z" fill="#FED402"/>
<path d="M297.967 100.465H277.535C276.394 100.465 275.457 101.394 275.457 102.55V115.924C275.457 117.068 276.383 118.009 277.535 118.009H288.243L294.421 123.234V118.009H297.956C299.097 118.009 300.034 117.08 300.034 115.924V102.539C300.046 101.394 299.119 100.465 297.967 100.465Z" fill="#FED402"/>
<path d="M110.939 249.66H90.5069C89.3662 249.66 88.4287 250.589 88.4287 251.746V265.119C88.4287 266.264 89.3549 267.204 90.5069 267.204H101.214L107.393 272.429V267.204H110.928C112.069 267.204 113.006 266.275 113.006 265.119V251.734C113.017 250.589 112.091 249.66 110.939 249.66Z" fill="#FED402"/>
<path d="M297.967 249.66H277.535C276.394 249.66 275.457 250.589 275.457 251.746V265.119C275.457 266.264 276.383 267.204 277.535 267.204H288.243L294.421 272.429V267.204H297.956C299.097 267.204 300.034 266.275 300.034 265.119V251.734C300.046 250.589 299.119 249.66 297.967 249.66Z" fill="#FED402"/>
<path d="M142.11 1.00098H121.678C120.537 1.00098 119.6 1.93032 119.6 3.08632V16.4597C119.6 17.6044 120.526 18.5451 121.678 18.5451H132.385L138.563 23.7698V18.5451H142.099C143.239 18.5451 144.177 17.6157 144.177 16.4597V3.07499C144.188 1.93032 143.262 1.00098 142.11 1.00098Z" fill="#FED402"/>
<path d="M142.11 150.196H121.678C120.537 150.196 119.6 151.126 119.6 152.282V165.655C119.6 166.8 120.526 167.74 121.678 167.74H132.385L138.563 172.965V167.74H142.099C143.239 167.74 144.177 166.811 144.177 165.655V152.27C144.188 151.126 143.262 150.196 142.11 150.196Z" fill="#FED402"/>
<path d="M142.11 100.465H121.678C120.537 100.465 119.6 101.394 119.6 102.55V115.924C119.6 117.068 120.526 118.009 121.678 118.009H132.385L138.563 123.234V118.009H142.099C143.239 118.009 144.177 117.08 144.177 115.924V102.539C144.188 101.394 143.262 100.465 142.11 100.465Z" fill="#FED402"/>
<path d="M142.11 249.66H121.678C120.537 249.66 119.6 250.589 119.6 251.746V265.119C119.6 266.264 120.526 267.204 121.678 267.204H132.385L138.563 272.429V267.204H142.099C143.239 267.204 144.177 266.275 144.177 265.119V251.734C144.188 250.589 143.262 249.66 142.11 249.66Z" fill="#FED402"/>
<path d="M173.281 1.00098H152.849C151.708 1.00098 150.771 1.93032 150.771 3.08632V16.4597C150.771 17.6044 151.697 18.5451 152.849 18.5451H163.556L169.734 23.7698V18.5451H173.27C174.41 18.5451 175.348 17.6157 175.348 16.4597V3.07499C175.359 1.93032 174.433 1.00098 173.281 1.00098Z" fill="#FED402"/>
<path d="M173.281 150.196H152.849C151.708 150.196 150.771 151.126 150.771 152.282V165.655C150.771 166.8 151.697 167.74 152.849 167.74H163.556L169.734 172.965V167.74H173.27C174.41 167.74 175.348 166.811 175.348 165.655V152.27C175.359 151.126 174.433 150.196 173.281 150.196Z" fill="#FED402"/>
<path d="M173.281 100.465H152.849C151.708 100.465 150.771 101.394 150.771 102.55V115.924C150.771 117.068 151.697 118.009 152.849 118.009H163.556L169.734 123.234V118.009H173.27C174.41 118.009 175.348 117.08 175.348 115.924V102.539C175.359 101.394 174.433 100.465 173.281 100.465Z" fill="#FED402"/>
<path d="M173.281 249.66H152.849C151.708 249.66 150.771 250.589 150.771 251.746V265.119C150.771 266.264 151.697 267.204 152.849 267.204H163.556L169.734 272.429V267.204H173.27C174.41 267.204 175.348 266.275 175.348 265.119V251.734C175.359 250.589 174.433 249.66 173.281 249.66Z" fill="#FED402"/>
<path d="M-3.01819 95.0723L17.414 95.0723C18.5547 95.0723 19.4922 94.1429 19.4922 92.9869L19.4922 79.6135C19.4922 78.4688 18.566 77.5282 17.414 77.5282L6.70657 77.5282L0.528354 72.3035L0.528353 77.5282L-3.0069 77.5282C-4.14766 77.5282 -5.08512 78.4575 -5.08512 79.6135L-5.08513 92.9982C-5.09642 94.1429 -4.17025 95.0723 -3.01819 95.0723Z" stroke="#FED402"/>
<path d="M184.01 95.0723L204.442 95.0723C205.583 95.0723 206.521 94.1429 206.521 92.9869L206.521 79.6135C206.521 78.4688 205.594 77.5282 204.442 77.5282L193.735 77.5282L187.557 72.3035L187.557 77.5282L184.021 77.5282C182.881 77.5282 181.943 78.4575 181.943 79.6135L181.943 92.9982C181.932 94.1429 182.858 95.0723 184.01 95.0723Z" stroke="#FED402"/>
<path d="M-3.01819 244.268L17.414 244.268C18.5547 244.268 19.4922 243.338 19.4922 242.182L19.4922 228.809C19.4922 227.664 18.566 226.723 17.414 226.723L6.70657 226.723L0.528354 221.499L0.528353 226.723L-3.0069 226.723C-4.14766 226.723 -5.08512 227.653 -5.08512 228.809L-5.08513 242.194C-5.09642 243.338 -4.17025 244.268 -3.01819 244.268Z" stroke="#FED402"/>
<path d="M184.01 244.268L204.442 244.268C205.583 244.268 206.521 243.338 206.521 242.182L206.521 228.809C206.521 227.664 205.594 226.723 204.442 226.723L193.735 226.723L187.557 221.499L187.557 226.723L184.021 226.723C182.881 226.723 181.943 227.653 181.943 228.809L181.943 242.194C181.932 243.338 182.858 244.268 184.01 244.268Z" stroke="#FED402"/>
<path d="M28.1527 95.0723L48.5849 95.0723C49.7256 95.0723 50.6631 94.1429 50.6631 92.9869L50.6631 79.6135C50.6631 78.4688 49.7369 77.5282 48.5849 77.5282L37.8775 77.5282L31.6993 72.3035L31.6993 77.5282L28.164 77.5282C27.0232 77.5282 26.0858 78.4575 26.0858 79.6135L26.0858 92.9982C26.0745 94.1429 27.0006 95.0723 28.1527 95.0723Z" stroke="#FED402"/>
<path d="M215.181 95.0723L235.613 95.0723C236.754 95.0723 237.691 94.1429 237.691 92.9869L237.691 79.6135C237.691 78.4688 236.765 77.5282 235.613 77.5282L224.906 77.5282L218.728 72.3035L218.728 77.5282L215.192 77.5282C214.052 77.5282 213.114 78.4575 213.114 79.6135L213.114 92.9982C213.103 94.1429 214.029 95.0723 215.181 95.0723Z" stroke="#FED402"/>
<path d="M28.1527 244.268L48.5849 244.268C49.7256 244.268 50.6631 243.338 50.6631 242.182L50.6631 228.809C50.6631 227.664 49.7369 226.723 48.5849 226.723L37.8775 226.723L31.6993 221.499L31.6993 226.723L28.164 226.723C27.0232 226.723 26.0858 227.653 26.0858 228.809L26.0858 242.194C26.0745 243.338 27.0006 244.268 28.1527 244.268Z" stroke="#FED402"/>
<path d="M215.181 244.268L235.613 244.268C236.754 244.268 237.691 243.338 237.691 242.182L237.691 228.809C237.691 227.664 236.765 226.723 235.613 226.723L224.906 226.723L218.728 221.499L218.728 226.723L215.192 226.723C214.052 226.723 213.114 227.653 213.114 228.809L213.114 242.194C213.103 243.338 214.029 244.268 215.181 244.268Z" stroke="#FED402"/>
<path d="M59.3246 95.0723L79.7567 95.0723C80.8975 95.0723 81.835 94.1429 81.835 92.9869L81.835 79.6135C81.835 78.4688 80.9088 77.5282 79.7567 77.5282L69.0493 77.5282L62.8711 72.3035L62.8711 77.5282L59.3359 77.5282C58.1951 77.5282 57.2576 78.4575 57.2576 79.6135L57.2576 92.9982C57.2464 94.1429 58.1725 95.0723 59.3246 95.0723Z" stroke="#FED402"/>
<path d="M246.353 95.0723L266.785 95.0723C267.926 95.0723 268.863 94.1429 268.863 92.9869L268.863 79.6135C268.863 78.4688 267.937 77.5282 266.785 77.5282L256.078 77.5282L249.899 72.3035L249.899 77.5282L246.364 77.5282C245.223 77.5282 244.286 78.4575 244.286 79.6135L244.286 92.9982C244.275 94.1429 245.201 95.0723 246.353 95.0723Z" stroke="#FED402"/>
<path d="M59.3246 244.268L79.7567 244.268C80.8975 244.268 81.835 243.338 81.835 242.182L81.835 228.809C81.835 227.664 80.9088 226.723 79.7567 226.723L69.0493 226.723L62.8711 221.499L62.8711 226.723L59.3359 226.723C58.1951 226.723 57.2576 227.653 57.2576 228.809L57.2576 242.194C57.2464 243.338 58.1725 244.268 59.3246 244.268Z" stroke="#FED402"/>
<path d="M246.353 244.268L266.785 244.268C267.926 244.268 268.863 243.338 268.863 242.182L268.863 228.809C268.863 227.664 267.937 226.723 266.785 226.723L256.078 226.723L249.899 221.499L249.899 226.723L246.364 226.723C245.223 226.723 244.286 227.653 244.286 228.809L244.286 242.194C244.275 243.338 245.201 244.268 246.353 244.268Z" stroke="#FED402"/>
<path d="M90.4955 95.0723L110.928 95.0723C112.068 95.0723 113.006 94.1429 113.006 92.9869L113.006 79.6135C113.006 78.4688 112.08 77.5282 110.928 77.5282L100.22 77.5282L94.042 72.3035L94.042 77.5282L90.5068 77.5282C89.366 77.5282 88.4285 78.4575 88.4285 79.6135L88.4285 92.9982C88.4173 94.1429 89.3434 95.0723 90.4955 95.0723Z" stroke="#FED402"/>
<path d="M277.524 95.0723L297.956 95.0723C299.097 95.0723 300.034 94.1429 300.034 92.9869L300.034 79.6135C300.034 78.4688 299.108 77.5282 297.956 77.5282L287.249 77.5282L281.07 72.3035L281.07 77.5282L277.535 77.5282C276.394 77.5282 275.457 78.4575 275.457 79.6135L275.457 92.9982C275.446 94.1429 276.372 95.0723 277.524 95.0723Z" stroke="#FED402"/>
<path d="M90.4955 244.268L110.928 244.268C112.068 244.268 113.006 243.338 113.006 242.182L113.006 228.809C113.006 227.664 112.08 226.723 110.928 226.723L100.22 226.723L94.042 221.499L94.042 226.723L90.5068 226.723C89.366 226.723 88.4285 227.653 88.4285 228.809L88.4285 242.194C88.4173 243.338 89.3434 244.268 90.4955 244.268Z" stroke="#FED402"/>
<path d="M277.524 244.268L297.956 244.268C299.097 244.268 300.034 243.338 300.034 242.182L300.034 228.809C300.034 227.664 299.108 226.723 297.956 226.723L287.249 226.723L281.07 221.499L281.07 226.723L277.535 226.723C276.394 226.723 275.457 227.653 275.457 228.809L275.457 242.194C275.446 243.338 276.372 244.268 277.524 244.268Z" stroke="#FED402"/>
<path d="M121.667 95.0723L142.1 95.0723C143.24 95.0723 144.178 94.1429 144.178 92.9869L144.178 79.6135C144.178 78.4688 143.252 77.5282 142.1 77.5282L131.392 77.5282L125.214 72.3035L125.214 77.5282L121.679 77.5282C120.538 77.5282 119.6 78.4575 119.6 79.6135L119.6 92.9982C119.589 94.1429 120.515 95.0723 121.667 95.0723Z" stroke="#FED402"/>
<path d="M121.667 244.268L142.1 244.268C143.24 244.268 144.178 243.338 144.178 242.182L144.178 228.809C144.178 227.664 143.252 226.723 142.1 226.723L131.392 226.723L125.214 221.499L125.214 226.723L121.679 226.723C120.538 226.723 119.6 227.653 119.6 228.809L119.6 242.194C119.589 243.338 120.515 244.268 121.667 244.268Z" stroke="#FED402"/>
<path d="M152.838 95.0723L173.27 95.0723C174.411 95.0723 175.349 94.1429 175.349 92.9869L175.349 79.6135C175.349 78.4688 174.422 77.5282 173.27 77.5282L162.563 77.5282L156.385 72.3035L156.385 77.5282L152.85 77.5282C151.709 77.5282 150.771 78.4575 150.771 79.6135L150.771 92.9982C150.76 94.1429 151.686 95.0723 152.838 95.0723Z" stroke="#FED402"/>
<path d="M152.838 244.268L173.27 244.268C174.411 244.268 175.349 243.338 175.349 242.182L175.349 228.809C175.349 227.664 174.422 226.723 173.27 226.723L162.563 226.723L156.385 221.499L156.385 226.723L152.85 226.723C151.709 226.723 150.771 227.653 150.771 228.809L150.771 242.194C150.76 243.338 151.686 244.268 152.838 244.268Z" stroke="#FED402"/>
<path d="M-3.01819 45.3408L17.414 45.3408C18.5547 45.3408 19.4922 44.4115 19.4922 43.2555L19.4922 29.8821C19.4922 28.7374 18.566 27.7967 17.414 27.7967L6.70657 27.7967L0.528354 22.572L0.528353 27.7967L-3.0069 27.7967C-4.14766 27.7967 -5.08512 28.726 -5.08512 29.8821L-5.08513 43.2668C-5.09642 44.4115 -4.17025 45.3408 -3.01819 45.3408Z" stroke="#FED402"/>
<path d="M184.01 45.3408L204.442 45.3408C205.583 45.3408 206.521 44.4115 206.521 43.2555L206.521 29.8821C206.521 28.7374 205.594 27.7967 204.442 27.7967L193.735 27.7967L187.557 22.572L187.557 27.7967L184.021 27.7967C182.881 27.7967 181.943 28.726 181.943 29.8821L181.943 43.2668C181.932 44.4115 182.858 45.3408 184.01 45.3408Z" stroke="#FED402"/>
<path d="M-3.01819 194.536L17.414 194.536C18.5547 194.536 19.4922 193.607 19.4922 192.451L19.4922 179.077C19.4922 177.933 18.566 176.992 17.414 176.992L6.70657 176.992L0.528354 171.767L0.528353 176.992L-3.0069 176.992C-4.14766 176.992 -5.08512 177.921 -5.08512 179.077L-5.08513 192.462C-5.09642 193.607 -4.17025 194.536 -3.01819 194.536Z" stroke="#FED402"/>
<path d="M184.01 194.536L204.442 194.536C205.583 194.536 206.521 193.607 206.521 192.451L206.521 179.077C206.521 177.933 205.594 176.992 204.442 176.992L193.735 176.992L187.557 171.767L187.557 176.992L184.021 176.992C182.881 176.992 181.943 177.921 181.943 179.077L181.943 192.462C181.932 193.607 182.858 194.536 184.01 194.536Z" stroke="#FED402"/>
<path d="M-3.01819 144.804L17.414 144.804C18.5547 144.804 19.4922 143.874 19.4922 142.718L19.4922 129.345C19.4922 128.2 18.566 127.26 17.414 127.26L6.70657 127.26L0.528354 122.035L0.528353 127.26L-3.0069 127.26C-4.14766 127.26 -5.08512 128.189 -5.08512 129.345L-5.08513 142.73C-5.09642 143.874 -4.17025 144.804 -3.01819 144.804Z" stroke="#FED402"/>
<path d="M184.01 144.804L204.442 144.804C205.583 144.804 206.521 143.874 206.521 142.718L206.521 129.345C206.521 128.2 205.594 127.26 204.442 127.26L193.735 127.26L187.557 122.035L187.557 127.26L184.021 127.26C182.881 127.26 181.943 128.189 181.943 129.345L181.943 142.73C181.932 143.874 182.858 144.804 184.01 144.804Z" stroke="#FED402"/>
<path d="M-3.01819 294L17.414 294C18.5547 294 19.4922 293.071 19.4922 291.915L19.4922 278.541C19.4922 277.397 18.566 276.456 17.414 276.456L6.70657 276.456L0.528354 271.231L0.528353 276.456L-3.0069 276.456C-4.14766 276.456 -5.08512 277.385 -5.08512 278.541L-5.08513 291.926C-5.09642 293.071 -4.17025 294 -3.01819 294Z" stroke="#FED402"/>
<path d="M184.01 294L204.442 294C205.583 294 206.521 293.071 206.521 291.915L206.521 278.541C206.521 277.397 205.594 276.456 204.442 276.456L193.735 276.456L187.557 271.231L187.557 276.456L184.021 276.456C182.881 276.456 181.943 277.385 181.943 278.541L181.943 291.926C181.932 293.071 182.858 294 184.01 294Z" stroke="#FED402"/>
<path d="M28.1527 45.3408L48.5849 45.3408C49.7256 45.3408 50.6631 44.4115 50.6631 43.2555L50.6631 29.8821C50.6631 28.7374 49.7369 27.7967 48.5849 27.7967L37.8775 27.7967L31.6993 22.572L31.6993 27.7967L28.164 27.7967C27.0232 27.7967 26.0858 28.726 26.0858 29.8821L26.0858 43.2668C26.0745 44.4115 27.0006 45.3408 28.1527 45.3408Z" stroke="#FED402"/>
<path d="M215.181 45.3398L235.613 45.3398C236.754 45.3398 237.691 44.4105 237.691 43.2545L237.691 29.8811C237.691 28.7364 236.765 27.7957 235.613 27.7957L224.906 27.7957L218.728 22.571L218.728 27.7957L215.192 27.7957C214.052 27.7957 213.114 28.7251 213.114 29.8811L213.114 43.2658C213.103 44.4105 214.029 45.3398 215.181 45.3398Z" stroke="#FED402"/>
<path d="M28.1527 194.536L48.5849 194.536C49.7256 194.536 50.6631 193.607 50.6631 192.451L50.6631 179.077C50.6631 177.933 49.7369 176.992 48.5849 176.992L37.8775 176.992L31.6993 171.767L31.6993 176.992L28.164 176.992C27.0232 176.992 26.0858 177.921 26.0858 179.077L26.0858 192.462C26.0745 193.607 27.0006 194.536 28.1527 194.536Z" stroke="#FED402"/>
<path d="M215.181 194.536L235.613 194.536C236.754 194.536 237.691 193.607 237.691 192.451L237.691 179.077C237.691 177.933 236.765 176.992 235.613 176.992L224.906 176.992L218.728 171.767L218.728 176.992L215.192 176.992C214.052 176.992 213.114 177.921 213.114 179.077L213.114 192.462C213.103 193.607 214.029 194.536 215.181 194.536Z" stroke="#FED402"/>
<path d="M28.1527 144.804L48.5849 144.804C49.7256 144.804 50.6631 143.874 50.6631 142.718L50.6631 129.345C50.6631 128.2 49.7369 127.26 48.5849 127.26L37.8775 127.26L31.6993 122.035L31.6993 127.26L28.164 127.26C27.0232 127.26 26.0858 128.189 26.0858 129.345L26.0858 142.73C26.0745 143.874 27.0006 144.804 28.1527 144.804Z" stroke="#FED402"/>
<path d="M215.181 144.804L235.613 144.804C236.754 144.804 237.691 143.874 237.691 142.718L237.691 129.345C237.691 128.2 236.765 127.26 235.613 127.26L224.906 127.26L218.728 122.035L218.728 127.26L215.192 127.26C214.052 127.26 213.114 128.189 213.114 129.345L213.114 142.73C213.103 143.874 214.029 144.804 215.181 144.804Z" stroke="#FED402"/>
<path d="M28.1527 294L48.5849 294C49.7256 294 50.6631 293.071 50.6631 291.915L50.6631 278.541C50.6631 277.397 49.7369 276.456 48.5849 276.456L37.8775 276.456L31.6993 271.231L31.6993 276.456L28.164 276.456C27.0232 276.456 26.0858 277.385 26.0858 278.541L26.0858 291.926C26.0745 293.071 27.0006 294 28.1527 294Z" stroke="#FED402"/>
<path d="M215.181 294L235.613 294C236.754 294 237.691 293.071 237.691 291.915L237.691 278.541C237.691 277.397 236.765 276.456 235.613 276.456L224.906 276.456L218.728 271.231L218.728 276.456L215.192 276.456C214.052 276.456 213.114 277.385 213.114 278.541L213.114 291.926C213.103 293.071 214.029 294 215.181 294Z" stroke="#FED402"/>
<path d="M59.3246 45.3408L79.7567 45.3408C80.8975 45.3408 81.835 44.4115 81.835 43.2555L81.835 29.8821C81.835 28.7374 80.9088 27.7967 79.7567 27.7967L69.0493 27.7967L62.8711 22.572L62.8711 27.7967L59.3359 27.7967C58.1951 27.7967 57.2576 28.726 57.2576 29.8821L57.2576 43.2668C57.2464 44.4115 58.1725 45.3408 59.3246 45.3408Z" stroke="#FED402"/>
<path d="M246.353 45.3408L266.785 45.3408C267.926 45.3408 268.863 44.4115 268.863 43.2555L268.863 29.8821C268.863 28.7374 267.937 27.7967 266.785 27.7967L256.078 27.7967L249.899 22.572L249.899 27.7967L246.364 27.7967C245.223 27.7967 244.286 28.726 244.286 29.8821L244.286 43.2668C244.275 44.4115 245.201 45.3408 246.353 45.3408Z" stroke="#FED402"/>
<path d="M59.3246 194.536L79.7567 194.536C80.8975 194.536 81.835 193.607 81.835 192.451L81.835 179.077C81.835 177.933 80.9088 176.992 79.7567 176.992L69.0493 176.992L62.8711 171.767L62.8711 176.992L59.3359 176.992C58.1951 176.992 57.2576 177.921 57.2576 179.077L57.2576 192.462C57.2464 193.607 58.1725 194.536 59.3246 194.536Z" stroke="#FED402"/>
<path d="M246.353 194.536L266.785 194.536C267.926 194.536 268.863 193.607 268.863 192.451L268.863 179.077C268.863 177.933 267.937 176.992 266.785 176.992L256.078 176.992L249.899 171.767L249.899 176.992L246.364 176.992C245.223 176.992 244.286 177.921 244.286 179.077L244.286 192.462C244.275 193.607 245.201 194.536 246.353 194.536Z" stroke="#FED402"/>
<path d="M59.3246 144.804L79.7567 144.804C80.8975 144.804 81.835 143.874 81.835 142.718L81.835 129.345C81.835 128.2 80.9088 127.26 79.7567 127.26L69.0493 127.26L62.8711 122.035L62.8711 127.26L59.3359 127.26C58.1951 127.26 57.2576 128.189 57.2576 129.345L57.2576 142.73C57.2464 143.874 58.1725 144.804 59.3246 144.804Z" stroke="#FED402"/>
<path d="M246.353 144.804L266.785 144.804C267.926 144.804 268.863 143.874 268.863 142.718L268.863 129.345C268.863 128.2 267.937 127.26 266.785 127.26L256.078 127.26L249.899 122.035L249.899 127.26L246.364 127.26C245.223 127.26 244.286 128.189 244.286 129.345L244.286 142.73C244.275 143.874 245.201 144.804 246.353 144.804Z" stroke="#FED402"/>
<path d="M59.3246 294L79.7567 294C80.8975 294 81.835 293.071 81.835 291.915L81.835 278.541C81.835 277.397 80.9088 276.456 79.7567 276.456L69.0493 276.456L62.8711 271.231L62.8711 276.456L59.3359 276.456C58.1951 276.456 57.2576 277.385 57.2576 278.541L57.2576 291.926C57.2464 293.071 58.1725 294 59.3246 294Z" stroke="#FED402"/>
<path d="M246.353 294L266.785 294C267.926 294 268.863 293.071 268.863 291.915L268.863 278.541C268.863 277.397 267.937 276.456 266.785 276.456L256.078 276.456L249.899 271.231L249.899 276.456L246.364 276.456C245.223 276.456 244.286 277.385 244.286 278.541L244.286 291.926C244.275 293.071 245.201 294 246.353 294Z" stroke="#FED402"/>
<path d="M90.4955 45.3408L110.928 45.3408C112.068 45.3408 113.006 44.4115 113.006 43.2555L113.006 29.8821C113.006 28.7374 112.08 27.7967 110.928 27.7967L100.22 27.7967L94.042 22.572L94.042 27.7967L90.5068 27.7967C89.366 27.7967 88.4285 28.726 88.4285 29.8821L88.4285 43.2668C88.4173 44.4115 89.3434 45.3408 90.4955 45.3408Z" stroke="#FED402"/>
<path d="M277.524 45.3408L297.956 45.3408C299.097 45.3408 300.034 44.4115 300.034 43.2555L300.034 29.8821C300.034 28.7374 299.108 27.7967 297.956 27.7967L287.249 27.7967L281.07 22.572L281.07 27.7967L277.535 27.7967C276.394 27.7967 275.457 28.726 275.457 29.8821L275.457 43.2668C275.446 44.4115 276.372 45.3408 277.524 45.3408Z" stroke="#FED402"/>
<path d="M90.4955 194.536L110.928 194.536C112.068 194.536 113.006 193.607 113.006 192.451L113.006 179.077C113.006 177.933 112.08 176.992 110.928 176.992L100.22 176.992L94.042 171.767L94.042 176.992L90.5068 176.992C89.366 176.992 88.4285 177.921 88.4285 179.077L88.4285 192.462C88.4173 193.607 89.3434 194.536 90.4955 194.536Z" stroke="#FED402"/>
<path d="M277.524 194.536L297.956 194.536C299.097 194.536 300.034 193.607 300.034 192.451L300.034 179.077C300.034 177.933 299.108 176.992 297.956 176.992L287.249 176.992L281.07 171.767L281.07 176.992L277.535 176.992C276.394 176.992 275.457 177.921 275.457 179.077L275.457 192.462C275.446 193.607 276.372 194.536 277.524 194.536Z" stroke="#FED402"/>
<path d="M90.4955 144.804L110.928 144.804C112.068 144.804 113.006 143.874 113.006 142.718L113.006 129.345C113.006 128.2 112.08 127.26 110.928 127.26L100.22 127.26L94.042 122.035L94.042 127.26L90.5068 127.26C89.366 127.26 88.4285 128.189 88.4285 129.345L88.4285 142.73C88.4173 143.874 89.3434 144.804 90.4955 144.804Z" stroke="#FED402"/>
<path d="M277.524 144.804L297.956 144.804C299.097 144.804 300.034 143.874 300.034 142.718L300.034 129.345C300.034 128.2 299.108 127.26 297.956 127.26L287.249 127.26L281.07 122.035L281.07 127.26L277.535 127.26C276.394 127.26 275.457 128.189 275.457 129.345L275.457 142.73C275.446 143.874 276.372 144.804 277.524 144.804Z" stroke="#FED402"/>
<path d="M90.4955 294L110.928 294C112.068 294 113.006 293.071 113.006 291.915L113.006 278.541C113.006 277.397 112.08 276.456 110.928 276.456L100.22 276.456L94.042 271.231L94.042 276.456L90.5068 276.456C89.366 276.456 88.4285 277.385 88.4285 278.541L88.4285 291.926C88.4173 293.071 89.3434 294 90.4955 294Z" stroke="#FED402"/>
<path d="M277.524 294L297.956 294C299.097 294 300.034 293.071 300.034 291.915L300.034 278.541C300.034 277.397 299.108 276.456 297.956 276.456L287.249 276.456L281.07 271.231L281.07 276.456L277.535 276.456C276.394 276.456 275.457 277.385 275.457 278.541L275.457 291.926C275.446 293.071 276.372 294 277.524 294Z" stroke="#FED402"/>
<path d="M121.667 45.3408L142.1 45.3408C143.24 45.3408 144.178 44.4115 144.178 43.2555L144.178 29.8821C144.178 28.7374 143.252 27.7967 142.1 27.7967L131.392 27.7967L125.214 22.572L125.214 27.7967L121.679 27.7967C120.538 27.7967 119.6 28.726 119.6 29.8821L119.6 43.2668C119.589 44.4115 120.515 45.3408 121.667 45.3408Z" stroke="#FED402"/>
<path d="M121.667 194.536L142.1 194.536C143.24 194.536 144.178 193.607 144.178 192.451L144.178 179.077C144.178 177.933 143.252 176.992 142.1 176.992L131.392 176.992L125.214 171.767L125.214 176.992L121.679 176.992C120.538 176.992 119.6 177.921 119.6 179.077L119.6 192.462C119.589 193.607 120.515 194.536 121.667 194.536Z" stroke="#FED402"/>
<path d="M121.667 144.804L142.1 144.804C143.24 144.804 144.178 143.874 144.178 142.718L144.178 129.345C144.178 128.2 143.252 127.26 142.1 127.26L131.392 127.26L125.214 122.035L125.214 127.26L121.679 127.26C120.538 127.26 119.6 128.189 119.6 129.345L119.6 142.73C119.589 143.874 120.515 144.804 121.667 144.804Z" stroke="#FED402"/>
<path d="M121.667 294L142.1 294C143.24 294 144.178 293.071 144.178 291.915L144.178 278.541C144.178 277.397 143.252 276.456 142.1 276.456L131.392 276.456L125.214 271.231L125.214 276.456L121.679 276.456C120.538 276.456 119.6 277.385 119.6 278.541L119.6 291.926C119.589 293.071 120.515 294 121.667 294Z" stroke="#FED402"/>
<path d="M152.838 45.3408L173.27 45.3408C174.411 45.3408 175.349 44.4115 175.349 43.2555L175.349 29.8821C175.349 28.7374 174.422 27.7967 173.27 27.7967L162.563 27.7967L156.385 22.572L156.385 27.7967L152.85 27.7967C151.709 27.7967 150.771 28.726 150.771 29.8821L150.771 43.2668C150.76 44.4115 151.686 45.3408 152.838 45.3408Z" stroke="#FED402"/>
<path d="M152.838 194.536L173.27 194.536C174.411 194.536 175.349 193.607 175.349 192.451L175.349 179.077C175.349 177.933 174.422 176.992 173.27 176.992L162.563 176.992L156.385 171.767L156.385 176.992L152.85 176.992C151.709 176.992 150.771 177.921 150.771 179.077L150.771 192.462C150.76 193.607 151.686 194.536 152.838 194.536Z" stroke="#FED402"/>
<path d="M152.838 144.804L173.27 144.804C174.411 144.804 175.349 143.874 175.349 142.718L175.349 129.345C175.349 128.2 174.422 127.26 173.27 127.26L162.563 127.26L156.385 122.035L156.385 127.26L152.85 127.26C151.709 127.26 150.771 128.189 150.771 129.345L150.771 142.73C150.76 143.874 151.686 144.804 152.838 144.804Z" stroke="#FED402"/>
<path d="M152.838 294L173.27 294C174.411 294 175.349 293.071 175.349 291.915L175.349 278.541C175.349 277.397 174.422 276.456 173.27 276.456L162.563 276.456L156.385 271.231L156.385 276.456L152.85 276.456C151.709 276.456 150.771 277.385 150.771 278.541L150.771 291.926C150.76 293.071 151.686 294 152.838 294Z" stroke="#FED402"/>
</g>
</g>
<path d="M221.828 370V348.852H259.352C272.337 348.852 282.999 338.252 282.999 325.076V24.656C283.124 11.5967 272.579 1 259.475 1H24.6469C11.6616 1 1 11.5998 1 24.7762V325.076C1 338.121 11.5315 348.852 24.6469 348.852H185.675L220.291 370.844L221.828 371.82V370Z" fill="url(#paint0_linear_2022_2)" stroke="url(#paint1_linear_2022_2)" stroke-width="2"/>
<defs>
<linearGradient id="paint0_linear_2022_2" x1="1.99993" y1="104.455" x2="273.267" y2="260.337" gradientUnits="userSpaceOnUse">
<stop stop-color="#120D0C"/>
<stop offset="1" stop-color="#120D0C" stop-opacity="0"/>
</linearGradient>
<linearGradient id="paint1_linear_2022_2" x1="1.99997" y1="104.455" x2="270.43" y2="260.342" gradientUnits="userSpaceOnUse">
<stop stop-color="#999999" stop-opacity="0.5"/>
<stop offset="1" stop-color="#FED402" stop-opacity="0.5"/>
</linearGradient>
</defs>
</svg>
