<svg width="694" height="391" viewBox="0 0 694 391" fill="none" xmlns="http://www.w3.org/2000/svg" preserveAspectRatio="none">
<mask id="mask0_2001_2" style="mask-type:alpha" maskUnits="userSpaceOnUse" x="2" y="2" width="691" height="385">
<path d="M636.495 2L57.8086 2C27.1745 2 2 26.902 2 57.8777L2 276.786C2 307.458 26.8712 332.663 57.8086 332.663H455.346L541.256 387V332.663H636.191C666.825 332.663 692 307.761 692 276.786V57.574C692.303 26.902 667.432 2 636.495 2Z" fill="#FFD500"/>
</mask>
<g mask="url(#mask0_2001_2)">
<g opacity="0.08">
<path d="M251.552 8H217.467C215.564 8 214 9.55102 214 11.4803V33.7999C214 35.7103 215.545 37.2802 217.467 37.2802H235.329L245.635 46V37.2802H251.533C253.436 37.2802 255 35.7292 255 33.7999V11.4614C255.019 9.55102 253.474 8 251.552 8Z" fill="#FED402"/>
<path d="M563.552 8H529.467C527.564 8 526 9.55102 526 11.4803V33.7999C526 35.7103 527.545 37.2802 529.467 37.2802H547.329L557.635 46V37.2802H563.533C565.436 37.2802 567 35.7292 567 33.7999V11.4614C567.019 9.55102 565.474 8 563.552 8Z" fill="#FED402"/>
<path d="M251.552 257H217.467C215.564 257 214 258.551 214 260.48V282.8C214 284.71 215.545 286.28 217.467 286.28H235.329L245.635 295V286.28H251.533C253.436 286.28 255 284.729 255 282.8V260.461C255.019 258.551 253.474 257 251.552 257Z" fill="#FED402"/>
<path d="M563.552 257H529.467C527.564 257 526 258.551 526 260.48V282.8C526 284.71 527.545 286.28 529.467 286.28H547.329L557.635 295V286.28H563.533C565.436 286.28 567 284.729 567 282.8V260.461C567.019 258.551 565.474 257 563.552 257Z" fill="#FED402"/>
<path d="M303.552 8H269.467C267.564 8 266 9.55102 266 11.4803V33.7999C266 35.7103 267.545 37.2802 269.467 37.2802H287.329L297.635 46V37.2802H303.533C305.436 37.2802 307 35.7292 307 33.7999V11.4614C307.019 9.55102 305.474 8 303.552 8Z" fill="#FED402"/>
<path d="M615.552 8H581.467C579.564 8 578 9.55102 578 11.4803V33.7999C578 35.7103 579.545 37.2802 581.467 37.2802H599.329L609.635 46V37.2802H615.533C617.436 37.2802 619 35.7292 619 33.7999V11.4614C619.019 9.55102 617.474 8 615.552 8Z" fill="#FED402"/>
<path d="M303.552 257H269.467C267.564 257 266 258.551 266 260.48V282.8C266 284.71 267.545 286.28 269.467 286.28H287.329L297.635 295V286.28H303.533C305.436 286.28 307 284.729 307 282.8V260.461C307.019 258.551 305.474 257 303.552 257Z" fill="#FED402"/>
<path d="M615.552 257H581.467C579.564 257 578 258.551 578 260.48V282.8C578 284.71 579.545 286.28 581.467 286.28H599.329L609.635 295V286.28H615.533C617.436 286.28 619 284.729 619 282.8V260.461C619.019 258.551 617.474 257 615.552 257Z" fill="#FED402"/>
<path d="M43.5518 8H9.4669C7.56387 8 6 9.55102 6 11.4803V33.7999C6 35.7103 7.54503 37.2802 9.4669 37.2802H27.329L37.6354 46V37.2802H43.5329C45.436 37.2802 46.9998 35.7292 46.9998 33.7999V11.4614C47.0187 9.55102 45.4736 8 43.5518 8Z" fill="#FED402"/>
<path d="M355.552 8H321.467C319.564 8 318 9.55102 318 11.4803V33.7999C318 35.7103 319.545 37.2802 321.467 37.2802H339.329L349.635 46V37.2802H355.533C357.436 37.2802 359 35.7292 359 33.7999V11.4614C359.019 9.55102 357.474 8 355.552 8Z" fill="#FED402"/>
<path d="M667.552 8H633.467C631.564 8 630 9.55102 630 11.4803V33.7999C630 35.7103 631.545 37.2802 633.467 37.2802H651.329L661.635 46V37.2802H667.533C669.436 37.2802 671 35.7292 671 33.7999V11.4614C671.019 9.55102 669.474 8 667.552 8Z" fill="#FED402"/>
<path d="M43.5518 257H9.4669C7.56387 257 6 258.551 6 260.48V282.8C6 284.71 7.54503 286.28 9.4669 286.28H27.329L37.6354 295V286.28H43.5329C45.436 286.28 46.9998 284.729 46.9998 282.8V260.461C47.0187 258.551 45.4736 257 43.5518 257Z" fill="#FED402"/>
<path d="M355.552 257H321.467C319.564 257 318 258.551 318 260.48V282.8C318 284.71 319.545 286.28 321.467 286.28H339.329L349.635 295V286.28H355.533C357.436 286.28 359 284.729 359 282.8V260.461C359.019 258.551 357.474 257 355.552 257Z" fill="#FED402"/>
<path d="M667.552 257H633.467C631.564 257 630 258.551 630 260.48V282.8C630 284.71 631.545 286.28 633.467 286.28H651.329L661.635 295V286.28H667.533C669.436 286.28 671 284.729 671 282.8V260.461C671.019 258.551 669.474 257 667.552 257Z" fill="#FED402"/>
<path d="M95.5518 8H61.4669C59.5639 8 58 9.55102 58 11.4803V33.7999C58 35.7103 59.545 37.2802 61.4669 37.2802H79.329L89.6354 46V37.2802H95.5329C97.436 37.2802 98.9998 35.7292 98.9998 33.7999V11.4614C99.0187 9.55102 97.4736 8 95.5518 8Z" fill="#FED402"/>
<path d="M407.552 8H373.467C371.564 8 370 9.55102 370 11.4803V33.7999C370 35.7103 371.545 37.2802 373.467 37.2802H391.329L401.635 46V37.2802H407.533C409.436 37.2802 411 35.7292 411 33.7999V11.4614C411.019 9.55102 409.474 8 407.552 8Z" fill="#FED402"/>
<path d="M719.552 8H685.467C683.564 8 682 9.55102 682 11.4803V33.7999C682 35.7103 683.545 37.2802 685.467 37.2802H703.329L713.635 46V37.2802H719.533C721.436 37.2802 723 35.7292 723 33.7999V11.4614C723.019 9.55102 721.474 8 719.552 8Z" fill="#FED402"/>
<path d="M95.5518 257H61.4669C59.5639 257 58 258.551 58 260.48V282.8C58 284.71 59.545 286.28 61.4669 286.28H79.329L89.6354 295V286.28H95.5329C97.436 286.28 98.9998 284.729 98.9998 282.8V260.461C99.0187 258.551 97.4736 257 95.5518 257Z" fill="#FED402"/>
<path d="M407.552 257H373.467C371.564 257 370 258.551 370 260.48V282.8C370 284.71 371.545 286.28 373.467 286.28H391.329L401.635 295V286.28H407.533C409.436 286.28 411 284.729 411 282.8V260.461C411.019 258.551 409.474 257 407.552 257Z" fill="#FED402"/>
<path d="M719.552 257H685.467C683.564 257 682 258.551 682 260.48V282.8C682 284.71 683.545 286.28 685.467 286.28H703.329L713.635 295V286.28H719.533C721.436 286.28 723 284.729 723 282.8V260.461C723.019 258.551 721.474 257 719.552 257Z" fill="#FED402"/>
<path d="M147.552 8H113.467C111.564 8 110 9.55102 110 11.4803V33.7999C110 35.7103 111.545 37.2802 113.467 37.2802H131.329L141.635 46V37.2802H147.533C149.436 37.2802 151 35.7292 151 33.7999V11.4614C151.019 9.55102 149.474 8 147.552 8Z" fill="#FED402"/>
<path d="M459.552 8H425.467C423.564 8 422 9.55102 422 11.4803V33.7999C422 35.7103 423.545 37.2802 425.467 37.2802H443.329L453.635 46V37.2802H459.533C461.436 37.2802 463 35.7292 463 33.7999V11.4614C463.019 9.55102 461.474 8 459.552 8Z" fill="#FED402"/>
<path d="M147.552 257H113.467C111.564 257 110 258.551 110 260.48V282.8C110 284.71 111.545 286.28 113.467 286.28H131.329L141.635 295V286.28H147.533C149.436 286.28 151 284.729 151 282.8V260.461C151.019 258.551 149.474 257 147.552 257Z" fill="#FED402"/>
<path d="M459.552 257H425.467C423.564 257 422 258.551 422 260.48V282.8C422 284.71 423.545 286.28 425.467 286.28H443.329L453.635 295V286.28H459.533C461.436 286.28 463 284.729 463 282.8V260.461C463.019 258.551 461.474 257 459.552 257Z" fill="#FED402"/>
<path d="M199.552 8H165.467C163.564 8 162 9.55102 162 11.4803V33.7999C162 35.7103 163.545 37.2802 165.467 37.2802H183.329L193.635 46V37.2802H199.533C201.436 37.2802 203 35.7292 203 33.7999V11.4614C203.019 9.55102 201.474 8 199.552 8Z" fill="#FED402"/>
<path d="M511.552 8H477.467C475.564 8 474 9.55102 474 11.4803V33.7999C474 35.7103 475.545 37.2802 477.467 37.2802H495.329L505.635 46V37.2802H511.533C513.436 37.2802 515 35.7292 515 33.7999V11.4614C515.019 9.55102 513.474 8 511.552 8Z" fill="#FED402"/>
<path d="M199.552 257H165.467C163.564 257 162 258.551 162 260.48V282.8C162 284.71 163.545 286.28 165.467 286.28H183.329L193.635 295V286.28H199.533C201.436 286.28 203 284.729 203 282.8V260.461C203.019 258.551 201.474 257 199.552 257Z" fill="#FED402"/>
<path d="M511.552 257H477.467C475.564 257 474 258.551 474 260.48V282.8C474 284.71 475.545 286.28 477.467 286.28H495.329L505.635 295V286.28H511.533C513.436 286.28 515 284.729 515 282.8V260.461C515.019 258.551 513.474 257 511.552 257Z" fill="#FED402"/>
<path d="M251.552 174H217.467C215.564 174 214 175.551 214 177.48V199.8C214 201.71 215.545 203.28 217.467 203.28H235.329L245.635 212V203.28H251.533C253.436 203.28 255 201.729 255 199.8V177.461C255.019 175.551 253.474 174 251.552 174Z" fill="#FED402"/>
<path d="M563.552 174H529.467C527.564 174 526 175.551 526 177.48V199.8C526 201.71 527.545 203.28 529.467 203.28H547.329L557.635 212V203.28H563.533C565.436 203.28 567 201.729 567 199.8V177.461C567.019 175.551 565.474 174 563.552 174Z" fill="#FED402"/>
<path d="M251.552 91H217.467C215.564 91 214 92.551 214 94.4803V116.8C214 118.71 215.545 120.28 217.467 120.28H235.329L245.635 129V120.28H251.533C253.436 120.28 255 118.729 255 116.8V94.4614C255.019 92.551 253.474 91 251.552 91Z" fill="#FED402"/>
<path d="M563.552 91H529.467C527.564 91 526 92.551 526 94.4803V116.8C526 118.71 527.545 120.28 529.467 120.28H547.329L557.635 129V120.28H563.533C565.436 120.28 567 118.729 567 116.8V94.4614C567.019 92.551 565.474 91 563.552 91Z" fill="#FED402"/>
<path d="M251.552 340H217.467C215.564 340 214 341.551 214 343.48V365.8C214 367.71 215.545 369.28 217.467 369.28H235.329L245.635 378V369.28H251.533C253.436 369.28 255 367.729 255 365.8V343.461C255.019 341.551 253.474 340 251.552 340Z" fill="#FED402"/>
<path d="M563.552 340H529.467C527.564 340 526 341.551 526 343.48V365.8C526 367.71 527.545 369.28 529.467 369.28H547.329L557.635 378V369.28H563.533C565.436 369.28 567 367.729 567 365.8V343.461C567.019 341.551 565.474 340 563.552 340Z" fill="#FED402"/>
<path d="M303.552 174H269.467C267.564 174 266 175.551 266 177.48V199.8C266 201.71 267.545 203.28 269.467 203.28H287.329L297.635 212V203.28H303.533C305.436 203.28 307 201.729 307 199.8V177.461C307.019 175.551 305.474 174 303.552 174Z" fill="#FED402"/>
<path d="M615.552 174H581.467C579.564 174 578 175.551 578 177.48V199.8C578 201.71 579.545 203.28 581.467 203.28H599.329L609.635 212V203.28H615.533C617.436 203.28 619 201.729 619 199.8V177.461C619.019 175.551 617.474 174 615.552 174Z" fill="#FED402"/>
<path d="M303.552 91H269.467C267.564 91 266 92.551 266 94.4803V116.8C266 118.71 267.545 120.28 269.467 120.28H287.329L297.635 129V120.28H303.533C305.436 120.28 307 118.729 307 116.8V94.4614C307.019 92.551 305.474 91 303.552 91Z" fill="#FED402"/>
<path d="M615.552 91H581.467C579.564 91 578 92.551 578 94.4803V116.8C578 118.71 579.545 120.28 581.467 120.28H599.329L609.635 129V120.28H615.533C617.436 120.28 619 118.729 619 116.8V94.4614C619.019 92.551 617.474 91 615.552 91Z" fill="#FED402"/>
<path d="M303.552 340H269.467C267.564 340 266 341.551 266 343.48V365.8C266 367.71 267.545 369.28 269.467 369.28H287.329L297.635 378V369.28H303.533C305.436 369.28 307 367.729 307 365.8V343.461C307.019 341.551 305.474 340 303.552 340Z" fill="#FED402"/>
<path d="M615.552 340H581.467C579.564 340 578 341.551 578 343.48V365.8C578 367.71 579.545 369.28 581.467 369.28H599.329L609.635 378V369.28H615.533C617.436 369.28 619 367.729 619 365.8V343.461C619.019 341.551 617.474 340 615.552 340Z" fill="#FED402"/>
<path d="M43.5518 174H9.4669C7.56387 174 6 175.551 6 177.48V199.8C6 201.71 7.54503 203.28 9.4669 203.28H27.329L37.6354 212V203.28H43.5329C45.436 203.28 46.9998 201.729 46.9998 199.8V177.461C47.0187 175.551 45.4736 174 43.5518 174Z" fill="#FED402"/>
<path d="M355.552 174H321.467C319.564 174 318 175.551 318 177.48V199.8C318 201.71 319.545 203.28 321.467 203.28H339.329L349.635 212V203.28H355.533C357.436 203.28 359 201.729 359 199.8V177.461C359.019 175.551 357.474 174 355.552 174Z" fill="#FED402"/>
<path d="M667.552 174H633.467C631.564 174 630 175.551 630 177.48V199.8C630 201.71 631.545 203.28 633.467 203.28H651.329L661.635 212V203.28H667.533C669.436 203.28 671 201.729 671 199.8V177.461C671.019 175.551 669.474 174 667.552 174Z" fill="#FED402"/>
<path d="M43.5518 91H9.4669C7.56387 91 6 92.551 6 94.4803V116.8C6 118.71 7.54503 120.28 9.4669 120.28H27.329L37.6354 129V120.28H43.5329C45.436 120.28 46.9998 118.729 46.9998 116.8V94.4614C47.0187 92.551 45.4736 91 43.5518 91Z" fill="#FED402"/>
<path d="M355.552 91H321.467C319.564 91 318 92.551 318 94.4803V116.8C318 118.71 319.545 120.28 321.467 120.28H339.329L349.635 129V120.28H355.533C357.436 120.28 359 118.729 359 116.8V94.4614C359.019 92.551 357.474 91 355.552 91Z" fill="#FED402"/>
<path d="M667.552 91H633.467C631.564 91 630 92.551 630 94.4803V116.8C630 118.71 631.545 120.28 633.467 120.28H651.329L661.635 129V120.28H667.533C669.436 120.28 671 118.729 671 116.8V94.4614C671.019 92.551 669.474 91 667.552 91Z" fill="#FED402"/>
<path d="M43.5518 340H9.4669C7.56387 340 6 341.551 6 343.48V365.8C6 367.71 7.54503 369.28 9.4669 369.28H27.329L37.6354 378V369.28H43.5329C45.436 369.28 46.9998 367.729 46.9998 365.8V343.461C47.0187 341.551 45.4736 340 43.5518 340Z" fill="#FED402"/>
<path d="M355.552 340H321.467C319.564 340 318 341.551 318 343.48V365.8C318 367.71 319.545 369.28 321.467 369.28H339.329L349.635 378V369.28H355.533C357.436 369.28 359 367.729 359 365.8V343.461C359.019 341.551 357.474 340 355.552 340Z" fill="#FED402"/>
<path d="M667.552 340H633.467C631.564 340 630 341.551 630 343.48V365.8C630 367.71 631.545 369.28 633.467 369.28H651.329L661.635 378V369.28H667.533C669.436 369.28 671 367.729 671 365.8V343.461C671.019 341.551 669.474 340 667.552 340Z" fill="#FED402"/>
<path d="M95.5518 174H61.4669C59.5639 174 58 175.551 58 177.48V199.8C58 201.71 59.545 203.28 61.4669 203.28H79.329L89.6354 212V203.28H95.5329C97.436 203.28 98.9998 201.729 98.9998 199.8V177.461C99.0187 175.551 97.4736 174 95.5518 174Z" fill="#FED402"/>
<path d="M407.552 174H373.467C371.564 174 370 175.551 370 177.48V199.8C370 201.71 371.545 203.28 373.467 203.28H391.329L401.635 212V203.28H407.533C409.436 203.28 411 201.729 411 199.8V177.461C411.019 175.551 409.474 174 407.552 174Z" fill="#FED402"/>
<path d="M719.552 174H685.467C683.564 174 682 175.551 682 177.48V199.8C682 201.71 683.545 203.28 685.467 203.28H703.329L713.635 212V203.28H719.533C721.436 203.28 723 201.729 723 199.8V177.461C723.019 175.551 721.474 174 719.552 174Z" fill="#FED402"/>
<path d="M95.5518 91H61.4669C59.5639 91 58 92.551 58 94.4803V116.8C58 118.71 59.545 120.28 61.4669 120.28H79.329L89.6354 129V120.28H95.5329C97.436 120.28 98.9998 118.729 98.9998 116.8V94.4614C99.0187 92.551 97.4736 91 95.5518 91Z" fill="#FED402"/>
<path d="M407.552 91H373.467C371.564 91 370 92.551 370 94.4803V116.8C370 118.71 371.545 120.28 373.467 120.28H391.329L401.635 129V120.28H407.533C409.436 120.28 411 118.729 411 116.8V94.4614C411.019 92.551 409.474 91 407.552 91Z" fill="#FED402"/>
<path d="M719.552 91H685.467C683.564 91 682 92.551 682 94.4803V116.8C682 118.71 683.545 120.28 685.467 120.28H703.329L713.635 129V120.28H719.533C721.436 120.28 723 118.729 723 116.8V94.4614C723.019 92.551 721.474 91 719.552 91Z" fill="#FED402"/>
<path d="M95.5518 340H61.4669C59.5639 340 58 341.551 58 343.48V365.8C58 367.71 59.545 369.28 61.4669 369.28H79.329L89.6354 378V369.28H95.5329C97.436 369.28 98.9998 367.729 98.9998 365.8V343.461C99.0187 341.551 97.4736 340 95.5518 340Z" fill="#FED402"/>
<path d="M407.552 340H373.467C371.564 340 370 341.551 370 343.48V365.8C370 367.71 371.545 369.28 373.467 369.28H391.329L401.635 378V369.28H407.533C409.436 369.28 411 367.729 411 365.8V343.461C411.019 341.551 409.474 340 407.552 340Z" fill="#FED402"/>
<path d="M719.552 340H685.467C683.564 340 682 341.551 682 343.48V365.8C682 367.71 683.545 369.28 685.467 369.28H703.329L713.635 378V369.28H719.533C721.436 369.28 723 367.729 723 365.8V343.461C723.019 341.551 721.474 340 719.552 340Z" fill="#FED402"/>
<path d="M147.552 174H113.467C111.564 174 110 175.551 110 177.48V199.8C110 201.71 111.545 203.28 113.467 203.28H131.329L141.635 212V203.28H147.533C149.436 203.28 151 201.729 151 199.8V177.461C151.019 175.551 149.474 174 147.552 174Z" fill="#FED402"/>
<path d="M459.552 174H425.467C423.564 174 422 175.551 422 177.48V199.8C422 201.71 423.545 203.28 425.467 203.28H443.329L453.635 212V203.28H459.533C461.436 203.28 463 201.729 463 199.8V177.461C463.019 175.551 461.474 174 459.552 174Z" fill="#FED402"/>
<path d="M147.552 91H113.467C111.564 91 110 92.551 110 94.4803V116.8C110 118.71 111.545 120.28 113.467 120.28H131.329L141.635 129V120.28H147.533C149.436 120.28 151 118.729 151 116.8V94.4614C151.019 92.551 149.474 91 147.552 91Z" fill="#FED402"/>
<path d="M459.552 91H425.467C423.564 91 422 92.551 422 94.4803V116.8C422 118.71 423.545 120.28 425.467 120.28H443.329L453.635 129V120.28H459.533C461.436 120.28 463 118.729 463 116.8V94.4614C463.019 92.551 461.474 91 459.552 91Z" fill="#FED402"/>
<path d="M147.552 340H113.467C111.564 340 110 341.551 110 343.48V365.8C110 367.71 111.545 369.28 113.467 369.28H131.329L141.635 378V369.28H147.533C149.436 369.28 151 367.729 151 365.8V343.461C151.019 341.551 149.474 340 147.552 340Z" fill="#FED402"/>
<path d="M459.552 340H425.467C423.564 340 422 341.551 422 343.48V365.8C422 367.71 423.545 369.28 425.467 369.28H443.329L453.635 378V369.28H459.533C461.436 369.28 463 367.729 463 365.8V343.461C463.019 341.551 461.474 340 459.552 340Z" fill="#FED402"/>
<path d="M199.552 174H165.467C163.564 174 162 175.551 162 177.48V199.8C162 201.71 163.545 203.28 165.467 203.28H183.329L193.635 212V203.28H199.533C201.436 203.28 203 201.729 203 199.8V177.461C203.019 175.551 201.474 174 199.552 174Z" fill="#FED402"/>
<path d="M511.552 174H477.467C475.564 174 474 175.551 474 177.48V199.8C474 201.71 475.545 203.28 477.467 203.28H495.329L505.635 212V203.28H511.533C513.436 203.28 515 201.729 515 199.8V177.461C515.019 175.551 513.474 174 511.552 174Z" fill="#FED402"/>
<path d="M199.552 91H165.467C163.564 91 162 92.551 162 94.4803V116.8C162 118.71 163.545 120.28 165.467 120.28H183.329L193.635 129V120.28H199.533C201.436 120.28 203 118.729 203 116.8V94.4614C203.019 92.551 201.474 91 199.552 91Z" fill="#FED402"/>
<path d="M511.552 91H477.467C475.564 91 474 92.551 474 94.4803V116.8C474 118.71 475.545 120.28 477.467 120.28H495.329L505.635 129V120.28H511.533C513.436 120.28 515 118.729 515 116.8V94.4614C515.019 92.551 513.474 91 511.552 91Z" fill="#FED402"/>
<path d="M199.552 340H165.467C163.564 340 162 341.551 162 343.48V365.8C162 367.71 163.545 369.28 165.467 369.28H183.329L193.635 378V369.28H199.533C201.436 369.28 203 367.729 203 365.8V343.461C203.019 341.551 201.474 340 199.552 340Z" fill="#FED402"/>
<path d="M511.552 340H477.467C475.564 340 474 341.551 474 343.48V365.8C474 367.71 475.545 369.28 477.467 369.28H495.329L505.635 378V369.28H511.533C513.436 369.28 515 367.729 515 365.8V343.461C515.019 341.551 513.474 340 511.552 340Z" fill="#FED402"/>
<path d="M217.448 82L251.533 82C253.436 82 255 80.449 255 78.5197L255 56.2001C255 54.2897 253.455 52.7198 251.533 52.7198L233.671 52.7198L223.365 44L223.365 52.7198L217.467 52.7198C215.564 52.7198 214 54.2708 214 56.2001L214 78.5386C213.981 80.449 215.526 82 217.448 82Z" stroke="#FED402" stroke-width="2"/>
<path d="M529.448 82L563.533 82C565.436 82 567 80.449 567 78.5197L567 56.2001C567 54.2897 565.455 52.7198 563.533 52.7198L545.671 52.7198L535.365 44L535.365 52.7198L529.467 52.7198C527.564 52.7198 526 54.2708 526 56.2001L526 78.5386C525.981 80.449 527.526 82 529.448 82Z" stroke="#FED402" stroke-width="2"/>
<path d="M217.448 331L251.533 331C253.436 331 255 329.449 255 327.52L255 305.2C255 303.29 253.455 301.72 251.533 301.72L233.671 301.72L223.365 293L223.365 301.72L217.467 301.72C215.564 301.72 214 303.271 214 305.2L214 327.539C213.981 329.449 215.526 331 217.448 331Z" stroke="#FED402" stroke-width="2"/>
<path d="M529.448 331L563.533 331C565.436 331 567 329.449 567 327.52L567 305.2C567 303.29 565.455 301.72 563.533 301.72L545.671 301.72L535.365 293L535.365 301.72L529.467 301.72C527.564 301.72 526 303.271 526 305.2L526 327.539C525.981 329.449 527.526 331 529.448 331Z" stroke="#FED402" stroke-width="2"/>
<path d="M269.448 82L303.533 82C305.436 82 307 80.449 307 78.5197L307 56.2001C307 54.2897 305.455 52.7198 303.533 52.7198L285.671 52.7198L275.365 44L275.365 52.7198L269.467 52.7198C267.564 52.7198 266 54.2708 266 56.2001L266 78.5386C265.981 80.449 267.526 82 269.448 82Z" stroke="#FED402" stroke-width="2"/>
<path d="M581.448 82L615.533 82C617.436 82 619 80.449 619 78.5197L619 56.2001C619 54.2897 617.455 52.7198 615.533 52.7198L597.671 52.7198L587.365 44L587.365 52.7198L581.467 52.7198C579.564 52.7198 578 54.2708 578 56.2001L578 78.5386C577.981 80.449 579.526 82 581.448 82Z" stroke="#FED402" stroke-width="2"/>
<path d="M269.448 331L303.533 331C305.436 331 307 329.449 307 327.52L307 305.2C307 303.29 305.455 301.72 303.533 301.72L285.671 301.72L275.365 293L275.365 301.72L269.467 301.72C267.564 301.72 266 303.271 266 305.2L266 327.539C265.981 329.449 267.526 331 269.448 331Z" stroke="#FED402" stroke-width="2"/>
<path d="M581.448 331L615.533 331C617.436 331 619 329.449 619 327.52L619 305.2C619 303.29 617.455 301.72 615.533 301.72L597.671 301.72L587.365 293L587.365 301.72L581.467 301.72C579.564 301.72 578 303.271 578 305.2L578 327.539C577.981 329.449 579.526 331 581.448 331Z" stroke="#FED402" stroke-width="2"/>
<path d="M9.44823 82L43.5331 82C45.4361 82 47 80.449 47 78.5197L47 56.2001C47 54.2897 45.455 52.7198 43.5331 52.7198L25.671 52.7198L15.3646 44L15.3646 52.7198L9.46707 52.7198C7.56404 52.7198 6.00017 54.2708 6.00017 56.2001L6.00017 78.5386C5.98133 80.449 7.52636 82 9.44823 82Z" stroke="#FED402" stroke-width="2"/>
<path d="M321.448 82L355.533 82C357.436 82 359 80.449 359 78.5197L359 56.2001C359 54.2897 357.455 52.7198 355.533 52.7198L337.671 52.7198L327.365 44L327.365 52.7198L321.467 52.7198C319.564 52.7198 318 54.2708 318 56.2001L318 78.5386C317.981 80.449 319.526 82 321.448 82Z" stroke="#FED402" stroke-width="2"/>
<path d="M633.448 82L667.533 82C669.436 82 671 80.449 671 78.5197L671 56.2001C671 54.2897 669.455 52.7198 667.533 52.7198L649.671 52.7198L639.365 44L639.365 52.7198L633.467 52.7198C631.564 52.7198 630 54.2708 630 56.2001L630 78.5386C629.981 80.449 631.526 82 633.448 82Z" stroke="#FED402" stroke-width="2"/>
<path d="M9.44823 331L43.5331 331C45.4361 331 47 329.449 47 327.52L47 305.2C47 303.29 45.455 301.72 43.5331 301.72L25.671 301.72L15.3646 293L15.3646 301.72L9.46707 301.72C7.56404 301.72 6.00017 303.271 6.00017 305.2L6.00017 327.539C5.98133 329.449 7.52636 331 9.44823 331Z" stroke="#FED402" stroke-width="2"/>
<path d="M321.448 331L355.533 331C357.436 331 359 329.449 359 327.52L359 305.2C359 303.29 357.455 301.72 355.533 301.72L337.671 301.72L327.365 293L327.365 301.72L321.467 301.72C319.564 301.72 318 303.271 318 305.2L318 327.539C317.981 329.449 319.526 331 321.448 331Z" stroke="#FED402" stroke-width="2"/>
<path d="M633.448 331L667.533 331C669.436 331 671 329.449 671 327.52L671 305.2C671 303.29 669.455 301.72 667.533 301.72L649.671 301.72L639.365 293L639.365 301.72L633.467 301.72C631.564 301.72 630 303.271 630 305.2L630 327.539C629.981 329.449 631.526 331 633.448 331Z" stroke="#FED402" stroke-width="2"/>
<path d="M61.4482 82L95.5331 82C97.4361 82 99 80.449 99 78.5197L99 56.2001C99 54.2897 97.455 52.7198 95.5331 52.7198L77.671 52.7198L67.3646 44L67.3646 52.7198L61.4671 52.7198C59.564 52.7198 58.0002 54.2708 58.0002 56.2001L58.0002 78.5386C57.9813 80.449 59.5264 82 61.4482 82Z" stroke="#FED402" stroke-width="2"/>
<path d="M373.448 82L407.533 82C409.436 82 411 80.449 411 78.5197L411 56.2001C411 54.2897 409.455 52.7198 407.533 52.7198L389.671 52.7198L379.365 44L379.365 52.7198L373.467 52.7198C371.564 52.7198 370 54.2708 370 56.2001L370 78.5386C369.981 80.449 371.526 82 373.448 82Z" stroke="#FED402" stroke-width="2"/>
<path d="M685.448 82L719.533 82C721.436 82 723 80.449 723 78.5197L723 56.2001C723 54.2897 721.455 52.7198 719.533 52.7198L701.671 52.7198L691.365 44L691.365 52.7198L685.467 52.7198C683.564 52.7198 682 54.2708 682 56.2001L682 78.5386C681.981 80.449 683.526 82 685.448 82Z" stroke="#FED402" stroke-width="2"/>
<path d="M61.4482 331L95.5331 331C97.4361 331 99 329.449 99 327.52L99 305.2C99 303.29 97.455 301.72 95.5331 301.72L77.671 301.72L67.3646 293L67.3646 301.72L61.4671 301.72C59.564 301.72 58.0002 303.271 58.0002 305.2L58.0002 327.539C57.9813 329.449 59.5264 331 61.4482 331Z" stroke="#FED402" stroke-width="2"/>
<path d="M373.448 331L407.533 331C409.436 331 411 329.449 411 327.52L411 305.2C411 303.29 409.455 301.72 407.533 301.72L389.671 301.72L379.365 293L379.365 301.72L373.467 301.72C371.564 301.72 370 303.271 370 305.2L370 327.539C369.981 329.449 371.526 331 373.448 331Z" stroke="#FED402" stroke-width="2"/>
<path d="M685.448 331L719.533 331C721.436 331 723 329.449 723 327.52L723 305.2C723 303.29 721.455 301.72 719.533 301.72L701.671 301.72L691.365 293L691.365 301.72L685.467 301.72C683.564 301.72 682 303.271 682 305.2L682 327.539C681.981 329.449 683.526 331 685.448 331Z" stroke="#FED402" stroke-width="2"/>
<path d="M113.448 82L147.533 82C149.436 82 151 80.449 151 78.5197L151 56.2001C151 54.2897 149.455 52.7198 147.533 52.7198L129.671 52.7198L119.365 44L119.365 52.7198L113.467 52.7198C111.564 52.7198 110 54.2708 110 56.2001L110 78.5386C109.981 80.449 111.526 82 113.448 82Z" stroke="#FED402" stroke-width="2"/>
<path d="M425.448 82L459.533 82C461.436 82 463 80.449 463 78.5197L463 56.2001C463 54.2897 461.455 52.7198 459.533 52.7198L441.671 52.7198L431.365 44L431.365 52.7198L425.467 52.7198C423.564 52.7198 422 54.2708 422 56.2001L422 78.5386C421.981 80.449 423.526 82 425.448 82Z" stroke="#FED402" stroke-width="2"/>
<path d="M113.448 331L147.533 331C149.436 331 151 329.449 151 327.52L151 305.2C151 303.29 149.455 301.72 147.533 301.72L129.671 301.72L119.365 293L119.365 301.72L113.467 301.72C111.564 301.72 110 303.271 110 305.2L110 327.539C109.981 329.449 111.526 331 113.448 331Z" stroke="#FED402" stroke-width="2"/>
<path d="M425.448 331L459.533 331C461.436 331 463 329.449 463 327.52L463 305.2C463 303.29 461.455 301.72 459.533 301.72L441.671 301.72L431.365 293L431.365 301.72L425.467 301.72C423.564 301.72 422 303.271 422 305.2L422 327.539C421.981 329.449 423.526 331 425.448 331Z" stroke="#FED402" stroke-width="2"/>
<path d="M165.448 82L199.533 82C201.436 82 203 80.449 203 78.5197L203 56.2001C203 54.2897 201.455 52.7198 199.533 52.7198L181.671 52.7198L171.365 44L171.365 52.7198L165.467 52.7198C163.564 52.7198 162 54.2708 162 56.2001L162 78.5386C161.981 80.449 163.526 82 165.448 82Z" stroke="#FED402" stroke-width="2"/>
<path d="M477.448 82L511.533 82C513.436 82 515 80.449 515 78.5197L515 56.2001C515 54.2897 513.455 52.7198 511.533 52.7198L493.671 52.7198L483.365 44L483.365 52.7198L477.467 52.7198C475.564 52.7198 474 54.2708 474 56.2001L474 78.5386C473.981 80.449 475.526 82 477.448 82Z" stroke="#FED402" stroke-width="2"/>
<path d="M165.448 331L199.533 331C201.436 331 203 329.449 203 327.52L203 305.2C203 303.29 201.455 301.72 199.533 301.72L181.671 301.72L171.365 293L171.365 301.72L165.467 301.72C163.564 301.72 162 303.271 162 305.2L162 327.539C161.981 329.449 163.526 331 165.448 331Z" stroke="#FED402" stroke-width="2"/>
<path d="M477.448 331L511.533 331C513.436 331 515 329.449 515 327.52L515 305.2C515 303.29 513.455 301.72 511.533 301.72L493.671 301.72L483.365 293L483.365 301.72L477.467 301.72C475.564 301.72 474 303.271 474 305.2L474 327.539C473.981 329.449 475.526 331 477.448 331Z" stroke="#FED402" stroke-width="2"/>
<path d="M217.448 248L251.533 248C253.436 248 255 246.449 255 244.52L255 222.2C255 220.29 253.455 218.72 251.533 218.72L233.671 218.72L223.365 210L223.365 218.72L217.467 218.72C215.564 218.72 214 220.271 214 222.2L214 244.539C213.981 246.449 215.526 248 217.448 248Z" stroke="#FED402" stroke-width="2"/>
<path d="M529.448 248L563.533 248C565.436 248 567 246.449 567 244.52L567 222.2C567 220.29 565.455 218.72 563.533 218.72L545.671 218.72L535.365 210L535.365 218.72L529.467 218.72C527.564 218.72 526 220.271 526 222.2L526 244.539C525.981 246.449 527.526 248 529.448 248Z" stroke="#FED402" stroke-width="2"/>
<path d="M217.448 165L251.533 165C253.436 165 255 163.449 255 161.52L255 139.2C255 137.29 253.455 135.72 251.533 135.72L233.671 135.72L223.365 127L223.365 135.72L217.467 135.72C215.564 135.72 214 137.271 214 139.2L214 161.539C213.981 163.449 215.526 165 217.448 165Z" stroke="#FED402" stroke-width="2"/>
<path d="M529.448 165L563.533 165C565.436 165 567 163.449 567 161.52L567 139.2C567 137.29 565.455 135.72 563.533 135.72L545.671 135.72L535.365 127L535.365 135.72L529.467 135.72C527.564 135.72 526 137.271 526 139.2L526 161.539C525.981 163.449 527.526 165 529.448 165Z" stroke="#FED402" stroke-width="2"/>
<path d="M217.448 414L251.533 414C253.436 414 255 412.449 255 410.52L255 388.2C255 386.29 253.455 384.72 251.533 384.72L233.671 384.72L223.365 376L223.365 384.72L217.467 384.72C215.564 384.72 214 386.271 214 388.2L214 410.539C213.981 412.449 215.526 414 217.448 414Z" stroke="#FED402" stroke-width="2"/>
<path d="M529.448 414L563.533 414C565.436 414 567 412.449 567 410.52L567 388.2C567 386.29 565.455 384.72 563.533 384.72L545.671 384.72L535.365 376L535.365 384.72L529.467 384.72C527.564 384.72 526 386.271 526 388.2L526 410.539C525.981 412.449 527.526 414 529.448 414Z" stroke="#FED402" stroke-width="2"/>
<path d="M269.448 248L303.533 248C305.436 248 307 246.449 307 244.52L307 222.2C307 220.29 305.455 218.72 303.533 218.72L285.671 218.72L275.365 210L275.365 218.72L269.467 218.72C267.564 218.72 266 220.271 266 222.2L266 244.539C265.981 246.449 267.526 248 269.448 248Z" stroke="#FED402" stroke-width="2"/>
<path d="M581.448 248L615.533 248C617.436 248 619 246.449 619 244.52L619 222.2C619 220.29 617.455 218.72 615.533 218.72L597.671 218.72L587.365 210L587.365 218.72L581.467 218.72C579.564 218.72 578 220.271 578 222.2L578 244.539C577.981 246.449 579.526 248 581.448 248Z" stroke="#FED402" stroke-width="2"/>
<path d="M269.448 165L303.533 165C305.436 165 307 163.449 307 161.52L307 139.2C307 137.29 305.455 135.72 303.533 135.72L285.671 135.72L275.365 127L275.365 135.72L269.467 135.72C267.564 135.72 266 137.271 266 139.2L266 161.539C265.981 163.449 267.526 165 269.448 165Z" stroke="#FED402" stroke-width="2"/>
<path d="M581.448 165L615.533 165C617.436 165 619 163.449 619 161.52L619 139.2C619 137.29 617.455 135.72 615.533 135.72L597.671 135.72L587.365 127L587.365 135.72L581.467 135.72C579.564 135.72 578 137.271 578 139.2L578 161.539C577.981 163.449 579.526 165 581.448 165Z" stroke="#FED402" stroke-width="2"/>
<path d="M269.448 414L303.533 414C305.436 414 307 412.449 307 410.52L307 388.2C307 386.29 305.455 384.72 303.533 384.72L285.671 384.72L275.365 376L275.365 384.72L269.467 384.72C267.564 384.72 266 386.271 266 388.2L266 410.539C265.981 412.449 267.526 414 269.448 414Z" stroke="#FED402" stroke-width="2"/>
<path d="M581.448 414L615.533 414C617.436 414 619 412.449 619 410.52L619 388.2C619 386.29 617.455 384.72 615.533 384.72L597.671 384.72L587.365 376L587.365 384.72L581.467 384.72C579.564 384.72 578 386.271 578 388.2L578 410.539C577.981 412.449 579.526 414 581.448 414Z" stroke="#FED402" stroke-width="2"/>
<path d="M9.44823 248L43.5331 248C45.4361 248 47 246.449 47 244.52L47 222.2C47 220.29 45.455 218.72 43.5331 218.72L25.671 218.72L15.3646 210L15.3646 218.72L9.46707 218.72C7.56404 218.72 6.00017 220.271 6.00017 222.2L6.00017 244.539C5.98133 246.449 7.52636 248 9.44823 248Z" stroke="#FED402" stroke-width="2"/>
<path d="M321.448 248L355.533 248C357.436 248 359 246.449 359 244.52L359 222.2C359 220.29 357.455 218.72 355.533 218.72L337.671 218.72L327.365 210L327.365 218.72L321.467 218.72C319.564 218.72 318 220.271 318 222.2L318 244.539C317.981 246.449 319.526 248 321.448 248Z" stroke="#FED402" stroke-width="2"/>
<path d="M633.448 248L667.533 248C669.436 248 671 246.449 671 244.52L671 222.2C671 220.29 669.455 218.72 667.533 218.72L649.671 218.72L639.365 210L639.365 218.72L633.467 218.72C631.564 218.72 630 220.271 630 222.2L630 244.539C629.981 246.449 631.526 248 633.448 248Z" stroke="#FED402" stroke-width="2"/>
<path d="M9.44823 165L43.5331 165C45.4361 165 47 163.449 47 161.52L47 139.2C47 137.29 45.455 135.72 43.5331 135.72L25.671 135.72L15.3646 127L15.3646 135.72L9.46707 135.72C7.56404 135.72 6.00017 137.271 6.00017 139.2L6.00017 161.539C5.98133 163.449 7.52636 165 9.44823 165Z" stroke="#FED402" stroke-width="2"/>
<path d="M321.448 165L355.533 165C357.436 165 359 163.449 359 161.52L359 139.2C359 137.29 357.455 135.72 355.533 135.72L337.671 135.72L327.365 127L327.365 135.72L321.467 135.72C319.564 135.72 318 137.271 318 139.2L318 161.539C317.981 163.449 319.526 165 321.448 165Z" stroke="#FED402" stroke-width="2"/>
<path d="M633.448 165L667.533 165C669.436 165 671 163.449 671 161.52L671 139.2C671 137.29 669.455 135.72 667.533 135.72L649.671 135.72L639.365 127L639.365 135.72L633.467 135.72C631.564 135.72 630 137.271 630 139.2L630 161.539C629.981 163.449 631.526 165 633.448 165Z" stroke="#FED402" stroke-width="2"/>
<path d="M9.44823 414L43.5331 414C45.4361 414 47 412.449 47 410.52L47 388.2C47 386.29 45.455 384.72 43.5331 384.72L25.671 384.72L15.3646 376L15.3646 384.72L9.46707 384.72C7.56404 384.72 6.00017 386.271 6.00017 388.2L6.00017 410.539C5.98133 412.449 7.52636 414 9.44823 414Z" stroke="#FED402" stroke-width="2"/>
<path d="M321.448 414L355.533 414C357.436 414 359 412.449 359 410.52L359 388.2C359 386.29 357.455 384.72 355.533 384.72L337.671 384.72L327.365 376L327.365 384.72L321.467 384.72C319.564 384.72 318 386.271 318 388.2L318 410.539C317.981 412.449 319.526 414 321.448 414Z" stroke="#FED402" stroke-width="2"/>
<path d="M633.448 414L667.533 414C669.436 414 671 412.449 671 410.52L671 388.2C671 386.29 669.455 384.72 667.533 384.72L649.671 384.72L639.365 376L639.365 384.72L633.467 384.72C631.564 384.72 630 386.271 630 388.2L630 410.539C629.981 412.449 631.526 414 633.448 414Z" stroke="#FED402" stroke-width="2"/>
<path d="M61.4482 248L95.5331 248C97.4361 248 99 246.449 99 244.52L99 222.2C99 220.29 97.455 218.72 95.5331 218.72L77.671 218.72L67.3646 210L67.3646 218.72L61.4671 218.72C59.564 218.72 58.0002 220.271 58.0002 222.2L58.0002 244.539C57.9813 246.449 59.5264 248 61.4482 248Z" stroke="#FED402" stroke-width="2"/>
<path d="M373.448 248L407.533 248C409.436 248 411 246.449 411 244.52L411 222.2C411 220.29 409.455 218.72 407.533 218.72L389.671 218.72L379.365 210L379.365 218.72L373.467 218.72C371.564 218.72 370 220.271 370 222.2L370 244.539C369.981 246.449 371.526 248 373.448 248Z" stroke="#FED402" stroke-width="2"/>
<path d="M685.448 248L719.533 248C721.436 248 723 246.449 723 244.52L723 222.2C723 220.29 721.455 218.72 719.533 218.72L701.671 218.72L691.365 210L691.365 218.72L685.467 218.72C683.564 218.72 682 220.271 682 222.2L682 244.539C681.981 246.449 683.526 248 685.448 248Z" stroke="#FED402" stroke-width="2"/>
<path d="M61.4482 165L95.5331 165C97.4361 165 99 163.449 99 161.52L99 139.2C99 137.29 97.455 135.72 95.5331 135.72L77.671 135.72L67.3646 127L67.3646 135.72L61.4671 135.72C59.564 135.72 58.0002 137.271 58.0002 139.2L58.0002 161.539C57.9813 163.449 59.5264 165 61.4482 165Z" stroke="#FED402" stroke-width="2"/>
<path d="M373.448 165L407.533 165C409.436 165 411 163.449 411 161.52L411 139.2C411 137.29 409.455 135.72 407.533 135.72L389.671 135.72L379.365 127L379.365 135.72L373.467 135.72C371.564 135.72 370 137.271 370 139.2L370 161.539C369.981 163.449 371.526 165 373.448 165Z" stroke="#FED402" stroke-width="2"/>
<path d="M685.448 165L719.533 165C721.436 165 723 163.449 723 161.52L723 139.2C723 137.29 721.455 135.72 719.533 135.72L701.671 135.72L691.365 127L691.365 135.72L685.467 135.72C683.564 135.72 682 137.271 682 139.2L682 161.539C681.981 163.449 683.526 165 685.448 165Z" stroke="#FED402" stroke-width="2"/>
<path d="M61.4482 414L95.5331 414C97.4361 414 99 412.449 99 410.52L99 388.2C99 386.29 97.455 384.72 95.5331 384.72L77.671 384.72L67.3646 376L67.3646 384.72L61.4671 384.72C59.564 384.72 58.0002 386.271 58.0002 388.2L58.0002 410.539C57.9813 412.449 59.5264 414 61.4482 414Z" stroke="#FED402" stroke-width="2"/>
<path d="M373.448 414L407.533 414C409.436 414 411 412.449 411 410.52L411 388.2C411 386.29 409.455 384.72 407.533 384.72L389.671 384.72L379.365 376L379.365 384.72L373.467 384.72C371.564 384.72 370 386.271 370 388.2L370 410.539C369.981 412.449 371.526 414 373.448 414Z" stroke="#FED402" stroke-width="2"/>
<path d="M685.448 414L719.533 414C721.436 414 723 412.449 723 410.52L723 388.2C723 386.29 721.455 384.72 719.533 384.72L701.671 384.72L691.365 376L691.365 384.72L685.467 384.72C683.564 384.72 682 386.271 682 388.2L682 410.539C681.981 412.449 683.526 414 685.448 414Z" stroke="#FED402" stroke-width="2"/>
<path d="M113.448 248L147.533 248C149.436 248 151 246.449 151 244.52L151 222.2C151 220.29 149.455 218.72 147.533 218.72L129.671 218.72L119.365 210L119.365 218.72L113.467 218.72C111.564 218.72 110 220.271 110 222.2L110 244.539C109.981 246.449 111.526 248 113.448 248Z" stroke="#FED402" stroke-width="2"/>
<path d="M425.448 248L459.533 248C461.436 248 463 246.449 463 244.52L463 222.2C463 220.29 461.455 218.72 459.533 218.72L441.671 218.72L431.365 210L431.365 218.72L425.467 218.72C423.564 218.72 422 220.271 422 222.2L422 244.539C421.981 246.449 423.526 248 425.448 248Z" stroke="#FED402" stroke-width="2"/>
<path d="M113.448 165L147.533 165C149.436 165 151 163.449 151 161.52L151 139.2C151 137.29 149.455 135.72 147.533 135.72L129.671 135.72L119.365 127L119.365 135.72L113.467 135.72C111.564 135.72 110 137.271 110 139.2L110 161.539C109.981 163.449 111.526 165 113.448 165Z" stroke="#FED402" stroke-width="2"/>
<path d="M425.448 165L459.533 165C461.436 165 463 163.449 463 161.52L463 139.2C463 137.29 461.455 135.72 459.533 135.72L441.671 135.72L431.365 127L431.365 135.72L425.467 135.72C423.564 135.72 422 137.271 422 139.2L422 161.539C421.981 163.449 423.526 165 425.448 165Z" stroke="#FED402" stroke-width="2"/>
<path d="M113.448 414L147.533 414C149.436 414 151 412.449 151 410.52L151 388.2C151 386.29 149.455 384.72 147.533 384.72L129.671 384.72L119.365 376L119.365 384.72L113.467 384.72C111.564 384.72 110 386.271 110 388.2L110 410.539C109.981 412.449 111.526 414 113.448 414Z" stroke="#FED402" stroke-width="2"/>
<path d="M425.448 414L459.533 414C461.436 414 463 412.449 463 410.52L463 388.2C463 386.29 461.455 384.72 459.533 384.72L441.671 384.72L431.365 376L431.365 384.72L425.467 384.72C423.564 384.72 422 386.271 422 388.2L422 410.539C421.981 412.449 423.526 414 425.448 414Z" stroke="#FED402" stroke-width="2"/>
<path d="M165.448 248L199.533 248C201.436 248 203 246.449 203 244.52L203 222.2C203 220.29 201.455 218.72 199.533 218.72L181.671 218.72L171.365 210L171.365 218.72L165.467 218.72C163.564 218.72 162 220.271 162 222.2L162 244.539C161.981 246.449 163.526 248 165.448 248Z" stroke="#FED402" stroke-width="2"/>
<path d="M477.448 248L511.533 248C513.436 248 515 246.449 515 244.52L515 222.2C515 220.29 513.455 218.72 511.533 218.72L493.671 218.72L483.365 210L483.365 218.72L477.467 218.72C475.564 218.72 474 220.271 474 222.2L474 244.539C473.981 246.449 475.526 248 477.448 248Z" stroke="#FED402" stroke-width="2"/>
<path d="M165.448 165L199.533 165C201.436 165 203 163.449 203 161.52L203 139.2C203 137.29 201.455 135.72 199.533 135.72L181.671 135.72L171.365 127L171.365 135.72L165.467 135.72C163.564 135.72 162 137.271 162 139.2L162 161.539C161.981 163.449 163.526 165 165.448 165Z" stroke="#FED402" stroke-width="2"/>
<path d="M477.448 165L511.533 165C513.436 165 515 163.449 515 161.52L515 139.2C515 137.29 513.455 135.72 511.533 135.72L493.671 135.72L483.365 127L483.365 135.72L477.467 135.72C475.564 135.72 474 137.271 474 139.2L474 161.539C473.981 163.449 475.526 165 477.448 165Z" stroke="#FED402" stroke-width="2"/>
<path d="M165.448 414L199.533 414C201.436 414 203 412.449 203 410.52L203 388.2C203 386.29 201.455 384.72 199.533 384.72L181.671 384.72L171.365 376L171.365 384.72L165.467 384.72C163.564 384.72 162 386.271 162 388.2L162 410.539C161.981 412.449 163.526 414 165.448 414Z" stroke="#FED402" stroke-width="2"/>
<path d="M477.448 414L511.533 414C513.436 414 515 412.449 515 410.52L515 388.2C515 386.29 513.455 384.72 511.533 384.72L493.671 384.72L483.365 376L483.365 384.72L477.467 384.72C475.564 384.72 474 386.271 474 388.2L474 410.539C473.981 412.449 475.526 414 477.448 414Z" stroke="#FED402" stroke-width="2"/>
</g>
</g>
<path d="M542.256 387V333.663H636.191C667.375 333.663 693 308.316 693 276.786L693 57.5839C693 57.5818 693 57.5797 693 57.5777C693.305 26.3442 667.978 1 636.495 1H57.8086C26.6246 1 1 26.3473 1 57.8777L1 276.786C1 308.005 26.3142 333.663 57.8086 333.663H455.056L540.722 387.845L542.256 388.816V387Z" fill="url(#paint0_linear_2001_2)" stroke="url(#paint1_linear_2001_2)" stroke-width="2"/>
<defs>
<linearGradient id="paint0_linear_2001_2" x1="2" y1="2" x2="669" y2="387" gradientUnits="userSpaceOnUse">
<stop stop-color="#120D0C"/>
<stop offset="1" stop-color="#120D0C" stop-opacity="0"/>
</linearGradient>
<linearGradient id="paint1_linear_2001_2" x1="2" y1="2" x2="662" y2="387" gradientUnits="userSpaceOnUse">
<stop stop-color="#999999" stop-opacity="0.5"/>
<stop offset="1" stop-color="#FED402" stop-opacity="0.5"/>
</linearGradient>
</defs>
</svg>
