<svg width="694" height="391" viewBox="0 0 694 391" fill="none" xmlns="http://www.w3.org/2000/svg" preserveAspectRatio="none">
<mask id="mask0_2007_7" style="mask-type:alpha" maskUnits="userSpaceOnUse" x="2" y="2" width="691" height="385">
<path d="M57.5083 2L636.194 2C666.828 2 692.003 26.902 692.003 57.8777L692.003 276.786C692.003 307.458 667.132 332.663 636.194 332.663H238.657L152.747 387V332.663H57.8115C27.1775 332.663 2.00293 307.761 2.00293 276.786V57.574C1.69965 26.902 26.5709 2 57.5083 2Z" fill="#FFD500"/>
</mask>
<g mask="url(#mask0_2007_7)">
<g opacity="0.08">
<path d="M251.553 8H217.468C215.565 8 214.001 9.55102 214.001 11.4803V33.7999C214.001 35.7103 215.546 37.2802 217.468 37.2802H235.33L245.636 46V37.2802H251.534C253.437 37.2802 255.001 35.7292 255.001 33.7999V11.4614C255.02 9.55102 253.475 8 251.553 8Z" fill="#FED402"/>
<path d="M563.553 8H529.468C527.565 8 526.001 9.55102 526.001 11.4803V33.7999C526.001 35.7103 527.546 37.2802 529.468 37.2802H547.33L557.636 46V37.2802H563.534C565.437 37.2802 567.001 35.7292 567.001 33.7999V11.4614C567.02 9.55102 565.475 8 563.553 8Z" fill="#FED402"/>
<path d="M251.553 257H217.468C215.565 257 214.001 258.551 214.001 260.48V282.8C214.001 284.71 215.546 286.28 217.468 286.28H235.33L245.636 295V286.28H251.534C253.437 286.28 255.001 284.729 255.001 282.8V260.461C255.02 258.551 253.475 257 251.553 257Z" fill="#FED402"/>
<path d="M563.553 257H529.468C527.565 257 526.001 258.551 526.001 260.48V282.8C526.001 284.71 527.546 286.28 529.468 286.28H547.33L557.636 295V286.28H563.534C565.437 286.28 567.001 284.729 567.001 282.8V260.461C567.02 258.551 565.475 257 563.553 257Z" fill="#FED402"/>
<path d="M303.553 8H269.468C267.565 8 266.001 9.55102 266.001 11.4803V33.7999C266.001 35.7103 267.546 37.2802 269.468 37.2802H287.33L297.636 46V37.2802H303.534C305.437 37.2802 307.001 35.7292 307.001 33.7999V11.4614C307.02 9.55102 305.475 8 303.553 8Z" fill="#FED402"/>
<path d="M615.553 8H581.468C579.565 8 578.001 9.55102 578.001 11.4803V33.7999C578.001 35.7103 579.546 37.2802 581.468 37.2802H599.33L609.636 46V37.2802H615.534C617.437 37.2802 619.001 35.7292 619.001 33.7999V11.4614C619.02 9.55102 617.475 8 615.553 8Z" fill="#FED402"/>
<path d="M303.553 257H269.468C267.565 257 266.001 258.551 266.001 260.48V282.8C266.001 284.71 267.546 286.28 269.468 286.28H287.33L297.636 295V286.28H303.534C305.437 286.28 307.001 284.729 307.001 282.8V260.461C307.02 258.551 305.475 257 303.553 257Z" fill="#FED402"/>
<path d="M615.553 257H581.468C579.565 257 578.001 258.551 578.001 260.48V282.8C578.001 284.71 579.546 286.28 581.468 286.28H599.33L609.636 295V286.28H615.534C617.437 286.28 619.001 284.729 619.001 282.8V260.461C619.02 258.551 617.475 257 615.553 257Z" fill="#FED402"/>
<path d="M43.5527 8H9.46787C7.56485 8 6.00098 9.55102 6.00098 11.4803V33.7999C6.00098 35.7103 7.54601 37.2802 9.46787 37.2802H27.3299L37.6364 46V37.2802H43.5339C45.4369 37.2802 47.0008 35.7292 47.0008 33.7999V11.4614C47.0196 9.55102 45.4746 8 43.5527 8Z" fill="#FED402"/>
<path d="M355.553 8H321.468C319.565 8 318.001 9.55102 318.001 11.4803V33.7999C318.001 35.7103 319.546 37.2802 321.468 37.2802H339.33L349.636 46V37.2802H355.534C357.437 37.2802 359.001 35.7292 359.001 33.7999V11.4614C359.02 9.55102 357.475 8 355.553 8Z" fill="#FED402"/>
<path d="M667.553 8H633.468C631.565 8 630.001 9.55102 630.001 11.4803V33.7999C630.001 35.7103 631.546 37.2802 633.468 37.2802H651.33L661.636 46V37.2802H667.534C669.437 37.2802 671.001 35.7292 671.001 33.7999V11.4614C671.02 9.55102 669.475 8 667.553 8Z" fill="#FED402"/>
<path d="M43.5527 257H9.46787C7.56485 257 6.00098 258.551 6.00098 260.48V282.8C6.00098 284.71 7.54601 286.28 9.46787 286.28H27.3299L37.6364 295V286.28H43.5339C45.4369 286.28 47.0008 284.729 47.0008 282.8V260.461C47.0196 258.551 45.4746 257 43.5527 257Z" fill="#FED402"/>
<path d="M355.553 257H321.468C319.565 257 318.001 258.551 318.001 260.48V282.8C318.001 284.71 319.546 286.28 321.468 286.28H339.33L349.636 295V286.28H355.534C357.437 286.28 359.001 284.729 359.001 282.8V260.461C359.02 258.551 357.475 257 355.553 257Z" fill="#FED402"/>
<path d="M667.553 257H633.468C631.565 257 630.001 258.551 630.001 260.48V282.8C630.001 284.71 631.546 286.28 633.468 286.28H651.33L661.636 295V286.28H667.534C669.437 286.28 671.001 284.729 671.001 282.8V260.461C671.02 258.551 669.475 257 667.553 257Z" fill="#FED402"/>
<path d="M95.5527 8H61.4679C59.5648 8 58.001 9.55102 58.001 11.4803V33.7999C58.001 35.7103 59.546 37.2802 61.4679 37.2802H79.3299L89.6364 46V37.2802H95.5339C97.4369 37.2802 99.0008 35.7292 99.0008 33.7999V11.4614C99.0196 9.55102 97.4746 8 95.5527 8Z" fill="#FED402"/>
<path d="M407.553 8H373.468C371.565 8 370.001 9.55102 370.001 11.4803V33.7999C370.001 35.7103 371.546 37.2802 373.468 37.2802H391.33L401.636 46V37.2802H407.534C409.437 37.2802 411.001 35.7292 411.001 33.7999V11.4614C411.02 9.55102 409.475 8 407.553 8Z" fill="#FED402"/>
<path d="M719.553 8H685.468C683.565 8 682.001 9.55102 682.001 11.4803V33.7999C682.001 35.7103 683.546 37.2802 685.468 37.2802H703.33L713.636 46V37.2802H719.534C721.437 37.2802 723.001 35.7292 723.001 33.7999V11.4614C723.02 9.55102 721.475 8 719.553 8Z" fill="#FED402"/>
<path d="M95.5527 257H61.4679C59.5648 257 58.001 258.551 58.001 260.48V282.8C58.001 284.71 59.546 286.28 61.4679 286.28H79.3299L89.6364 295V286.28H95.5339C97.4369 286.28 99.0008 284.729 99.0008 282.8V260.461C99.0196 258.551 97.4746 257 95.5527 257Z" fill="#FED402"/>
<path d="M407.553 257H373.468C371.565 257 370.001 258.551 370.001 260.48V282.8C370.001 284.71 371.546 286.28 373.468 286.28H391.33L401.636 295V286.28H407.534C409.437 286.28 411.001 284.729 411.001 282.8V260.461C411.02 258.551 409.475 257 407.553 257Z" fill="#FED402"/>
<path d="M719.553 257H685.468C683.565 257 682.001 258.551 682.001 260.48V282.8C682.001 284.71 683.546 286.28 685.468 286.28H703.33L713.636 295V286.28H719.534C721.437 286.28 723.001 284.729 723.001 282.8V260.461C723.02 258.551 721.475 257 719.553 257Z" fill="#FED402"/>
<path d="M147.553 8H113.468C111.565 8 110.001 9.55102 110.001 11.4803V33.7999C110.001 35.7103 111.546 37.2802 113.468 37.2802H131.33L141.636 46V37.2802H147.534C149.437 37.2802 151.001 35.7292 151.001 33.7999V11.4614C151.02 9.55102 149.475 8 147.553 8Z" fill="#FED402"/>
<path d="M459.553 8H425.468C423.565 8 422.001 9.55102 422.001 11.4803V33.7999C422.001 35.7103 423.546 37.2802 425.468 37.2802H443.33L453.636 46V37.2802H459.534C461.437 37.2802 463.001 35.7292 463.001 33.7999V11.4614C463.02 9.55102 461.475 8 459.553 8Z" fill="#FED402"/>
<path d="M147.553 257H113.468C111.565 257 110.001 258.551 110.001 260.48V282.8C110.001 284.71 111.546 286.28 113.468 286.28H131.33L141.636 295V286.28H147.534C149.437 286.28 151.001 284.729 151.001 282.8V260.461C151.02 258.551 149.475 257 147.553 257Z" fill="#FED402"/>
<path d="M459.553 257H425.468C423.565 257 422.001 258.551 422.001 260.48V282.8C422.001 284.71 423.546 286.28 425.468 286.28H443.33L453.636 295V286.28H459.534C461.437 286.28 463.001 284.729 463.001 282.8V260.461C463.02 258.551 461.475 257 459.553 257Z" fill="#FED402"/>
<path d="M199.553 8H165.468C163.565 8 162.001 9.55102 162.001 11.4803V33.7999C162.001 35.7103 163.546 37.2802 165.468 37.2802H183.33L193.636 46V37.2802H199.534C201.437 37.2802 203.001 35.7292 203.001 33.7999V11.4614C203.02 9.55102 201.475 8 199.553 8Z" fill="#FED402"/>
<path d="M511.553 8H477.468C475.565 8 474.001 9.55102 474.001 11.4803V33.7999C474.001 35.7103 475.546 37.2802 477.468 37.2802H495.33L505.636 46V37.2802H511.534C513.437 37.2802 515.001 35.7292 515.001 33.7999V11.4614C515.02 9.55102 513.475 8 511.553 8Z" fill="#FED402"/>
<path d="M199.553 257H165.468C163.565 257 162.001 258.551 162.001 260.48V282.8C162.001 284.71 163.546 286.28 165.468 286.28H183.33L193.636 295V286.28H199.534C201.437 286.28 203.001 284.729 203.001 282.8V260.461C203.02 258.551 201.475 257 199.553 257Z" fill="#FED402"/>
<path d="M511.553 257H477.468C475.565 257 474.001 258.551 474.001 260.48V282.8C474.001 284.71 475.546 286.28 477.468 286.28H495.33L505.636 295V286.28H511.534C513.437 286.28 515.001 284.729 515.001 282.8V260.461C515.02 258.551 513.475 257 511.553 257Z" fill="#FED402"/>
<path d="M251.553 174H217.468C215.565 174 214.001 175.551 214.001 177.48V199.8C214.001 201.71 215.546 203.28 217.468 203.28H235.33L245.636 212V203.28H251.534C253.437 203.28 255.001 201.729 255.001 199.8V177.461C255.02 175.551 253.475 174 251.553 174Z" fill="#FED402"/>
<path d="M563.553 174H529.468C527.565 174 526.001 175.551 526.001 177.48V199.8C526.001 201.71 527.546 203.28 529.468 203.28H547.33L557.636 212V203.28H563.534C565.437 203.28 567.001 201.729 567.001 199.8V177.461C567.02 175.551 565.475 174 563.553 174Z" fill="#FED402"/>
<path d="M251.553 91H217.468C215.565 91 214.001 92.551 214.001 94.4803V116.8C214.001 118.71 215.546 120.28 217.468 120.28H235.33L245.636 129V120.28H251.534C253.437 120.28 255.001 118.729 255.001 116.8V94.4614C255.02 92.551 253.475 91 251.553 91Z" fill="#FED402"/>
<path d="M563.553 91H529.468C527.565 91 526.001 92.551 526.001 94.4803V116.8C526.001 118.71 527.546 120.28 529.468 120.28H547.33L557.636 129V120.28H563.534C565.437 120.28 567.001 118.729 567.001 116.8V94.4614C567.02 92.551 565.475 91 563.553 91Z" fill="#FED402"/>
<path d="M251.553 340H217.468C215.565 340 214.001 341.551 214.001 343.48V365.8C214.001 367.71 215.546 369.28 217.468 369.28H235.33L245.636 378V369.28H251.534C253.437 369.28 255.001 367.729 255.001 365.8V343.461C255.02 341.551 253.475 340 251.553 340Z" fill="#FED402"/>
<path d="M563.553 340H529.468C527.565 340 526.001 341.551 526.001 343.48V365.8C526.001 367.71 527.546 369.28 529.468 369.28H547.33L557.636 378V369.28H563.534C565.437 369.28 567.001 367.729 567.001 365.8V343.461C567.02 341.551 565.475 340 563.553 340Z" fill="#FED402"/>
<path d="M303.553 174H269.468C267.565 174 266.001 175.551 266.001 177.48V199.8C266.001 201.71 267.546 203.28 269.468 203.28H287.33L297.636 212V203.28H303.534C305.437 203.28 307.001 201.729 307.001 199.8V177.461C307.02 175.551 305.475 174 303.553 174Z" fill="#FED402"/>
<path d="M615.553 174H581.468C579.565 174 578.001 175.551 578.001 177.48V199.8C578.001 201.71 579.546 203.28 581.468 203.28H599.33L609.636 212V203.28H615.534C617.437 203.28 619.001 201.729 619.001 199.8V177.461C619.02 175.551 617.475 174 615.553 174Z" fill="#FED402"/>
<path d="M303.553 91H269.468C267.565 91 266.001 92.551 266.001 94.4803V116.8C266.001 118.71 267.546 120.28 269.468 120.28H287.33L297.636 129V120.28H303.534C305.437 120.28 307.001 118.729 307.001 116.8V94.4614C307.02 92.551 305.475 91 303.553 91Z" fill="#FED402"/>
<path d="M615.553 91H581.468C579.565 91 578.001 92.551 578.001 94.4803V116.8C578.001 118.71 579.546 120.28 581.468 120.28H599.33L609.636 129V120.28H615.534C617.437 120.28 619.001 118.729 619.001 116.8V94.4614C619.02 92.551 617.475 91 615.553 91Z" fill="#FED402"/>
<path d="M303.553 340H269.468C267.565 340 266.001 341.551 266.001 343.48V365.8C266.001 367.71 267.546 369.28 269.468 369.28H287.33L297.636 378V369.28H303.534C305.437 369.28 307.001 367.729 307.001 365.8V343.461C307.02 341.551 305.475 340 303.553 340Z" fill="#FED402"/>
<path d="M615.553 340H581.468C579.565 340 578.001 341.551 578.001 343.48V365.8C578.001 367.71 579.546 369.28 581.468 369.28H599.33L609.636 378V369.28H615.534C617.437 369.28 619.001 367.729 619.001 365.8V343.461C619.02 341.551 617.475 340 615.553 340Z" fill="#FED402"/>
<path d="M43.5527 174H9.46787C7.56485 174 6.00098 175.551 6.00098 177.48V199.8C6.00098 201.71 7.54601 203.28 9.46787 203.28H27.3299L37.6364 212V203.28H43.5339C45.4369 203.28 47.0008 201.729 47.0008 199.8V177.461C47.0196 175.551 45.4746 174 43.5527 174Z" fill="#FED402"/>
<path d="M355.553 174H321.468C319.565 174 318.001 175.551 318.001 177.48V199.8C318.001 201.71 319.546 203.28 321.468 203.28H339.33L349.636 212V203.28H355.534C357.437 203.28 359.001 201.729 359.001 199.8V177.461C359.02 175.551 357.475 174 355.553 174Z" fill="#FED402"/>
<path d="M667.553 174H633.468C631.565 174 630.001 175.551 630.001 177.48V199.8C630.001 201.71 631.546 203.28 633.468 203.28H651.33L661.636 212V203.28H667.534C669.437 203.28 671.001 201.729 671.001 199.8V177.461C671.02 175.551 669.475 174 667.553 174Z" fill="#FED402"/>
<path d="M43.5527 91H9.46787C7.56485 91 6.00098 92.551 6.00098 94.4803V116.8C6.00098 118.71 7.54601 120.28 9.46787 120.28H27.3299L37.6364 129V120.28H43.5339C45.4369 120.28 47.0008 118.729 47.0008 116.8V94.4614C47.0196 92.551 45.4746 91 43.5527 91Z" fill="#FED402"/>
<path d="M355.553 91H321.468C319.565 91 318.001 92.551 318.001 94.4803V116.8C318.001 118.71 319.546 120.28 321.468 120.28H339.33L349.636 129V120.28H355.534C357.437 120.28 359.001 118.729 359.001 116.8V94.4614C359.02 92.551 357.475 91 355.553 91Z" fill="#FED402"/>
<path d="M667.553 91H633.468C631.565 91 630.001 92.551 630.001 94.4803V116.8C630.001 118.71 631.546 120.28 633.468 120.28H651.33L661.636 129V120.28H667.534C669.437 120.28 671.001 118.729 671.001 116.8V94.4614C671.02 92.551 669.475 91 667.553 91Z" fill="#FED402"/>
<path d="M43.5527 340H9.46787C7.56485 340 6.00098 341.551 6.00098 343.48V365.8C6.00098 367.71 7.54601 369.28 9.46787 369.28H27.3299L37.6364 378V369.28H43.5339C45.4369 369.28 47.0008 367.729 47.0008 365.8V343.461C47.0196 341.551 45.4746 340 43.5527 340Z" fill="#FED402"/>
<path d="M355.553 340H321.468C319.565 340 318.001 341.551 318.001 343.48V365.8C318.001 367.71 319.546 369.28 321.468 369.28H339.33L349.636 378V369.28H355.534C357.437 369.28 359.001 367.729 359.001 365.8V343.461C359.02 341.551 357.475 340 355.553 340Z" fill="#FED402"/>
<path d="M667.553 340H633.468C631.565 340 630.001 341.551 630.001 343.48V365.8C630.001 367.71 631.546 369.28 633.468 369.28H651.33L661.636 378V369.28H667.534C669.437 369.28 671.001 367.729 671.001 365.8V343.461C671.02 341.551 669.475 340 667.553 340Z" fill="#FED402"/>
<path d="M95.5527 174H61.4679C59.5648 174 58.001 175.551 58.001 177.48V199.8C58.001 201.71 59.546 203.28 61.4679 203.28H79.3299L89.6364 212V203.28H95.5339C97.4369 203.28 99.0008 201.729 99.0008 199.8V177.461C99.0196 175.551 97.4746 174 95.5527 174Z" fill="#FED402"/>
<path d="M407.553 174H373.468C371.565 174 370.001 175.551 370.001 177.48V199.8C370.001 201.71 371.546 203.28 373.468 203.28H391.33L401.636 212V203.28H407.534C409.437 203.28 411.001 201.729 411.001 199.8V177.461C411.02 175.551 409.475 174 407.553 174Z" fill="#FED402"/>
<path d="M719.553 174H685.468C683.565 174 682.001 175.551 682.001 177.48V199.8C682.001 201.71 683.546 203.28 685.468 203.28H703.33L713.636 212V203.28H719.534C721.437 203.28 723.001 201.729 723.001 199.8V177.461C723.02 175.551 721.475 174 719.553 174Z" fill="#FED402"/>
<path d="M95.5527 91H61.4679C59.5648 91 58.001 92.551 58.001 94.4803V116.8C58.001 118.71 59.546 120.28 61.4679 120.28H79.3299L89.6364 129V120.28H95.5339C97.4369 120.28 99.0008 118.729 99.0008 116.8V94.4614C99.0196 92.551 97.4746 91 95.5527 91Z" fill="#FED402"/>
<path d="M407.553 91H373.468C371.565 91 370.001 92.551 370.001 94.4803V116.8C370.001 118.71 371.546 120.28 373.468 120.28H391.33L401.636 129V120.28H407.534C409.437 120.28 411.001 118.729 411.001 116.8V94.4614C411.02 92.551 409.475 91 407.553 91Z" fill="#FED402"/>
<path d="M719.553 91H685.468C683.565 91 682.001 92.551 682.001 94.4803V116.8C682.001 118.71 683.546 120.28 685.468 120.28H703.33L713.636 129V120.28H719.534C721.437 120.28 723.001 118.729 723.001 116.8V94.4614C723.02 92.551 721.475 91 719.553 91Z" fill="#FED402"/>
<path d="M95.5527 340H61.4679C59.5648 340 58.001 341.551 58.001 343.48V365.8C58.001 367.71 59.546 369.28 61.4679 369.28H79.3299L89.6364 378V369.28H95.5339C97.4369 369.28 99.0008 367.729 99.0008 365.8V343.461C99.0196 341.551 97.4746 340 95.5527 340Z" fill="#FED402"/>
<path d="M407.553 340H373.468C371.565 340 370.001 341.551 370.001 343.48V365.8C370.001 367.71 371.546 369.28 373.468 369.28H391.33L401.636 378V369.28H407.534C409.437 369.28 411.001 367.729 411.001 365.8V343.461C411.02 341.551 409.475 340 407.553 340Z" fill="#FED402"/>
<path d="M719.553 340H685.468C683.565 340 682.001 341.551 682.001 343.48V365.8C682.001 367.71 683.546 369.28 685.468 369.28H703.33L713.636 378V369.28H719.534C721.437 369.28 723.001 367.729 723.001 365.8V343.461C723.02 341.551 721.475 340 719.553 340Z" fill="#FED402"/>
<path d="M147.553 174H113.468C111.565 174 110.001 175.551 110.001 177.48V199.8C110.001 201.71 111.546 203.28 113.468 203.28H131.33L141.636 212V203.28H147.534C149.437 203.28 151.001 201.729 151.001 199.8V177.461C151.02 175.551 149.475 174 147.553 174Z" fill="#FED402"/>
<path d="M459.553 174H425.468C423.565 174 422.001 175.551 422.001 177.48V199.8C422.001 201.71 423.546 203.28 425.468 203.28H443.33L453.636 212V203.28H459.534C461.437 203.28 463.001 201.729 463.001 199.8V177.461C463.02 175.551 461.475 174 459.553 174Z" fill="#FED402"/>
<path d="M147.553 91H113.468C111.565 91 110.001 92.551 110.001 94.4803V116.8C110.001 118.71 111.546 120.28 113.468 120.28H131.33L141.636 129V120.28H147.534C149.437 120.28 151.001 118.729 151.001 116.8V94.4614C151.02 92.551 149.475 91 147.553 91Z" fill="#FED402"/>
<path d="M459.553 91H425.468C423.565 91 422.001 92.551 422.001 94.4803V116.8C422.001 118.71 423.546 120.28 425.468 120.28H443.33L453.636 129V120.28H459.534C461.437 120.28 463.001 118.729 463.001 116.8V94.4614C463.02 92.551 461.475 91 459.553 91Z" fill="#FED402"/>
<path d="M147.553 340H113.468C111.565 340 110.001 341.551 110.001 343.48V365.8C110.001 367.71 111.546 369.28 113.468 369.28H131.33L141.636 378V369.28H147.534C149.437 369.28 151.001 367.729 151.001 365.8V343.461C151.02 341.551 149.475 340 147.553 340Z" fill="#FED402"/>
<path d="M459.553 340H425.468C423.565 340 422.001 341.551 422.001 343.48V365.8C422.001 367.71 423.546 369.28 425.468 369.28H443.33L453.636 378V369.28H459.534C461.437 369.28 463.001 367.729 463.001 365.8V343.461C463.02 341.551 461.475 340 459.553 340Z" fill="#FED402"/>
<path d="M199.553 174H165.468C163.565 174 162.001 175.551 162.001 177.48V199.8C162.001 201.71 163.546 203.28 165.468 203.28H183.33L193.636 212V203.28H199.534C201.437 203.28 203.001 201.729 203.001 199.8V177.461C203.02 175.551 201.475 174 199.553 174Z" fill="#FED402"/>
<path d="M511.553 174H477.468C475.565 174 474.001 175.551 474.001 177.48V199.8C474.001 201.71 475.546 203.28 477.468 203.28H495.33L505.636 212V203.28H511.534C513.437 203.28 515.001 201.729 515.001 199.8V177.461C515.02 175.551 513.475 174 511.553 174Z" fill="#FED402"/>
<path d="M199.553 91H165.468C163.565 91 162.001 92.551 162.001 94.4803V116.8C162.001 118.71 163.546 120.28 165.468 120.28H183.33L193.636 129V120.28H199.534C201.437 120.28 203.001 118.729 203.001 116.8V94.4614C203.02 92.551 201.475 91 199.553 91Z" fill="#FED402"/>
<path d="M511.553 91H477.468C475.565 91 474.001 92.551 474.001 94.4803V116.8C474.001 118.71 475.546 120.28 477.468 120.28H495.33L505.636 129V120.28H511.534C513.437 120.28 515.001 118.729 515.001 116.8V94.4614C515.02 92.551 513.475 91 511.553 91Z" fill="#FED402"/>
<path d="M199.553 340H165.468C163.565 340 162.001 341.551 162.001 343.48V365.8C162.001 367.71 163.546 369.28 165.468 369.28H183.33L193.636 378V369.28H199.534C201.437 369.28 203.001 367.729 203.001 365.8V343.461C203.02 341.551 201.475 340 199.553 340Z" fill="#FED402"/>
<path d="M511.553 340H477.468C475.565 340 474.001 341.551 474.001 343.48V365.8C474.001 367.71 475.546 369.28 477.468 369.28H495.33L505.636 378V369.28H511.534C513.437 369.28 515.001 367.729 515.001 365.8V343.461C515.02 341.551 513.475 340 511.553 340Z" fill="#FED402"/>
<path d="M217.449 82L251.534 82C253.437 82 255.001 80.449 255.001 78.5197L255.001 56.2001C255.001 54.2897 253.456 52.7198 251.534 52.7198L233.672 52.7198L223.366 44L223.366 52.7198L217.468 52.7198C215.565 52.7198 214.001 54.2708 214.001 56.2001L214.001 78.5386C213.982 80.449 215.527 82 217.449 82Z" stroke="#FED402" stroke-width="2"/>
<path d="M529.449 82L563.534 82C565.437 82 567.001 80.449 567.001 78.5197L567.001 56.2001C567.001 54.2897 565.456 52.7198 563.534 52.7198L545.672 52.7198L535.366 44L535.366 52.7198L529.468 52.7198C527.565 52.7198 526.001 54.2708 526.001 56.2001L526.001 78.5386C525.982 80.449 527.527 82 529.449 82Z" stroke="#FED402" stroke-width="2"/>
<path d="M217.449 331L251.534 331C253.437 331 255.001 329.449 255.001 327.52L255.001 305.2C255.001 303.29 253.456 301.72 251.534 301.72L233.672 301.72L223.366 293L223.366 301.72L217.468 301.72C215.565 301.72 214.001 303.271 214.001 305.2L214.001 327.539C213.982 329.449 215.527 331 217.449 331Z" stroke="#FED402" stroke-width="2"/>
<path d="M529.449 331L563.534 331C565.437 331 567.001 329.449 567.001 327.52L567.001 305.2C567.001 303.29 565.456 301.72 563.534 301.72L545.672 301.72L535.366 293L535.366 301.72L529.468 301.72C527.565 301.72 526.001 303.271 526.001 305.2L526.001 327.539C525.982 329.449 527.527 331 529.449 331Z" stroke="#FED402" stroke-width="2"/>
<path d="M269.449 82L303.534 82C305.437 82 307.001 80.449 307.001 78.5197L307.001 56.2001C307.001 54.2897 305.456 52.7198 303.534 52.7198L285.672 52.7198L275.366 44L275.366 52.7198L269.468 52.7198C267.565 52.7198 266.001 54.2708 266.001 56.2001L266.001 78.5386C265.982 80.449 267.527 82 269.449 82Z" stroke="#FED402" stroke-width="2"/>
<path d="M581.449 82L615.534 82C617.437 82 619.001 80.449 619.001 78.5197L619.001 56.2001C619.001 54.2897 617.456 52.7198 615.534 52.7198L597.672 52.7198L587.366 44L587.366 52.7198L581.468 52.7198C579.565 52.7198 578.001 54.2708 578.001 56.2001L578.001 78.5386C577.982 80.449 579.527 82 581.449 82Z" stroke="#FED402" stroke-width="2"/>
<path d="M269.449 331L303.534 331C305.437 331 307.001 329.449 307.001 327.52L307.001 305.2C307.001 303.29 305.456 301.72 303.534 301.72L285.672 301.72L275.366 293L275.366 301.72L269.468 301.72C267.565 301.72 266.001 303.271 266.001 305.2L266.001 327.539C265.982 329.449 267.527 331 269.449 331Z" stroke="#FED402" stroke-width="2"/>
<path d="M581.449 331L615.534 331C617.437 331 619.001 329.449 619.001 327.52L619.001 305.2C619.001 303.29 617.456 301.72 615.534 301.72L597.672 301.72L587.366 293L587.366 301.72L581.468 301.72C579.565 301.72 578.001 303.271 578.001 305.2L578.001 327.539C577.982 329.449 579.527 331 581.449 331Z" stroke="#FED402" stroke-width="2"/>
<path d="M9.44921 82L43.5341 82C45.4371 82 47.001 80.449 47.001 78.5197L47.001 56.2001C47.001 54.2897 45.4559 52.7198 43.5341 52.7198L25.672 52.7198L15.3655 44L15.3655 52.7198L9.46805 52.7198C7.56502 52.7198 6.00115 54.2708 6.00115 56.2001L6.00115 78.5386C5.98231 80.449 7.52734 82 9.44921 82Z" stroke="#FED402" stroke-width="2"/>
<path d="M321.449 82L355.534 82C357.437 82 359.001 80.449 359.001 78.5197L359.001 56.2001C359.001 54.2897 357.456 52.7198 355.534 52.7198L337.672 52.7198L327.366 44L327.366 52.7198L321.468 52.7198C319.565 52.7198 318.001 54.2708 318.001 56.2001L318.001 78.5386C317.982 80.449 319.527 82 321.449 82Z" stroke="#FED402" stroke-width="2"/>
<path d="M633.449 82L667.534 82C669.437 82 671.001 80.449 671.001 78.5197L671.001 56.2001C671.001 54.2897 669.456 52.7198 667.534 52.7198L649.672 52.7198L639.366 44L639.366 52.7198L633.468 52.7198C631.565 52.7198 630.001 54.2708 630.001 56.2001L630.001 78.5386C629.982 80.449 631.527 82 633.449 82Z" stroke="#FED402" stroke-width="2"/>
<path d="M9.44921 331L43.5341 331C45.4371 331 47.001 329.449 47.001 327.52L47.001 305.2C47.001 303.29 45.4559 301.72 43.5341 301.72L25.672 301.72L15.3655 293L15.3655 301.72L9.46805 301.72C7.56502 301.72 6.00115 303.271 6.00115 305.2L6.00115 327.539C5.98231 329.449 7.52734 331 9.44921 331Z" stroke="#FED402" stroke-width="2"/>
<path d="M321.449 331L355.534 331C357.437 331 359.001 329.449 359.001 327.52L359.001 305.2C359.001 303.29 357.456 301.72 355.534 301.72L337.672 301.72L327.366 293L327.366 301.72L321.468 301.72C319.565 301.72 318.001 303.271 318.001 305.2L318.001 327.539C317.982 329.449 319.527 331 321.449 331Z" stroke="#FED402" stroke-width="2"/>
<path d="M633.449 331L667.534 331C669.437 331 671.001 329.449 671.001 327.52L671.001 305.2C671.001 303.29 669.456 301.72 667.534 301.72L649.672 301.72L639.366 293L639.366 301.72L633.468 301.72C631.565 301.72 630.001 303.271 630.001 305.2L630.001 327.539C629.982 329.449 631.527 331 633.449 331Z" stroke="#FED402" stroke-width="2"/>
<path d="M61.4492 82L95.5341 82C97.4371 82 99.001 80.449 99.001 78.5197L99.001 56.2001C99.001 54.2897 97.4559 52.7198 95.5341 52.7198L77.672 52.7198L67.3655 44L67.3655 52.7198L61.468 52.7198C59.565 52.7198 58.0011 54.2708 58.0011 56.2001L58.0011 78.5386C57.9823 80.449 59.5273 82 61.4492 82Z" stroke="#FED402" stroke-width="2"/>
<path d="M373.449 82L407.534 82C409.437 82 411.001 80.449 411.001 78.5197L411.001 56.2001C411.001 54.2897 409.456 52.7198 407.534 52.7198L389.672 52.7198L379.366 44L379.366 52.7198L373.468 52.7198C371.565 52.7198 370.001 54.2708 370.001 56.2001L370.001 78.5386C369.982 80.449 371.527 82 373.449 82Z" stroke="#FED402" stroke-width="2"/>
<path d="M685.449 82L719.534 82C721.437 82 723.001 80.449 723.001 78.5197L723.001 56.2001C723.001 54.2897 721.456 52.7198 719.534 52.7198L701.672 52.7198L691.366 44L691.366 52.7198L685.468 52.7198C683.565 52.7198 682.001 54.2708 682.001 56.2001L682.001 78.5386C681.982 80.449 683.527 82 685.449 82Z" stroke="#FED402" stroke-width="2"/>
<path d="M61.4492 331L95.5341 331C97.4371 331 99.001 329.449 99.001 327.52L99.001 305.2C99.001 303.29 97.4559 301.72 95.5341 301.72L77.672 301.72L67.3655 293L67.3655 301.72L61.468 301.72C59.565 301.72 58.0011 303.271 58.0011 305.2L58.0011 327.539C57.9823 329.449 59.5273 331 61.4492 331Z" stroke="#FED402" stroke-width="2"/>
<path d="M373.449 331L407.534 331C409.437 331 411.001 329.449 411.001 327.52L411.001 305.2C411.001 303.29 409.456 301.72 407.534 301.72L389.672 301.72L379.366 293L379.366 301.72L373.468 301.72C371.565 301.72 370.001 303.271 370.001 305.2L370.001 327.539C369.982 329.449 371.527 331 373.449 331Z" stroke="#FED402" stroke-width="2"/>
<path d="M685.449 331L719.534 331C721.437 331 723.001 329.449 723.001 327.52L723.001 305.2C723.001 303.29 721.456 301.72 719.534 301.72L701.672 301.72L691.366 293L691.366 301.72L685.468 301.72C683.565 301.72 682.001 303.271 682.001 305.2L682.001 327.539C681.982 329.449 683.527 331 685.449 331Z" stroke="#FED402" stroke-width="2"/>
<path d="M113.449 82L147.534 82C149.437 82 151.001 80.449 151.001 78.5197L151.001 56.2001C151.001 54.2897 149.456 52.7198 147.534 52.7198L129.672 52.7198L119.366 44L119.366 52.7198L113.468 52.7198C111.565 52.7198 110.001 54.2708 110.001 56.2001L110.001 78.5386C109.982 80.449 111.527 82 113.449 82Z" stroke="#FED402" stroke-width="2"/>
<path d="M425.449 82L459.534 82C461.437 82 463.001 80.449 463.001 78.5197L463.001 56.2001C463.001 54.2897 461.456 52.7198 459.534 52.7198L441.672 52.7198L431.366 44L431.366 52.7198L425.468 52.7198C423.565 52.7198 422.001 54.2708 422.001 56.2001L422.001 78.5386C421.982 80.449 423.527 82 425.449 82Z" stroke="#FED402" stroke-width="2"/>
<path d="M113.449 331L147.534 331C149.437 331 151.001 329.449 151.001 327.52L151.001 305.2C151.001 303.29 149.456 301.72 147.534 301.72L129.672 301.72L119.366 293L119.366 301.72L113.468 301.72C111.565 301.72 110.001 303.271 110.001 305.2L110.001 327.539C109.982 329.449 111.527 331 113.449 331Z" stroke="#FED402" stroke-width="2"/>
<path d="M425.449 331L459.534 331C461.437 331 463.001 329.449 463.001 327.52L463.001 305.2C463.001 303.29 461.456 301.72 459.534 301.72L441.672 301.72L431.366 293L431.366 301.72L425.468 301.72C423.565 301.72 422.001 303.271 422.001 305.2L422.001 327.539C421.982 329.449 423.527 331 425.449 331Z" stroke="#FED402" stroke-width="2"/>
<path d="M165.449 82L199.534 82C201.437 82 203.001 80.449 203.001 78.5197L203.001 56.2001C203.001 54.2897 201.456 52.7198 199.534 52.7198L181.672 52.7198L171.366 44L171.366 52.7198L165.468 52.7198C163.565 52.7198 162.001 54.2708 162.001 56.2001L162.001 78.5386C161.982 80.449 163.527 82 165.449 82Z" stroke="#FED402" stroke-width="2"/>
<path d="M477.449 82L511.534 82C513.437 82 515.001 80.449 515.001 78.5197L515.001 56.2001C515.001 54.2897 513.456 52.7198 511.534 52.7198L493.672 52.7198L483.366 44L483.366 52.7198L477.468 52.7198C475.565 52.7198 474.001 54.2708 474.001 56.2001L474.001 78.5386C473.982 80.449 475.527 82 477.449 82Z" stroke="#FED402" stroke-width="2"/>
<path d="M165.449 331L199.534 331C201.437 331 203.001 329.449 203.001 327.52L203.001 305.2C203.001 303.29 201.456 301.72 199.534 301.72L181.672 301.72L171.366 293L171.366 301.72L165.468 301.72C163.565 301.72 162.001 303.271 162.001 305.2L162.001 327.539C161.982 329.449 163.527 331 165.449 331Z" stroke="#FED402" stroke-width="2"/>
<path d="M477.449 331L511.534 331C513.437 331 515.001 329.449 515.001 327.52L515.001 305.2C515.001 303.29 513.456 301.72 511.534 301.72L493.672 301.72L483.366 293L483.366 301.72L477.468 301.72C475.565 301.72 474.001 303.271 474.001 305.2L474.001 327.539C473.982 329.449 475.527 331 477.449 331Z" stroke="#FED402" stroke-width="2"/>
<path d="M217.449 248L251.534 248C253.437 248 255.001 246.449 255.001 244.52L255.001 222.2C255.001 220.29 253.456 218.72 251.534 218.72L233.672 218.72L223.366 210L223.366 218.72L217.468 218.72C215.565 218.72 214.001 220.271 214.001 222.2L214.001 244.539C213.982 246.449 215.527 248 217.449 248Z" stroke="#FED402" stroke-width="2"/>
<path d="M529.449 248L563.534 248C565.437 248 567.001 246.449 567.001 244.52L567.001 222.2C567.001 220.29 565.456 218.72 563.534 218.72L545.672 218.72L535.366 210L535.366 218.72L529.468 218.72C527.565 218.72 526.001 220.271 526.001 222.2L526.001 244.539C525.982 246.449 527.527 248 529.449 248Z" stroke="#FED402" stroke-width="2"/>
<path d="M217.449 165L251.534 165C253.437 165 255.001 163.449 255.001 161.52L255.001 139.2C255.001 137.29 253.456 135.72 251.534 135.72L233.672 135.72L223.366 127L223.366 135.72L217.468 135.72C215.565 135.72 214.001 137.271 214.001 139.2L214.001 161.539C213.982 163.449 215.527 165 217.449 165Z" stroke="#FED402" stroke-width="2"/>
<path d="M529.449 165L563.534 165C565.437 165 567.001 163.449 567.001 161.52L567.001 139.2C567.001 137.29 565.456 135.72 563.534 135.72L545.672 135.72L535.366 127L535.366 135.72L529.468 135.72C527.565 135.72 526.001 137.271 526.001 139.2L526.001 161.539C525.982 163.449 527.527 165 529.449 165Z" stroke="#FED402" stroke-width="2"/>
<path d="M217.449 414L251.534 414C253.437 414 255.001 412.449 255.001 410.52L255.001 388.2C255.001 386.29 253.456 384.72 251.534 384.72L233.672 384.72L223.366 376L223.366 384.72L217.468 384.72C215.565 384.72 214.001 386.271 214.001 388.2L214.001 410.539C213.982 412.449 215.527 414 217.449 414Z" stroke="#FED402" stroke-width="2"/>
<path d="M529.449 414L563.534 414C565.437 414 567.001 412.449 567.001 410.52L567.001 388.2C567.001 386.29 565.456 384.72 563.534 384.72L545.672 384.72L535.366 376L535.366 384.72L529.468 384.72C527.565 384.72 526.001 386.271 526.001 388.2L526.001 410.539C525.982 412.449 527.527 414 529.449 414Z" stroke="#FED402" stroke-width="2"/>
<path d="M269.449 248L303.534 248C305.437 248 307.001 246.449 307.001 244.52L307.001 222.2C307.001 220.29 305.456 218.72 303.534 218.72L285.672 218.72L275.366 210L275.366 218.72L269.468 218.72C267.565 218.72 266.001 220.271 266.001 222.2L266.001 244.539C265.982 246.449 267.527 248 269.449 248Z" stroke="#FED402" stroke-width="2"/>
<path d="M581.449 248L615.534 248C617.437 248 619.001 246.449 619.001 244.52L619.001 222.2C619.001 220.29 617.456 218.72 615.534 218.72L597.672 218.72L587.366 210L587.366 218.72L581.468 218.72C579.565 218.72 578.001 220.271 578.001 222.2L578.001 244.539C577.982 246.449 579.527 248 581.449 248Z" stroke="#FED402" stroke-width="2"/>
<path d="M269.449 165L303.534 165C305.437 165 307.001 163.449 307.001 161.52L307.001 139.2C307.001 137.29 305.456 135.72 303.534 135.72L285.672 135.72L275.366 127L275.366 135.72L269.468 135.72C267.565 135.72 266.001 137.271 266.001 139.2L266.001 161.539C265.982 163.449 267.527 165 269.449 165Z" stroke="#FED402" stroke-width="2"/>
<path d="M581.449 165L615.534 165C617.437 165 619.001 163.449 619.001 161.52L619.001 139.2C619.001 137.29 617.456 135.72 615.534 135.72L597.672 135.72L587.366 127L587.366 135.72L581.468 135.72C579.565 135.72 578.001 137.271 578.001 139.2L578.001 161.539C577.982 163.449 579.527 165 581.449 165Z" stroke="#FED402" stroke-width="2"/>
<path d="M269.449 414L303.534 414C305.437 414 307.001 412.449 307.001 410.52L307.001 388.2C307.001 386.29 305.456 384.72 303.534 384.72L285.672 384.72L275.366 376L275.366 384.72L269.468 384.72C267.565 384.72 266.001 386.271 266.001 388.2L266.001 410.539C265.982 412.449 267.527 414 269.449 414Z" stroke="#FED402" stroke-width="2"/>
<path d="M581.449 414L615.534 414C617.437 414 619.001 412.449 619.001 410.52L619.001 388.2C619.001 386.29 617.456 384.72 615.534 384.72L597.672 384.72L587.366 376L587.366 384.72L581.468 384.72C579.565 384.72 578.001 386.271 578.001 388.2L578.001 410.539C577.982 412.449 579.527 414 581.449 414Z" stroke="#FED402" stroke-width="2"/>
<path d="M9.44921 248L43.5341 248C45.4371 248 47.001 246.449 47.001 244.52L47.001 222.2C47.001 220.29 45.4559 218.72 43.5341 218.72L25.672 218.72L15.3655 210L15.3655 218.72L9.46805 218.72C7.56502 218.72 6.00115 220.271 6.00115 222.2L6.00115 244.539C5.98231 246.449 7.52734 248 9.44921 248Z" stroke="#FED402" stroke-width="2"/>
<path d="M321.449 248L355.534 248C357.437 248 359.001 246.449 359.001 244.52L359.001 222.2C359.001 220.29 357.456 218.72 355.534 218.72L337.672 218.72L327.366 210L327.366 218.72L321.468 218.72C319.565 218.72 318.001 220.271 318.001 222.2L318.001 244.539C317.982 246.449 319.527 248 321.449 248Z" stroke="#FED402" stroke-width="2"/>
<path d="M633.449 248L667.534 248C669.437 248 671.001 246.449 671.001 244.52L671.001 222.2C671.001 220.29 669.456 218.72 667.534 218.72L649.672 218.72L639.366 210L639.366 218.72L633.468 218.72C631.565 218.72 630.001 220.271 630.001 222.2L630.001 244.539C629.982 246.449 631.527 248 633.449 248Z" stroke="#FED402" stroke-width="2"/>
<path d="M9.44921 165L43.5341 165C45.4371 165 47.001 163.449 47.001 161.52L47.001 139.2C47.001 137.29 45.4559 135.72 43.5341 135.72L25.672 135.72L15.3655 127L15.3655 135.72L9.46805 135.72C7.56502 135.72 6.00115 137.271 6.00115 139.2L6.00115 161.539C5.98231 163.449 7.52734 165 9.44921 165Z" stroke="#FED402" stroke-width="2"/>
<path d="M321.449 165L355.534 165C357.437 165 359.001 163.449 359.001 161.52L359.001 139.2C359.001 137.29 357.456 135.72 355.534 135.72L337.672 135.72L327.366 127L327.366 135.72L321.468 135.72C319.565 135.72 318.001 137.271 318.001 139.2L318.001 161.539C317.982 163.449 319.527 165 321.449 165Z" stroke="#FED402" stroke-width="2"/>
<path d="M633.449 165L667.534 165C669.437 165 671.001 163.449 671.001 161.52L671.001 139.2C671.001 137.29 669.456 135.72 667.534 135.72L649.672 135.72L639.366 127L639.366 135.72L633.468 135.72C631.565 135.72 630.001 137.271 630.001 139.2L630.001 161.539C629.982 163.449 631.527 165 633.449 165Z" stroke="#FED402" stroke-width="2"/>
<path d="M9.44921 414L43.5341 414C45.4371 414 47.001 412.449 47.001 410.52L47.001 388.2C47.001 386.29 45.4559 384.72 43.5341 384.72L25.672 384.72L15.3655 376L15.3655 384.72L9.46805 384.72C7.56502 384.72 6.00115 386.271 6.00115 388.2L6.00115 410.539C5.98231 412.449 7.52734 414 9.44921 414Z" stroke="#FED402" stroke-width="2"/>
<path d="M321.449 414L355.534 414C357.437 414 359.001 412.449 359.001 410.52L359.001 388.2C359.001 386.29 357.456 384.72 355.534 384.72L337.672 384.72L327.366 376L327.366 384.72L321.468 384.72C319.565 384.72 318.001 386.271 318.001 388.2L318.001 410.539C317.982 412.449 319.527 414 321.449 414Z" stroke="#FED402" stroke-width="2"/>
<path d="M633.449 414L667.534 414C669.437 414 671.001 412.449 671.001 410.52L671.001 388.2C671.001 386.29 669.456 384.72 667.534 384.72L649.672 384.72L639.366 376L639.366 384.72L633.468 384.72C631.565 384.72 630.001 386.271 630.001 388.2L630.001 410.539C629.982 412.449 631.527 414 633.449 414Z" stroke="#FED402" stroke-width="2"/>
<path d="M61.4492 248L95.5341 248C97.4371 248 99.001 246.449 99.001 244.52L99.001 222.2C99.001 220.29 97.4559 218.72 95.5341 218.72L77.672 218.72L67.3655 210L67.3655 218.72L61.468 218.72C59.565 218.72 58.0011 220.271 58.0011 222.2L58.0011 244.539C57.9823 246.449 59.5273 248 61.4492 248Z" stroke="#FED402" stroke-width="2"/>
<path d="M373.449 248L407.534 248C409.437 248 411.001 246.449 411.001 244.52L411.001 222.2C411.001 220.29 409.456 218.72 407.534 218.72L389.672 218.72L379.366 210L379.366 218.72L373.468 218.72C371.565 218.72 370.001 220.271 370.001 222.2L370.001 244.539C369.982 246.449 371.527 248 373.449 248Z" stroke="#FED402" stroke-width="2"/>
<path d="M685.449 248L719.534 248C721.437 248 723.001 246.449 723.001 244.52L723.001 222.2C723.001 220.29 721.456 218.72 719.534 218.72L701.672 218.72L691.366 210L691.366 218.72L685.468 218.72C683.565 218.72 682.001 220.271 682.001 222.2L682.001 244.539C681.982 246.449 683.527 248 685.449 248Z" stroke="#FED402" stroke-width="2"/>
<path d="M61.4492 165L95.5341 165C97.4371 165 99.001 163.449 99.001 161.52L99.001 139.2C99.001 137.29 97.4559 135.72 95.5341 135.72L77.672 135.72L67.3655 127L67.3655 135.72L61.468 135.72C59.565 135.72 58.0011 137.271 58.0011 139.2L58.0011 161.539C57.9823 163.449 59.5273 165 61.4492 165Z" stroke="#FED402" stroke-width="2"/>
<path d="M373.449 165L407.534 165C409.437 165 411.001 163.449 411.001 161.52L411.001 139.2C411.001 137.29 409.456 135.72 407.534 135.72L389.672 135.72L379.366 127L379.366 135.72L373.468 135.72C371.565 135.72 370.001 137.271 370.001 139.2L370.001 161.539C369.982 163.449 371.527 165 373.449 165Z" stroke="#FED402" stroke-width="2"/>
<path d="M685.449 165L719.534 165C721.437 165 723.001 163.449 723.001 161.52L723.001 139.2C723.001 137.29 721.456 135.72 719.534 135.72L701.672 135.72L691.366 127L691.366 135.72L685.468 135.72C683.565 135.72 682.001 137.271 682.001 139.2L682.001 161.539C681.982 163.449 683.527 165 685.449 165Z" stroke="#FED402" stroke-width="2"/>
<path d="M61.4492 414L95.5341 414C97.4371 414 99.001 412.449 99.001 410.52L99.001 388.2C99.001 386.29 97.4559 384.72 95.5341 384.72L77.672 384.72L67.3655 376L67.3655 384.72L61.468 384.72C59.565 384.72 58.0011 386.271 58.0011 388.2L58.0011 410.539C57.9823 412.449 59.5273 414 61.4492 414Z" stroke="#FED402" stroke-width="2"/>
<path d="M373.449 414L407.534 414C409.437 414 411.001 412.449 411.001 410.52L411.001 388.2C411.001 386.29 409.456 384.72 407.534 384.72L389.672 384.72L379.366 376L379.366 384.72L373.468 384.72C371.565 384.72 370.001 386.271 370.001 388.2L370.001 410.539C369.982 412.449 371.527 414 373.449 414Z" stroke="#FED402" stroke-width="2"/>
<path d="M685.449 414L719.534 414C721.437 414 723.001 412.449 723.001 410.52L723.001 388.2C723.001 386.29 721.456 384.72 719.534 384.72L701.672 384.72L691.366 376L691.366 384.72L685.468 384.72C683.565 384.72 682.001 386.271 682.001 388.2L682.001 410.539C681.982 412.449 683.527 414 685.449 414Z" stroke="#FED402" stroke-width="2"/>
<path d="M113.449 248L147.534 248C149.437 248 151.001 246.449 151.001 244.52L151.001 222.2C151.001 220.29 149.456 218.72 147.534 218.72L129.672 218.72L119.366 210L119.366 218.72L113.468 218.72C111.565 218.72 110.001 220.271 110.001 222.2L110.001 244.539C109.982 246.449 111.527 248 113.449 248Z" stroke="#FED402" stroke-width="2"/>
<path d="M425.449 248L459.534 248C461.437 248 463.001 246.449 463.001 244.52L463.001 222.2C463.001 220.29 461.456 218.72 459.534 218.72L441.672 218.72L431.366 210L431.366 218.72L425.468 218.72C423.565 218.72 422.001 220.271 422.001 222.2L422.001 244.539C421.982 246.449 423.527 248 425.449 248Z" stroke="#FED402" stroke-width="2"/>
<path d="M113.449 165L147.534 165C149.437 165 151.001 163.449 151.001 161.52L151.001 139.2C151.001 137.29 149.456 135.72 147.534 135.72L129.672 135.72L119.366 127L119.366 135.72L113.468 135.72C111.565 135.72 110.001 137.271 110.001 139.2L110.001 161.539C109.982 163.449 111.527 165 113.449 165Z" stroke="#FED402" stroke-width="2"/>
<path d="M425.449 165L459.534 165C461.437 165 463.001 163.449 463.001 161.52L463.001 139.2C463.001 137.29 461.456 135.72 459.534 135.72L441.672 135.72L431.366 127L431.366 135.72L425.468 135.72C423.565 135.72 422.001 137.271 422.001 139.2L422.001 161.539C421.982 163.449 423.527 165 425.449 165Z" stroke="#FED402" stroke-width="2"/>
<path d="M113.449 414L147.534 414C149.437 414 151.001 412.449 151.001 410.52L151.001 388.2C151.001 386.29 149.456 384.72 147.534 384.72L129.672 384.72L119.366 376L119.366 384.72L113.468 384.72C111.565 384.72 110.001 386.271 110.001 388.2L110.001 410.539C109.982 412.449 111.527 414 113.449 414Z" stroke="#FED402" stroke-width="2"/>
<path d="M425.449 414L459.534 414C461.437 414 463.001 412.449 463.001 410.52L463.001 388.2C463.001 386.29 461.456 384.72 459.534 384.72L441.672 384.72L431.366 376L431.366 384.72L425.468 384.72C423.565 384.72 422.001 386.271 422.001 388.2L422.001 410.539C421.982 412.449 423.527 414 425.449 414Z" stroke="#FED402" stroke-width="2"/>
<path d="M165.449 248L199.534 248C201.437 248 203.001 246.449 203.001 244.52L203.001 222.2C203.001 220.29 201.456 218.72 199.534 218.72L181.672 218.72L171.366 210L171.366 218.72L165.468 218.72C163.565 218.72 162.001 220.271 162.001 222.2L162.001 244.539C161.982 246.449 163.527 248 165.449 248Z" stroke="#FED402" stroke-width="2"/>
<path d="M477.449 248L511.534 248C513.437 248 515.001 246.449 515.001 244.52L515.001 222.2C515.001 220.29 513.456 218.72 511.534 218.72L493.672 218.72L483.366 210L483.366 218.72L477.468 218.72C475.565 218.72 474.001 220.271 474.001 222.2L474.001 244.539C473.982 246.449 475.527 248 477.449 248Z" stroke="#FED402" stroke-width="2"/>
<path d="M165.449 165L199.534 165C201.437 165 203.001 163.449 203.001 161.52L203.001 139.2C203.001 137.29 201.456 135.72 199.534 135.72L181.672 135.72L171.366 127L171.366 135.72L165.468 135.72C163.565 135.72 162.001 137.271 162.001 139.2L162.001 161.539C161.982 163.449 163.527 165 165.449 165Z" stroke="#FED402" stroke-width="2"/>
<path d="M477.449 165L511.534 165C513.437 165 515.001 163.449 515.001 161.52L515.001 139.2C515.001 137.29 513.456 135.72 511.534 135.72L493.672 135.72L483.366 127L483.366 135.72L477.468 135.72C475.565 135.72 474.001 137.271 474.001 139.2L474.001 161.539C473.982 163.449 475.527 165 477.449 165Z" stroke="#FED402" stroke-width="2"/>
<path d="M165.449 414L199.534 414C201.437 414 203.001 412.449 203.001 410.52L203.001 388.2C203.001 386.29 201.456 384.72 199.534 384.72L181.672 384.72L171.366 376L171.366 384.72L165.468 384.72C163.565 384.72 162.001 386.271 162.001 388.2L162.001 410.539C161.982 412.449 163.527 414 165.449 414Z" stroke="#FED402" stroke-width="2"/>
<path d="M477.449 414L511.534 414C513.437 414 515.001 412.449 515.001 410.52L515.001 388.2C515.001 386.29 513.456 384.72 511.534 384.72L493.672 384.72L483.366 376L483.366 384.72L477.468 384.72C475.565 384.72 474.001 386.271 474.001 388.2L474.001 410.539C473.982 412.449 475.527 414 477.449 414Z" stroke="#FED402" stroke-width="2"/>
</g>
</g>
<path d="M151.747 387V333.663H57.8115C26.6276 333.663 1.00293 308.316 1.00293 276.786L1.00299 57.5839C1.00299 57.5818 1.00293 57.5797 1.00293 57.5777C0.697449 26.3442 26.0251 1 57.5083 1H636.194C667.378 1 693.003 26.3473 693.003 57.8777L693.003 276.786C693.003 308.005 667.689 333.663 636.194 333.663H238.947L153.281 387.845L151.747 388.816V387Z" fill="url(#paint0_linear_2007_7)" stroke="url(#paint1_linear_2007_7)" stroke-width="2"/>
<defs>
<linearGradient id="paint0_linear_2007_7" x1="2.00098" y1="2.00003" x2="692.001" y2="387" gradientUnits="userSpaceOnUse">
<stop stop-color="#120D0C"/>
<stop offset="1" stop-color="#120D0C" stop-opacity="0"/>
</linearGradient>
<linearGradient id="paint1_linear_2007_7" x1="-4.99898" y1="2.00002" x2="692.001" y2="387" gradientUnits="userSpaceOnUse">
<stop stop-color="#999999" stop-opacity="0.5"/>
<stop offset="1" stop-color="#FED402" stop-opacity="0.5"/>
</linearGradient>
</defs>
</svg>
