<svg width="284" height="338" viewBox="0 0 284 338" fill="none" xmlns="http://www.w3.org/2000/svg" preserveAspectRatio="none">
<mask id="mask0_2022_3" style="mask-type:alpha" maskUnits="userSpaceOnUse" x="2" y="1" width="281" height="333">
<path d="M259.478 1L24.6471 1C12.2158 1 2 11.1007 2 23.6649L2.00009 289.295C2.00009 301.736 12.0928 311.96 24.6472 311.96H53.6377V334L88.5001 311.96H259.355C271.786 311.96 282.002 301.859 282.002 289.295L282.002 23.5417C282.125 11.1007 272.032 1 259.478 1Z" fill="#FFD500"/>
</mask>
<g mask="url(#mask0_2022_3)">
<g opacity="0.08">
<path d="M7.03549 58.3621H-16.5316C-17.8474 58.3621 -18.9287 59.434 -18.9287 60.7674V76.1927C-18.9287 77.513 -17.8604 78.598 -16.5316 78.598H-4.18136L2.9448 84.6243V78.598H7.02247C8.33826 78.598 9.41956 77.5261 9.41956 76.1927V60.7543C9.43259 59.434 8.36432 58.3621 7.03549 58.3621Z" fill="#FED402"/>
<path d="M222.76 58.3623H199.193C197.877 58.3623 196.796 59.4342 196.796 60.7676V76.1929C196.796 77.5133 197.864 78.5983 199.193 78.5983H211.543L218.669 84.6246V78.5983H222.747C224.063 78.5983 225.144 77.5263 225.144 76.1929V60.7545C225.157 59.4342 224.089 58.3623 222.76 58.3623Z" fill="#FED402"/>
<path d="M7.03549 230.449H-16.5316C-17.8474 230.449 -18.9287 231.521 -18.9287 232.855V248.28C-18.9287 249.6 -17.8604 250.685 -16.5316 250.685H-4.18136L2.9448 256.712V250.685H7.02247C8.33826 250.685 9.41956 249.613 9.41956 248.28V232.842C9.43259 231.521 8.36432 230.449 7.03549 230.449Z" fill="#FED402"/>
<path d="M222.76 230.449H199.193C197.877 230.449 196.796 231.521 196.796 232.855V248.28C196.796 249.6 197.864 250.685 199.193 250.685H211.543L218.669 256.712V250.685H222.747C224.063 250.685 225.144 249.613 225.144 248.28V232.841C225.157 231.521 224.089 230.449 222.76 230.449Z" fill="#FED402"/>
<path d="M42.9896 58.3623H19.4225C18.1067 58.3623 17.0254 59.4342 17.0254 60.7676V76.1929C17.0254 77.5133 18.0937 78.5983 19.4225 78.5983H31.7727L38.8989 84.6246V78.5983H42.9766C44.2924 78.5983 45.3737 77.5263 45.3737 76.1929V60.7545C45.3867 59.4342 44.3184 58.3623 42.9896 58.3623Z" fill="#FED402"/>
<path d="M258.713 58.3623H235.146C233.83 58.3623 232.749 59.4342 232.749 60.7676V76.1929C232.749 77.5133 233.817 78.5983 235.146 78.5983H247.496L254.623 84.6246V78.5983H258.7C260.016 78.5983 261.097 77.5263 261.097 76.1929V60.7545C261.11 59.4342 260.042 58.3623 258.713 58.3623Z" fill="#FED402"/>
<path d="M42.9896 230.449H19.4225C18.1067 230.449 17.0254 231.521 17.0254 232.855V248.28C17.0254 249.6 18.0937 250.685 19.4225 250.685H31.7727L38.8989 256.712V250.685H42.9766C44.2924 250.685 45.3737 249.613 45.3737 248.28V232.841C45.3867 231.521 44.3184 230.449 42.9896 230.449Z" fill="#FED402"/>
<path d="M258.713 230.449H235.146C233.83 230.449 232.749 231.521 232.749 232.855V248.28C232.749 249.6 233.817 250.685 235.146 250.685H247.496L254.623 256.712V250.685H258.7C260.016 250.685 261.097 249.613 261.097 248.28V232.841C261.11 231.521 260.042 230.449 258.713 230.449Z" fill="#FED402"/>
<path d="M78.9437 58.3621H55.3766C54.0608 58.3621 52.9795 59.434 52.9795 60.7674V76.1927C52.9795 77.513 54.0478 78.598 55.3766 78.598H67.7268L74.853 84.6243V78.598H78.9307C80.2465 78.598 81.3278 77.5261 81.3278 76.1927V60.7543C81.3408 59.434 80.2725 58.3621 78.9437 58.3621Z" fill="#FED402"/>
<path d="M294.668 58.3623H271.101C269.785 58.3623 268.704 59.4342 268.704 60.7676V76.1929C268.704 77.5133 269.772 78.5983 271.101 78.5983H283.451L290.578 84.6246V78.5983H294.655C295.971 78.5983 297.052 77.5263 297.052 76.1929V60.7545C297.065 59.4342 295.997 58.3623 294.668 58.3623Z" fill="#FED402"/>
<path d="M78.9437 230.449H55.3766C54.0608 230.449 52.9795 231.521 52.9795 232.855V248.28C52.9795 249.6 54.0478 250.685 55.3766 250.685H67.7268L74.853 256.712V250.685H78.9307C80.2465 250.685 81.3278 249.613 81.3278 248.28V232.842C81.3408 231.521 80.2725 230.449 78.9437 230.449Z" fill="#FED402"/>
<path d="M294.668 230.449H271.101C269.785 230.449 268.704 231.521 268.704 232.855V248.28C268.704 249.6 269.772 250.685 271.101 250.685H283.451L290.578 256.712V250.685H294.655C295.971 250.685 297.052 249.613 297.052 248.28V232.841C297.065 231.521 295.997 230.449 294.668 230.449Z" fill="#FED402"/>
<path d="M114.898 58.3621H91.3307C90.0149 58.3621 88.9336 59.434 88.9336 60.7674V76.1927C88.9336 77.513 90.0019 78.598 91.3307 78.598H103.681L110.807 84.6243V78.598H114.885C116.201 78.598 117.282 77.5261 117.282 76.1927V60.7543C117.295 59.434 116.227 58.3621 114.898 58.3621Z" fill="#FED402"/>
<path d="M114.898 230.449H91.3307C90.0149 230.449 88.9336 231.521 88.9336 232.855V248.28C88.9336 249.6 90.0019 250.685 91.3307 250.685H103.681L110.807 256.712V250.685H114.885C116.201 250.685 117.282 249.613 117.282 248.28V232.842C117.295 231.521 116.227 230.449 114.898 230.449Z" fill="#FED402"/>
<path d="M150.852 58.3621H127.285C125.969 58.3621 124.888 59.434 124.888 60.7674V76.1927C124.888 77.513 125.956 78.598 127.285 78.598H139.635L146.761 84.6243V78.598H150.839C152.155 78.598 153.236 77.5261 153.236 76.1927V60.7543C153.249 59.434 152.181 58.3621 150.852 58.3621Z" fill="#FED402"/>
<path d="M150.852 230.449H127.285C125.969 230.449 124.888 231.521 124.888 232.855V248.28C124.888 249.6 125.956 250.685 127.285 250.685H139.635L146.761 256.712V250.685H150.839C152.155 250.685 153.236 249.613 153.236 248.28V232.842C153.249 231.521 152.181 230.449 150.852 230.449Z" fill="#FED402"/>
<path d="M186.806 58.3623H163.239C161.923 58.3623 160.842 59.4342 160.842 60.7676V76.1929C160.842 77.5133 161.91 78.5983 163.239 78.5983H175.589L182.715 84.6246V78.5983H186.793C188.109 78.5983 189.19 77.5263 189.19 76.1929V60.7545C189.203 59.4342 188.135 58.3623 186.806 58.3623Z" fill="#FED402"/>
<path d="M186.806 230.449H163.239C161.923 230.449 160.842 231.521 160.842 232.855V248.28C160.842 249.6 161.91 250.685 163.239 250.685H175.589L182.715 256.712V250.685H186.793C188.109 250.685 189.19 249.613 189.19 248.28V232.841C189.203 231.521 188.135 230.449 186.806 230.449Z" fill="#FED402"/>
<path d="M7.03549 1H-16.5316C-17.8474 1 -18.9287 2.07193 -18.9287 3.40531V18.8306C-18.9287 20.1509 -17.8604 21.2359 -16.5316 21.2359H-4.18136L2.9448 27.2623V21.2359H7.02247C8.33826 21.2359 9.41956 20.164 9.41956 18.8306V3.39223C9.43259 2.07193 8.36432 1 7.03549 1Z" fill="#FED402"/>
<path d="M222.76 1H199.193C197.877 1 196.796 2.07193 196.796 3.40531V18.8306C196.796 20.1509 197.864 21.2359 199.193 21.2359H211.543L218.669 27.2623V21.2359H222.747C224.063 21.2359 225.144 20.164 225.144 18.8306V3.39223C225.157 2.07193 224.089 1 222.76 1Z" fill="#FED402"/>
<path d="M7.03549 173.087H-16.5316C-17.8474 173.087 -18.9287 174.159 -18.9287 175.492V190.918C-18.9287 192.238 -17.8604 193.323 -16.5316 193.323H-4.18136L2.9448 199.349V193.323H7.02247C8.33826 193.323 9.41956 192.251 9.41956 190.918V175.479C9.43259 174.159 8.36432 173.087 7.03549 173.087Z" fill="#FED402"/>
<path d="M222.76 173.087H199.193C197.877 173.087 196.796 174.159 196.796 175.492V190.918C196.796 192.238 197.864 193.323 199.193 193.323H211.543L218.669 199.349V193.323H222.747C224.063 193.323 225.144 192.251 225.144 190.918V175.479C225.157 174.159 224.089 173.087 222.76 173.087Z" fill="#FED402"/>
<path d="M7.03549 115.725H-16.5316C-17.8474 115.725 -18.9287 116.797 -18.9287 118.13V133.555C-18.9287 134.876 -17.8604 135.961 -16.5316 135.961H-4.18136L2.9448 141.987V135.961H7.02247C8.33826 135.961 9.41956 134.889 9.41956 133.555V118.117C9.43259 116.797 8.36432 115.725 7.03549 115.725Z" fill="#FED402"/>
<path d="M222.76 115.725H199.193C197.877 115.725 196.796 116.797 196.796 118.13V133.555C196.796 134.876 197.864 135.961 199.193 135.961H211.543L218.669 141.987V135.961H222.747C224.063 135.961 225.144 134.889 225.144 133.555V118.117C225.157 116.797 224.089 115.725 222.76 115.725Z" fill="#FED402"/>
<path d="M7.03549 287.812H-16.5316C-17.8474 287.812 -18.9287 288.883 -18.9287 290.217V305.642C-18.9287 306.962 -17.8604 308.047 -16.5316 308.047H-4.18136L2.9448 314.074V308.047H7.02247C8.33826 308.047 9.41956 306.976 9.41956 305.642V290.204C9.43259 288.883 8.36432 287.812 7.03549 287.812Z" fill="#FED402"/>
<path d="M222.76 287.812H199.193C197.877 287.812 196.796 288.883 196.796 290.217V305.642C196.796 306.962 197.864 308.047 199.193 308.047H211.543L218.669 314.074V308.047H222.747C224.063 308.047 225.144 306.976 225.144 305.642V290.204C225.157 288.883 224.089 287.812 222.76 287.812Z" fill="#FED402"/>
<path d="M42.9896 1H19.4225C18.1067 1 17.0254 2.07193 17.0254 3.40531V18.8306C17.0254 20.1509 18.0937 21.2359 19.4225 21.2359H31.7727L38.8989 27.2623V21.2359H42.9766C44.2924 21.2359 45.3737 20.164 45.3737 18.8306V3.39223C45.3867 2.07193 44.3184 1 42.9896 1Z" fill="#FED402"/>
<path d="M258.713 1H235.146C233.83 1 232.749 2.07193 232.749 3.40531V18.8306C232.749 20.1509 233.817 21.2359 235.146 21.2359H247.496L254.623 27.2623V21.2359H258.7C260.016 21.2359 261.097 20.164 261.097 18.8306V3.39223C261.11 2.07193 260.042 1 258.713 1Z" fill="#FED402"/>
<path d="M42.9896 173.087H19.4225C18.1067 173.087 17.0254 174.159 17.0254 175.492V190.918C17.0254 192.238 18.0937 193.323 19.4225 193.323H31.7727L38.8989 199.349V193.323H42.9766C44.2924 193.323 45.3737 192.251 45.3737 190.918V175.479C45.3867 174.159 44.3184 173.087 42.9896 173.087Z" fill="#FED402"/>
<path d="M258.713 173.087H235.146C233.83 173.087 232.749 174.159 232.749 175.492V190.918C232.749 192.238 233.817 193.323 235.146 193.323H247.496L254.623 199.349V193.323H258.7C260.016 193.323 261.097 192.251 261.097 190.918V175.479C261.11 174.159 260.042 173.087 258.713 173.087Z" fill="#FED402"/>
<path d="M42.9896 115.725H19.4225C18.1067 115.725 17.0254 116.797 17.0254 118.13V133.555C17.0254 134.876 18.0937 135.961 19.4225 135.961H31.7727L38.8989 141.987V135.961H42.9766C44.2924 135.961 45.3737 134.889 45.3737 133.555V118.117C45.3867 116.797 44.3184 115.725 42.9896 115.725Z" fill="#FED402"/>
<path d="M258.713 115.725H235.146C233.83 115.725 232.749 116.797 232.749 118.13V133.555C232.749 134.876 233.817 135.961 235.146 135.961H247.496L254.623 141.987V135.961H258.7C260.016 135.961 261.097 134.889 261.097 133.555V118.117C261.11 116.797 260.042 115.725 258.713 115.725Z" fill="#FED402"/>
<path d="M42.9896 287.812H19.4225C18.1067 287.812 17.0254 288.883 17.0254 290.217V305.642C17.0254 306.962 18.0937 308.047 19.4225 308.047H31.7727L38.8989 314.074V308.047H42.9766C44.2924 308.047 45.3737 306.976 45.3737 305.642V290.204C45.3867 288.883 44.3184 287.812 42.9896 287.812Z" fill="#FED402"/>
<path d="M258.713 287.812H235.146C233.83 287.812 232.749 288.883 232.749 290.217V305.642C232.749 306.962 233.817 308.047 235.146 308.047H247.496L254.623 314.074V308.047H258.7C260.016 308.047 261.097 306.976 261.097 305.642V290.204C261.11 288.883 260.042 287.812 258.713 287.812Z" fill="#FED402"/>
<path d="M78.9437 1H55.3766C54.0608 1 52.9795 2.07193 52.9795 3.40531V18.8306C52.9795 20.1509 54.0478 21.2359 55.3766 21.2359H67.7268L74.853 27.2623V21.2359H78.9307C80.2465 21.2359 81.3278 20.164 81.3278 18.8306V3.39223C81.3408 2.07193 80.2725 1 78.9437 1Z" fill="#FED402"/>
<path d="M294.668 1H271.101C269.785 1 268.704 2.07193 268.704 3.40531V18.8306C268.704 20.1509 269.772 21.2359 271.101 21.2359H283.451L290.578 27.2623V21.2359H294.655C295.971 21.2359 297.052 20.164 297.052 18.8306V3.39223C297.065 2.07193 295.997 1 294.668 1Z" fill="#FED402"/>
<path d="M78.9437 173.087H55.3766C54.0608 173.087 52.9795 174.159 52.9795 175.492V190.918C52.9795 192.238 54.0478 193.323 55.3766 193.323H67.7268L74.853 199.349V193.323H78.9307C80.2465 193.323 81.3278 192.251 81.3278 190.918V175.479C81.3408 174.159 80.2725 173.087 78.9437 173.087Z" fill="#FED402"/>
<path d="M294.668 173.087H271.101C269.785 173.087 268.704 174.159 268.704 175.492V190.918C268.704 192.238 269.772 193.323 271.101 193.323H283.451L290.578 199.349V193.323H294.655C295.971 193.323 297.052 192.251 297.052 190.918V175.479C297.065 174.159 295.997 173.087 294.668 173.087Z" fill="#FED402"/>
<path d="M78.9437 115.725H55.3766C54.0608 115.725 52.9795 116.797 52.9795 118.13V133.555C52.9795 134.876 54.0478 135.961 55.3766 135.961H67.7268L74.853 141.987V135.961H78.9307C80.2465 135.961 81.3278 134.889 81.3278 133.555V118.117C81.3408 116.797 80.2725 115.725 78.9437 115.725Z" fill="#FED402"/>
<path d="M294.668 115.725H271.101C269.785 115.725 268.704 116.797 268.704 118.13V133.555C268.704 134.876 269.772 135.961 271.101 135.961H283.451L290.578 141.987V135.961H294.655C295.971 135.961 297.052 134.889 297.052 133.555V118.117C297.065 116.797 295.997 115.725 294.668 115.725Z" fill="#FED402"/>
<path d="M78.9437 287.812H55.3766C54.0608 287.812 52.9795 288.883 52.9795 290.217V305.642C52.9795 306.962 54.0478 308.047 55.3766 308.047H67.7268L74.853 314.074V308.047H78.9307C80.2465 308.047 81.3278 306.976 81.3278 305.642V290.204C81.3408 288.883 80.2725 287.812 78.9437 287.812Z" fill="#FED402"/>
<path d="M294.668 287.812H271.101C269.785 287.812 268.704 288.883 268.704 290.217V305.642C268.704 306.962 269.772 308.047 271.101 308.047H283.451L290.578 314.074V308.047H294.655C295.971 308.047 297.052 306.976 297.052 305.642V290.204C297.065 288.883 295.997 287.812 294.668 287.812Z" fill="#FED402"/>
<path d="M114.898 1H91.3307C90.0149 1 88.9336 2.07193 88.9336 3.40531V18.8306C88.9336 20.1509 90.0019 21.2359 91.3307 21.2359H103.681L110.807 27.2623V21.2359H114.885C116.201 21.2359 117.282 20.164 117.282 18.8306V3.39223C117.295 2.07193 116.227 1 114.898 1Z" fill="#FED402"/>
<path d="M114.898 173.087H91.3307C90.0149 173.087 88.9336 174.159 88.9336 175.492V190.918C88.9336 192.238 90.0019 193.323 91.3307 193.323H103.681L110.807 199.349V193.323H114.885C116.201 193.323 117.282 192.251 117.282 190.918V175.479C117.295 174.159 116.227 173.087 114.898 173.087Z" fill="#FED402"/>
<path d="M114.898 115.725H91.3307C90.0149 115.725 88.9336 116.797 88.9336 118.13V133.555C88.9336 134.876 90.0019 135.961 91.3307 135.961H103.681L110.807 141.987V135.961H114.885C116.201 135.961 117.282 134.889 117.282 133.555V118.117C117.295 116.797 116.227 115.725 114.898 115.725Z" fill="#FED402"/>
<path d="M114.898 287.812H91.3307C90.0149 287.812 88.9336 288.883 88.9336 290.217V305.642C88.9336 306.962 90.0019 308.047 91.3307 308.047H103.681L110.807 314.074V308.047H114.885C116.201 308.047 117.282 306.976 117.282 305.642V290.204C117.295 288.883 116.227 287.812 114.898 287.812Z" fill="#FED402"/>
<path d="M150.852 1H127.285C125.969 1 124.888 2.07193 124.888 3.40531V18.8306C124.888 20.1509 125.956 21.2359 127.285 21.2359H139.635L146.761 27.2623V21.2359H150.839C152.155 21.2359 153.236 20.164 153.236 18.8306V3.39223C153.249 2.07193 152.181 1 150.852 1Z" fill="#FED402"/>
<path d="M150.852 173.087H127.285C125.969 173.087 124.888 174.159 124.888 175.492V190.918C124.888 192.238 125.956 193.323 127.285 193.323H139.635L146.761 199.349V193.323H150.839C152.155 193.323 153.236 192.251 153.236 190.918V175.479C153.249 174.159 152.181 173.087 150.852 173.087Z" fill="#FED402"/>
<path d="M150.852 115.725H127.285C125.969 115.725 124.888 116.797 124.888 118.13V133.555C124.888 134.876 125.956 135.961 127.285 135.961H139.635L146.761 141.987V135.961H150.839C152.155 135.961 153.236 134.889 153.236 133.555V118.117C153.249 116.797 152.181 115.725 150.852 115.725Z" fill="#FED402"/>
<path d="M150.852 287.812H127.285C125.969 287.812 124.888 288.883 124.888 290.217V305.642C124.888 306.962 125.956 308.047 127.285 308.047H139.635L146.761 314.074V308.047H150.839C152.155 308.047 153.236 306.976 153.236 305.642V290.204C153.249 288.883 152.181 287.812 150.852 287.812Z" fill="#FED402"/>
<path d="M186.806 1H163.239C161.923 1 160.842 2.07193 160.842 3.40531V18.8306C160.842 20.1509 161.91 21.2359 163.239 21.2359H175.589L182.715 27.2623V21.2359H186.793C188.109 21.2359 189.19 20.164 189.19 18.8306V3.39223C189.203 2.07193 188.135 1 186.806 1Z" fill="#FED402"/>
<path d="M186.806 173.087H163.239C161.923 173.087 160.842 174.159 160.842 175.492V190.918C160.842 192.238 161.91 193.323 163.239 193.323H175.589L182.715 199.349V193.323H186.793C188.109 193.323 189.19 192.251 189.19 190.918V175.479C189.203 174.159 188.135 173.087 186.806 173.087Z" fill="#FED402"/>
<path d="M186.806 115.725H163.239C161.923 115.725 160.842 116.797 160.842 118.13V133.555C160.842 134.876 161.91 135.961 163.239 135.961H175.589L182.715 141.987V135.961H186.793C188.109 135.961 189.19 134.889 189.19 133.555V118.117C189.203 116.797 188.135 115.725 186.806 115.725Z" fill="#FED402"/>
<path d="M186.806 287.812H163.239C161.923 287.812 160.842 288.883 160.842 290.217V305.642C160.842 306.962 161.91 308.047 163.239 308.047H175.589L182.715 314.074V308.047H186.793C188.109 308.047 189.19 306.976 189.19 305.642V290.204C189.203 288.883 188.135 287.812 186.806 287.812Z" fill="#FED402"/>
<path d="M-16.5433 109.505L7.0238 109.505C8.3396 109.505 9.4209 108.433 9.4209 107.1L9.4209 91.6742C9.4209 90.3539 8.35263 89.2689 7.0238 89.2689L-5.32645 89.2689L-12.4526 83.2426L-12.4526 89.2689L-16.5303 89.2689C-17.8461 89.2689 -18.9274 90.3409 -18.9274 91.6742L-18.9274 107.113C-18.9404 108.433 -17.8721 109.505 -16.5433 109.505Z" stroke="#FED402"/>
<path d="M199.18 109.505L222.747 109.505C224.063 109.505 225.145 108.433 225.145 107.1L225.145 91.6742C225.145 90.3539 224.076 89.2689 222.747 89.2689L210.397 89.2689L203.271 83.2426L203.271 89.2689L199.193 89.2689C197.878 89.2689 196.796 90.3409 196.796 91.6742L196.796 107.113C196.783 108.433 197.852 109.505 199.18 109.505Z" stroke="#FED402"/>
<path d="M-16.5433 281.592L7.0238 281.592C8.3396 281.592 9.4209 280.52 9.4209 279.186L9.4209 263.761C9.4209 262.441 8.35263 261.356 7.0238 261.356L-5.32645 261.356L-12.4526 255.33L-12.4526 261.356L-16.5303 261.356C-17.8461 261.356 -18.9274 262.428 -18.9274 263.761L-18.9274 279.2C-18.9404 280.52 -17.8721 281.592 -16.5433 281.592Z" stroke="#FED402"/>
<path d="M199.18 281.592L222.747 281.592C224.063 281.592 225.145 280.52 225.145 279.186L225.145 263.761C225.145 262.441 224.076 261.356 222.747 261.356L210.397 261.356L203.271 255.33L203.271 261.356L199.193 261.356C197.878 261.356 196.796 262.428 196.796 263.761L196.796 279.2C196.783 280.52 197.852 281.592 199.18 281.592Z" stroke="#FED402"/>
<path d="M19.4108 109.505L42.9779 109.505C44.2937 109.505 45.375 108.433 45.375 107.1L45.375 91.6742C45.375 90.3539 44.3067 89.2689 42.9779 89.2689L30.6276 89.2689L23.5015 83.2426L23.5015 89.2689L19.4238 89.2689C18.108 89.2689 17.0267 90.3409 17.0267 91.6742L17.0267 107.113C17.0137 108.433 18.082 109.505 19.4108 109.505Z" stroke="#FED402"/>
<path d="M235.134 109.505L258.702 109.505C260.017 109.505 261.099 108.433 261.099 107.1L261.099 91.6742C261.099 90.3539 260.03 89.2689 258.702 89.2689L246.351 89.2689L239.225 83.2426L239.225 89.2689L235.147 89.2689C233.832 89.2689 232.75 90.3409 232.75 91.6742L232.75 107.113C232.737 108.433 233.806 109.505 235.134 109.505Z" stroke="#FED402"/>
<path d="M19.4108 281.592L42.9779 281.592C44.2937 281.592 45.375 280.52 45.375 279.186L45.375 263.761C45.375 262.441 44.3067 261.356 42.9779 261.356L30.6276 261.356L23.5015 255.33L23.5015 261.356L19.4238 261.356C18.108 261.356 17.0267 262.428 17.0267 263.761L17.0267 279.2C17.0137 280.52 18.082 281.592 19.4108 281.592Z" stroke="#FED402"/>
<path d="M235.134 281.592L258.702 281.592C260.017 281.592 261.099 280.52 261.099 279.186L261.099 263.761C261.099 262.441 260.03 261.356 258.702 261.356L246.351 261.356L239.225 255.329L239.225 261.356L235.147 261.356C233.832 261.356 232.75 262.428 232.75 263.761L232.75 279.199C232.737 280.52 233.806 281.592 235.134 281.592Z" stroke="#FED402"/>
<path d="M55.3639 109.505L78.931 109.505C80.2468 109.505 81.3281 108.433 81.3281 107.1L81.3281 91.6742C81.3281 90.3539 80.2599 89.2689 78.931 89.2689L66.5808 89.2689L59.4546 83.2426L59.4546 89.2689L55.3769 89.2689C54.0612 89.2689 52.9799 90.3409 52.9799 91.6742L52.9799 107.113C52.9668 108.433 54.0351 109.505 55.3639 109.505Z" stroke="#FED402"/>
<path d="M271.089 109.505L294.656 109.505C295.971 109.505 297.053 108.433 297.053 107.1L297.053 91.6742C297.053 90.3539 295.984 89.2689 294.656 89.2689L282.305 89.2689L275.179 83.2426L275.179 89.2689L271.102 89.2689C269.786 89.2689 268.704 90.3409 268.704 91.6742L268.704 107.113C268.691 108.433 269.76 109.505 271.089 109.505Z" stroke="#FED402"/>
<path d="M55.3639 281.592L78.931 281.592C80.2468 281.592 81.3281 280.52 81.3281 279.186L81.3281 263.761C81.3281 262.441 80.2599 261.356 78.931 261.356L66.5808 261.356L59.4546 255.33L59.4546 261.356L55.3769 261.356C54.0612 261.356 52.9799 262.428 52.9799 263.761L52.9799 279.2C52.9668 280.52 54.0351 281.592 55.3639 281.592Z" stroke="#FED402"/>
<path d="M271.089 281.592L294.656 281.592C295.971 281.592 297.053 280.52 297.053 279.186L297.053 263.761C297.053 262.441 295.984 261.356 294.656 261.356L282.305 261.356L275.179 255.329L275.179 261.356L271.102 261.356C269.786 261.356 268.704 262.428 268.704 263.761L268.704 279.199C268.691 280.52 269.76 281.592 271.089 281.592Z" stroke="#FED402"/>
<path d="M91.318 109.505L114.885 109.505C116.201 109.505 117.282 108.433 117.282 107.1L117.282 91.6742C117.282 90.3539 116.214 89.2689 114.885 89.2689L102.535 89.2689L95.4087 83.2426L95.4087 89.2689L91.331 89.2689C90.0153 89.2689 88.934 90.3409 88.934 91.6742L88.934 107.113C88.9209 108.433 89.9892 109.505 91.318 109.505Z" stroke="#FED402"/>
<path d="M91.318 281.592L114.885 281.592C116.201 281.592 117.282 280.52 117.282 279.186L117.282 263.761C117.282 262.441 116.214 261.356 114.885 261.356L102.535 261.356L95.4087 255.329L95.4087 261.356L91.331 261.356C90.0153 261.356 88.934 262.428 88.934 263.761L88.934 279.199C88.9209 280.52 89.9892 281.592 91.318 281.592Z" stroke="#FED402"/>
<path d="M127.272 109.505L150.839 109.505C152.155 109.505 153.236 108.433 153.236 107.1L153.236 91.6742C153.236 90.3539 152.168 89.2689 150.839 89.2689L138.489 89.2689L131.363 83.2426L131.363 89.2689L127.285 89.2689C125.969 89.2689 124.888 90.3409 124.888 91.6742L124.888 107.113C124.875 108.433 125.943 109.505 127.272 109.505Z" stroke="#FED402"/>
<path d="M127.272 281.592L150.839 281.592C152.155 281.592 153.236 280.52 153.236 279.186L153.236 263.761C153.236 262.441 152.168 261.356 150.839 261.356L138.489 261.356L131.363 255.329L131.363 261.356L127.285 261.356C125.969 261.356 124.888 262.428 124.888 263.761L124.888 279.199C124.875 280.52 125.943 281.592 127.272 281.592Z" stroke="#FED402"/>
<path d="M163.226 109.505L186.793 109.505C188.109 109.505 189.19 108.433 189.19 107.1L189.19 91.6742C189.19 90.3539 188.122 89.2689 186.793 89.2689L174.443 89.2689L167.317 83.2426L167.317 89.2689L163.239 89.2689C161.923 89.2689 160.842 90.3409 160.842 91.6742L160.842 107.113C160.829 108.433 161.897 109.505 163.226 109.505Z" stroke="#FED402"/>
<path d="M163.226 281.592L186.793 281.592C188.109 281.592 189.19 280.52 189.19 279.186L189.19 263.761C189.19 262.441 188.122 261.356 186.793 261.356L174.443 261.356L167.317 255.329L167.317 261.356L163.239 261.356C161.923 261.356 160.842 262.428 160.842 263.761L160.842 279.199C160.829 280.52 161.897 281.592 163.226 281.592Z" stroke="#FED402"/>
<path d="M-16.5433 52.1426L7.0238 52.1426C8.3396 52.1426 9.4209 51.0706 9.4209 49.7373L9.4209 34.3119C9.4209 32.9916 8.35263 31.9066 7.0238 31.9066L-5.32645 31.9066L-12.4526 25.8803L-12.4526 31.9066L-16.5303 31.9066C-17.8461 31.9066 -18.9274 32.9786 -18.9274 34.3119L-18.9274 49.7503C-18.9404 51.0706 -17.8721 52.1426 -16.5433 52.1426Z" stroke="#FED402"/>
<path d="M199.18 52.1426L222.747 52.1426C224.063 52.1426 225.145 51.0706 225.145 49.7373L225.145 34.3119C225.145 32.9916 224.076 31.9066 222.747 31.9066L210.397 31.9066L203.271 25.8803L203.271 31.9066L199.193 31.9066C197.878 31.9066 196.796 32.9786 196.796 34.3119L196.796 49.7503C196.783 51.0706 197.852 52.1426 199.18 52.1426Z" stroke="#FED402"/>
<path d="M-16.5433 224.229L7.0238 224.229C8.3396 224.229 9.4209 223.158 9.4209 221.824L9.4209 206.399C9.4209 205.079 8.35263 203.994 7.0238 203.994L-5.32645 203.994L-12.4526 197.967L-12.4526 203.994L-16.5303 203.994C-17.8461 203.994 -18.9274 205.065 -18.9274 206.399L-18.9274 221.837C-18.9404 223.158 -17.8721 224.229 -16.5433 224.229Z" stroke="#FED402"/>
<path d="M199.18 224.229L222.747 224.229C224.063 224.229 225.145 223.158 225.145 221.824L225.145 206.399C225.145 205.079 224.076 203.994 222.747 203.994L210.397 203.994L203.271 197.967L203.271 203.994L199.193 203.994C197.878 203.994 196.796 205.065 196.796 206.399L196.796 221.837C196.783 223.158 197.852 224.229 199.18 224.229Z" stroke="#FED402"/>
<path d="M-16.5433 166.867L7.0238 166.867C8.3396 166.867 9.4209 165.795 9.4209 164.462L9.4209 149.037C9.4209 147.716 8.35263 146.631 7.0238 146.631L-5.32645 146.631L-12.4526 140.605L-12.4526 146.631L-16.5303 146.631C-17.8461 146.631 -18.9274 147.703 -18.9274 149.037L-18.9274 164.475C-18.9404 165.795 -17.8721 166.867 -16.5433 166.867Z" stroke="#FED402"/>
<path d="M199.18 166.867L222.747 166.867C224.063 166.867 225.145 165.795 225.145 164.462L225.145 149.037C225.145 147.716 224.076 146.631 222.747 146.631L210.397 146.631L203.271 140.605L203.271 146.631L199.193 146.631C197.878 146.631 196.796 147.703 196.796 149.037L196.796 164.475C196.783 165.795 197.852 166.867 199.18 166.867Z" stroke="#FED402"/>
<path d="M-16.5433 338.954L7.0238 338.954C8.3396 338.954 9.4209 337.882 9.4209 336.549L9.4209 321.123C9.4209 319.803 8.35263 318.718 7.0238 318.718L-5.32645 318.718L-12.4526 312.692L-12.4526 318.718L-16.5303 318.718C-17.8461 318.718 -18.9274 319.79 -18.9274 321.123L-18.9274 336.562C-18.9404 337.882 -17.8721 338.954 -16.5433 338.954Z" stroke="#FED402"/>
<path d="M199.18 338.954L222.747 338.954C224.063 338.954 225.145 337.882 225.145 336.549L225.145 321.123C225.145 319.803 224.076 318.718 222.747 318.718L210.397 318.718L203.271 312.692L203.271 318.718L199.193 318.718C197.878 318.718 196.796 319.79 196.796 321.123L196.796 336.562C196.783 337.882 197.852 338.954 199.18 338.954Z" stroke="#FED402"/>
<path d="M19.4108 52.1426L42.9779 52.1426C44.2937 52.1426 45.375 51.0706 45.375 49.7373L45.375 34.3119C45.375 32.9916 44.3067 31.9066 42.9779 31.9066L30.6276 31.9066L23.5015 25.8803L23.5015 31.9066L19.4238 31.9066C18.108 31.9066 17.0267 32.9786 17.0267 34.3119L17.0267 49.7503C17.0137 51.0706 18.082 52.1426 19.4108 52.1426Z" stroke="#FED402"/>
<path d="M235.134 52.1426L258.702 52.1426C260.017 52.1426 261.099 51.0706 261.099 49.7373L261.099 34.3119C261.099 32.9916 260.03 31.9066 258.702 31.9066L246.351 31.9066L239.225 25.8803L239.225 31.9066L235.147 31.9066C233.832 31.9066 232.75 32.9786 232.75 34.3119L232.75 49.7503C232.737 51.0706 233.806 52.1426 235.134 52.1426Z" stroke="#FED402"/>
<path d="M19.4108 224.229L42.9779 224.229C44.2937 224.229 45.375 223.158 45.375 221.824L45.375 206.399C45.375 205.079 44.3067 203.994 42.9779 203.994L30.6276 203.994L23.5015 197.967L23.5015 203.994L19.4238 203.994C18.108 203.994 17.0267 205.065 17.0267 206.399L17.0267 221.837C17.0137 223.158 18.082 224.229 19.4108 224.229Z" stroke="#FED402"/>
<path d="M235.134 224.229L258.702 224.229C260.017 224.229 261.099 223.158 261.099 221.824L261.099 206.399C261.099 205.079 260.03 203.994 258.702 203.994L246.351 203.994L239.225 197.967L239.225 203.994L235.147 203.994C233.832 203.994 232.75 205.065 232.75 206.399L232.75 221.837C232.737 223.158 233.806 224.229 235.134 224.229Z" stroke="#FED402"/>
<path d="M19.4108 166.867L42.9779 166.867C44.2937 166.867 45.375 165.795 45.375 164.462L45.375 149.037C45.375 147.716 44.3067 146.631 42.9779 146.631L30.6276 146.631L23.5015 140.605L23.5015 146.631L19.4238 146.631C18.108 146.631 17.0267 147.703 17.0267 149.037L17.0267 164.475C17.0137 165.795 18.082 166.867 19.4108 166.867Z" stroke="#FED402"/>
<path d="M235.134 166.867L258.702 166.867C260.017 166.867 261.099 165.795 261.099 164.462L261.099 149.037C261.099 147.716 260.03 146.631 258.702 146.631L246.351 146.631L239.225 140.605L239.225 146.631L235.147 146.631C233.832 146.631 232.75 147.703 232.75 149.037L232.75 164.475C232.737 165.795 233.806 166.867 235.134 166.867Z" stroke="#FED402"/>
<path d="M19.4108 338.954L42.9779 338.954C44.2937 338.954 45.375 337.882 45.375 336.549L45.375 321.123C45.375 319.803 44.3067 318.718 42.9779 318.718L30.6276 318.718L23.5015 312.692L23.5015 318.718L19.4238 318.718C18.108 318.718 17.0267 319.79 17.0267 321.123L17.0267 336.562C17.0137 337.882 18.082 338.954 19.4108 338.954Z" stroke="#FED402"/>
<path d="M235.134 338.954L258.702 338.954C260.017 338.954 261.099 337.882 261.099 336.549L261.099 321.123C261.099 319.803 260.03 318.718 258.702 318.718L246.351 318.718L239.225 312.692L239.225 318.718L235.147 318.718C233.832 318.718 232.75 319.79 232.75 321.123L232.75 336.562C232.737 337.882 233.806 338.954 235.134 338.954Z" stroke="#FED402"/>
<path d="M55.3639 52.1426L78.931 52.1426C80.2468 52.1426 81.3281 51.0706 81.3281 49.7373L81.3281 34.3119C81.3281 32.9916 80.2599 31.9066 78.931 31.9066L66.5808 31.9066L59.4546 25.8803L59.4546 31.9066L55.3769 31.9066C54.0612 31.9066 52.9799 32.9786 52.9799 34.3119L52.9799 49.7503C52.9668 51.0706 54.0351 52.1426 55.3639 52.1426Z" stroke="#FED402"/>
<path d="M271.089 52.1426L294.656 52.1426C295.971 52.1426 297.053 51.0706 297.053 49.7373L297.053 34.3119C297.053 32.9916 295.984 31.9066 294.656 31.9066L282.305 31.9066L275.179 25.8803L275.179 31.9066L271.102 31.9066C269.786 31.9066 268.704 32.9786 268.704 34.3119L268.704 49.7503C268.691 51.0706 269.76 52.1426 271.089 52.1426Z" stroke="#FED402"/>
<path d="M55.3639 224.229L78.931 224.229C80.2468 224.229 81.3281 223.158 81.3281 221.824L81.3281 206.399C81.3281 205.079 80.2599 203.994 78.931 203.994L66.5808 203.994L59.4546 197.967L59.4546 203.994L55.3769 203.994C54.0612 203.994 52.9799 205.065 52.9799 206.399L52.9799 221.837C52.9668 223.158 54.0351 224.229 55.3639 224.229Z" stroke="#FED402"/>
<path d="M271.089 224.229L294.656 224.229C295.971 224.229 297.053 223.158 297.053 221.824L297.053 206.399C297.053 205.079 295.984 203.994 294.656 203.994L282.305 203.994L275.179 197.967L275.179 203.994L271.102 203.994C269.786 203.994 268.704 205.065 268.704 206.399L268.704 221.837C268.691 223.158 269.76 224.229 271.089 224.229Z" stroke="#FED402"/>
<path d="M55.3639 166.867L78.931 166.867C80.2468 166.867 81.3281 165.795 81.3281 164.462L81.3281 149.037C81.3281 147.716 80.2599 146.631 78.931 146.631L66.5808 146.631L59.4546 140.605L59.4546 146.631L55.3769 146.631C54.0612 146.631 52.9799 147.703 52.9799 149.037L52.9799 164.475C52.9668 165.795 54.0351 166.867 55.3639 166.867Z" stroke="#FED402"/>
<path d="M271.089 166.867L294.656 166.867C295.971 166.867 297.053 165.795 297.053 164.462L297.053 149.037C297.053 147.716 295.984 146.631 294.656 146.631L282.305 146.631L275.179 140.605L275.179 146.631L271.102 146.631C269.786 146.631 268.704 147.703 268.704 149.037L268.704 164.475C268.691 165.795 269.76 166.867 271.089 166.867Z" stroke="#FED402"/>
<path d="M55.3639 338.954L78.931 338.954C80.2468 338.954 81.3281 337.882 81.3281 336.549L81.3281 321.123C81.3281 319.803 80.2599 318.718 78.931 318.718L66.5808 318.718L59.4546 312.692L59.4546 318.718L55.3769 318.718C54.0612 318.718 52.9799 319.79 52.9799 321.123L52.9799 336.562C52.9668 337.882 54.0351 338.954 55.3639 338.954Z" stroke="#FED402"/>
<path d="M271.089 338.954L294.656 338.954C295.971 338.954 297.053 337.882 297.053 336.549L297.053 321.123C297.053 319.803 295.984 318.718 294.656 318.718L282.305 318.718L275.179 312.692L275.179 318.718L271.102 318.718C269.786 318.718 268.704 319.79 268.704 321.123L268.704 336.562C268.691 337.882 269.76 338.954 271.089 338.954Z" stroke="#FED402"/>
<path d="M91.318 52.1426L114.885 52.1426C116.201 52.1426 117.282 51.0706 117.282 49.7373L117.282 34.3119C117.282 32.9916 116.214 31.9066 114.885 31.9066L102.535 31.9066L95.4087 25.8803L95.4087 31.9066L91.331 31.9066C90.0153 31.9066 88.934 32.9786 88.934 34.3119L88.934 49.7503C88.9209 51.0706 89.9892 52.1426 91.318 52.1426Z" stroke="#FED402"/>
<path d="M91.318 224.229L114.885 224.229C116.201 224.229 117.282 223.158 117.282 221.824L117.282 206.399C117.282 205.079 116.214 203.994 114.885 203.994L102.535 203.994L95.4087 197.967L95.4087 203.994L91.331 203.994C90.0153 203.994 88.934 205.065 88.934 206.399L88.934 221.837C88.9209 223.158 89.9892 224.229 91.318 224.229Z" stroke="#FED402"/>
<path d="M91.318 166.867L114.885 166.867C116.201 166.867 117.282 165.795 117.282 164.462L117.282 149.037C117.282 147.716 116.214 146.631 114.885 146.631L102.535 146.631L95.4087 140.605L95.4087 146.631L91.331 146.631C90.0153 146.631 88.934 147.703 88.934 149.037L88.934 164.475C88.9209 165.795 89.9892 166.867 91.318 166.867Z" stroke="#FED402"/>
<path d="M91.318 338.954L114.885 338.954C116.201 338.954 117.282 337.882 117.282 336.549L117.282 321.123C117.282 319.803 116.214 318.718 114.885 318.718L102.535 318.718L95.4087 312.692L95.4087 318.718L91.331 318.718C90.0153 318.718 88.934 319.79 88.934 321.123L88.934 336.562C88.9209 337.882 89.9892 338.954 91.318 338.954Z" stroke="#FED402"/>
<path d="M127.272 52.1426L150.839 52.1426C152.155 52.1426 153.236 51.0706 153.236 49.7373L153.236 34.3119C153.236 32.9916 152.168 31.9066 150.839 31.9066L138.489 31.9066L131.363 25.8803L131.363 31.9066L127.285 31.9066C125.969 31.9066 124.888 32.9786 124.888 34.3119L124.888 49.7503C124.875 51.0706 125.943 52.1426 127.272 52.1426Z" stroke="#FED402"/>
<path d="M127.272 224.229L150.839 224.229C152.155 224.229 153.236 223.158 153.236 221.824L153.236 206.399C153.236 205.079 152.168 203.994 150.839 203.994L138.489 203.994L131.363 197.967L131.363 203.994L127.285 203.994C125.969 203.994 124.888 205.065 124.888 206.399L124.888 221.837C124.875 223.158 125.943 224.229 127.272 224.229Z" stroke="#FED402"/>
<path d="M127.272 166.867L150.839 166.867C152.155 166.867 153.236 165.795 153.236 164.462L153.236 149.037C153.236 147.716 152.168 146.631 150.839 146.631L138.489 146.631L131.363 140.605L131.363 146.631L127.285 146.631C125.969 146.631 124.888 147.703 124.888 149.037L124.888 164.475C124.875 165.795 125.943 166.867 127.272 166.867Z" stroke="#FED402"/>
<path d="M127.272 338.954L150.839 338.954C152.155 338.954 153.236 337.882 153.236 336.549L153.236 321.123C153.236 319.803 152.168 318.718 150.839 318.718L138.489 318.718L131.363 312.692L131.363 318.718L127.285 318.718C125.969 318.718 124.888 319.79 124.888 321.123L124.888 336.562C124.875 337.882 125.943 338.954 127.272 338.954Z" stroke="#FED402"/>
<path d="M163.226 52.1426L186.793 52.1426C188.109 52.1426 189.19 51.0706 189.19 49.7373L189.19 34.3119C189.19 32.9916 188.122 31.9066 186.793 31.9066L174.443 31.9066L167.317 25.8803L167.317 31.9066L163.239 31.9066C161.923 31.9066 160.842 32.9786 160.842 34.3119L160.842 49.7503C160.829 51.0706 161.897 52.1426 163.226 52.1426Z" stroke="#FED402"/>
<path d="M163.226 224.229L186.793 224.229C188.109 224.229 189.19 223.158 189.19 221.824L189.19 206.399C189.19 205.079 188.122 203.994 186.793 203.994L174.443 203.994L167.317 197.967L167.317 203.994L163.239 203.994C161.923 203.994 160.842 205.065 160.842 206.399L160.842 221.837C160.829 223.158 161.897 224.229 163.226 224.229Z" stroke="#FED402"/>
<path d="M163.226 166.867L186.793 166.867C188.109 166.867 189.19 165.795 189.19 164.462L189.19 149.037C189.19 147.716 188.122 146.631 186.793 146.631L174.443 146.631L167.317 140.605L167.317 146.631L163.239 146.631C161.923 146.631 160.842 147.703 160.842 149.037L160.842 164.475C160.829 165.795 161.897 166.867 163.226 166.867Z" stroke="#FED402"/>
<path d="M163.226 338.954L186.793 338.954C188.109 338.954 189.19 337.882 189.19 336.549L189.19 321.123C189.19 319.803 188.122 318.718 186.793 318.718L174.443 318.718L167.317 312.692L167.317 318.718L163.239 318.718C161.923 318.718 160.842 319.79 160.842 321.123L160.842 336.562C160.829 337.882 161.897 338.954 163.226 338.954Z" stroke="#FED402"/>
</g>
</g>
<path d="M24.6469 312.236H53V333.384V335.204L54.5362 334.228L89.1529 312.236H259.352C272.337 312.236 282.999 301.636 282.999 288.46V24.656C283.124 11.5967 272.579 1 259.475 1H24.6469C11.6616 1 1 11.5998 1 24.7762L1 288.46C1 301.505 11.5315 312.236 24.6469 312.236Z" fill="url(#paint0_linear_2022_3)" stroke="url(#paint1_linear_2022_3)" stroke-width="2"/>
<defs>
<linearGradient id="paint0_linear_2022_3" x1="1.99993" y1="176.455" x2="273.267" y2="332.337" gradientUnits="userSpaceOnUse">
<stop stop-color="#120D0C"/>
<stop offset="1" stop-color="#120D0C" stop-opacity="0"/>
</linearGradient>
<linearGradient id="paint1_linear_2022_3" x1="1.99998" y1="176.455" x2="270.43" y2="332.343" gradientUnits="userSpaceOnUse">
<stop stop-color="#999999" stop-opacity="0.5"/>
<stop offset="1" stop-color="#FED402" stop-opacity="0.5"/>
</linearGradient>
</defs>
</svg>
