<svg width="1920" height="715" viewBox="0 0 1920 715" fill="none" xmlns="http://www.w3.org/2000/svg">
<g opacity="0.015">
<path d="M646.488 62.9316H59.6858C26.9235 62.9316 0 89.5308 0 122.617V505.385C0 538.148 26.5991 565.071 59.6858 565.071H367.198L544.633 714.61V565.071H646.164C678.927 565.071 705.85 538.472 705.85 505.385V122.293C706.174 89.5308 679.575 62.9316 646.488 62.9316Z" fill="white"/>
<path d="M840.143 300.049C861.876 311.078 886.853 316.268 915.074 316.268C940.051 316.268 962.434 312.051 982.87 303.293C1003.31 294.535 1019.85 282.533 1032.82 266.963C1045.8 251.392 1053.91 233.551 1056.83 213.44H999.737C995.845 231.281 986.438 245.229 971.192 255.934C955.946 266.638 937.132 272.153 915.074 272.153C897.558 272.153 882.636 268.909 869.337 262.097C856.362 255.285 846.306 245.554 839.169 232.903C832.033 220.252 828.465 205.006 828.465 187.814C828.465 170.298 832.033 155.052 839.169 142.401C846.306 129.75 856.362 120.019 869.337 113.207C882.312 106.395 897.558 103.151 915.074 103.151C936.808 103.151 955.297 108.341 970.543 118.721C985.789 129.101 995.52 143.698 999.737 162.188H1056.83C1053.91 141.752 1046.12 123.587 1032.82 108.017C1019.85 92.4464 1002.98 80.4444 982.87 71.6861C962.434 62.9279 940.051 58.7109 915.074 58.7109C886.529 58.7109 861.552 64.2254 840.143 74.9299C818.409 85.9588 801.541 100.88 789.539 120.343C777.213 139.806 771.374 162.188 771.374 187.814C771.374 213.44 777.537 235.822 789.539 255.285C801.866 274.099 818.733 289.02 840.143 300.049Z" fill="white"/>
<path d="M1354.93 238.097C1340.01 248.802 1322.49 257.235 1302.71 263.074C1282.92 268.913 1263.78 271.833 1244.97 271.833C1224.21 271.833 1206.04 268.264 1190.8 261.128C1175.55 253.992 1163.87 243.936 1155.44 230.636C1150.9 223.5 1147.98 215.715 1145.71 207.281H1361.42C1361.42 177.114 1355.91 150.839 1344.88 128.457C1333.85 106.075 1318.28 88.8825 1298.17 76.5561C1278.05 64.2296 1254.05 58.0664 1226.8 58.0664C1199.23 58.0664 1174.9 63.5809 1153.49 74.2854C1132.08 85.3143 1115.54 100.236 1103.54 119.374C1091.54 138.513 1085.37 160.895 1085.37 186.521C1085.37 212.471 1091.86 234.853 1104.51 254.316C1117.16 273.779 1134.68 289.025 1157.06 299.729C1179.44 310.758 1204.74 315.948 1233.61 315.948C1256 315.948 1277.73 312.704 1299.46 305.892C1321.2 299.08 1339.36 289.998 1354.28 278.645V238.097H1354.93ZM1182.69 112.562C1195.01 105.75 1209.29 102.506 1225.83 102.506C1241.4 102.506 1255.02 105.75 1266.38 111.913C1277.73 118.077 1286.81 127.159 1293.62 138.513C1298.17 145.973 1301.09 154.732 1303.03 164.139H1145.06C1146.68 155.38 1149.6 147.595 1153.49 140.459C1160.63 128.457 1170.36 119.05 1182.69 112.562Z" fill="white"/>
<path d="M1891.45 265.667C1881.72 268.586 1870.37 269.884 1857.39 269.884C1837.28 269.884 1823.01 265.667 1814.25 257.557C1805.49 249.448 1800.95 234.851 1800.95 214.415V108.018H1889.51V64.2272H1801.28V0L1744.83 68.7685L1692.29 82.3924V108.018H1744.83V223.173C1744.83 241.338 1748.08 257.557 1754.89 271.506C1761.7 285.454 1772.41 296.483 1787.33 304.592C1802.25 312.702 1821.39 316.594 1845.72 316.594C1860.31 316.594 1874.26 314.973 1888.21 311.404C1901.83 307.836 1912.54 304.268 1920 300.375V253.989C1910.59 258.855 1901.19 263.072 1891.45 265.667Z" fill="white"/>
<path d="M870.308 480.732C883.283 473.92 898.529 470.676 916.046 470.676C937.779 470.676 956.269 475.866 971.515 486.247C986.761 496.627 996.492 511.224 1000.71 529.713H1057.8C1054.88 509.277 1046.77 491.112 1033.8 475.542C1020.82 459.972 1003.95 447.97 983.841 439.212C963.405 430.453 941.023 426.236 916.046 426.236C887.5 426.236 862.523 431.751 841.114 442.455C819.381 453.484 802.513 468.406 790.511 487.868C778.185 507.331 772.346 529.713 772.346 555.339C772.346 580.965 778.509 603.348 790.511 622.81C802.837 642.273 819.705 657.519 841.114 668.224C862.848 679.252 887.825 684.442 916.046 684.442C941.023 684.442 963.405 680.226 983.841 671.467C1004.28 662.709 1020.82 650.707 1033.8 635.137C1046.77 619.567 1054.88 601.726 1057.8 581.614H1000.71C996.816 599.455 987.409 613.403 972.164 624.108C956.918 634.812 938.104 640.327 916.046 640.327C898.529 640.327 883.608 637.083 870.308 630.271C857.333 623.459 847.277 613.728 840.141 601.077C833.005 588.426 829.437 573.18 829.437 555.988C829.437 538.472 833.005 523.226 840.141 510.575C846.953 497.275 857.009 487.544 870.308 480.732Z" fill="white"/>
<path d="M1157.06 343.844H1100.62V678.603H1157.06V343.844Z" fill="white"/>
<path d="M1245.29 347.736C1234.59 347.736 1225.83 350.656 1218.69 356.495C1211.88 362.333 1208.31 370.119 1208.31 379.85C1208.31 389.581 1211.88 397.042 1218.69 403.205C1225.51 409.044 1234.59 411.963 1245.29 411.963C1256.32 411.963 1265.08 409.044 1271.89 403.205C1278.7 397.366 1281.95 389.581 1281.95 379.85C1281.95 370.119 1278.38 362.658 1271.89 356.495C1265.08 350.656 1256.32 347.736 1245.29 347.736Z" fill="white"/>
<path d="M1217.07 678.277H1273.51V430.775L1217.07 463.538V678.277Z" fill="white"/>
<path d="M1402.62 480.732C1415.59 473.92 1430.84 470.676 1448.36 470.676C1470.09 470.676 1488.58 475.866 1503.83 486.247C1519.07 496.627 1528.8 511.224 1533.02 529.713H1590.11C1587.19 509.277 1579.41 491.112 1566.11 475.542C1553.13 459.972 1536.26 447.97 1516.15 439.212C1495.72 430.453 1473.33 426.236 1448.36 426.236C1419.81 426.236 1394.83 431.751 1373.42 442.455C1351.69 453.484 1334.82 468.406 1322.82 487.868C1310.5 507.331 1304.66 529.713 1304.66 555.339C1304.66 580.965 1310.82 603.348 1322.82 622.81C1335.15 642.273 1352.02 657.519 1373.42 668.224C1395.16 679.252 1420.14 684.442 1448.36 684.442C1473.33 684.442 1495.72 680.226 1516.15 671.467C1536.59 662.709 1553.13 650.707 1566.11 635.137C1579.08 619.567 1587.19 601.726 1590.11 581.614H1532.7C1528.8 599.455 1519.4 613.403 1504.15 624.108C1488.9 634.812 1470.09 640.327 1448.03 640.327C1430.52 640.327 1415.59 637.083 1402.29 630.271C1389.32 623.459 1379.26 613.728 1372.13 601.077C1364.99 588.426 1361.42 573.18 1361.42 555.988C1361.42 538.472 1364.99 523.226 1372.13 510.575C1379.26 497.275 1389.32 487.544 1402.62 480.732Z" fill="white"/>
<path d="M1880.1 432.4H1814.9L1675.09 603.024V310.109V174.194C1675.09 149.866 1670.88 129.106 1662.12 111.913C1653.68 94.7213 1641.03 81.4217 1624.81 72.0147C1608.6 62.6077 1588.81 58.0664 1565.78 58.0664C1545.02 58.0664 1526.2 62.9321 1509.34 72.6635C1492.47 82.3949 1478.84 96.3432 1468.14 114.184C1466.19 117.103 1464.9 120.347 1463.27 123.591L1453.22 64.2296H1396.78L1411.7 144.676V310.109H1468.14V190.089C1468.14 172.897 1471.38 157.975 1477.87 145.325C1484.36 132.674 1493.76 122.618 1505.77 115.482C1517.77 108.345 1531.72 104.777 1547.61 104.777C1570.64 104.777 1588.48 111.265 1600.49 124.564C1612.49 137.864 1618.65 157.327 1618.65 182.953V263.399V678.28H1671.2L1757.49 576.749L1821.06 678.28H1887.56L1793.49 534.58L1880.1 432.4Z" fill="white"/>
<path d="M156.35 416.828C139.807 416.828 124.561 412.612 110.937 404.178C97.3131 395.744 86.6086 384.39 78.4991 369.793C70.3896 355.521 66.4971 339.626 66.4971 322.11C66.4971 308.81 68.7677 296.484 73.6334 285.13C78.1747 273.777 84.6623 263.721 93.0962 254.963C101.206 246.205 110.937 239.393 121.642 234.527C132.671 229.661 144.348 227.066 156.675 227.066C173.218 227.066 188.464 231.283 202.088 239.717C215.712 248.151 226.416 259.829 234.526 274.101C242.635 288.374 246.528 304.593 246.528 322.11C246.528 335.085 244.257 347.411 239.391 358.765C234.85 370.118 228.362 380.174 219.929 388.932C211.819 397.69 202.088 404.502 191.383 409.368C180.354 414.558 169.001 416.828 156.35 416.828ZM156.35 373.037C165.108 373.037 172.894 370.767 180.03 365.901C186.842 361.36 192.356 355.196 196.573 347.411C200.466 339.626 202.736 331.192 202.736 322.11C202.736 312.703 200.79 304.269 196.573 296.484C192.356 288.699 186.842 282.535 179.706 277.994C172.569 273.453 165.108 271.182 156.675 271.182C147.916 271.182 140.131 273.453 133.319 278.318C126.507 282.86 120.993 289.347 116.776 297.132C112.559 304.918 110.613 313.351 110.613 322.434C110.613 331.841 112.559 340.599 116.776 348.06C120.993 355.845 126.507 361.684 133.644 366.225C140.456 370.767 148.241 373.037 156.35 373.037Z" fill="#120D0C"/>
<path d="M439.532 298.428V412.285H395.741V310.105C395.741 302.969 394.119 296.482 390.551 290.643C386.983 284.804 382.441 280.263 376.602 276.694C370.764 273.126 364.276 271.504 357.14 271.504C350.003 271.504 343.516 273.126 337.677 276.694C331.838 280.263 327.297 284.804 323.729 290.643C320.16 296.482 318.538 302.969 318.538 310.105V412.285H274.747L274.423 232.254H318.214L318.538 248.149C324.702 241.661 331.838 236.471 340.596 232.903C349.03 229.011 358.437 227.389 368.169 227.389C381.144 227.389 393.146 230.632 403.85 237.12C414.555 243.608 423.313 252.041 429.801 262.746C436.288 273.451 439.532 285.453 439.532 298.428Z" fill="#120D0C"/>
<path d="M551.121 416.828C534.577 416.828 519.332 412.611 505.708 404.177C492.084 395.744 481.379 384.066 473.27 369.793C465.16 355.521 461.268 339.626 461.268 322.109C461.268 309.134 463.538 296.808 468.404 285.455C472.945 274.101 479.433 264.045 487.867 255.287C495.976 246.529 505.708 239.717 516.412 234.851C527.441 229.986 539.119 227.391 551.445 227.391C565.393 227.391 578.369 230.31 590.046 236.149C601.724 241.988 611.78 250.097 619.889 260.477C627.999 270.857 633.838 282.535 637.73 295.835C641.298 309.134 642.271 322.758 640.325 337.355H508.627C510.249 344.167 513.168 350.006 517.061 355.521C520.953 360.711 525.819 365.252 531.658 368.171C537.497 371.415 544.309 373.037 551.77 373.037C559.555 373.037 566.367 371.415 572.854 367.523C579.017 363.63 584.532 358.764 588.749 352.277L633.513 362.657C626.052 378.551 615.348 391.527 600.751 401.907C585.181 411.963 568.962 416.828 551.121 416.828ZM506.681 304.269H595.236C593.939 297.132 591.019 290.645 586.802 284.806C582.586 278.967 577.395 274.426 570.908 270.857C564.745 267.289 557.933 265.667 550.796 265.667C543.66 265.667 536.848 267.289 530.685 270.857C524.522 274.426 519.332 278.967 515.115 284.806C511.222 290.32 508.303 297.132 506.681 304.269Z" fill="#120D0C"/>
</g>
</svg>
