<svg width="1167" height="701" viewBox="0 0 1167 701" fill="none" xmlns="http://www.w3.org/2000/svg">
<path d="M69.8685 307.389C91.9496 318.664 117.326 323.97 145.999 323.97C171.376 323.97 194.116 319.659 214.879 310.706C235.641 301.752 252.449 289.482 265.632 273.564C278.815 257.647 287.054 239.408 290.02 218.847H232.016C228.061 237.086 218.504 251.346 203.014 262.289C187.524 273.233 168.409 278.87 145.999 278.87C128.202 278.87 113.042 275.554 99.5297 268.59C86.3469 261.626 76.1304 251.677 68.8799 238.744C61.6294 225.811 58.004 210.225 58.004 192.649C58.004 174.742 61.6294 159.156 68.8799 146.223C76.1304 133.29 86.3469 123.341 99.5297 116.377C112.712 109.413 128.202 106.097 145.999 106.097C168.08 106.097 186.865 111.403 202.355 122.015C217.845 132.626 227.732 147.549 232.016 166.451H290.02C287.054 145.559 279.144 126.989 265.632 111.071C252.449 95.1534 235.312 82.8835 214.879 73.9298C194.116 64.9761 171.376 60.665 145.999 60.665C116.997 60.665 91.62 66.3026 69.8685 77.246C47.7874 88.521 30.6499 103.775 18.4558 123.673C5.93225 143.57 0 166.451 0 192.649C0 218.847 6.26182 241.729 18.4558 261.626C30.9794 280.86 48.117 296.114 69.8685 307.389Z" fill="white" fill-opacity="0.03"/>
<path d="M592.899 244.049C577.738 254.993 559.942 263.615 539.838 269.584C519.734 275.553 500.29 278.538 481.175 278.538C460.083 278.538 441.627 274.89 426.137 267.594C410.647 260.299 398.783 250.019 390.214 236.422C385.6 229.127 382.634 221.168 380.327 212.546H599.49C599.49 181.705 593.887 154.844 582.682 131.962C571.477 109.081 555.657 91.5048 535.224 78.9033C514.791 66.3018 490.403 60.001 462.719 60.001C434.706 60.001 409.988 65.6386 388.237 76.582C366.485 87.857 349.677 103.111 337.483 122.677C325.289 142.242 319.027 165.124 319.027 191.322C319.027 217.852 325.619 240.733 338.472 260.63C351.325 280.528 369.122 296.114 391.862 307.057C414.602 318.332 440.308 323.638 469.64 323.638C492.38 323.638 514.461 320.322 536.542 313.358C558.623 306.394 577.079 297.108 592.239 285.502V244.049H592.899ZM417.898 115.713C430.421 108.749 444.922 105.433 461.73 105.433C477.55 105.433 491.392 108.749 502.926 115.05C514.461 121.351 523.689 130.636 530.61 142.243C535.224 149.87 538.19 158.823 540.168 168.44H379.668C381.316 159.487 384.282 151.528 388.237 144.232C395.487 131.962 405.374 122.345 417.898 115.713Z" fill="white" fill-opacity="0.03"/>
<path d="M1138 272.237C1128.11 275.222 1116.58 276.548 1103.39 276.548C1082.96 276.548 1068.46 272.237 1059.56 263.947C1050.66 255.656 1046.05 240.734 1046.05 219.842V111.071H1136.02V66.3021H1046.38V0.641602L989.033 70.9448L935.643 84.8728V111.071H989.033V228.795C989.033 247.366 992.328 263.947 999.249 278.206C1006.17 292.466 1017.05 303.741 1032.21 312.032C1047.37 320.322 1066.81 324.302 1091.53 324.302C1106.36 324.302 1120.53 322.643 1134.7 318.996C1148.54 315.348 1159.42 311.7 1167 307.721V260.299C1157.44 265.273 1147.88 269.584 1138 272.237Z" fill="white" fill-opacity="0.03"/>
<path d="M100.516 492.101C113.699 485.137 129.188 481.82 146.985 481.82C169.066 481.82 187.852 487.126 203.341 497.738C218.831 508.35 228.718 523.273 233.002 542.175H291.006C288.04 521.283 279.801 502.712 266.618 486.795C253.436 470.877 236.298 458.607 215.865 449.653C195.102 440.7 172.362 436.389 146.985 436.389C117.983 436.389 92.6063 442.026 70.8548 452.97C48.7737 464.245 31.6362 479.499 19.4422 499.396C6.91858 519.293 0.986328 542.175 0.986328 568.373C0.986328 594.571 7.24815 617.453 19.4422 637.35C31.9658 657.247 49.1032 672.833 70.8548 683.776C92.9358 695.051 118.313 700.357 146.985 700.357C172.362 700.357 195.102 696.046 215.865 687.092C236.628 678.139 253.436 665.869 266.618 649.951C279.801 634.033 288.04 615.794 291.006 595.234H233.002C229.048 613.473 219.49 627.733 204 638.676C188.511 649.62 169.396 655.257 146.985 655.257C129.188 655.257 114.028 651.941 100.516 644.977C87.3332 638.013 77.1166 628.064 69.8661 615.131C62.6156 602.198 58.9904 586.612 58.9904 569.036C58.9904 551.129 62.6156 535.543 69.8661 522.61C76.787 509.013 87.0036 499.065 100.516 492.101Z" fill="white" fill-opacity="0.03"/>
<path d="M391.864 352.158H334.519V694.389H391.864V352.158Z" fill="white" fill-opacity="0.03"/>
<path d="M481.496 356.137C470.62 356.137 461.722 359.121 454.471 365.09C447.55 371.06 443.925 379.018 443.925 388.967C443.925 398.916 447.55 406.543 454.471 412.844C461.392 418.813 470.62 421.797 481.496 421.797C492.701 421.797 501.599 418.813 508.52 412.844C515.441 406.874 518.737 398.916 518.737 388.967C518.737 379.018 515.112 371.391 508.52 365.09C501.599 359.121 492.701 356.137 481.496 356.137Z" fill="white" fill-opacity="0.03"/>
<path d="M452.815 694.056H510.16V441.031L452.815 474.525V694.056Z" fill="white" fill-opacity="0.03"/>
<path d="M641.347 492.101C654.53 485.137 670.019 481.82 687.816 481.82C709.897 481.82 728.682 487.126 744.172 497.738C759.662 508.35 769.549 523.273 773.833 542.175H831.837C828.871 521.283 820.962 502.712 807.449 486.795C794.267 470.877 777.129 458.607 756.696 449.653C735.933 440.7 713.193 436.389 687.816 436.389C658.814 436.389 633.437 442.026 611.686 452.97C589.605 464.245 572.467 479.499 560.273 499.396C547.75 519.293 541.817 542.175 541.817 568.373C541.817 594.571 548.079 617.453 560.273 637.35C572.797 657.247 589.934 672.833 611.686 683.776C633.767 695.051 659.144 700.357 687.816 700.357C713.193 700.357 735.933 696.046 756.696 687.092C777.459 678.139 794.267 665.869 807.449 649.951C820.632 634.033 828.871 615.794 831.837 595.234H773.504C769.549 613.473 759.992 627.733 744.502 638.676C729.012 649.62 709.897 655.257 687.487 655.257C669.69 655.257 654.53 651.941 641.017 644.977C627.835 638.013 617.618 628.064 610.368 615.131C603.117 602.198 599.492 586.612 599.492 569.036C599.492 551.129 603.117 535.543 610.368 522.61C617.618 509.013 627.835 499.065 641.347 492.101Z" fill="white" fill-opacity="0.03"/>
<path d="M1126.47 442.689H1060.23L918.185 617.121V317.669V178.721C918.185 153.849 913.9 132.626 905.002 115.05C896.433 97.474 883.58 83.8776 867.102 74.2607C850.623 64.6437 830.52 60.001 807.12 60.001C786.028 60.001 766.913 64.9753 749.775 74.9239C732.638 84.8724 718.796 99.1321 707.92 117.371C705.943 120.356 704.624 123.672 702.977 126.988L692.76 66.3018H635.415L650.575 148.543V317.669H707.92V194.97C707.92 177.394 711.216 162.14 717.807 149.206C724.398 136.273 733.956 125.993 746.15 118.698C758.344 111.402 772.515 107.754 788.664 107.754C812.064 107.754 830.19 114.387 842.384 127.983C854.578 141.579 860.84 161.476 860.84 187.674V269.916V694.056H914.23L1001.89 590.259L1066.49 694.056H1134.05L1038.48 547.149L1126.47 442.689Z" fill="white" fill-opacity="0.03"/>
</svg>
