<svg width="1920" height="10641" viewBox="0 0 1920 10641" fill="none" xmlns="http://www.w3.org/2000/svg">
<g filter="url(#filter0_f_2003_3)">
<path d="M1658.53 9782.3C1577.55 9946.2 1460.31 9747.97 1383.87 9810.16C1243.3 9970.17 1573.67 10038.2 1763.46 9987.01C1953.26 9935.83 1980.47 10055 2074.39 10095.8C2168.32 10136.7 2279.09 10189.8 2398.28 10112.7C2517.47 10035.6 2168.32 9825.06 2142.41 9782.3C2116.5 9739.55 2413.18 9579.54 2368.48 9539.37C2323.79 9499.21 2106.14 9613.87 1931.88 9665.05C1757.63 9716.23 1739.5 9618.41 1658.53 9782.3Z" fill="#FFD500" fill-opacity="0.15"/>
</g>
<g filter="url(#filter1_f_2003_3)">
<path d="M196.997 8835.5C193.497 8778.5 82.4968 8781.5 16.4968 8821.5C-68.5032 8877 -176.503 9091 -211.003 9200.5C-245.503 9310 -49.5032 9337.5 101.497 9355C252.497 9372.5 209.497 9497.5 283.997 9539.5C358.497 9581.5 556.997 9445.5 563.997 9417.5C570.997 9389.5 758.497 9397 747.997 9324C737.497 9251 351.997 9245.5 184.997 9164C17.9968 9082.5 365.997 9098 468.497 9077C570.997 9056 424.997 8959 351.997 8959C278.997 8959 200.497 8892.5 196.997 8835.5Z" fill="#FFD500" fill-opacity="0.15"/>
</g>
<g filter="url(#filter2_f_2003_3)">
<path d="M1359 7256.5C1258.5 7262 1284 7322.5 1291 7364C1358.5 7452.5 1432 7395.5 1458 7444C1484 7492.5 1515.5 7526 1687.5 7533C1859.5 7540 1904.5 7628.5 2019.5 7592C2134.5 7555.5 1842 7364 1821.5 7275.5C1801 7187 1976 7181.5 2043.5 7110.5C2111 7039.5 1932.5 7011.5 1842 7002.5C1751.5 6993.5 1708.5 7046 1639 7051.5C1569.5 7057 1583 7143.5 1557 7202.5C1531 7261.5 1459.5 7251 1359 7256.5Z" fill="#FFD500" fill-opacity="0.15"/>
</g>
<g filter="url(#filter3_f_2003_3)">
<path d="M-238.907 7732.45C-389.626 7746.09 -342.257 7855.96 -300.63 7883.96C-173.595 8035.48 231.913 7969.42 338.134 7986.65C444.355 8003.88 908.715 8124.52 1090.3 8007.47C1271.88 7890.43 684.789 7883.96 623.066 7863.14C561.342 7842.31 877.135 7801.38 980.486 7708.75C1083.84 7616.12 636.702 7680.74 338.134 7629.04C39.566 7577.34 320.909 7453.83 207.511 7347.55C94.1121 7241.27 -8.52066 7557.23 -42.9708 7660.64C-77.421 7764.04 -88.1872 7718.8 -238.907 7732.45Z" fill="#FFD500" fill-opacity="0.15"/>
</g>
<g filter="url(#filter4_f_2003_3)">
<path d="M161.958 5406.31C118.958 5498.81 48.9585 5393.81 -39.0415 5406.31C-86.0415 5406.31 -234.042 5500.81 -168.542 5629.81C-103.042 5758.81 -4.0415 5668.81 73.4585 5720.31C150.958 5771.81 237.958 5789.81 372.958 5709.81C507.958 5629.81 204.958 5566.31 311.458 5521.31C417.958 5476.31 604.958 5621.81 629.458 5537.81C653.958 5453.81 409.958 5395.81 372.958 5324.31C335.958 5252.81 204.958 5313.81 161.958 5406.31Z" fill="#FFD500" fill-opacity="0.15"/>
</g>
<g filter="url(#filter5_f_2003_3)">
<path d="M-91.4898 6944.23C-209.354 6934.34 -229.732 6964.55 -206.6 7010.68C-45.2254 7154.02 210.88 7178.73 297.901 7051.32C384.922 6923.91 379.415 6867.34 563.921 6867.34C748.427 6867.34 1119.64 6870.09 1045.29 6719.07C970.937 6568.04 935.688 6502.14 830.491 6474.14C725.295 6446.13 679.582 6517.52 620.65 6616.92C561.718 6716.32 346.369 6681.17 159.659 6602.09C-27.0502 6523.01 93.0166 6670.74 159.659 6831.65C226.302 6992.56 26.374 6954.12 -91.4898 6944.23Z" fill="#FFD500" fill-opacity="0.15"/>
</g>
<g filter="url(#filter6_f_2003_3)">
<path d="M1211.27 5879.31C1152.77 5898.81 1138.77 5898.81 1141.27 5954.31C1157.77 6079.81 1392.27 5979.31 1503.27 6051.81C1614.27 6124.31 1729.27 6124.31 1876.77 6107.31C2024.27 6090.31 1832.27 5954.31 1768.27 5773.31C1704.27 5592.31 2104.77 5617.31 2110.77 5511.31C2116.77 5405.31 1790.27 5586.81 1651.27 5491.81C1512.27 5396.81 1589.77 5533.81 1614.77 5734.31C1639.77 5934.81 1414.27 5728.81 1358.77 5748.31C1303.27 5767.81 1269.77 5859.81 1211.27 5879.31Z" fill="#FFD500" fill-opacity="0.15"/>
</g>
<g filter="url(#filter7_f_2003_3)">
<path d="M669.501 2028.35C680.501 2065.35 795.501 2032.85 837.501 2018.35C915 1997.22 1015 1997.35 1068 2018.35C1121 2039.35 1155 1982.85 1184 1961.85C1213 1940.85 1494 1979.85 1532.5 1932.85C1571 1885.85 1268 1902.35 1184 1895.85C1100 1889.35 1202 1816.85 1155 1823.35C1108 1829.85 939.001 1887.85 915.001 1861.85C891.001 1835.85 848.501 1792.85 816.501 1802.35C784.501 1811.85 803.501 1879.85 760.001 1923.35C716.501 1966.85 500 1873.35 440.5 1895.85C381 1918.35 347.5 1961.85 560 1961.85C576.124 1961.85 658.501 1991.35 669.501 2028.35Z" fill="#FFD500" fill-opacity="0.2"/>
</g>
<g filter="url(#filter8_f_2003_3)">
<path d="M643.115 4860.42C655.086 4900.68 780.244 4865.31 825.954 4849.53C910.299 4826.54 1019.13 4826.68 1076.81 4849.53C1134.49 4872.39 1171.5 4810.9 1203.06 4788.05C1234.62 4765.19 1540.44 4807.63 1582.34 4756.49C1624.24 4705.34 1294.48 4723.29 1203.06 4716.22C1111.64 4709.14 1222.65 4630.24 1171.5 4637.32C1120.35 4644.39 936.419 4707.51 910.299 4679.22C884.18 4650.92 837.926 4604.13 803.099 4614.46C768.273 4624.8 788.951 4698.81 741.609 4746.15C694.266 4793.49 458.643 4691.73 393.887 4716.22C329.132 4740.71 292.673 4788.05 523.942 4788.05C541.491 4788.05 631.143 4820.15 643.115 4860.42Z" fill="#FFD500" fill-opacity="0.2"/>
</g>
<g filter="url(#filter9_f_2003_3)">
<path d="M265.999 238.5C217.499 277.5 179.999 317.5 63.9993 296.5C-5.50046 290.974 -72.5007 259.5 -114.501 199.5C-156.501 139.5 -82.0007 106.5 12.9993 85.4995C107.999 64.4995 117.499 20.9995 151.999 -76.5005C186.499 -174 321.499 -125.5 344.499 -60.5005C367.499 4.49951 413.999 -14.0005 506.999 39.4995C599.999 92.9995 541.499 155.5 460.499 171.5C379.499 187.5 314.499 199.5 265.999 238.5Z" fill="#FFD500" fill-opacity="0.15"/>
</g>
<g filter="url(#filter10_f_2003_3)">
<path d="M290.78 2556.84C375.546 2522.45 445.251 2481.99 599.653 2560.62C695.146 2597.79 776.144 2670.43 809.886 2772.67C843.628 2874.9 724.801 2889.85 582.194 2879.24C439.587 2868.62 407.815 2925.85 318.011 3048.52C228.207 3171.19 58.692 3045.82 53.8102 2944.58C48.9284 2843.35 -24.3514 2849.73 -132.631 2735.08C-240.911 2620.43 -132.129 2557.18 -11.3435 2568.91C109.442 2580.64 206.014 2591.23 290.78 2556.84Z" fill="#FFD500" fill-opacity="0.15"/>
</g>
<g filter="url(#filter11_f_2003_3)">
<path d="M1196.21 776.279C1147.21 803.779 1103.71 796.279 1087.71 837.279C1048.21 958.779 1453.21 876.779 1504.71 837.279C1556.21 797.779 1848.21 862.779 1983.71 860.779C2119.21 858.779 1987.71 729.279 1983.71 688.279C1979.71 647.279 2139.21 581.779 2135.21 460.279C2131.21 338.779 1997.71 351.779 1944.71 291.279C1891.71 230.779 1781.5 230 1744.21 291.279C1715.49 338.468 1702.71 414.779 1659.71 481.779C1616.71 548.779 1539.71 536.779 1453.21 554.279C1366.71 571.779 1221.71 579.779 1170.21 613.279C1118.71 646.779 1245.21 748.779 1196.21 776.279Z" fill="#FFD500" fill-opacity="0.2"/>
</g>
<g filter="url(#filter12_f_2003_3)">
<path d="M1256.21 3098.67C1207.21 3126.17 1163.71 3118.67 1147.71 3159.67C1108.21 3281.17 1513.21 3199.17 1564.71 3159.67C1616.21 3120.17 1908.21 3185.17 2043.71 3183.17C2179.21 3181.17 2047.71 3051.67 2043.71 3010.67C2039.71 2969.67 2199.21 2904.17 2195.21 2782.67C2191.21 2661.17 2057.71 2674.17 2004.71 2613.67C1951.71 2553.17 1841.5 2552.39 1804.21 2613.67C1775.49 2660.86 1762.71 2737.17 1719.71 2804.17C1676.71 2871.17 1599.71 2859.17 1513.21 2876.67C1426.71 2894.17 1281.71 2902.17 1230.21 2935.67C1178.71 2969.17 1305.21 3071.17 1256.21 3098.67Z" fill="#FFD500" fill-opacity="0.2"/>
</g>
<g filter="url(#filter13_f_2003_3)">
<path d="M67.1285 9940.11C51.8392 9856.98 -138.28 9956.74 -191.461 10048.5C-235.334 10132.3 -271.231 10194.8 -202.762 10289.9C-134.292 10385 -98.3952 10310.5 15.9424 10447.5C130.28 10584.5 173.489 10360.4 289.821 10289.9C406.153 10219.4 512.514 10240.7 594.278 10194.8C676.043 10148.9 420.777 10160.2 245.947 10164.2C71.117 10168.2 82.4178 10023.2 67.1285 9940.11Z" fill="#FFD500" fill-opacity="0.15"/>
</g>
<g filter="url(#filter14_f_2003_3)">
<path d="M1609.7 8439.6C1469.66 8435.98 1457.79 8474.79 1469.36 8494.65C1554.62 8549.7 1511.61 8708.07 1673.84 8614.56C1836.06 8521.05 1831.53 8622.85 2138.62 8652.26C2445.71 8681.67 2138.62 8533.11 2079.02 8358.91C2019.41 8184.71 1823.23 8235.23 1793.05 8256.35C1762.87 8277.47 1784.75 8444.13 1609.7 8439.6Z" fill="#FFD500" fill-opacity="0.15"/>
</g>
<defs>
<filter id="filter0_f_2003_3" x="1200" y="9381" width="1373" height="921" filterUnits="userSpaceOnUse" color-interpolation-filters="sRGB">
<feFlood flood-opacity="0" result="BackgroundImageFix"/>
<feBlend mode="normal" in="SourceGraphic" in2="BackgroundImageFix" result="shape"/>
<feGaussianBlur stdDeviation="75" result="effect1_foregroundBlur_2003_3"/>
</filter>
<filter id="filter1_f_2003_3" x="-365" y="8642.01" width="1263.42" height="1055.48" filterUnits="userSpaceOnUse" color-interpolation-filters="sRGB">
<feFlood flood-opacity="0" result="BackgroundImageFix"/>
<feBlend mode="normal" in="SourceGraphic" in2="BackgroundImageFix" result="shape"/>
<feGaussianBlur stdDeviation="75" result="effect1_foregroundBlur_2003_3"/>
</filter>
<filter id="filter2_f_2003_3" x="1132.93" y="6851.46" width="1075.47" height="899.327" filterUnits="userSpaceOnUse" color-interpolation-filters="sRGB">
<feFlood flood-opacity="0" result="BackgroundImageFix"/>
<feBlend mode="normal" in="SourceGraphic" in2="BackgroundImageFix" result="shape"/>
<feGaussianBlur stdDeviation="75" result="effect1_foregroundBlur_2003_3"/>
</filter>
<filter id="filter3_f_2003_3" x="-492" y="7176" width="1767" height="1032" filterUnits="userSpaceOnUse" color-interpolation-filters="sRGB">
<feFlood flood-opacity="0" result="BackgroundImageFix"/>
<feBlend mode="normal" in="SourceGraphic" in2="BackgroundImageFix" result="shape"/>
<feGaussianBlur stdDeviation="75" result="effect1_foregroundBlur_2003_3"/>
</filter>
<filter id="filter4_f_2003_3" x="-335" y="5143" width="1116.18" height="771.413" filterUnits="userSpaceOnUse" color-interpolation-filters="sRGB">
<feFlood flood-opacity="0" result="BackgroundImageFix"/>
<feBlend mode="normal" in="SourceGraphic" in2="BackgroundImageFix" result="shape"/>
<feGaussianBlur stdDeviation="75" result="effect1_foregroundBlur_2003_3"/>
</filter>
<filter id="filter5_f_2003_3" x="-365" y="6318" width="1570" height="966" filterUnits="userSpaceOnUse" color-interpolation-filters="sRGB">
<feFlood flood-opacity="0" result="BackgroundImageFix"/>
<feBlend mode="normal" in="SourceGraphic" in2="BackgroundImageFix" result="shape"/>
<feGaussianBlur stdDeviation="75" result="effect1_foregroundBlur_2003_3"/>
</filter>
<filter id="filter6_f_2003_3" x="991" y="5311" width="1269.86" height="955.595" filterUnits="userSpaceOnUse" color-interpolation-filters="sRGB">
<feFlood flood-opacity="0" result="BackgroundImageFix"/>
<feBlend mode="normal" in="SourceGraphic" in2="BackgroundImageFix" result="shape"/>
<feGaussianBlur stdDeviation="75" result="effect1_foregroundBlur_2003_3"/>
</filter>
<filter id="filter7_f_2003_3" x="210.58" y="1616" width="1510.28" height="614.423" filterUnits="userSpaceOnUse" color-interpolation-filters="sRGB">
<feFlood flood-opacity="0" result="BackgroundImageFix"/>
<feBlend mode="normal" in="SourceGraphic" in2="BackgroundImageFix" result="shape"/>
<feGaussianBlur stdDeviation="92.5" result="effect1_foregroundBlur_2003_3"/>
</filter>
<filter id="filter8_f_2003_3" x="160" y="4428" width="1611" height="636" filterUnits="userSpaceOnUse" color-interpolation-filters="sRGB">
<feFlood flood-opacity="0" result="BackgroundImageFix"/>
<feBlend mode="normal" in="SourceGraphic" in2="BackgroundImageFix" result="shape"/>
<feGaussianBlur stdDeviation="92.5" result="effect1_foregroundBlur_2003_3"/>
</filter>
<filter id="filter9_f_2003_3" x="-269.493" y="-274.725" width="967.051" height="720.013" filterUnits="userSpaceOnUse" color-interpolation-filters="sRGB">
<feFlood flood-opacity="0" result="BackgroundImageFix"/>
<feBlend mode="normal" in="SourceGraphic" in2="BackgroundImageFix" result="shape"/>
<feGaussianBlur stdDeviation="71.5" result="effect1_foregroundBlur_2003_3"/>
</filter>
<filter id="filter10_f_2003_3" x="-320.072" y="2372.29" width="1278.74" height="870.025" filterUnits="userSpaceOnUse" color-interpolation-filters="sRGB">
<feFlood flood-opacity="0" result="BackgroundImageFix"/>
<feBlend mode="normal" in="SourceGraphic" in2="BackgroundImageFix" result="shape"/>
<feGaussianBlur stdDeviation="71.5" result="effect1_foregroundBlur_2003_3"/>
</filter>
<filter id="filter11_f_2003_3" x="898.4" y="59.0113" width="1423.48" height="1028.76" filterUnits="userSpaceOnUse" color-interpolation-filters="sRGB">
<feFlood flood-opacity="0" result="BackgroundImageFix"/>
<feBlend mode="normal" in="SourceGraphic" in2="BackgroundImageFix" result="shape"/>
<feGaussianBlur stdDeviation="93.3" result="effect1_foregroundBlur_2003_3"/>
</filter>
<filter id="filter12_f_2003_3" x="958.4" y="2381.4" width="1423.48" height="1028.76" filterUnits="userSpaceOnUse" color-interpolation-filters="sRGB">
<feFlood flood-opacity="0" result="BackgroundImageFix"/>
<feBlend mode="normal" in="SourceGraphic" in2="BackgroundImageFix" result="shape"/>
<feGaussianBlur stdDeviation="93.3" result="effect1_foregroundBlur_2003_3"/>
</filter>
<filter id="filter13_f_2003_3" x="-391" y="9759" width="1151" height="882" filterUnits="userSpaceOnUse" color-interpolation-filters="sRGB">
<feFlood flood-opacity="0" result="BackgroundImageFix"/>
<feBlend mode="normal" in="SourceGraphic" in2="BackgroundImageFix" result="shape"/>
<feGaussianBlur stdDeviation="75" result="effect1_foregroundBlur_2003_3"/>
</filter>
<filter id="filter14_f_2003_3" x="1316" y="8083" width="1107" height="723" filterUnits="userSpaceOnUse" color-interpolation-filters="sRGB">
<feFlood flood-opacity="0" result="BackgroundImageFix"/>
<feBlend mode="normal" in="SourceGraphic" in2="BackgroundImageFix" result="shape"/>
<feGaussianBlur stdDeviation="75" result="effect1_foregroundBlur_2003_3"/>
</filter>
</defs>
</svg>
