<svg width="1168" height="8275" viewBox="0 0 1168 8275" fill="none" xmlns="http://www.w3.org/2000/svg">
<g filter="url(#filter0_f_2023_4)">
<path d="M596.584 6978.5C539.493 6977.02 534.653 6992.89 539.37 7001.01C574.129 7023.53 556.596 7088.3 622.731 7050.05C688.867 7011.81 687.021 7053.44 812.217 7065.47C937.413 7077.5 812.217 7016.74 787.916 6945.5C763.615 6874.25 683.637 6894.91 671.333 6903.55C659.029 6912.19 667.949 6980.35 596.584 6978.5Z" fill="#FFD500" fill-opacity="0.15"/>
</g>
<g filter="url(#filter1_f_2023_4)">
<path d="M210.999 6484.98C121.82 6493.07 149.848 6558.21 174.478 6574.81C249.642 6664.65 489.575 6625.48 552.424 6635.7C615.274 6645.91 890.028 6717.44 997.466 6648.04C1104.9 6578.65 757.534 6574.81 721.014 6562.47C684.493 6550.12 871.343 6525.85 932.493 6470.93C993.644 6416.01 729.082 6454.33 552.424 6423.67C375.766 6393.02 542.232 6319.79 475.136 6256.78C408.04 6193.77 347.314 6381.1 326.931 6442.41C306.547 6503.71 300.177 6476.89 210.999 6484.98Z" fill="#FFD500" fill-opacity="0.15"/>
</g>
<g filter="url(#filter2_f_2023_4)">
<path d="M411.177 3563.64C417.168 3583.92 479.797 3566.1 502.671 3558.16C544.877 3546.57 599.338 3546.64 628.202 3558.16C657.065 3569.67 675.582 3538.69 691.375 3527.18C707.169 3515.67 860.201 3537.05 881.168 3511.28C902.135 3485.52 737.122 3494.56 691.375 3491C645.629 3487.43 701.178 3447.69 675.582 3451.25C649.986 3454.81 557.948 3486.61 544.877 3472.36C531.807 3458.1 508.661 3434.53 491.234 3439.74C473.807 3444.95 484.154 3482.23 460.464 3506.07C436.774 3529.92 318.867 3478.66 286.463 3491C254.06 3503.33 235.815 3527.18 351.543 3527.18C360.325 3527.18 405.187 3543.35 411.177 3563.64Z" fill="#FFD500" fill-opacity="0.2"/>
</g>
<g filter="url(#filter3_f_2023_4)">
<path d="M624.525 7920.2C596.831 7976.41 556.729 7908.42 530.585 7929.75C482.507 7984.63 595.501 8007.96 660.418 7990.41C725.334 7972.86 734.64 8013.74 766.766 8027.74C798.892 8041.74 836.778 8059.96 877.545 8033.52C918.312 8007.07 798.892 7934.86 790.029 7920.2C781.167 7905.53 882.641 7850.65 867.353 7836.87C852.066 7823.1 777.622 7862.42 718.023 7879.98C658.424 7897.53 652.22 7863.98 624.525 7920.2Z" fill="#FFD500" fill-opacity="0.15"/>
</g>
<g filter="url(#filter4_f_2023_4)">
<path d="M415.193 7993.51C409.03 7960.09 332.402 8000.19 310.967 8037.09C293.284 8070.78 278.815 8095.91 306.412 8134.15C334.009 8172.38 348.478 8142.43 394.562 8197.51C440.646 8252.59 458.062 8162.49 504.95 8134.15C551.838 8105.8 594.708 8114.36 627.663 8095.91C660.619 8077.46 557.733 8082.01 487.267 8083.61C416.8 8085.22 421.355 8026.93 415.193 7993.51Z" fill="#FFD500" fill-opacity="0.15"/>
</g>
<g filter="url(#filter5_f_2023_4)">
<path d="M467.878 7472.69C466.291 7446.89 415.942 7448.24 386.005 7466.35C347.45 7491.48 298.462 7588.35 282.813 7637.92C267.164 7687.49 356.068 7699.94 424.56 7707.86C493.053 7715.79 473.548 7772.37 507.341 7791.39C541.133 7810.4 631.171 7748.83 634.346 7736.16C637.522 7723.48 722.57 7726.88 717.807 7693.83C713.045 7660.78 538.185 7658.29 462.435 7621.4C386.685 7584.5 544.535 7591.52 591.028 7582.01C637.522 7572.51 571.297 7528.6 538.185 7528.6C505.073 7528.6 469.466 7498.49 467.878 7472.69Z" fill="#FFD500" fill-opacity="0.15"/>
</g>
<g filter="url(#filter6_f_2023_4)">
<path d="M491.885 6000.43C436.546 6003.46 450.587 6036.77 454.441 6059.62C491.609 6108.35 532.081 6076.96 546.398 6103.67C560.714 6130.37 578.059 6148.82 672.768 6152.67C767.477 6156.53 792.256 6205.26 855.579 6185.16C918.902 6165.06 757.841 6059.62 746.553 6010.89C735.265 5962.16 831.626 5959.13 868.794 5920.04C905.962 5880.94 807.674 5865.53 757.841 5860.57C708.009 5855.61 684.331 5884.52 646.062 5887.55C607.793 5890.58 615.227 5938.21 600.91 5970.69C586.594 6003.18 547.223 5997.4 491.885 6000.43Z" fill="#FFD500" fill-opacity="0.15"/>
</g>
<g filter="url(#filter7_f_2023_4)">
<path d="M282.104 5745.85C218.068 5740.48 206.996 5756.9 219.564 5781.97C307.24 5859.88 446.384 5873.31 493.663 5804.06C540.942 5734.81 537.95 5704.06 638.193 5704.06C738.437 5704.06 940.121 5705.55 899.724 5623.47C859.328 5541.38 840.177 5505.56 783.023 5490.33C725.869 5475.11 701.033 5513.92 669.014 5567.95C636.996 5621.97 519.996 5602.87 418.555 5559.89C317.114 5516.9 382.348 5597.2 418.555 5684.66C454.762 5772.12 346.14 5751.22 282.104 5745.85Z" fill="#FFD500" fill-opacity="0.15"/>
</g>
<g filter="url(#filter8_f_2023_4)">
<path d="M415.823 5118.24C384.336 5128.74 376.801 5128.74 378.147 5158.62C387.027 5226.19 513.242 5172.08 572.985 5211.12C632.727 5250.16 694.623 5250.16 774.011 5241C853.4 5231.85 750.06 5158.62 715.614 5061.16C681.168 4963.7 896.727 4977.16 899.956 4920.09C903.185 4863.02 727.455 4960.74 652.642 4909.59C577.829 4858.44 619.541 4932.21 632.997 5040.16C646.452 5148.12 525.083 5037.2 495.211 5047.7C465.34 5058.2 447.309 5107.74 415.823 5118.24Z" fill="#FFD500" fill-opacity="0.15"/>
</g>
<g filter="url(#filter9_f_2023_4)">
<path d="M438.792 4615.61C416.138 4664.27 379.259 4609.03 332.897 4615.61C308.136 4615.61 230.163 4665.32 264.671 4733.19C299.179 4801.05 351.337 4753.71 392.167 4780.8C432.997 4807.89 478.833 4817.36 549.956 4775.27C621.08 4733.19 461.447 4699.78 517.555 4676.11C573.664 4652.44 672.184 4728.98 685.091 4684.79C697.999 4640.6 569.449 4610.09 549.956 4572.47C530.463 4534.86 461.447 4566.95 438.792 4615.61Z" fill="#FFD500" fill-opacity="0.15"/>
</g>
<g filter="url(#filter10_f_2023_4)">
<path d="M484.742 2163.75C464.587 2175.04 446.695 2171.96 440.113 2188.78C423.866 2238.64 590.45 2204.99 611.633 2188.78C632.816 2172.57 752.921 2199.25 808.655 2198.43C864.388 2197.61 810.3 2144.47 808.655 2127.64C807.01 2110.82 872.615 2083.94 870.97 2034.09C869.324 1984.23 814.413 1989.56 792.613 1964.74C770.814 1939.91 725.483 1939.59 710.144 1964.74C698.332 1984.1 693.074 2015.42 675.388 2042.91C657.701 2070.4 626.029 2065.48 590.45 2072.66C554.871 2079.84 495.23 2083.12 474.047 2096.87C452.864 2110.61 504.896 2152.47 484.742 2163.75Z" fill="#FFD500" fill-opacity="0.2"/>
</g>
<g filter="url(#filter11_f_2023_4)">
<path d="M418.443 1821.99C452.851 1808.03 481.146 1791.61 543.821 1823.52C582.583 1838.61 615.462 1868.1 629.158 1909.6C642.854 1951.1 594.62 1957.17 536.733 1952.86C478.846 1948.55 465.949 1971.78 429.496 2021.57C393.043 2071.37 324.234 2020.48 322.252 1979.38C320.271 1938.29 290.525 1940.88 246.572 1894.34C202.619 1847.8 246.776 1822.13 295.805 1826.89C344.834 1831.65 384.035 1835.95 418.443 1821.99Z" fill="#FFD500" fill-opacity="0.15"/>
</g>
<g filter="url(#filter12_f_2023_4)">
<path d="M331.149 1409.21C339.387 1436.92 425.515 1412.58 456.97 1401.73C515.013 1385.91 589.907 1386 629.601 1401.73C669.295 1417.45 694.758 1375.15 716.478 1359.43C738.197 1343.7 948.647 1372.9 977.481 1337.71C1006.32 1302.52 779.388 1314.88 716.478 1310.01C653.567 1305.14 729.958 1250.86 694.758 1255.73C659.558 1260.6 532.988 1304.02 515.013 1284.56C497.039 1265.09 465.209 1232.9 441.243 1240.01C417.277 1247.12 431.507 1298.03 398.928 1330.6C366.349 1363.17 204.204 1293.17 159.642 1310.01C115.08 1326.86 89.991 1359.43 249.14 1359.43C261.216 1359.43 322.911 1381.51 331.149 1409.21Z" fill="#FFD500" fill-opacity="0.2"/>
</g>
<g filter="url(#filter13_f_2023_4)">
<path d="M456.236 478.849C438.507 488.791 422.768 486.079 416.979 500.902C402.688 544.827 549.22 515.182 567.853 500.902C586.486 486.622 692.134 510.121 741.159 509.398C790.184 508.675 742.607 461.857 741.159 447.035C739.712 432.212 797.42 408.533 795.973 364.607C794.526 320.682 746.225 325.382 727.049 303.51C707.873 281.638 667.999 281.356 654.506 303.51C644.116 320.57 639.491 348.158 623.934 372.38C608.376 396.602 580.517 392.264 549.22 398.591C517.924 404.917 465.462 407.81 446.829 419.921C428.196 432.032 473.964 468.907 456.236 478.849Z" fill="#FFD500" fill-opacity="0.2"/>
</g>
<g filter="url(#filter14_f_2023_4)">
<path d="M469.668 182.836C453.645 195.775 441.256 209.047 402.933 202.079C379.973 200.246 357.838 189.803 343.962 169.896C330.086 149.989 354.699 139.04 386.084 132.072C417.47 125.105 420.608 110.672 432.006 78.3227C443.404 45.9734 488.004 62.0651 495.603 83.6312C503.201 105.197 518.563 99.0594 549.288 116.81C580.013 134.561 560.686 155.297 533.926 160.606C507.166 165.914 485.691 169.896 469.668 182.836Z" fill="#FFD500" fill-opacity="0.15"/>
</g>
<defs>
<filter id="filter0_f_2023_4" x="388" y="6744" width="629" height="473" filterUnits="userSpaceOnUse" color-interpolation-filters="sRGB">
<feFlood flood-opacity="0" result="BackgroundImageFix"/>
<feBlend mode="normal" in="SourceGraphic" in2="BackgroundImageFix" result="shape"/>
<feGaussianBlur stdDeviation="75" result="effect1_foregroundBlur_2023_4"/>
</filter>
<filter id="filter1_f_2023_4" x="0" y="6094" width="1168" height="734" filterUnits="userSpaceOnUse" color-interpolation-filters="sRGB">
<feFlood flood-opacity="0" result="BackgroundImageFix"/>
<feBlend mode="normal" in="SourceGraphic" in2="BackgroundImageFix" result="shape"/>
<feGaussianBlur stdDeviation="75" result="effect1_foregroundBlur_2023_4"/>
</filter>
<filter id="filter2_f_2023_4" x="77" y="3254" width="991" height="504" filterUnits="userSpaceOnUse" color-interpolation-filters="sRGB">
<feFlood flood-opacity="0" result="BackgroundImageFix"/>
<feBlend mode="normal" in="SourceGraphic" in2="BackgroundImageFix" result="shape"/>
<feGaussianBlur stdDeviation="92.5" result="effect1_foregroundBlur_2023_4"/>
</filter>
<filter id="filter3_f_2023_4" x="459" y="7774" width="487" height="333" filterUnits="userSpaceOnUse" color-interpolation-filters="sRGB">
<feFlood flood-opacity="0" result="BackgroundImageFix"/>
<feBlend mode="normal" in="SourceGraphic" in2="BackgroundImageFix" result="shape"/>
<feGaussianBlur stdDeviation="30" result="effect1_foregroundBlur_2023_4"/>
</filter>
<filter id="filter4_f_2023_4" x="231" y="7921" width="463" height="354" filterUnits="userSpaceOnUse" color-interpolation-filters="sRGB">
<feFlood flood-opacity="0" result="BackgroundImageFix"/>
<feBlend mode="normal" in="SourceGraphic" in2="BackgroundImageFix" result="shape"/>
<feGaussianBlur stdDeviation="30" result="effect1_foregroundBlur_2023_4"/>
</filter>
<filter id="filter5_f_2023_4" x="221" y="7393" width="557" height="462" filterUnits="userSpaceOnUse" color-interpolation-filters="sRGB">
<feFlood flood-opacity="0" result="BackgroundImageFix"/>
<feBlend mode="normal" in="SourceGraphic" in2="BackgroundImageFix" result="shape"/>
<feGaussianBlur stdDeviation="30" result="effect1_foregroundBlur_2023_4"/>
</filter>
<filter id="filter6_f_2023_4" x="390" y="5800" width="547" height="450" filterUnits="userSpaceOnUse" color-interpolation-filters="sRGB">
<feFlood flood-opacity="0" result="BackgroundImageFix"/>
<feBlend mode="normal" in="SourceGraphic" in2="BackgroundImageFix" result="shape"/>
<feGaussianBlur stdDeviation="30" result="effect1_foregroundBlur_2023_4"/>
</filter>
<filter id="filter7_f_2023_4" x="155" y="5427" width="810" height="482" filterUnits="userSpaceOnUse" color-interpolation-filters="sRGB">
<feFlood flood-opacity="0" result="BackgroundImageFix"/>
<feBlend mode="normal" in="SourceGraphic" in2="BackgroundImageFix" result="shape"/>
<feGaussianBlur stdDeviation="30" result="effect1_foregroundBlur_2023_4"/>
</filter>
<filter id="filter8_f_2023_4" x="318" y="4833" width="642" height="473" filterUnits="userSpaceOnUse" color-interpolation-filters="sRGB">
<feFlood flood-opacity="0" result="BackgroundImageFix"/>
<feBlend mode="normal" in="SourceGraphic" in2="BackgroundImageFix" result="shape"/>
<feGaussianBlur stdDeviation="30" result="effect1_foregroundBlur_2023_4"/>
</filter>
<filter id="filter9_f_2023_4" x="196" y="4496" width="550" height="368" filterUnits="userSpaceOnUse" color-interpolation-filters="sRGB">
<feFlood flood-opacity="0" result="BackgroundImageFix"/>
<feBlend mode="normal" in="SourceGraphic" in2="BackgroundImageFix" result="shape"/>
<feGaussianBlur stdDeviation="30" result="effect1_foregroundBlur_2023_4"/>
</filter>
<filter id="filter10_f_2023_4" x="379" y="1886" width="552" height="389" filterUnits="userSpaceOnUse" color-interpolation-filters="sRGB">
<feFlood flood-opacity="0" result="BackgroundImageFix"/>
<feBlend mode="normal" in="SourceGraphic" in2="BackgroundImageFix" result="shape"/>
<feGaussianBlur stdDeviation="30" result="effect1_foregroundBlur_2023_4"/>
</filter>
<filter id="filter11_f_2023_4" x="168.533" y="1745.12" width="522.973" height="357.067" filterUnits="userSpaceOnUse" color-interpolation-filters="sRGB">
<feFlood flood-opacity="0" result="BackgroundImageFix"/>
<feBlend mode="normal" in="SourceGraphic" in2="BackgroundImageFix" result="shape"/>
<feGaussianBlur stdDeviation="30" result="effect1_foregroundBlur_2023_4"/>
</filter>
<filter id="filter12_f_2023_4" x="66" y="1179" width="974" height="303" filterUnits="userSpaceOnUse" color-interpolation-filters="sRGB">
<feFlood flood-opacity="0" result="BackgroundImageFix"/>
<feBlend mode="normal" in="SourceGraphic" in2="BackgroundImageFix" result="shape"/>
<feGaussianBlur stdDeviation="30" result="effect1_foregroundBlur_2023_4"/>
</filter>
<filter id="filter13_f_2023_4" x="356" y="227" width="500" height="357" filterUnits="userSpaceOnUse" color-interpolation-filters="sRGB">
<feFlood flood-opacity="0" result="BackgroundImageFix"/>
<feBlend mode="normal" in="SourceGraphic" in2="BackgroundImageFix" result="shape"/>
<feGaussianBlur stdDeviation="30" result="effect1_foregroundBlur_2023_4"/>
</filter>
<filter id="filter14_f_2023_4" x="280" y="0" width="345" height="264" filterUnits="userSpaceOnUse" color-interpolation-filters="sRGB">
<feFlood flood-opacity="0" result="BackgroundImageFix"/>
<feBlend mode="normal" in="SourceGraphic" in2="BackgroundImageFix" result="shape"/>
<feGaussianBlur stdDeviation="30" result="effect1_foregroundBlur_2023_4"/>
</filter>
</defs>
</svg>
