<svg width="341" height="215" viewBox="0 0 341 215" fill="none" xmlns="http://www.w3.org/2000/svg" preserveAspectRatio="none">
<path d="M311.537 213.636L311.538 213.636C326.926 213.636 339.283 201.226 339.132 185.952L339.132 185.942L339.132 101.132C339.132 85.6918 326.611 73.2822 311.382 73.2822L70.2185 73.2819L69.6394 73.2819L69.3511 72.7795L29.7499 3.75199L29.7499 72.2819L29.7499 72.6485L29.7499 73.6485L28.7499 73.6485C13.3716 73.6485 1.00001 86.2079 1.00001 101.499L1.00018 186.152C1.00017 201.592 13.5209 214.002 28.75 214.002L170.143 213.819L311.537 213.636Z" fill="#120D0C" stroke="url(#paint0_linear_247_719)" stroke-width="2"/>
<defs>
<linearGradient id="paint0_linear_247_719" x1="340.133" y1="70" x2="224.12" y2="-34.253" gradientUnits="userSpaceOnUse">
<stop stop-color="#999999" stop-opacity="0.5"/>
<stop offset="1" stop-color="#FED402" stop-opacity="0.5"/>
</linearGradient>
</defs>
</svg>
