<svg width="280" height="158" viewBox="0 0 280 158" fill="none" xmlns="http://www.w3.org/2000/svg" preserveAspectRatio="none">
<path d="M23.5397 0.367096L139.936 0.183547L256.333 -2.06905e-06C269.324 -9.3333e-07 280 12.8824 280 28.9068L280 113.726C280 129.593 269.453 142.633 256.333 142.633L249.5 142.633L249.5 158L227.59 143L23.6683 143C10.6771 143 0.00117881 130.117 0.00118021 114.093L0.00118764 29.1168C-0.127443 13.2495 10.4199 0.367095 23.5397 0.367096Z" fill="#120D0C"/>
<path d="M23.5413 1.3671L23.5397 1.3671C11.1469 1.3671 0.875487 13.6082 1.00119 29.1087L1.00119 29.1168L1.00118 114.093C1.00118 129.758 11.404 142 23.6683 142L227.59 142L227.9 142L228.155 142.175L248.5 156.103L248.5 142.633L248.5 141.633L249.5 141.633L256.333 141.633C268.72 141.633 279 129.241 279 113.726L279 28.9068C279 13.2422 268.597 0.999999 256.333 0.999998L139.938 1.18355L23.5413 1.3671Z" stroke="url(#paint0_linear_247_2462)" stroke-width="2"/>
<defs>
<linearGradient id="paint0_linear_247_2462" x1="0.00039673" y1="145.286" x2="111.724" y2="227.773" gradientUnits="userSpaceOnUse">
<stop stop-color="#999999" stop-opacity="0.5"/>
<stop offset="1" stop-color="#FED402" stop-opacity="0.5"/>
</linearGradient>
</defs>
</svg>
