<svg width="341" height="215" viewBox="0 0 341 215" fill="none" xmlns="http://www.w3.org/2000/svg" preserveAspectRatio="none">
<path d="M28.5959 213.636L28.5947 213.636C13.2073 213.636 0.850219 201.226 1.00097 185.952L1.00097 185.942L1.00097 101.132C1.00097 85.6918 13.5217 73.2822 28.7509 73.2822L269.914 73.2819L270.493 73.2819L270.782 72.7795L310.383 3.75199L310.383 72.2819L310.383 72.6485L310.383 73.6485L311.383 73.6485C326.761 73.6485 339.133 86.2079 339.133 101.499L339.133 186.152C339.133 201.592 326.612 214.002 311.383 214.002L169.99 213.819L28.5959 213.636Z" fill="#120D0C" stroke="url(#paint0_linear_247_728)" stroke-width="2"/>
<defs>
<linearGradient id="paint0_linear_247_728" x1="-1.1826e-05" y1="70" x2="116.013" y2="-34.253" gradientUnits="userSpaceOnUse">
<stop stop-color="#999999" stop-opacity="0.5"/>
<stop offset="1" stop-color="#FED402" stop-opacity="0.5"/>
</linearGradient>
</defs>
</svg>
