<svg width="280" height="158" viewBox="0 0 280 158" fill="none" xmlns="http://www.w3.org/2000/svg" preserveAspectRatio="none">
<path d="M23.5397 0.367096L139.936 0.183547L256.333 -2.06905e-06C269.324 -9.3333e-07 280 12.8824 280 28.9068L280 113.726C280 129.593 269.453 142.633 256.333 142.633L249.5 142.633L249.5 158L227.59 143L23.6683 143C10.6771 143 0.00117881 130.117 0.00118021 114.093L0.00118764 29.1168C-0.127443 13.2495 10.4199 0.367095 23.5397 0.367096Z" fill="#120D0C"/>
<path d="M256.459 1.3671L256.46 1.3671C268.853 1.3671 279.125 13.6082 278.999 29.1087L278.999 29.1168L278.999 114.093C278.999 129.758 268.596 142 256.332 142L52.4097 142L52.1001 142L51.8447 142.175L31.5 156.103L31.5 142.633L31.5 141.633L30.5 141.633L23.6671 141.633C11.2804 141.633 1.00001 129.241 1.00001 113.726L1.00014 28.9068C1.00014 13.2422 11.4029 0.999999 23.6672 0.999998L140.062 1.18355L256.459 1.3671Z" stroke="url(#paint0_linear_247_2425)" stroke-width="2"/>
<defs>
<linearGradient id="paint0_linear_247_2425" x1="0" y1="0" x2="116.772" y2="-80.0644" gradientUnits="userSpaceOnUse">
<stop stop-color="#999999" stop-opacity="0.5"/>
<stop offset="1" stop-color="#FED402" stop-opacity="0.5"/>
</linearGradient>
</defs>
</svg>
