<svg width="280" height="188" viewBox="0 0 280 188" fill="none" xmlns="http://www.w3.org/2000/svg" preserveAspectRatio="none">
<path d="M261.38 0.239188L161.495 0.119584L18.7208 3.27325e-06C8.4447 1.47652e-06 -1.46744e-06 8.39276 -3.29278e-06 18.8325L-2.32577e-05 147.928C-2.50652e-05 158.266 8.34294 166.761 18.7208 166.761L207.741 167L234.744 186.909L234.744 167L261.278 167C271.554 167 279.999 158.607 279.999 148.167L279.999 18.9694C280.101 8.63196 271.758 0.239189 261.38 0.239188Z" fill="#120D0C"/>
<mask id="mask0_247_2471" style="mask-type:alpha" maskUnits="userSpaceOnUse" x="0" y="0" width="280" height="187">
<path d="M257.474 0.609375H22.6468C6.5116 0.609375 0 9.41204 0 21.9818L6.9765e-05 144.79C6.9765e-05 157.237 4.88378 167.14 22.6469 167.14L207.72 167.465L234.092 187V167.465H257.351C272.511 167.465 279.998 161.605 279.998 144.79L279.998 21.8585C280.121 9.41204 272.185 0.609375 257.474 0.609375Z" fill="#FFD500"/>
</mask>
<g mask="url(#mask0_247_2471)">
<g opacity="0.08">
<path d="M101.267 23.6816H87.4352C86.6629 23.6816 86.0283 24.311 86.0283 25.0939V34.1511C86.0283 34.9263 86.6553 35.5634 87.4352 35.5634H94.6835L98.8658 39.1018V35.5634H101.259C102.031 35.5634 102.666 34.934 102.666 34.1511V25.0863C102.673 24.311 102.046 23.6816 101.267 23.6816Z" fill="#FED402"/>
<path d="M227.875 23.6816H214.044C213.271 23.6816 212.637 24.311 212.637 25.0939V34.1511C212.637 34.9263 213.264 35.5634 214.044 35.5634H221.292L225.474 39.1018V35.5634H227.867C228.64 35.5634 229.274 34.934 229.274 34.1511V25.0863C229.282 24.311 228.655 23.6816 227.875 23.6816Z" fill="#FED402"/>
<path d="M101.267 124.725H87.4352C86.6629 124.725 86.0283 125.354 86.0283 126.137V135.194C86.0283 135.969 86.6553 136.606 87.4352 136.606H94.6835L98.8658 140.145V136.606H101.259C102.031 136.606 102.666 135.977 102.666 135.194V126.129C102.673 125.354 102.046 124.725 101.267 124.725Z" fill="#FED402"/>
<path d="M227.875 124.725H214.044C213.271 124.725 212.637 125.354 212.637 126.137V135.194C212.637 135.969 213.264 136.606 214.044 136.606H221.292L225.474 140.145V136.606H227.867C228.64 136.606 229.274 135.977 229.274 135.194V126.129C229.282 125.354 228.655 124.725 227.875 124.725Z" fill="#FED402"/>
<path d="M122.368 23.6816H108.537C107.764 23.6816 107.13 24.311 107.13 25.0939V34.1511C107.13 34.9263 107.757 35.5634 108.537 35.5634H115.785L119.967 39.1018V35.5634H122.361C123.133 35.5634 123.767 34.934 123.767 34.1511V25.0863C123.775 24.311 123.148 23.6816 122.368 23.6816Z" fill="#FED402"/>
<path d="M248.976 23.6816H235.144C234.372 23.6816 233.737 24.311 233.737 25.0939V34.1511C233.737 34.9263 234.364 35.5634 235.144 35.5634H242.392L246.575 39.1018V35.5634H248.968C249.74 35.5634 250.375 34.934 250.375 34.1511V25.0863C250.382 24.311 249.755 23.6816 248.976 23.6816Z" fill="#FED402"/>
<path d="M122.368 124.725H108.537C107.764 124.725 107.13 125.354 107.13 126.137V135.194C107.13 135.969 107.757 136.606 108.537 136.606H115.785L119.967 140.145V136.606H122.361C123.133 136.606 123.767 135.977 123.767 135.194V126.129C123.775 125.354 123.148 124.725 122.368 124.725Z" fill="#FED402"/>
<path d="M248.976 124.725H235.144C234.372 124.725 233.737 125.354 233.737 126.137V135.194C233.737 135.969 234.364 136.606 235.144 136.606H242.392L246.575 140.145V136.606H248.968C249.74 136.606 250.375 135.977 250.375 135.194V126.129C250.382 125.354 249.755 124.725 248.976 124.725Z" fill="#FED402"/>
<path d="M16.8623 23.6816H3.03087C2.25863 23.6816 1.62402 24.311 1.62402 25.0939V34.1511C1.62402 34.9263 2.25099 35.5634 3.03087 35.5634H10.2792L14.4615 39.1018V35.5634H16.8547C17.6269 35.5634 18.2615 34.934 18.2615 34.1511V25.0863C18.2692 24.311 17.6422 23.6816 16.8623 23.6816Z" fill="#FED402"/>
<path d="M143.47 23.6816H129.638C128.866 23.6816 128.231 24.311 128.231 25.0939V34.1511C128.231 34.9263 128.858 35.5634 129.638 35.5634H136.887L141.069 39.1018V35.5634H143.462C144.234 35.5634 144.869 34.934 144.869 34.1511V25.0863C144.877 24.311 144.25 23.6816 143.47 23.6816Z" fill="#FED402"/>
<path d="M270.078 23.6816H256.247C255.474 23.6816 254.84 24.311 254.84 25.0939V34.1511C254.84 34.9263 255.467 35.5634 256.247 35.5634H263.495L267.677 39.1018V35.5634H270.07C270.843 35.5634 271.477 34.934 271.477 34.1511V25.0863C271.485 24.311 270.858 23.6816 270.078 23.6816Z" fill="#FED402"/>
<path d="M16.8623 124.725H3.03087C2.25863 124.725 1.62402 125.354 1.62402 126.137V135.194C1.62402 135.969 2.25099 136.606 3.03087 136.606H10.2792L14.4615 140.145V136.606H16.8547C17.6269 136.606 18.2615 135.977 18.2615 135.194V126.129C18.2692 125.354 17.6422 124.725 16.8623 124.725Z" fill="#FED402"/>
<path d="M143.47 124.725H129.638C128.866 124.725 128.231 125.354 128.231 126.137V135.194C128.231 135.969 128.858 136.606 129.638 136.606H136.887L141.069 140.145V136.606H143.462C144.234 136.606 144.869 135.977 144.869 135.194V126.129C144.877 125.354 144.25 124.725 143.47 124.725Z" fill="#FED402"/>
<path d="M270.078 124.725H256.247C255.474 124.725 254.84 125.354 254.84 126.137V135.194C254.84 135.969 255.467 136.606 256.247 136.606H263.495L267.677 140.145V136.606H270.07C270.843 136.606 271.477 135.977 271.477 135.194V126.129C271.485 125.354 270.858 124.725 270.078 124.725Z" fill="#FED402"/>
<path d="M37.9629 23.6816H24.1315C23.3592 23.6816 22.7246 24.311 22.7246 25.0939V34.1511C22.7246 34.9263 23.3516 35.5634 24.1315 35.5634H31.3798L35.5621 39.1018V35.5634H37.9553C38.7275 35.5634 39.3621 34.934 39.3621 34.1511V25.0863C39.3698 24.311 38.7428 23.6816 37.9629 23.6816Z" fill="#FED402"/>
<path d="M164.571 23.6816H150.74C149.968 23.6816 149.333 24.311 149.333 25.0939V34.1511C149.333 34.9263 149.96 35.5634 150.74 35.5634H157.988L162.17 39.1018V35.5634H164.564C165.336 35.5634 165.971 34.934 165.971 34.1511V25.0863C165.978 24.311 165.351 23.6816 164.571 23.6816Z" fill="#FED402"/>
<path d="M291.179 23.6816H277.347C276.575 23.6816 275.94 24.311 275.94 25.0939V34.1511C275.94 34.9263 276.567 35.5634 277.347 35.5634H284.596L288.778 39.1018V35.5634H291.171C291.943 35.5634 292.578 34.934 292.578 34.1511V25.0863C292.586 24.311 291.959 23.6816 291.179 23.6816Z" fill="#FED402"/>
<path d="M37.9629 124.725H24.1315C23.3592 124.725 22.7246 125.354 22.7246 126.137V135.194C22.7246 135.969 23.3516 136.606 24.1315 136.606H31.3798L35.5621 140.145V136.606H37.9553C38.7275 136.606 39.3621 135.977 39.3621 135.194V126.129C39.3698 125.354 38.7428 124.725 37.9629 124.725Z" fill="#FED402"/>
<path d="M164.571 124.725H150.74C149.968 124.725 149.333 125.354 149.333 126.137V135.194C149.333 135.969 149.96 136.606 150.74 136.606H157.988L162.17 140.145V136.606H164.564C165.336 136.606 165.971 135.977 165.971 135.194V126.129C165.978 125.354 165.351 124.725 164.571 124.725Z" fill="#FED402"/>
<path d="M291.179 124.725H277.347C276.575 124.725 275.94 125.354 275.94 126.137V135.194C275.94 135.969 276.567 136.606 277.347 136.606H284.596L288.778 140.145V136.606H291.171C291.943 136.606 292.578 135.977 292.578 135.194V126.129C292.586 125.354 291.959 124.725 291.179 124.725Z" fill="#FED402"/>
<path d="M59.0645 23.6816H45.233C44.4608 23.6816 43.8262 24.311 43.8262 25.0939V34.1511C43.8262 34.9263 44.4531 35.5634 45.233 35.5634H52.4813L56.6637 39.1018V35.5634H59.0568C59.8291 35.5634 60.4637 34.934 60.4637 34.1511V25.0863C60.4713 24.311 59.8443 23.6816 59.0645 23.6816Z" fill="#FED402"/>
<path d="M185.672 23.6816H171.84C171.068 23.6816 170.434 24.311 170.434 25.0939V34.1511C170.434 34.9263 171.061 35.5634 171.84 35.5634H179.089L183.271 39.1018V35.5634H185.664C186.436 35.5634 187.071 34.934 187.071 34.1511V25.0863C187.079 24.311 186.452 23.6816 185.672 23.6816Z" fill="#FED402"/>
<path d="M59.0645 124.725H45.233C44.4608 124.725 43.8262 125.354 43.8262 126.137V135.194C43.8262 135.969 44.4531 136.606 45.233 136.606H52.4813L56.6637 140.145V136.606H59.0568C59.8291 136.606 60.4637 135.977 60.4637 135.194V126.129C60.4713 125.354 59.8443 124.725 59.0645 124.725Z" fill="#FED402"/>
<path d="M185.672 124.725H171.84C171.068 124.725 170.434 125.354 170.434 126.137V135.194C170.434 135.969 171.061 136.606 171.84 136.606H179.089L183.271 140.145V136.606H185.664C186.436 136.606 187.071 135.977 187.071 135.194V126.129C187.079 125.354 186.452 124.725 185.672 124.725Z" fill="#FED402"/>
<path d="M80.166 23.6816H66.3346C65.5623 23.6816 64.9277 24.311 64.9277 25.0939V34.1511C64.9277 34.9263 65.5547 35.5634 66.3346 35.5634H73.5829L77.7652 39.1018V35.5634H80.1584C80.9306 35.5634 81.5652 34.934 81.5652 34.1511V25.0863C81.5729 24.311 80.9459 23.6816 80.166 23.6816Z" fill="#FED402"/>
<path d="M206.773 23.6816H192.942C192.17 23.6816 191.535 24.311 191.535 25.0939V34.1511C191.535 34.9263 192.162 35.5634 192.942 35.5634H200.19L204.373 39.1018V35.5634H206.766C207.538 35.5634 208.173 34.934 208.173 34.1511V25.0863C208.18 24.311 207.553 23.6816 206.773 23.6816Z" fill="#FED402"/>
<path d="M80.166 124.725H66.3346C65.5623 124.725 64.9277 125.354 64.9277 126.137V135.194C64.9277 135.969 65.5547 136.606 66.3346 136.606H73.5829L77.7652 140.145V136.606H80.1584C80.9306 136.606 81.5652 135.977 81.5652 135.194V126.129C81.5729 125.354 80.9459 124.725 80.166 124.725Z" fill="#FED402"/>
<path d="M206.773 124.725H192.942C192.17 124.725 191.535 125.354 191.535 126.137V135.194C191.535 135.969 192.162 136.606 192.942 136.606H200.19L204.373 140.145V136.606H206.766C207.538 136.606 208.173 135.977 208.173 135.194V126.129C208.18 125.354 207.553 124.725 206.773 124.725Z" fill="#FED402"/>
<path d="M101.267 -10H87.4352C86.6629 -10 86.0283 -9.3706 86.0283 -8.5877V0.469453C86.0283 1.24468 86.6553 1.88175 87.4352 1.88175H94.6835L98.8658 5.42018V1.88175H101.259C102.031 1.88175 102.666 1.25236 102.666 0.469453V-8.59537C102.673 -9.3706 102.046 -10 101.267 -10Z" fill="#FED402"/>
<path d="M227.875 -10H214.044C213.271 -10 212.637 -9.3706 212.637 -8.5877V0.469453C212.637 1.24468 213.264 1.88175 214.044 1.88175H221.292L225.474 5.42018V1.88175H227.867C228.64 1.88175 229.274 1.25236 229.274 0.469453V-8.59537C229.282 -9.3706 228.655 -10 227.875 -10Z" fill="#FED402"/>
<path d="M101.267 91.043H87.4352C86.6629 91.043 86.0283 91.6724 86.0283 92.4553V101.512C86.0283 102.288 86.6553 102.925 87.4352 102.925H94.6835L98.8658 106.463V102.925H101.259C102.031 102.925 102.666 102.295 102.666 101.512V92.4476C102.673 91.6724 102.046 91.043 101.267 91.043Z" fill="#FED402"/>
<path d="M227.875 91.043H214.044C213.271 91.043 212.637 91.6724 212.637 92.4553V101.512C212.637 102.288 213.264 102.925 214.044 102.925H221.292L225.474 106.463V102.925H227.867C228.64 102.925 229.274 102.295 229.274 101.512V92.4476C229.282 91.6724 228.655 91.043 227.875 91.043Z" fill="#FED402"/>
<path d="M101.267 57.3613H87.4352C86.6629 57.3613 86.0283 57.9907 86.0283 58.7736V67.8308C86.0283 68.606 86.6553 69.2431 87.4352 69.2431H94.6835L98.8658 72.7815V69.2431H101.259C102.031 69.2431 102.666 68.6137 102.666 67.8308V58.766C102.673 57.9907 102.046 57.3613 101.267 57.3613Z" fill="#FED402"/>
<path d="M227.875 57.3613H214.044C213.271 57.3613 212.637 57.9907 212.637 58.7736V67.8308C212.637 68.606 213.264 69.2431 214.044 69.2431H221.292L225.474 72.7815V69.2431H227.867C228.64 69.2431 229.274 68.6137 229.274 67.8308V58.766C229.282 57.9907 228.655 57.3613 227.875 57.3613Z" fill="#FED402"/>
<path d="M101.267 158.404H87.4352C86.6629 158.404 86.0283 159.034 86.0283 159.817V168.874C86.0283 169.649 86.6553 170.286 87.4352 170.286H94.6835L98.8658 173.824V170.286H101.259C102.031 170.286 102.666 169.657 102.666 168.874V159.809C102.673 159.034 102.046 158.404 101.267 158.404Z" fill="#FED402"/>
<path d="M227.875 158.404H214.044C213.271 158.404 212.637 159.034 212.637 159.817V168.874C212.637 169.649 213.264 170.286 214.044 170.286H221.292L225.474 173.824V170.286H227.867C228.64 170.286 229.274 169.657 229.274 168.874V159.809C229.282 159.034 228.655 158.404 227.875 158.404Z" fill="#FED402"/>
<path d="M122.368 -10H108.537C107.764 -10 107.13 -9.3706 107.13 -8.5877V0.469453C107.13 1.24468 107.757 1.88175 108.537 1.88175H115.785L119.967 5.42018V1.88175H122.361C123.133 1.88175 123.767 1.25236 123.767 0.469453V-8.59537C123.775 -9.3706 123.148 -10 122.368 -10Z" fill="#FED402"/>
<path d="M248.976 -10H235.144C234.372 -10 233.737 -9.3706 233.737 -8.5877V0.469453C233.737 1.24468 234.364 1.88175 235.144 1.88175H242.392L246.575 5.42018V1.88175H248.968C249.74 1.88175 250.375 1.25236 250.375 0.469453V-8.59537C250.382 -9.3706 249.755 -10 248.976 -10Z" fill="#FED402"/>
<path d="M122.368 91.043H108.537C107.764 91.043 107.13 91.6724 107.13 92.4553V101.512C107.13 102.288 107.757 102.925 108.537 102.925H115.785L119.967 106.463V102.925H122.361C123.133 102.925 123.767 102.295 123.767 101.512V92.4476C123.775 91.6724 123.148 91.043 122.368 91.043Z" fill="#FED402"/>
<path d="M248.976 91.043H235.144C234.372 91.043 233.737 91.6724 233.737 92.4553V101.512C233.737 102.288 234.364 102.925 235.144 102.925H242.392L246.575 106.463V102.925H248.968C249.74 102.925 250.375 102.295 250.375 101.512V92.4476C250.382 91.6724 249.755 91.043 248.976 91.043Z" fill="#FED402"/>
<path d="M122.368 57.3613H108.537C107.764 57.3613 107.13 57.9907 107.13 58.7736V67.8308C107.13 68.606 107.757 69.2431 108.537 69.2431H115.785L119.967 72.7815V69.2431H122.361C123.133 69.2431 123.767 68.6137 123.767 67.8308V58.766C123.775 57.9907 123.148 57.3613 122.368 57.3613Z" fill="#FED402"/>
<path d="M248.976 57.3613H235.144C234.372 57.3613 233.737 57.9907 233.737 58.7736V67.8308C233.737 68.606 234.364 69.2431 235.144 69.2431H242.392L246.575 72.7815V69.2431H248.968C249.74 69.2431 250.375 68.6137 250.375 67.8308V58.766C250.382 57.9907 249.755 57.3613 248.976 57.3613Z" fill="#FED402"/>
<path d="M122.368 158.404H108.537C107.764 158.404 107.13 159.034 107.13 159.817V168.874C107.13 169.649 107.757 170.286 108.537 170.286H115.785L119.967 173.824V170.286H122.361C123.133 170.286 123.767 169.657 123.767 168.874V159.809C123.775 159.034 123.148 158.404 122.368 158.404Z" fill="#FED402"/>
<path d="M248.976 158.404H235.144C234.372 158.404 233.737 159.034 233.737 159.817V168.874C233.737 169.649 234.364 170.286 235.144 170.286H242.392L246.575 173.824V170.286H248.968C249.74 170.286 250.375 169.657 250.375 168.874V159.809C250.382 159.034 249.755 158.404 248.976 158.404Z" fill="#FED402"/>
<path d="M16.8623 -10H3.03087C2.25863 -10 1.62402 -9.3706 1.62402 -8.5877V0.469453C1.62402 1.24468 2.25099 1.88175 3.03087 1.88175H10.2792L14.4615 5.42018V1.88175H16.8547C17.6269 1.88175 18.2615 1.25236 18.2615 0.469453V-8.59537C18.2692 -9.3706 17.6422 -10 16.8623 -10Z" fill="#FED402"/>
<path d="M143.47 -10H129.638C128.866 -10 128.231 -9.3706 128.231 -8.5877V0.469453C128.231 1.24468 128.858 1.88175 129.638 1.88175H136.887L141.069 5.42018V1.88175H143.462C144.234 1.88175 144.869 1.25236 144.869 0.469453V-8.59537C144.877 -9.3706 144.25 -10 143.47 -10Z" fill="#FED402"/>
<path d="M270.078 -10H256.247C255.474 -10 254.84 -9.3706 254.84 -8.5877V0.469453C254.84 1.24468 255.467 1.88175 256.247 1.88175H263.495L267.677 5.42018V1.88175H270.07C270.843 1.88175 271.477 1.25236 271.477 0.469453V-8.59537C271.485 -9.3706 270.858 -10 270.078 -10Z" fill="#FED402"/>
<path d="M16.8623 91.043H3.03087C2.25863 91.043 1.62402 91.6724 1.62402 92.4553V101.512C1.62402 102.288 2.25099 102.925 3.03087 102.925H10.2792L14.4615 106.463V102.925H16.8547C17.6269 102.925 18.2615 102.295 18.2615 101.512V92.4476C18.2692 91.6724 17.6422 91.043 16.8623 91.043Z" fill="#FED402"/>
<path d="M143.47 91.043H129.638C128.866 91.043 128.231 91.6724 128.231 92.4553V101.512C128.231 102.288 128.858 102.925 129.638 102.925H136.887L141.069 106.463V102.925H143.462C144.234 102.925 144.869 102.295 144.869 101.512V92.4476C144.877 91.6724 144.25 91.043 143.47 91.043Z" fill="#FED402"/>
<path d="M270.078 91.043H256.247C255.474 91.043 254.84 91.6724 254.84 92.4553V101.512C254.84 102.288 255.467 102.925 256.247 102.925H263.495L267.677 106.463V102.925H270.07C270.843 102.925 271.477 102.295 271.477 101.512V92.4476C271.485 91.6724 270.858 91.043 270.078 91.043Z" fill="#FED402"/>
<path d="M16.8623 57.3613H3.03087C2.25863 57.3613 1.62402 57.9907 1.62402 58.7736V67.8308C1.62402 68.606 2.25099 69.2431 3.03087 69.2431H10.2792L14.4615 72.7815V69.2431H16.8547C17.6269 69.2431 18.2615 68.6137 18.2615 67.8308V58.766C18.2692 57.9907 17.6422 57.3613 16.8623 57.3613Z" fill="#FED402"/>
<path d="M143.47 57.3613H129.638C128.866 57.3613 128.231 57.9907 128.231 58.7736V67.8308C128.231 68.606 128.858 69.2431 129.638 69.2431H136.887L141.069 72.7815V69.2431H143.462C144.234 69.2431 144.869 68.6137 144.869 67.8308V58.766C144.877 57.9907 144.25 57.3613 143.47 57.3613Z" fill="#FED402"/>
<path d="M270.078 57.3613H256.247C255.474 57.3613 254.84 57.9907 254.84 58.7736V67.8308C254.84 68.606 255.467 69.2431 256.247 69.2431H263.495L267.677 72.7815V69.2431H270.07C270.843 69.2431 271.477 68.6137 271.477 67.8308V58.766C271.485 57.9907 270.858 57.3613 270.078 57.3613Z" fill="#FED402"/>
<path d="M16.8623 158.404H3.03087C2.25863 158.404 1.62402 159.034 1.62402 159.817V168.874C1.62402 169.649 2.25099 170.286 3.03087 170.286H10.2792L14.4615 173.824V170.286H16.8547C17.6269 170.286 18.2615 169.657 18.2615 168.874V159.809C18.2692 159.034 17.6422 158.404 16.8623 158.404Z" fill="#FED402"/>
<path d="M143.47 158.404H129.638C128.866 158.404 128.231 159.034 128.231 159.817V168.874C128.231 169.649 128.858 170.286 129.638 170.286H136.887L141.069 173.824V170.286H143.462C144.234 170.286 144.869 169.657 144.869 168.874V159.809C144.877 159.034 144.25 158.404 143.47 158.404Z" fill="#FED402"/>
<path d="M270.078 158.404H256.247C255.474 158.404 254.84 159.034 254.84 159.817V168.874C254.84 169.649 255.467 170.286 256.247 170.286H263.495L267.677 173.824V170.286H270.07C270.843 170.286 271.477 169.657 271.477 168.874V159.809C271.485 159.034 270.858 158.404 270.078 158.404Z" fill="#FED402"/>
<path d="M37.9629 -10H24.1315C23.3592 -10 22.7246 -9.3706 22.7246 -8.5877V0.469453C22.7246 1.24468 23.3516 1.88175 24.1315 1.88175H31.3798L35.5621 5.42018V1.88175H37.9553C38.7275 1.88175 39.3621 1.25236 39.3621 0.469453V-8.59537C39.3698 -9.3706 38.7428 -10 37.9629 -10Z" fill="#FED402"/>
<path d="M164.571 -10H150.74C149.968 -10 149.333 -9.3706 149.333 -8.5877V0.469453C149.333 1.24468 149.96 1.88175 150.74 1.88175H157.988L162.17 5.42018V1.88175H164.564C165.336 1.88175 165.971 1.25236 165.971 0.469453V-8.59537C165.978 -9.3706 165.351 -10 164.571 -10Z" fill="#FED402"/>
<path d="M291.179 -10H277.347C276.575 -10 275.94 -9.3706 275.94 -8.5877V0.469453C275.94 1.24468 276.567 1.88175 277.347 1.88175H284.596L288.778 5.42018V1.88175H291.171C291.943 1.88175 292.578 1.25236 292.578 0.469453V-8.59537C292.586 -9.3706 291.959 -10 291.179 -10Z" fill="#FED402"/>
<path d="M37.9629 91.043H24.1315C23.3592 91.043 22.7246 91.6724 22.7246 92.4553V101.512C22.7246 102.288 23.3516 102.925 24.1315 102.925H31.3798L35.5621 106.463V102.925H37.9553C38.7275 102.925 39.3621 102.295 39.3621 101.512V92.4476C39.3698 91.6724 38.7428 91.043 37.9629 91.043Z" fill="#FED402"/>
<path d="M164.571 91.043H150.74C149.968 91.043 149.333 91.6724 149.333 92.4553V101.512C149.333 102.288 149.96 102.925 150.74 102.925H157.988L162.17 106.463V102.925H164.564C165.336 102.925 165.971 102.295 165.971 101.512V92.4476C165.978 91.6724 165.351 91.043 164.571 91.043Z" fill="#FED402"/>
<path d="M291.179 91.043H277.347C276.575 91.043 275.94 91.6724 275.94 92.4553V101.512C275.94 102.288 276.567 102.925 277.347 102.925H284.596L288.778 106.463V102.925H291.171C291.943 102.925 292.578 102.295 292.578 101.512V92.4476C292.586 91.6724 291.959 91.043 291.179 91.043Z" fill="#FED402"/>
<path d="M37.9629 57.3613H24.1315C23.3592 57.3613 22.7246 57.9907 22.7246 58.7736V67.8308C22.7246 68.606 23.3516 69.2431 24.1315 69.2431H31.3798L35.5621 72.7815V69.2431H37.9553C38.7275 69.2431 39.3621 68.6137 39.3621 67.8308V58.766C39.3698 57.9907 38.7428 57.3613 37.9629 57.3613Z" fill="#FED402"/>
<path d="M164.571 57.3613H150.74C149.968 57.3613 149.333 57.9907 149.333 58.7736V67.8308C149.333 68.606 149.96 69.2431 150.74 69.2431H157.988L162.17 72.7815V69.2431H164.564C165.336 69.2431 165.971 68.6137 165.971 67.8308V58.766C165.978 57.9907 165.351 57.3613 164.571 57.3613Z" fill="#FED402"/>
<path d="M291.179 57.3613H277.347C276.575 57.3613 275.94 57.9907 275.94 58.7736V67.8308C275.94 68.606 276.567 69.2431 277.347 69.2431H284.596L288.778 72.7815V69.2431H291.171C291.943 69.2431 292.578 68.6137 292.578 67.8308V58.766C292.586 57.9907 291.959 57.3613 291.179 57.3613Z" fill="#FED402"/>
<path d="M37.9629 158.404H24.1315C23.3592 158.404 22.7246 159.034 22.7246 159.817V168.874C22.7246 169.649 23.3516 170.286 24.1315 170.286H31.3798L35.5621 173.824V170.286H37.9553C38.7275 170.286 39.3621 169.657 39.3621 168.874V159.809C39.3698 159.034 38.7428 158.404 37.9629 158.404Z" fill="#FED402"/>
<path d="M164.571 158.404H150.74C149.968 158.404 149.333 159.034 149.333 159.817V168.874C149.333 169.649 149.96 170.286 150.74 170.286H157.988L162.17 173.824V170.286H164.564C165.336 170.286 165.971 169.657 165.971 168.874V159.809C165.978 159.034 165.351 158.404 164.571 158.404Z" fill="#FED402"/>
<path d="M291.179 158.404H277.347C276.575 158.404 275.94 159.034 275.94 159.817V168.874C275.94 169.649 276.567 170.286 277.347 170.286H284.596L288.778 173.824V170.286H291.171C291.943 170.286 292.578 169.657 292.578 168.874V159.809C292.586 159.034 291.959 158.404 291.179 158.404Z" fill="#FED402"/>
<path d="M59.0645 -10H45.233C44.4608 -10 43.8262 -9.3706 43.8262 -8.5877V0.469453C43.8262 1.24468 44.4531 1.88175 45.233 1.88175H52.4813L56.6637 5.42018V1.88175H59.0568C59.8291 1.88175 60.4637 1.25236 60.4637 0.469453V-8.59537C60.4713 -9.3706 59.8443 -10 59.0645 -10Z" fill="#FED402"/>
<path d="M185.672 -10H171.84C171.068 -10 170.434 -9.3706 170.434 -8.5877V0.469453C170.434 1.24468 171.061 1.88175 171.84 1.88175H179.089L183.271 5.42018V1.88175H185.664C186.436 1.88175 187.071 1.25236 187.071 0.469453V-8.59537C187.079 -9.3706 186.452 -10 185.672 -10Z" fill="#FED402"/>
<path d="M59.0645 91.043H45.233C44.4608 91.043 43.8262 91.6724 43.8262 92.4553V101.512C43.8262 102.288 44.4531 102.925 45.233 102.925H52.4813L56.6637 106.463V102.925H59.0568C59.8291 102.925 60.4637 102.295 60.4637 101.512V92.4476C60.4713 91.6724 59.8443 91.043 59.0645 91.043Z" fill="#FED402"/>
<path d="M185.672 91.043H171.84C171.068 91.043 170.434 91.6724 170.434 92.4553V101.512C170.434 102.288 171.061 102.925 171.84 102.925H179.089L183.271 106.463V102.925H185.664C186.436 102.925 187.071 102.295 187.071 101.512V92.4476C187.079 91.6724 186.452 91.043 185.672 91.043Z" fill="#FED402"/>
<path d="M59.0645 57.3613H45.233C44.4608 57.3613 43.8262 57.9907 43.8262 58.7736V67.8308C43.8262 68.606 44.4531 69.2431 45.233 69.2431H52.4813L56.6637 72.7815V69.2431H59.0568C59.8291 69.2431 60.4637 68.6137 60.4637 67.8308V58.766C60.4713 57.9907 59.8443 57.3613 59.0645 57.3613Z" fill="#FED402"/>
<path d="M185.672 57.3613H171.84C171.068 57.3613 170.434 57.9907 170.434 58.7736V67.8308C170.434 68.606 171.061 69.2431 171.84 69.2431H179.089L183.271 72.7815V69.2431H185.664C186.436 69.2431 187.071 68.6137 187.071 67.8308V58.766C187.079 57.9907 186.452 57.3613 185.672 57.3613Z" fill="#FED402"/>
<path d="M59.0645 158.404H45.233C44.4608 158.404 43.8262 159.034 43.8262 159.817V168.874C43.8262 169.649 44.4531 170.286 45.233 170.286H52.4813L56.6637 173.824V170.286H59.0568C59.8291 170.286 60.4637 169.657 60.4637 168.874V159.809C60.4713 159.034 59.8443 158.404 59.0645 158.404Z" fill="#FED402"/>
<path d="M185.672 158.404H171.84C171.068 158.404 170.434 159.034 170.434 159.817V168.874C170.434 169.649 171.061 170.286 171.84 170.286H179.089L183.271 173.824V170.286H185.664C186.436 170.286 187.071 169.657 187.071 168.874V159.809C187.079 159.034 186.452 158.404 185.672 158.404Z" fill="#FED402"/>
<path d="M80.166 -10H66.3346C65.5623 -10 64.9277 -9.3706 64.9277 -8.5877V0.469453C64.9277 1.24468 65.5547 1.88175 66.3346 1.88175H73.5829L77.7652 5.42018V1.88175H80.1584C80.9306 1.88175 81.5652 1.25236 81.5652 0.469453V-8.59537C81.5729 -9.3706 80.9459 -10 80.166 -10Z" fill="#FED402"/>
<path d="M206.773 -10H192.942C192.17 -10 191.535 -9.3706 191.535 -8.5877V0.469453C191.535 1.24468 192.162 1.88175 192.942 1.88175H200.19L204.373 5.42018V1.88175H206.766C207.538 1.88175 208.173 1.25236 208.173 0.469453V-8.59537C208.18 -9.3706 207.553 -10 206.773 -10Z" fill="#FED402"/>
<path d="M80.166 91.043H66.3346C65.5623 91.043 64.9277 91.6724 64.9277 92.4553V101.512C64.9277 102.288 65.5547 102.925 66.3346 102.925H73.5829L77.7652 106.463V102.925H80.1584C80.9306 102.925 81.5652 102.295 81.5652 101.512V92.4476C81.5729 91.6724 80.9459 91.043 80.166 91.043Z" fill="#FED402"/>
<path d="M206.773 91.043H192.942C192.17 91.043 191.535 91.6724 191.535 92.4553V101.512C191.535 102.288 192.162 102.925 192.942 102.925H200.19L204.373 106.463V102.925H206.766C207.538 102.925 208.173 102.295 208.173 101.512V92.4476C208.18 91.6724 207.553 91.043 206.773 91.043Z" fill="#FED402"/>
<path d="M80.166 57.3613H66.3346C65.5623 57.3613 64.9277 57.9907 64.9277 58.7736V67.8308C64.9277 68.606 65.5547 69.2431 66.3346 69.2431H73.5829L77.7652 72.7815V69.2431H80.1584C80.9306 69.2431 81.5652 68.6137 81.5652 67.8308V58.766C81.5729 57.9907 80.9459 57.3613 80.166 57.3613Z" fill="#FED402"/>
<path d="M206.773 57.3613H192.942C192.17 57.3613 191.535 57.9907 191.535 58.7736V67.8308C191.535 68.606 192.162 69.2431 192.942 69.2431H200.19L204.373 72.7815V69.2431H206.766C207.538 69.2431 208.173 68.6137 208.173 67.8308V58.766C208.18 57.9907 207.553 57.3613 206.773 57.3613Z" fill="#FED402"/>
<path d="M80.166 158.404H66.3346C65.5623 158.404 64.9277 159.034 64.9277 159.817V168.874C64.9277 169.649 65.5547 170.286 66.3346 170.286H73.5829L77.7652 173.824V170.286H80.1584C80.9306 170.286 81.5652 169.657 81.5652 168.874V159.809C81.5729 159.034 80.9459 158.404 80.166 158.404Z" fill="#FED402"/>
<path d="M206.773 158.404H192.942C192.17 158.404 191.535 159.034 191.535 159.817V168.874C191.535 169.649 192.162 170.286 192.942 170.286H200.19L204.373 173.824V170.286H206.766C207.538 170.286 208.173 169.657 208.173 168.874V159.809C208.18 159.034 207.553 158.404 206.773 158.404Z" fill="#FED402"/>
<path d="M87.4277 53.709L101.259 53.709C102.031 53.709 102.666 53.0796 102.666 52.2967L102.666 43.2395C102.666 42.4643 102.039 41.8272 101.259 41.8272L94.0108 41.8272L89.8285 38.2888L89.8285 41.8272L87.4354 41.8272C86.6631 41.8272 86.0285 42.4566 86.0285 43.2395L86.0285 52.3044C86.0209 53.0796 86.6478 53.709 87.4277 53.709Z" stroke="#FED402" stroke-width="2"/>
<path d="M214.036 53.709L227.868 53.709C228.64 53.709 229.274 53.0796 229.274 52.2967L229.274 43.2395C229.274 42.4643 228.647 41.8272 227.868 41.8272L220.619 41.8272L216.437 38.2888L216.437 41.8272L214.044 41.8272C213.272 41.8272 212.637 42.4566 212.637 43.2395L212.637 52.3044C212.629 53.0796 213.256 53.709 214.036 53.709Z" stroke="#FED402" stroke-width="2"/>
<path d="M87.4277 154.752L101.259 154.752C102.031 154.752 102.666 154.123 102.666 153.34L102.666 144.283C102.666 143.507 102.039 142.87 101.259 142.87L94.0108 142.87L89.8285 139.332L89.8285 142.87L87.4354 142.87C86.6631 142.87 86.0285 143.5 86.0285 144.282L86.0285 153.347C86.0209 154.123 86.6478 154.752 87.4277 154.752Z" stroke="#FED402" stroke-width="2"/>
<path d="M214.036 154.752L227.868 154.752C228.64 154.752 229.274 154.123 229.274 153.34L229.274 144.283C229.274 143.507 228.647 142.87 227.868 142.87L220.619 142.87L216.437 139.332L216.437 142.87L214.044 142.87C213.272 142.87 212.637 143.5 212.637 144.282L212.637 153.347C212.629 154.123 213.256 154.752 214.036 154.752Z" stroke="#FED402" stroke-width="2"/>
<path d="M108.529 53.709L122.361 53.709C123.133 53.709 123.768 53.0796 123.768 52.2967L123.768 43.2395C123.768 42.4643 123.141 41.8272 122.361 41.8272L115.112 41.8272L110.93 38.2888L110.93 41.8272L108.537 41.8272C107.765 41.8272 107.13 42.4566 107.13 43.2395L107.13 52.3044C107.122 53.0796 107.749 53.709 108.529 53.709Z" stroke="#FED402" stroke-width="2"/>
<path d="M235.137 53.709L248.968 53.709C249.74 53.709 250.375 53.0796 250.375 52.2967L250.375 43.2395C250.375 42.4643 249.748 41.8272 248.968 41.8272L241.72 41.8272L237.538 38.2888L237.538 41.8272L235.144 41.8272C234.372 41.8272 233.738 42.4566 233.738 43.2395L233.738 52.3044C233.73 53.0796 234.357 53.709 235.137 53.709Z" stroke="#FED402" stroke-width="2"/>
<path d="M108.529 154.752L122.361 154.752C123.133 154.752 123.768 154.123 123.768 153.34L123.768 144.283C123.768 143.507 123.141 142.87 122.361 142.87L115.112 142.87L110.93 139.332L110.93 142.87L108.537 142.87C107.765 142.87 107.13 143.5 107.13 144.282L107.13 153.347C107.122 154.123 107.749 154.752 108.529 154.752Z" stroke="#FED402" stroke-width="2"/>
<path d="M235.137 154.752L248.968 154.752C249.74 154.752 250.375 154.123 250.375 153.34L250.375 144.283C250.375 143.507 249.748 142.87 248.968 142.87L241.72 142.87L237.538 139.332L237.538 142.87L235.144 142.87C234.372 142.87 233.738 143.5 233.738 144.282L233.738 153.347C233.73 154.123 234.357 154.752 235.137 154.752Z" stroke="#FED402" stroke-width="2"/>
<path d="M3.02342 53.709L16.8549 53.709C17.6271 53.709 18.2617 53.0796 18.2617 52.2967L18.2617 43.2395C18.2617 42.4643 17.6348 41.8272 16.8549 41.8272L9.60655 41.8272L5.42424 38.2888L5.42424 41.8272L3.03107 41.8272C2.25883 41.8272 1.62422 42.4566 1.62422 43.2395L1.62422 52.3044C1.61658 53.0796 2.24354 53.709 3.02342 53.709Z" stroke="#FED402" stroke-width="2"/>
<path d="M129.631 53.709L143.462 53.709C144.235 53.709 144.869 53.0796 144.869 52.2967L144.869 43.2395C144.869 42.4643 144.242 41.8272 143.462 41.8272L136.214 41.8272L132.032 38.2888L132.032 41.8272L129.638 41.8272C128.866 41.8272 128.232 42.4566 128.232 43.2395L128.232 52.3044C128.224 53.0796 128.851 53.709 129.631 53.709Z" stroke="#FED402" stroke-width="2"/>
<path d="M256.238 53.709L270.07 53.709C270.842 53.709 271.477 53.0796 271.477 52.2967L271.477 43.2395C271.477 42.4643 270.85 41.8272 270.07 41.8272L262.821 41.8272L258.639 38.2888L258.639 41.8272L256.246 41.8272C255.474 41.8272 254.839 42.4566 254.839 43.2395L254.839 52.3044C254.831 53.0796 255.458 53.709 256.238 53.709Z" stroke="#FED402" stroke-width="2"/>
<path d="M3.02342 154.752L16.8549 154.752C17.6271 154.752 18.2617 154.123 18.2617 153.34L18.2617 144.283C18.2617 143.507 17.6348 142.87 16.8549 142.87L9.60655 142.87L5.42424 139.332L5.42424 142.87L3.03107 142.87C2.25883 142.87 1.62422 143.5 1.62422 144.282L1.62422 153.347C1.61658 154.123 2.24354 154.752 3.02342 154.752Z" stroke="#FED402" stroke-width="2"/>
<path d="M129.631 154.752L143.462 154.752C144.235 154.752 144.869 154.123 144.869 153.34L144.869 144.283C144.869 143.507 144.242 142.87 143.462 142.87L136.214 142.87L132.032 139.332L132.032 142.87L129.638 142.87C128.866 142.87 128.232 143.5 128.232 144.282L128.232 153.347C128.224 154.123 128.851 154.752 129.631 154.752Z" stroke="#FED402" stroke-width="2"/>
<path d="M256.238 154.752L270.07 154.752C270.842 154.752 271.477 154.123 271.477 153.34L271.477 144.283C271.477 143.507 270.85 142.87 270.07 142.87L262.821 142.87L258.639 139.332L258.639 142.87L256.246 142.87C255.474 142.87 254.839 143.5 254.839 144.282L254.839 153.347C254.831 154.123 255.458 154.752 256.238 154.752Z" stroke="#FED402" stroke-width="2"/>
<path d="M24.124 53.709L37.9555 53.709C38.7277 53.709 39.3623 53.0796 39.3623 52.2967L39.3623 43.2395C39.3623 42.4643 38.7353 41.8272 37.9555 41.8272L30.7071 41.8272L26.5248 38.2888L26.5248 41.8272L24.1317 41.8272C23.3594 41.8272 22.7248 42.4566 22.7248 43.2395L22.7248 52.3044C22.7172 53.0796 23.3441 53.709 24.124 53.709Z" stroke="#FED402" stroke-width="2"/>
<path d="M150.731 53.709L164.563 53.709C165.335 53.709 165.97 53.0796 165.97 52.2967L165.97 43.2395C165.97 42.4643 165.343 41.8272 164.563 41.8272L157.315 41.8272L153.132 38.2888L153.132 41.8272L150.739 41.8272C149.967 41.8272 149.332 42.4566 149.332 43.2395L149.332 52.3044C149.325 53.0796 149.952 53.709 150.731 53.709Z" stroke="#FED402" stroke-width="2"/>
<path d="M277.34 53.709L291.171 53.709C291.944 53.709 292.578 53.0796 292.578 52.2967L292.578 43.2395C292.578 42.4643 291.951 41.8272 291.171 41.8272L283.923 41.8272L279.741 38.2888L279.741 41.8272L277.347 41.8272C276.575 41.8272 275.941 42.4566 275.941 43.2395L275.941 52.3044C275.933 53.0796 276.56 53.709 277.34 53.709Z" stroke="#FED402" stroke-width="2"/>
<path d="M24.124 154.752L37.9555 154.752C38.7277 154.752 39.3623 154.123 39.3623 153.34L39.3623 144.283C39.3623 143.507 38.7353 142.87 37.9555 142.87L30.7071 142.87L26.5248 139.332L26.5248 142.87L24.1317 142.87C23.3594 142.87 22.7248 143.5 22.7248 144.282L22.7248 153.347C22.7172 154.123 23.3441 154.752 24.124 154.752Z" stroke="#FED402" stroke-width="2"/>
<path d="M150.731 154.752L164.563 154.752C165.335 154.752 165.97 154.123 165.97 153.34L165.97 144.283C165.97 143.507 165.343 142.87 164.563 142.87L157.315 142.87L153.132 139.332L153.132 142.87L150.739 142.87C149.967 142.87 149.332 143.5 149.332 144.282L149.332 153.347C149.325 154.123 149.952 154.752 150.731 154.752Z" stroke="#FED402" stroke-width="2"/>
<path d="M277.34 154.752L291.171 154.752C291.944 154.752 292.578 154.123 292.578 153.34L292.578 144.283C292.578 143.507 291.951 142.87 291.171 142.87L283.923 142.87L279.741 139.332L279.741 142.87L277.347 142.87C276.575 142.87 275.941 143.5 275.941 144.282L275.941 153.347C275.933 154.123 276.56 154.752 277.34 154.752Z" stroke="#FED402" stroke-width="2"/>
<path d="M45.2256 53.709L59.057 53.709C59.8293 53.709 60.4639 53.0796 60.4639 52.2967L60.4639 43.2395C60.4639 42.4643 59.8369 41.8272 59.057 41.8272L51.8087 41.8272L47.6264 38.2888L47.6264 41.8272L45.2332 41.8272C44.461 41.8272 43.8264 42.4566 43.8264 43.2395L43.8264 52.3044C43.8187 53.0796 44.4457 53.709 45.2256 53.709Z" stroke="#FED402" stroke-width="2"/>
<path d="M171.833 53.709L185.664 53.709C186.437 53.709 187.071 53.0796 187.071 52.2967L187.071 43.2395C187.071 42.4643 186.444 41.8272 185.664 41.8272L178.416 41.8272L174.234 38.2888L174.234 41.8272L171.841 41.8272C171.068 41.8272 170.434 42.4566 170.434 43.2395L170.434 52.3044C170.426 53.0796 171.053 53.709 171.833 53.709Z" stroke="#FED402" stroke-width="2"/>
<path d="M45.2256 154.752L59.057 154.752C59.8293 154.752 60.4639 154.123 60.4639 153.34L60.4639 144.283C60.4639 143.507 59.8369 142.87 59.057 142.87L51.8087 142.87L47.6264 139.332L47.6264 142.87L45.2332 142.87C44.461 142.87 43.8264 143.5 43.8264 144.282L43.8264 153.347C43.8187 154.123 44.4457 154.752 45.2256 154.752Z" stroke="#FED402" stroke-width="2"/>
<path d="M171.833 154.752L185.664 154.752C186.437 154.752 187.071 154.123 187.071 153.34L187.071 144.283C187.071 143.507 186.444 142.87 185.664 142.87L178.416 142.87L174.234 139.332L174.234 142.87L171.841 142.87C171.068 142.87 170.434 143.5 170.434 144.282L170.434 153.347C170.426 154.123 171.053 154.752 171.833 154.752Z" stroke="#FED402" stroke-width="2"/>
<path d="M66.3271 53.709L80.1586 53.709C80.9308 53.709 81.5654 53.0796 81.5654 52.2967L81.5654 43.2395C81.5654 42.4643 80.9385 41.8272 80.1586 41.8272L72.9103 41.8272L68.728 38.2888L68.728 41.8272L66.3348 41.8272C65.5625 41.8272 64.9279 42.4566 64.9279 43.2395L64.9279 52.3044C64.9203 53.0796 65.5473 53.709 66.3271 53.709Z" stroke="#FED402" stroke-width="2"/>
<path d="M192.935 53.709L206.766 53.709C207.538 53.709 208.173 53.0796 208.173 52.2967L208.173 43.2395C208.173 42.4643 207.546 41.8272 206.766 41.8272L199.518 41.8272L195.335 38.2888L195.335 41.8272L192.942 41.8272C192.17 41.8272 191.535 42.4566 191.535 43.2395L191.535 52.3044C191.528 53.0796 192.155 53.709 192.935 53.709Z" stroke="#FED402" stroke-width="2"/>
<path d="M66.3271 154.752L80.1586 154.752C80.9308 154.752 81.5654 154.123 81.5654 153.34L81.5654 144.283C81.5654 143.507 80.9385 142.87 80.1586 142.87L72.9103 142.87L68.728 139.332L68.728 142.87L66.3348 142.87C65.5625 142.87 64.9279 143.5 64.9279 144.282L64.9279 153.347C64.9203 154.123 65.5473 154.752 66.3271 154.752Z" stroke="#FED402" stroke-width="2"/>
<path d="M192.935 154.752L206.766 154.752C207.538 154.752 208.173 154.123 208.173 153.34L208.173 144.283C208.173 143.507 207.546 142.87 206.766 142.87L199.518 142.87L195.335 139.332L195.335 142.87L192.942 142.87C192.17 142.87 191.535 143.5 191.535 144.282L191.535 153.347C191.528 154.123 192.155 154.752 192.935 154.752Z" stroke="#FED402" stroke-width="2"/>
<path d="M87.4277 20.0293L101.259 20.0293C102.031 20.0293 102.666 19.3999 102.666 18.617L102.666 9.55984C102.666 8.78461 102.039 8.14754 101.259 8.14754L94.0108 8.14754L89.8285 4.60911L89.8285 8.14754L87.4354 8.14754C86.6631 8.14754 86.0285 8.77694 86.0285 9.55984L86.0285 18.6247C86.0209 19.3999 86.6478 20.0293 87.4277 20.0293Z" stroke="#FED402" stroke-width="2"/>
<path d="M214.036 20.0293L227.868 20.0293C228.64 20.0293 229.274 19.3999 229.274 18.617L229.274 9.55984C229.274 8.78461 228.647 8.14754 227.868 8.14754L220.619 8.14754L216.437 4.60911L216.437 8.14754L214.044 8.14754C213.272 8.14754 212.637 8.77694 212.637 9.55984L212.637 18.6247C212.629 19.3999 213.256 20.0293 214.036 20.0293Z" stroke="#FED402" stroke-width="2"/>
<path d="M87.4277 121.072L101.259 121.072C102.031 121.072 102.666 120.443 102.666 119.66L102.666 110.603C102.666 109.828 102.039 109.191 101.259 109.191L94.0108 109.191L89.8285 105.652L89.8285 109.191L87.4354 109.191C86.6631 109.191 86.0285 109.82 86.0285 110.603L86.0285 119.668C86.0209 120.443 86.6478 121.072 87.4277 121.072Z" stroke="#FED402" stroke-width="2"/>
<path d="M214.036 121.072L227.868 121.072C228.64 121.072 229.274 120.443 229.274 119.66L229.274 110.603C229.274 109.828 228.647 109.191 227.868 109.191L220.619 109.191L216.437 105.652L216.437 109.191L214.044 109.191C213.272 109.191 212.637 109.82 212.637 110.603L212.637 119.668C212.629 120.443 213.256 121.072 214.036 121.072Z" stroke="#FED402" stroke-width="2"/>
<path d="M87.4277 87.3906L101.259 87.3906C102.031 87.3906 102.666 86.7612 102.666 85.9783L102.666 76.9212C102.666 76.1459 102.039 75.5089 101.259 75.5089L94.0108 75.5089L89.8285 71.9704L89.8285 75.5089L87.4354 75.5089C86.6631 75.5089 86.0285 76.1383 86.0285 76.9212L86.0285 85.986C86.0209 86.7612 86.6478 87.3906 87.4277 87.3906Z" stroke="#FED402" stroke-width="2"/>
<path d="M214.036 87.3906L227.868 87.3906C228.64 87.3906 229.274 86.7612 229.274 85.9783L229.274 76.9212C229.274 76.1459 228.647 75.5089 227.868 75.5089L220.619 75.5089L216.437 71.9704L216.437 75.5089L214.044 75.5089C213.272 75.5089 212.637 76.1383 212.637 76.9212L212.637 85.986C212.629 86.7612 213.256 87.3906 214.036 87.3906Z" stroke="#FED402" stroke-width="2"/>
<path d="M87.4277 188.434L101.259 188.434C102.031 188.434 102.666 187.804 102.666 187.021L102.666 177.964C102.666 177.189 102.039 176.552 101.259 176.552L94.0108 176.552L89.8285 173.013L89.8285 176.552L87.4354 176.552C86.6631 176.552 86.0285 177.181 86.0285 177.964L86.0285 187.029C86.0209 187.804 86.6478 188.434 87.4277 188.434Z" stroke="#FED402" stroke-width="2"/>
<path d="M214.036 188.434L227.868 188.434C228.64 188.434 229.274 187.804 229.274 187.021L229.274 177.964C229.274 177.189 228.647 176.552 227.868 176.552L220.619 176.552L216.437 173.013L216.437 176.552L214.044 176.552C213.272 176.552 212.637 177.181 212.637 177.964L212.637 187.029C212.629 187.804 213.256 188.434 214.036 188.434Z" stroke="#FED402" stroke-width="2"/>
<path d="M108.529 20.0293L122.361 20.0293C123.133 20.0293 123.768 19.3999 123.768 18.617L123.768 9.55984C123.768 8.78461 123.141 8.14754 122.361 8.14754L115.112 8.14754L110.93 4.60911L110.93 8.14754L108.537 8.14754C107.765 8.14754 107.13 8.77694 107.13 9.55984L107.13 18.6247C107.122 19.3999 107.749 20.0293 108.529 20.0293Z" stroke="#FED402" stroke-width="2"/>
<path d="M235.137 20.0293L248.968 20.0293C249.74 20.0293 250.375 19.3999 250.375 18.617L250.375 9.55984C250.375 8.78461 249.748 8.14754 248.968 8.14754L241.72 8.14754L237.538 4.60911L237.538 8.14754L235.144 8.14754C234.372 8.14754 233.738 8.77694 233.738 9.55984L233.738 18.6247C233.73 19.3999 234.357 20.0293 235.137 20.0293Z" stroke="#FED402" stroke-width="2"/>
<path d="M108.529 121.072L122.361 121.072C123.133 121.072 123.768 120.443 123.768 119.66L123.768 110.603C123.768 109.828 123.141 109.191 122.361 109.191L115.112 109.191L110.93 105.652L110.93 109.191L108.537 109.191C107.765 109.191 107.13 109.82 107.13 110.603L107.13 119.668C107.122 120.443 107.749 121.072 108.529 121.072Z" stroke="#FED402" stroke-width="2"/>
<path d="M235.137 121.072L248.968 121.072C249.74 121.072 250.375 120.443 250.375 119.66L250.375 110.603C250.375 109.828 249.748 109.191 248.968 109.191L241.72 109.191L237.538 105.652L237.538 109.191L235.144 109.191C234.372 109.191 233.738 109.82 233.738 110.603L233.738 119.668C233.73 120.443 234.357 121.072 235.137 121.072Z" stroke="#FED402" stroke-width="2"/>
<path d="M108.529 87.3906L122.361 87.3906C123.133 87.3906 123.768 86.7612 123.768 85.9783L123.768 76.9212C123.768 76.1459 123.141 75.5089 122.361 75.5089L115.112 75.5089L110.93 71.9704L110.93 75.5089L108.537 75.5089C107.765 75.5089 107.13 76.1383 107.13 76.9212L107.13 85.986C107.122 86.7612 107.749 87.3906 108.529 87.3906Z" stroke="#FED402" stroke-width="2"/>
<path d="M235.137 87.3906L248.968 87.3906C249.74 87.3906 250.375 86.7612 250.375 85.9783L250.375 76.9212C250.375 76.1459 249.748 75.5089 248.968 75.5089L241.72 75.5089L237.538 71.9704L237.538 75.5089L235.144 75.5089C234.372 75.5089 233.738 76.1383 233.738 76.9212L233.738 85.986C233.73 86.7612 234.357 87.3906 235.137 87.3906Z" stroke="#FED402" stroke-width="2"/>
<path d="M108.529 188.434L122.361 188.434C123.133 188.434 123.768 187.804 123.768 187.021L123.768 177.964C123.768 177.189 123.141 176.552 122.361 176.552L115.112 176.552L110.93 173.013L110.93 176.552L108.537 176.552C107.765 176.552 107.13 177.181 107.13 177.964L107.13 187.029C107.122 187.804 107.749 188.434 108.529 188.434Z" stroke="#FED402" stroke-width="2"/>
<path d="M235.137 188.434L248.968 188.434C249.74 188.434 250.375 187.804 250.375 187.021L250.375 177.964C250.375 177.189 249.748 176.552 248.968 176.552L241.72 176.552L237.538 173.013L237.538 176.552L235.144 176.552C234.372 176.552 233.738 177.181 233.738 177.964L233.738 187.029C233.73 187.804 234.357 188.434 235.137 188.434Z" stroke="#FED402" stroke-width="2"/>
<path d="M3.02342 20.0293L16.8549 20.0293C17.6271 20.0293 18.2617 19.3999 18.2617 18.617L18.2617 9.55984C18.2617 8.78461 17.6348 8.14754 16.8549 8.14754L9.60655 8.14754L5.42424 4.60911L5.42424 8.14754L3.03107 8.14754C2.25883 8.14754 1.62422 8.77694 1.62422 9.55984L1.62422 18.6247C1.61658 19.3999 2.24354 20.0293 3.02342 20.0293Z" stroke="#FED402" stroke-width="2"/>
<path d="M129.631 20.0293L143.462 20.0293C144.235 20.0293 144.869 19.3999 144.869 18.617L144.869 9.55984C144.869 8.78461 144.242 8.14754 143.462 8.14754L136.214 8.14754L132.032 4.60911L132.032 8.14754L129.638 8.14754C128.866 8.14754 128.232 8.77694 128.232 9.55984L128.232 18.6247C128.224 19.3999 128.851 20.0293 129.631 20.0293Z" stroke="#FED402" stroke-width="2"/>
<path d="M256.238 20.0293L270.07 20.0293C270.842 20.0293 271.477 19.3999 271.477 18.617L271.477 9.55984C271.477 8.78461 270.85 8.14754 270.07 8.14754L262.821 8.14754L258.639 4.60911L258.639 8.14754L256.246 8.14754C255.474 8.14754 254.839 8.77694 254.839 9.55984L254.839 18.6247C254.831 19.3999 255.458 20.0293 256.238 20.0293Z" stroke="#FED402" stroke-width="2"/>
<path d="M3.02342 121.072L16.8549 121.072C17.6271 121.072 18.2617 120.443 18.2617 119.66L18.2617 110.603C18.2617 109.828 17.6348 109.191 16.8549 109.191L9.60655 109.191L5.42424 105.652L5.42424 109.191L3.03107 109.191C2.25883 109.191 1.62422 109.82 1.62422 110.603L1.62422 119.668C1.61658 120.443 2.24354 121.072 3.02342 121.072Z" stroke="#FED402" stroke-width="2"/>
<path d="M129.631 121.072L143.462 121.072C144.235 121.072 144.869 120.443 144.869 119.66L144.869 110.603C144.869 109.828 144.242 109.191 143.462 109.191L136.214 109.191L132.032 105.652L132.032 109.191L129.638 109.191C128.866 109.191 128.232 109.82 128.232 110.603L128.232 119.668C128.224 120.443 128.851 121.072 129.631 121.072Z" stroke="#FED402" stroke-width="2"/>
<path d="M256.238 121.072L270.07 121.072C270.842 121.072 271.477 120.443 271.477 119.66L271.477 110.603C271.477 109.828 270.85 109.191 270.07 109.191L262.821 109.191L258.639 105.652L258.639 109.191L256.246 109.191C255.474 109.191 254.839 109.82 254.839 110.603L254.839 119.668C254.831 120.443 255.458 121.072 256.238 121.072Z" stroke="#FED402" stroke-width="2"/>
<path d="M3.02342 87.3906L16.8549 87.3906C17.6271 87.3906 18.2617 86.7612 18.2617 85.9783L18.2617 76.9212C18.2617 76.1459 17.6348 75.5089 16.8549 75.5089L9.60655 75.5089L5.42424 71.9704L5.42424 75.5089L3.03107 75.5089C2.25883 75.5089 1.62422 76.1383 1.62422 76.9212L1.62422 85.986C1.61658 86.7612 2.24354 87.3906 3.02342 87.3906Z" stroke="#FED402" stroke-width="2"/>
<path d="M129.631 87.3906L143.462 87.3906C144.235 87.3906 144.869 86.7612 144.869 85.9783L144.869 76.9212C144.869 76.1459 144.242 75.5089 143.462 75.5089L136.214 75.5089L132.032 71.9704L132.032 75.5089L129.638 75.5089C128.866 75.5089 128.232 76.1383 128.232 76.9212L128.232 85.986C128.224 86.7612 128.851 87.3906 129.631 87.3906Z" stroke="#FED402" stroke-width="2"/>
<path d="M256.238 87.3906L270.07 87.3906C270.842 87.3906 271.477 86.7612 271.477 85.9783L271.477 76.9212C271.477 76.1459 270.85 75.5089 270.07 75.5089L262.821 75.5089L258.639 71.9704L258.639 75.5089L256.246 75.5089C255.474 75.5089 254.839 76.1383 254.839 76.9212L254.839 85.986C254.831 86.7612 255.458 87.3906 256.238 87.3906Z" stroke="#FED402" stroke-width="2"/>
<path d="M3.02342 188.434L16.8549 188.434C17.6271 188.434 18.2617 187.804 18.2617 187.021L18.2617 177.964C18.2617 177.189 17.6348 176.552 16.8549 176.552L9.60655 176.552L5.42424 173.013L5.42424 176.552L3.03107 176.552C2.25883 176.552 1.62422 177.181 1.62422 177.964L1.62422 187.029C1.61658 187.804 2.24354 188.434 3.02342 188.434Z" stroke="#FED402" stroke-width="2"/>
<path d="M129.631 188.434L143.462 188.434C144.235 188.434 144.869 187.804 144.869 187.021L144.869 177.964C144.869 177.189 144.242 176.552 143.462 176.552L136.214 176.552L132.032 173.013L132.032 176.552L129.638 176.552C128.866 176.552 128.232 177.181 128.232 177.964L128.232 187.029C128.224 187.804 128.851 188.434 129.631 188.434Z" stroke="#FED402" stroke-width="2"/>
<path d="M256.238 188.434L270.07 188.434C270.842 188.434 271.477 187.804 271.477 187.021L271.477 177.964C271.477 177.189 270.85 176.552 270.07 176.552L262.821 176.552L258.639 173.013L258.639 176.552L256.246 176.552C255.474 176.552 254.839 177.181 254.839 177.964L254.839 187.029C254.831 187.804 255.458 188.434 256.238 188.434Z" stroke="#FED402" stroke-width="2"/>
<path d="M24.124 20.0293L37.9555 20.0293C38.7277 20.0293 39.3623 19.3999 39.3623 18.617L39.3623 9.55984C39.3623 8.78461 38.7353 8.14754 37.9555 8.14754L30.7071 8.14754L26.5248 4.60911L26.5248 8.14754L24.1317 8.14754C23.3594 8.14754 22.7248 8.77694 22.7248 9.55984L22.7248 18.6247C22.7172 19.3999 23.3441 20.0293 24.124 20.0293Z" stroke="#FED402" stroke-width="2"/>
<path d="M150.731 20.0293L164.563 20.0293C165.335 20.0293 165.97 19.3999 165.97 18.617L165.97 9.55984C165.97 8.78461 165.343 8.14754 164.563 8.14754L157.315 8.14754L153.132 4.60911L153.132 8.14754L150.739 8.14754C149.967 8.14754 149.332 8.77694 149.332 9.55984L149.332 18.6247C149.325 19.3999 149.952 20.0293 150.731 20.0293Z" stroke="#FED402" stroke-width="2"/>
<path d="M277.34 20.0293L291.171 20.0293C291.944 20.0293 292.578 19.3999 292.578 18.617L292.578 9.55984C292.578 8.78461 291.951 8.14754 291.171 8.14754L283.923 8.14754L279.741 4.60911L279.741 8.14754L277.347 8.14754C276.575 8.14754 275.941 8.77694 275.941 9.55984L275.941 18.6247C275.933 19.3999 276.56 20.0293 277.34 20.0293Z" stroke="#FED402" stroke-width="2"/>
<path d="M24.124 121.072L37.9555 121.072C38.7277 121.072 39.3623 120.443 39.3623 119.66L39.3623 110.603C39.3623 109.828 38.7353 109.191 37.9555 109.191L30.7071 109.191L26.5248 105.652L26.5248 109.191L24.1317 109.191C23.3594 109.191 22.7248 109.82 22.7248 110.603L22.7248 119.668C22.7172 120.443 23.3441 121.072 24.124 121.072Z" stroke="#FED402" stroke-width="2"/>
<path d="M150.731 121.072L164.563 121.072C165.335 121.072 165.97 120.443 165.97 119.66L165.97 110.603C165.97 109.828 165.343 109.191 164.563 109.191L157.315 109.191L153.132 105.652L153.132 109.191L150.739 109.191C149.967 109.191 149.332 109.82 149.332 110.603L149.332 119.668C149.325 120.443 149.952 121.072 150.731 121.072Z" stroke="#FED402" stroke-width="2"/>
<path d="M277.34 121.072L291.171 121.072C291.944 121.072 292.578 120.443 292.578 119.66L292.578 110.603C292.578 109.828 291.951 109.191 291.171 109.191L283.923 109.191L279.741 105.652L279.741 109.191L277.347 109.191C276.575 109.191 275.941 109.82 275.941 110.603L275.941 119.668C275.933 120.443 276.56 121.072 277.34 121.072Z" stroke="#FED402" stroke-width="2"/>
<path d="M24.124 87.3906L37.9555 87.3906C38.7277 87.3906 39.3623 86.7612 39.3623 85.9783L39.3623 76.9212C39.3623 76.1459 38.7353 75.5089 37.9555 75.5089L30.7071 75.5089L26.5248 71.9704L26.5248 75.5089L24.1317 75.5089C23.3594 75.5089 22.7248 76.1383 22.7248 76.9212L22.7248 85.986C22.7172 86.7612 23.3441 87.3906 24.124 87.3906Z" stroke="#FED402" stroke-width="2"/>
<path d="M150.731 87.3906L164.563 87.3906C165.335 87.3906 165.97 86.7612 165.97 85.9783L165.97 76.9212C165.97 76.1459 165.343 75.5089 164.563 75.5089L157.315 75.5089L153.132 71.9704L153.132 75.5089L150.739 75.5089C149.967 75.5089 149.332 76.1383 149.332 76.9212L149.332 85.986C149.325 86.7612 149.952 87.3906 150.731 87.3906Z" stroke="#FED402" stroke-width="2"/>
<path d="M277.34 87.3906L291.171 87.3906C291.944 87.3906 292.578 86.7612 292.578 85.9783L292.578 76.9212C292.578 76.1459 291.951 75.5089 291.171 75.5089L283.923 75.5089L279.741 71.9704L279.741 75.5089L277.347 75.5089C276.575 75.5089 275.941 76.1383 275.941 76.9212L275.941 85.986C275.933 86.7612 276.56 87.3906 277.34 87.3906Z" stroke="#FED402" stroke-width="2"/>
<path d="M24.124 188.434L37.9555 188.434C38.7277 188.434 39.3623 187.804 39.3623 187.021L39.3623 177.964C39.3623 177.189 38.7353 176.552 37.9555 176.552L30.7071 176.552L26.5248 173.013L26.5248 176.552L24.1317 176.552C23.3594 176.552 22.7248 177.181 22.7248 177.964L22.7248 187.029C22.7172 187.804 23.3441 188.434 24.124 188.434Z" stroke="#FED402" stroke-width="2"/>
<path d="M150.731 188.434L164.563 188.434C165.335 188.434 165.97 187.804 165.97 187.021L165.97 177.964C165.97 177.189 165.343 176.552 164.563 176.552L157.315 176.552L153.132 173.013L153.132 176.552L150.739 176.552C149.967 176.552 149.332 177.181 149.332 177.964L149.332 187.029C149.325 187.804 149.952 188.434 150.731 188.434Z" stroke="#FED402" stroke-width="2"/>
<path d="M277.34 188.434L291.171 188.434C291.944 188.434 292.578 187.804 292.578 187.021L292.578 177.964C292.578 177.189 291.951 176.552 291.171 176.552L283.923 176.552L279.741 173.013L279.741 176.552L277.347 176.552C276.575 176.552 275.941 177.181 275.941 177.964L275.941 187.029C275.933 187.804 276.56 188.434 277.34 188.434Z" stroke="#FED402" stroke-width="2"/>
<path d="M45.2256 20.0293L59.057 20.0293C59.8293 20.0293 60.4639 19.3999 60.4639 18.617L60.4639 9.55984C60.4639 8.78461 59.8369 8.14754 59.057 8.14754L51.8087 8.14754L47.6264 4.60911L47.6264 8.14754L45.2332 8.14754C44.461 8.14754 43.8264 8.77694 43.8264 9.55984L43.8264 18.6247C43.8187 19.3999 44.4457 20.0293 45.2256 20.0293Z" stroke="#FED402" stroke-width="2"/>
<path d="M171.833 20.0293L185.664 20.0293C186.437 20.0293 187.071 19.3999 187.071 18.617L187.071 9.55984C187.071 8.78461 186.444 8.14754 185.664 8.14754L178.416 8.14754L174.234 4.60911L174.234 8.14754L171.841 8.14754C171.068 8.14754 170.434 8.77694 170.434 9.55984L170.434 18.6247C170.426 19.3999 171.053 20.0293 171.833 20.0293Z" stroke="#FED402" stroke-width="2"/>
<path d="M45.2256 121.072L59.057 121.072C59.8293 121.072 60.4639 120.443 60.4639 119.66L60.4639 110.603C60.4639 109.828 59.8369 109.191 59.057 109.191L51.8087 109.191L47.6264 105.652L47.6264 109.191L45.2332 109.191C44.461 109.191 43.8264 109.82 43.8264 110.603L43.8264 119.668C43.8187 120.443 44.4457 121.072 45.2256 121.072Z" stroke="#FED402" stroke-width="2"/>
<path d="M171.833 121.072L185.664 121.072C186.437 121.072 187.071 120.443 187.071 119.66L187.071 110.603C187.071 109.828 186.444 109.191 185.664 109.191L178.416 109.191L174.234 105.652L174.234 109.191L171.841 109.191C171.068 109.191 170.434 109.82 170.434 110.603L170.434 119.668C170.426 120.443 171.053 121.072 171.833 121.072Z" stroke="#FED402" stroke-width="2"/>
<path d="M45.2256 87.3906L59.057 87.3906C59.8293 87.3906 60.4639 86.7612 60.4639 85.9783L60.4639 76.9212C60.4639 76.1459 59.8369 75.5089 59.057 75.5089L51.8087 75.5089L47.6264 71.9704L47.6264 75.5089L45.2332 75.5089C44.461 75.5089 43.8264 76.1383 43.8264 76.9212L43.8264 85.986C43.8187 86.7612 44.4457 87.3906 45.2256 87.3906Z" stroke="#FED402" stroke-width="2"/>
<path d="M171.833 87.3906L185.664 87.3906C186.437 87.3906 187.071 86.7612 187.071 85.9783L187.071 76.9212C187.071 76.1459 186.444 75.5089 185.664 75.5089L178.416 75.5089L174.234 71.9704L174.234 75.5089L171.841 75.5089C171.068 75.5089 170.434 76.1383 170.434 76.9212L170.434 85.986C170.426 86.7612 171.053 87.3906 171.833 87.3906Z" stroke="#FED402" stroke-width="2"/>
<path d="M45.2256 188.434L59.057 188.434C59.8293 188.434 60.4639 187.804 60.4639 187.021L60.4639 177.964C60.4639 177.189 59.8369 176.552 59.057 176.552L51.8087 176.552L47.6264 173.013L47.6264 176.552L45.2332 176.552C44.461 176.552 43.8264 177.181 43.8264 177.964L43.8264 187.029C43.8187 187.804 44.4457 188.434 45.2256 188.434Z" stroke="#FED402" stroke-width="2"/>
<path d="M171.833 188.434L185.664 188.434C186.437 188.434 187.071 187.804 187.071 187.021L187.071 177.964C187.071 177.189 186.444 176.552 185.664 176.552L178.416 176.552L174.234 173.013L174.234 176.552L171.841 176.552C171.068 176.552 170.434 177.181 170.434 177.964L170.434 187.029C170.426 187.804 171.053 188.434 171.833 188.434Z" stroke="#FED402" stroke-width="2"/>
<path d="M66.3271 20.0293L80.1586 20.0293C80.9308 20.0293 81.5654 19.3999 81.5654 18.617L81.5654 9.55984C81.5654 8.78461 80.9385 8.14754 80.1586 8.14754L72.9103 8.14754L68.728 4.60911L68.728 8.14754L66.3348 8.14754C65.5625 8.14754 64.9279 8.77694 64.9279 9.55984L64.9279 18.6247C64.9203 19.3999 65.5473 20.0293 66.3271 20.0293Z" stroke="#FED402" stroke-width="2"/>
<path d="M192.935 20.0293L206.766 20.0293C207.538 20.0293 208.173 19.3999 208.173 18.617L208.173 9.55984C208.173 8.78461 207.546 8.14754 206.766 8.14754L199.518 8.14754L195.335 4.60911L195.335 8.14754L192.942 8.14754C192.17 8.14754 191.535 8.77694 191.535 9.55984L191.535 18.6247C191.528 19.3999 192.155 20.0293 192.935 20.0293Z" stroke="#FED402" stroke-width="2"/>
<path d="M66.3271 121.072L80.1586 121.072C80.9308 121.072 81.5654 120.443 81.5654 119.66L81.5654 110.603C81.5654 109.828 80.9385 109.191 80.1586 109.191L72.9103 109.191L68.728 105.652L68.728 109.191L66.3348 109.191C65.5625 109.191 64.9279 109.82 64.9279 110.603L64.9279 119.668C64.9203 120.443 65.5473 121.072 66.3271 121.072Z" stroke="#FED402" stroke-width="2"/>
<path d="M192.935 121.072L206.766 121.072C207.538 121.072 208.173 120.443 208.173 119.66L208.173 110.603C208.173 109.828 207.546 109.191 206.766 109.191L199.518 109.191L195.335 105.652L195.335 109.191L192.942 109.191C192.17 109.191 191.535 109.82 191.535 110.603L191.535 119.668C191.528 120.443 192.155 121.072 192.935 121.072Z" stroke="#FED402" stroke-width="2"/>
<path d="M66.3271 87.3906L80.1586 87.3906C80.9308 87.3906 81.5654 86.7612 81.5654 85.9783L81.5654 76.9212C81.5654 76.1459 80.9385 75.5089 80.1586 75.5089L72.9103 75.5089L68.728 71.9704L68.728 75.5089L66.3348 75.5089C65.5625 75.5089 64.9279 76.1383 64.9279 76.9212L64.9279 85.986C64.9203 86.7612 65.5473 87.3906 66.3271 87.3906Z" stroke="#FED402" stroke-width="2"/>
<path d="M192.935 87.3906L206.766 87.3906C207.538 87.3906 208.173 86.7612 208.173 85.9783L208.173 76.9212C208.173 76.1459 207.546 75.5089 206.766 75.5089L199.518 75.5089L195.335 71.9704L195.335 75.5089L192.942 75.5089C192.17 75.5089 191.535 76.1383 191.535 76.9212L191.535 85.986C191.528 86.7612 192.155 87.3906 192.935 87.3906Z" stroke="#FED402" stroke-width="2"/>
<path d="M66.3271 188.434L80.1586 188.434C80.9308 188.434 81.5654 187.804 81.5654 187.021L81.5654 177.964C81.5654 177.189 80.9385 176.552 80.1586 176.552L72.9103 176.552L68.728 173.013L68.728 176.552L66.3348 176.552C65.5625 176.552 64.9279 177.181 64.9279 177.964L64.9279 187.029C64.9203 187.804 65.5473 188.434 66.3271 188.434Z" stroke="#FED402" stroke-width="2"/>
<path d="M192.935 188.434L206.766 188.434C207.538 188.434 208.173 187.804 208.173 187.021L208.173 177.964C208.173 177.189 207.546 176.552 206.766 176.552L199.518 176.552L195.335 173.013L195.335 176.552L192.942 176.552C192.17 176.552 191.535 177.181 191.535 177.964L191.535 187.029C191.528 187.804 192.155 188.434 192.935 188.434Z" stroke="#FED402" stroke-width="2"/>
</g>
<rect x="1" y="1" width="278" height="183" rx="17" fill="url(#paint0_linear_247_2471)"/>
</g>
<path d="M261.379 1.23919L261.38 1.23919C271.206 1.23919 279.096 9.18191 279 18.9595L279 18.9694L278.999 149.258C278.999 159.147 271 167.09 261.278 167.09L234.744 167.09L233.744 167.09L233.744 168.09L233.744 186.02L208.334 167.286L208.07 167.091L207.742 167.09L18.722 166.851L18.7208 166.851C8.90435 166.851 0.999973 158.813 0.999974 149.019L1.0004 18.8325C1.0004 8.94297 8.99947 1 18.7212 1L161.495 1.11958L161.495 1.11958L261.379 1.23919Z" stroke="url(#paint1_linear_247_2471)" stroke-width="2"/>
<defs>
<linearGradient id="paint0_linear_247_2471" x1="1" y1="1" x2="301.438" y2="132.886" gradientUnits="userSpaceOnUse">
<stop/>
<stop offset="1" stop-opacity="0"/>
</linearGradient>
<linearGradient id="paint1_linear_247_2471" x1="1.49876e-05" y1="2.17708e-05" x2="109.797" y2="-75.597" gradientUnits="userSpaceOnUse">
<stop stop-color="#999999" stop-opacity="0.5"/>
<stop offset="1" stop-color="#FED402" stop-opacity="0.5"/>
</linearGradient>
</defs>
</svg>
