<svg width="430" height="264" viewBox="0 0 430 264" fill="none" xmlns="http://www.w3.org/2000/svg" preserveAspectRatio="none">
<path d="M401.406 0.36642L248.012 0.183195L28.7499 5.0268e-06C12.9687 2.26753e-06 5.44663e-05 12.8572 5.167e-05 28.8502L-3.56293e-05 203.776C-3.83982e-05 219.612 12.8124 232.626 28.7498 232.626L194.531 232.992L215 263.492L236 232.992L401.25 232.992C417.031 232.992 430 220.135 430 204.142L430 29.0598C430.156 13.2236 417.344 0.366422 401.406 0.36642Z" fill="#120D0C"/>
<mask id="mask0_2005_7" style="mask-type:alpha" maskUnits="userSpaceOnUse" x="0" y="1" width="430" height="261">
<path d="M395.408 1H34.7791C10 1 2.07304e-06 14.5184 2.07304e-06 33.822L0 196.678C0 215.792 7.5 231.5 34.7791 231.5L194.5 231.5L215 261.5L235 231.5L395.219 231.5C418.5 231.5 429.998 222.5 429.998 196.678V33.6328C430.187 14.5184 418 1 395.408 1Z" fill="#FFD500"/>
</mask>
<g mask="url(#mask0_2005_7)">
<g opacity="0.08">
<path d="M155.517 2.74023H134.276C133.09 2.74023 132.115 3.70681 132.115 4.90913V18.8184C132.115 20.0089 133.078 20.9873 134.276 20.9873H145.407L151.83 26.4213V20.9873H155.505C156.691 20.9873 157.666 20.0207 157.666 18.8184V4.89735C157.677 3.70681 156.715 2.74023 155.517 2.74023Z" fill="#FED402"/>
<path d="M349.952 2.74023H328.71C327.524 2.74023 326.55 3.70681 326.55 4.90913V18.8184C326.55 20.0089 327.513 20.9873 328.71 20.9873H339.842L346.265 26.4213V20.9873H349.94C351.126 20.9873 352.1 20.0207 352.1 18.8184V4.89735C352.112 3.70681 351.149 2.74023 349.952 2.74023Z" fill="#FED402"/>
<path d="M155.517 157.914H134.276C133.09 157.914 132.115 158.881 132.115 160.083V173.992C132.115 175.183 133.078 176.161 134.276 176.161H145.407L151.83 181.595V176.161H155.505C156.691 176.161 157.666 175.195 157.666 173.992V160.071C157.677 158.881 156.715 157.914 155.517 157.914Z" fill="#FED402"/>
<path d="M349.952 157.914H328.71C327.524 157.914 326.55 158.881 326.55 160.083V173.992C326.55 175.183 327.513 176.161 328.71 176.161H339.842L346.265 181.595V176.161H349.94C351.126 176.161 352.1 175.195 352.1 173.992V160.071C352.112 158.881 351.149 157.914 349.952 157.914Z" fill="#FED402"/>
<path d="M187.923 2.74023H166.682C165.496 2.74023 164.521 3.70681 164.521 4.90913V18.8184C164.521 20.0089 165.484 20.9873 166.682 20.9873H177.813L184.236 26.4213V20.9873H187.911C189.097 20.9873 190.072 20.0207 190.072 18.8184V4.89735C190.084 3.70681 189.121 2.74023 187.923 2.74023Z" fill="#FED402"/>
<path d="M382.357 2.74023H361.116C359.93 2.74023 358.955 3.70681 358.955 4.90913V18.8184C358.955 20.0089 359.918 20.9873 361.116 20.9873H372.247L378.67 26.4213V20.9873H382.345C383.531 20.9873 384.506 20.0207 384.506 18.8184V4.89735C384.517 3.70681 383.554 2.74023 382.357 2.74023Z" fill="#FED402"/>
<path d="M187.923 157.914H166.682C165.496 157.914 164.521 158.881 164.521 160.083V173.992C164.521 175.183 165.484 176.161 166.682 176.161H177.813L184.236 181.595V176.161H187.911C189.097 176.161 190.072 175.195 190.072 173.992V160.071C190.084 158.881 189.121 157.914 187.923 157.914Z" fill="#FED402"/>
<path d="M382.357 157.914H361.116C359.93 157.914 358.955 158.881 358.955 160.083V173.992C358.955 175.183 359.918 176.161 361.116 176.161H372.247L378.67 181.595V176.161H382.345C383.531 176.161 384.506 175.195 384.506 173.992V160.071C384.517 158.881 383.554 157.914 382.357 157.914Z" fill="#FED402"/>
<path d="M25.8949 2.74023H4.65369C3.46775 2.74023 2.49316 3.70681 2.49316 4.90913V18.8184C2.49316 20.0089 3.45601 20.9873 4.65369 20.9873H15.7851L22.2079 26.4213V20.9873H25.8832C27.0691 20.9873 28.0437 20.0207 28.0437 18.8184V4.89735C28.0554 3.70681 27.0926 2.74023 25.8949 2.74023Z" fill="#FED402"/>
<path d="M220.328 2.74023H199.087C197.901 2.74023 196.927 3.70681 196.927 4.90913V18.8184C196.927 20.0089 197.89 20.9873 199.087 20.9873H210.219L216.642 26.4213V20.9873H220.317C221.503 20.9873 222.477 20.0207 222.477 18.8184V4.89735C222.489 3.70681 221.526 2.74023 220.328 2.74023Z" fill="#FED402"/>
<path d="M414.763 2.74023H393.522C392.336 2.74023 391.361 3.70681 391.361 4.90913V18.8184C391.361 20.0089 392.324 20.9873 393.522 20.9873H404.653L411.076 26.4213V20.9873H414.751C415.937 20.9873 416.912 20.0207 416.912 18.8184V4.89735C416.924 3.70681 415.961 2.74023 414.763 2.74023Z" fill="#FED402"/>
<path d="M25.8949 157.914H4.65369C3.46775 157.914 2.49316 158.881 2.49316 160.083V173.992C2.49316 175.183 3.45601 176.161 4.65369 176.161H15.7851L22.2079 181.595V176.161H25.8832C27.0691 176.161 28.0437 175.195 28.0437 173.992V160.071C28.0554 158.881 27.0926 157.914 25.8949 157.914Z" fill="#FED402"/>
<path d="M220.328 157.914H199.087C197.901 157.914 196.927 158.881 196.927 160.083V173.992C196.927 175.183 197.89 176.161 199.087 176.161H210.219L216.642 181.595V176.161H220.317C221.503 176.161 222.477 175.195 222.477 173.992V160.071C222.489 158.881 221.526 157.914 220.328 157.914Z" fill="#FED402"/>
<path d="M414.763 157.914H393.522C392.336 157.914 391.361 158.881 391.361 160.083V173.992C391.361 175.183 392.324 176.161 393.522 176.161H404.653L411.076 181.595V176.161H414.751C415.937 176.161 416.912 175.195 416.912 173.992V160.071C416.924 158.881 415.961 157.914 414.763 157.914Z" fill="#FED402"/>
<path d="M58.3002 2.74023H37.059C35.873 2.74023 34.8984 3.70681 34.8984 4.90913V18.8184C34.8984 20.0089 35.8613 20.9873 37.059 20.9873H48.1903L54.6132 26.4213V20.9873H58.2884C59.4744 20.9873 60.449 20.0207 60.449 18.8184V4.89735C60.4607 3.70681 59.4979 2.74023 58.3002 2.74023Z" fill="#FED402"/>
<path d="M252.735 2.74023H231.494C230.308 2.74023 229.333 3.70681 229.333 4.90913V18.8184C229.333 20.0089 230.296 20.9873 231.494 20.9873H242.625L249.048 26.4213V20.9873H252.723C253.909 20.9873 254.884 20.0207 254.884 18.8184V4.89735C254.895 3.70681 253.932 2.74023 252.735 2.74023Z" fill="#FED402"/>
<path d="M447.168 2.74023H425.927C424.741 2.74023 423.767 3.70681 423.767 4.90913V18.8184C423.767 20.0089 424.729 20.9873 425.927 20.9873H437.059L443.481 26.4213V20.9873H447.157C448.343 20.9873 449.317 20.0207 449.317 18.8184V4.89735C449.329 3.70681 448.366 2.74023 447.168 2.74023Z" fill="#FED402"/>
<path d="M58.3002 157.914H37.059C35.873 157.914 34.8984 158.881 34.8984 160.083V173.992C34.8984 175.183 35.8613 176.161 37.059 176.161H48.1903L54.6132 181.595V176.161H58.2884C59.4744 176.161 60.449 175.195 60.449 173.992V160.071C60.4607 158.881 59.4979 157.914 58.3002 157.914Z" fill="#FED402"/>
<path d="M252.735 157.914H231.494C230.308 157.914 229.333 158.881 229.333 160.083V173.992C229.333 175.183 230.296 176.161 231.494 176.161H242.625L249.048 181.595V176.161H252.723C253.909 176.161 254.884 175.195 254.884 173.992V160.071C254.895 158.881 253.932 157.914 252.735 157.914Z" fill="#FED402"/>
<path d="M447.168 157.914H425.927C424.741 157.914 423.767 158.881 423.767 160.083V173.992C423.767 175.183 424.729 176.161 425.927 176.161H437.059L443.481 181.595V176.161H447.157C448.343 176.161 449.317 175.195 449.317 173.992V160.071C449.329 158.881 448.366 157.914 447.168 157.914Z" fill="#FED402"/>
<path d="M90.7064 2.74023H69.4652C68.2793 2.74023 67.3047 3.70681 67.3047 4.90913V18.8184C67.3047 20.0089 68.2675 20.9873 69.4652 20.9873H80.5966L87.0194 26.4213V20.9873H90.6947C91.8806 20.9873 92.8552 20.0207 92.8552 18.8184V4.89735C92.8669 3.70681 91.9041 2.74023 90.7064 2.74023Z" fill="#FED402"/>
<path d="M285.14 2.74023H263.899C262.713 2.74023 261.738 3.70681 261.738 4.90913V18.8184C261.738 20.0089 262.701 20.9873 263.899 20.9873H275.03L281.453 26.4213V20.9873H285.128C286.314 20.9873 287.289 20.0207 287.289 18.8184V4.89735C287.301 3.70681 286.338 2.74023 285.14 2.74023Z" fill="#FED402"/>
<path d="M90.7064 157.914H69.4652C68.2793 157.914 67.3047 158.881 67.3047 160.083V173.992C67.3047 175.183 68.2675 176.161 69.4652 176.161H80.5966L87.0194 181.595V176.161H90.6947C91.8806 176.161 92.8552 175.195 92.8552 173.992V160.071C92.8669 158.881 91.9041 157.914 90.7064 157.914Z" fill="#FED402"/>
<path d="M285.14 157.914H263.899C262.713 157.914 261.738 158.881 261.738 160.083V173.992C261.738 175.183 262.701 176.161 263.899 176.161H275.03L281.453 181.595V176.161H285.128C286.314 176.161 287.289 175.195 287.289 173.992V160.071C287.301 158.881 286.338 157.914 285.14 157.914Z" fill="#FED402"/>
<path d="M123.112 2.74023H101.87C100.685 2.74023 99.71 3.70681 99.71 4.90913V18.8184C99.71 20.0089 100.673 20.9873 101.87 20.9873H113.002L119.425 26.4213V20.9873H123.1C124.286 20.9873 125.26 20.0207 125.26 18.8184V4.89735C125.272 3.70681 124.309 2.74023 123.112 2.74023Z" fill="#FED402"/>
<path d="M317.545 2.74023H296.304C295.118 2.74023 294.144 3.70681 294.144 4.90913V18.8184C294.144 20.0089 295.106 20.9873 296.304 20.9873H307.435L313.858 26.4213V20.9873H317.534C318.719 20.9873 319.694 20.0207 319.694 18.8184V4.89735C319.706 3.70681 318.743 2.74023 317.545 2.74023Z" fill="#FED402"/>
<path d="M123.112 157.914H101.87C100.685 157.914 99.71 158.881 99.71 160.083V173.992C99.71 175.183 100.673 176.161 101.87 176.161H113.002L119.425 181.595V176.161H123.1C124.286 176.161 125.26 175.195 125.26 173.992V160.071C125.272 158.881 124.309 157.914 123.112 157.914Z" fill="#FED402"/>
<path d="M317.545 157.914H296.304C295.118 157.914 294.144 158.881 294.144 160.083V173.992C294.144 175.183 295.106 176.161 296.304 176.161H307.435L313.858 181.595V176.161H317.534C318.719 176.161 319.694 175.195 319.694 173.992V160.071C319.706 158.881 318.743 157.914 317.545 157.914Z" fill="#FED402"/>
<path d="M155.517 106.189H134.276C133.09 106.189 132.115 107.156 132.115 108.358V122.268C132.115 123.458 133.078 124.436 134.276 124.436H145.407L151.83 129.871V124.436H155.505C156.691 124.436 157.666 123.47 157.666 122.268V108.347C157.677 107.156 156.715 106.189 155.517 106.189Z" fill="#FED402"/>
<path d="M349.952 106.189H328.71C327.524 106.189 326.55 107.156 326.55 108.358V122.268C326.55 123.458 327.513 124.436 328.71 124.436H339.842L346.265 129.871V124.436H349.94C351.126 124.436 352.1 123.47 352.1 122.268V108.347C352.112 107.156 351.149 106.189 349.952 106.189Z" fill="#FED402"/>
<path d="M155.517 54.4648H134.276C133.09 54.4648 132.115 55.4314 132.115 56.6337V70.543C132.115 71.7335 133.078 72.7119 134.276 72.7119H145.407L151.83 78.1459V72.7119H155.505C156.691 72.7119 157.666 71.7453 157.666 70.543V56.622C157.677 55.4314 156.715 54.4648 155.517 54.4648Z" fill="#FED402"/>
<path d="M349.952 54.4648H328.71C327.524 54.4648 326.55 55.4314 326.55 56.6337V70.543C326.55 71.7335 327.513 72.7119 328.71 72.7119H339.842L346.265 78.1459V72.7119H349.94C351.126 72.7119 352.1 71.7453 352.1 70.543V56.622C352.112 55.4314 351.149 54.4648 349.952 54.4648Z" fill="#FED402"/>
<path d="M155.517 209.639H134.276C133.09 209.639 132.115 210.605 132.115 211.808V225.717C132.115 226.907 133.078 227.886 134.276 227.886H145.407L151.83 233.32V227.886H155.505C156.691 227.886 157.666 226.919 157.666 225.717V211.796C157.677 210.605 156.715 209.639 155.517 209.639Z" fill="#FED402"/>
<path d="M349.952 209.639H328.71C327.524 209.639 326.55 210.605 326.55 211.808V225.717C326.55 226.907 327.513 227.886 328.71 227.886H339.842L346.265 233.32V227.886H349.94C351.126 227.886 352.1 226.919 352.1 225.717V211.796C352.112 210.605 351.149 209.639 349.952 209.639Z" fill="#FED402"/>
<path d="M187.923 106.189H166.682C165.496 106.189 164.521 107.156 164.521 108.358V122.268C164.521 123.458 165.484 124.436 166.682 124.436H177.813L184.236 129.871V124.436H187.911C189.097 124.436 190.072 123.47 190.072 122.268V108.347C190.084 107.156 189.121 106.189 187.923 106.189Z" fill="#FED402"/>
<path d="M382.357 106.189H361.116C359.93 106.189 358.955 107.156 358.955 108.358V122.268C358.955 123.458 359.918 124.436 361.116 124.436H372.247L378.67 129.871V124.436H382.345C383.531 124.436 384.506 123.47 384.506 122.268V108.347C384.517 107.156 383.554 106.189 382.357 106.189Z" fill="#FED402"/>
<path d="M187.923 54.4648H166.682C165.496 54.4648 164.521 55.4314 164.521 56.6337V70.543C164.521 71.7335 165.484 72.7119 166.682 72.7119H177.813L184.236 78.1459V72.7119H187.911C189.097 72.7119 190.072 71.7453 190.072 70.543V56.622C190.084 55.4314 189.121 54.4648 187.923 54.4648Z" fill="#FED402"/>
<path d="M382.357 54.4648H361.116C359.93 54.4648 358.955 55.4314 358.955 56.6337V70.543C358.955 71.7335 359.918 72.7119 361.116 72.7119H372.247L378.67 78.1459V72.7119H382.345C383.531 72.7119 384.506 71.7453 384.506 70.543V56.622C384.517 55.4314 383.554 54.4648 382.357 54.4648Z" fill="#FED402"/>
<path d="M187.923 209.639H166.682C165.496 209.639 164.521 210.605 164.521 211.808V225.717C164.521 226.907 165.484 227.886 166.682 227.886H177.813L184.236 233.32V227.886H187.911C189.097 227.886 190.072 226.919 190.072 225.717V211.796C190.084 210.605 189.121 209.639 187.923 209.639Z" fill="#FED402"/>
<path d="M382.357 209.639H361.116C359.93 209.639 358.955 210.605 358.955 211.808V225.717C358.955 226.907 359.918 227.886 361.116 227.886H372.247L378.67 233.32V227.886H382.345C383.531 227.886 384.506 226.919 384.506 225.717V211.796C384.517 210.605 383.554 209.639 382.357 209.639Z" fill="#FED402"/>
<path d="M25.8949 106.189H4.65369C3.46775 106.189 2.49316 107.156 2.49316 108.358V122.268C2.49316 123.458 3.45601 124.436 4.65369 124.436H15.7851L22.2079 129.871V124.436H25.8832C27.0691 124.436 28.0437 123.47 28.0437 122.268V108.347C28.0554 107.156 27.0926 106.189 25.8949 106.189Z" fill="#FED402"/>
<path d="M220.328 106.189H199.087C197.901 106.189 196.927 107.156 196.927 108.358V122.268C196.927 123.458 197.89 124.436 199.087 124.436H210.219L216.642 129.871V124.436H220.317C221.503 124.436 222.477 123.47 222.477 122.268V108.347C222.489 107.156 221.526 106.189 220.328 106.189Z" fill="#FED402"/>
<path d="M414.763 106.189H393.522C392.336 106.189 391.361 107.156 391.361 108.358V122.268C391.361 123.458 392.324 124.436 393.522 124.436H404.653L411.076 129.871V124.436H414.751C415.937 124.436 416.912 123.47 416.912 122.268V108.347C416.924 107.156 415.961 106.189 414.763 106.189Z" fill="#FED402"/>
<path d="M25.8949 54.4648H4.65369C3.46775 54.4648 2.49316 55.4314 2.49316 56.6337V70.543C2.49316 71.7335 3.45601 72.7119 4.65369 72.7119H15.7851L22.2079 78.1459V72.7119H25.8832C27.0691 72.7119 28.0437 71.7453 28.0437 70.543V56.622C28.0554 55.4314 27.0926 54.4648 25.8949 54.4648Z" fill="#FED402"/>
<path d="M220.328 54.4648H199.087C197.901 54.4648 196.927 55.4314 196.927 56.6337V70.543C196.927 71.7335 197.89 72.7119 199.087 72.7119H210.219L216.642 78.1459V72.7119H220.317C221.503 72.7119 222.477 71.7453 222.477 70.543V56.622C222.489 55.4314 221.526 54.4648 220.328 54.4648Z" fill="#FED402"/>
<path d="M414.763 54.4648H393.522C392.336 54.4648 391.361 55.4314 391.361 56.6337V70.543C391.361 71.7335 392.324 72.7119 393.522 72.7119H404.653L411.076 78.1459V72.7119H414.751C415.937 72.7119 416.912 71.7453 416.912 70.543V56.622C416.924 55.4314 415.961 54.4648 414.763 54.4648Z" fill="#FED402"/>
<path d="M25.8949 209.639H4.65369C3.46775 209.639 2.49316 210.605 2.49316 211.808V225.717C2.49316 226.907 3.45601 227.886 4.65369 227.886H15.7851L22.2079 233.32V227.886H25.8832C27.0691 227.886 28.0437 226.919 28.0437 225.717V211.796C28.0554 210.605 27.0926 209.639 25.8949 209.639Z" fill="#FED402"/>
<path d="M220.328 209.639H199.087C197.901 209.639 196.927 210.605 196.927 211.808V225.717C196.927 226.907 197.89 227.886 199.087 227.886H210.219L216.642 233.32V227.886H220.317C221.503 227.886 222.477 226.919 222.477 225.717V211.796C222.489 210.605 221.526 209.639 220.328 209.639Z" fill="#FED402"/>
<path d="M414.763 209.639H393.522C392.336 209.639 391.361 210.605 391.361 211.808V225.717C391.361 226.907 392.324 227.886 393.522 227.886H404.653L411.076 233.32V227.886H414.751C415.937 227.886 416.912 226.919 416.912 225.717V211.796C416.924 210.605 415.961 209.639 414.763 209.639Z" fill="#FED402"/>
<path d="M58.3002 106.189H37.059C35.873 106.189 34.8984 107.156 34.8984 108.358V122.268C34.8984 123.458 35.8613 124.436 37.059 124.436H48.1903L54.6132 129.871V124.436H58.2884C59.4744 124.436 60.449 123.47 60.449 122.268V108.347C60.4607 107.156 59.4979 106.189 58.3002 106.189Z" fill="#FED402"/>
<path d="M252.735 106.189H231.494C230.308 106.189 229.333 107.156 229.333 108.358V122.268C229.333 123.458 230.296 124.436 231.494 124.436H242.625L249.048 129.871V124.436H252.723C253.909 124.436 254.884 123.47 254.884 122.268V108.347C254.895 107.156 253.932 106.189 252.735 106.189Z" fill="#FED402"/>
<path d="M447.168 106.189H425.927C424.741 106.189 423.767 107.156 423.767 108.358V122.268C423.767 123.458 424.729 124.436 425.927 124.436H437.059L443.481 129.871V124.436H447.157C448.343 124.436 449.317 123.47 449.317 122.268V108.347C449.329 107.156 448.366 106.189 447.168 106.189Z" fill="#FED402"/>
<path d="M58.3002 54.4648H37.059C35.873 54.4648 34.8984 55.4314 34.8984 56.6337V70.543C34.8984 71.7335 35.8613 72.7119 37.059 72.7119H48.1903L54.6132 78.1459V72.7119H58.2884C59.4744 72.7119 60.449 71.7453 60.449 70.543V56.622C60.4607 55.4314 59.4979 54.4648 58.3002 54.4648Z" fill="#FED402"/>
<path d="M252.735 54.4648H231.494C230.308 54.4648 229.333 55.4314 229.333 56.6337V70.543C229.333 71.7335 230.296 72.7119 231.494 72.7119H242.625L249.048 78.1459V72.7119H252.723C253.909 72.7119 254.884 71.7453 254.884 70.543V56.622C254.895 55.4314 253.932 54.4648 252.735 54.4648Z" fill="#FED402"/>
<path d="M447.168 54.4648H425.927C424.741 54.4648 423.767 55.4314 423.767 56.6337V70.543C423.767 71.7335 424.729 72.7119 425.927 72.7119H437.059L443.481 78.1459V72.7119H447.157C448.343 72.7119 449.317 71.7453 449.317 70.543V56.622C449.329 55.4314 448.366 54.4648 447.168 54.4648Z" fill="#FED402"/>
<path d="M58.3002 209.639H37.059C35.873 209.639 34.8984 210.605 34.8984 211.808V225.717C34.8984 226.907 35.8613 227.886 37.059 227.886H48.1903L54.6132 233.32V227.886H58.2884C59.4744 227.886 60.449 226.919 60.449 225.717V211.796C60.4607 210.605 59.4979 209.639 58.3002 209.639Z" fill="#FED402"/>
<path d="M252.735 209.639H231.494C230.308 209.639 229.333 210.605 229.333 211.808V225.717C229.333 226.907 230.296 227.886 231.494 227.886H242.625L249.048 233.32V227.886H252.723C253.909 227.886 254.884 226.919 254.884 225.717V211.796C254.895 210.605 253.932 209.639 252.735 209.639Z" fill="#FED402"/>
<path d="M447.168 209.639H425.927C424.741 209.639 423.767 210.605 423.767 211.808V225.717C423.767 226.907 424.729 227.886 425.927 227.886H437.059L443.481 233.32V227.886H447.157C448.343 227.886 449.317 226.919 449.317 225.717V211.796C449.329 210.605 448.366 209.639 447.168 209.639Z" fill="#FED402"/>
<path d="M90.7064 106.189H69.4652C68.2793 106.189 67.3047 107.156 67.3047 108.358V122.268C67.3047 123.458 68.2675 124.436 69.4652 124.436H80.5966L87.0194 129.871V124.436H90.6947C91.8806 124.436 92.8552 123.47 92.8552 122.268V108.347C92.8669 107.156 91.9041 106.189 90.7064 106.189Z" fill="#FED402"/>
<path d="M285.14 106.189H263.899C262.713 106.189 261.738 107.156 261.738 108.358V122.268C261.738 123.458 262.701 124.436 263.899 124.436H275.03L281.453 129.871V124.436H285.128C286.314 124.436 287.289 123.47 287.289 122.268V108.347C287.301 107.156 286.338 106.189 285.14 106.189Z" fill="#FED402"/>
<path d="M90.7064 54.4648H69.4652C68.2793 54.4648 67.3047 55.4314 67.3047 56.6337V70.543C67.3047 71.7335 68.2675 72.7119 69.4652 72.7119H80.5966L87.0194 78.1459V72.7119H90.6947C91.8806 72.7119 92.8552 71.7453 92.8552 70.543V56.622C92.8669 55.4314 91.9041 54.4648 90.7064 54.4648Z" fill="#FED402"/>
<path d="M285.14 54.4648H263.899C262.713 54.4648 261.738 55.4314 261.738 56.6337V70.543C261.738 71.7335 262.701 72.7119 263.899 72.7119H275.03L281.453 78.1459V72.7119H285.128C286.314 72.7119 287.289 71.7453 287.289 70.543V56.622C287.301 55.4314 286.338 54.4648 285.14 54.4648Z" fill="#FED402"/>
<path d="M90.7064 209.639H69.4652C68.2793 209.639 67.3047 210.605 67.3047 211.808V225.717C67.3047 226.907 68.2675 227.886 69.4652 227.886H80.5966L87.0194 233.32V227.886H90.6947C91.8806 227.886 92.8552 226.919 92.8552 225.717V211.796C92.8669 210.605 91.9041 209.639 90.7064 209.639Z" fill="#FED402"/>
<path d="M285.14 209.639H263.899C262.713 209.639 261.738 210.605 261.738 211.808V225.717C261.738 226.907 262.701 227.886 263.899 227.886H275.03L281.453 233.32V227.886H285.128C286.314 227.886 287.289 226.919 287.289 225.717V211.796C287.301 210.605 286.338 209.639 285.14 209.639Z" fill="#FED402"/>
<path d="M123.112 106.189H101.87C100.685 106.189 99.71 107.156 99.71 108.358V122.268C99.71 123.458 100.673 124.436 101.87 124.436H113.002L119.425 129.871V124.436H123.1C124.286 124.436 125.26 123.47 125.26 122.268V108.347C125.272 107.156 124.309 106.189 123.112 106.189Z" fill="#FED402"/>
<path d="M317.545 106.189H296.304C295.118 106.189 294.144 107.156 294.144 108.358V122.268C294.144 123.458 295.106 124.436 296.304 124.436H307.435L313.858 129.871V124.436H317.534C318.719 124.436 319.694 123.47 319.694 122.268V108.347C319.706 107.156 318.743 106.189 317.545 106.189Z" fill="#FED402"/>
<path d="M123.112 54.4648H101.87C100.685 54.4648 99.71 55.4314 99.71 56.6337V70.543C99.71 71.7335 100.673 72.7119 101.87 72.7119H113.002L119.425 78.1459V72.7119H123.1C124.286 72.7119 125.26 71.7453 125.26 70.543V56.622C125.272 55.4314 124.309 54.4648 123.112 54.4648Z" fill="#FED402"/>
<path d="M317.545 54.4648H296.304C295.118 54.4648 294.144 55.4314 294.144 56.6337V70.543C294.144 71.7335 295.106 72.7119 296.304 72.7119H307.435L313.858 78.1459V72.7119H317.534C318.719 72.7119 319.694 71.7453 319.694 70.543V56.622C319.706 55.4314 318.743 54.4648 317.545 54.4648Z" fill="#FED402"/>
<path d="M123.112 209.639H101.87C100.685 209.639 99.71 210.605 99.71 211.808V225.717C99.71 226.907 100.673 227.886 101.87 227.886H113.002L119.425 233.32V227.886H123.1C124.286 227.886 125.26 226.919 125.26 225.717V211.796C125.272 210.605 124.309 209.639 123.112 209.639Z" fill="#FED402"/>
<path d="M317.545 209.639H296.304C295.118 209.639 294.144 210.605 294.144 211.808V225.717C294.144 226.907 295.106 227.886 296.304 227.886H307.435L313.858 233.32V227.886H317.534C318.719 227.886 319.694 226.919 319.694 225.717V211.796C319.706 210.605 318.743 209.639 317.545 209.639Z" fill="#FED402"/>
<path d="M134.264 48.8555L155.505 48.8555C156.691 48.8555 157.666 47.8889 157.666 46.6866L157.666 32.7773C157.666 31.5868 156.703 30.6084 155.505 30.6084L144.374 30.6084L137.951 25.1744L137.951 30.6084L134.276 30.6084C133.09 30.6084 132.116 31.575 132.115 32.7773L132.115 46.6984C132.104 47.8889 133.067 48.8555 134.264 48.8555Z" stroke="#FED402" stroke-width="2"/>
<path d="M328.699 48.8555L349.94 48.8555C351.126 48.8555 352.101 47.8889 352.101 46.6866L352.101 32.7773C352.101 31.5868 351.138 30.6084 349.94 30.6084L338.809 30.6084L332.386 25.1744L332.386 30.6084L328.711 30.6084C327.525 30.6084 326.55 31.575 326.55 32.7773L326.55 46.6984C326.538 47.8889 327.501 48.8555 328.699 48.8555Z" stroke="#FED402" stroke-width="2"/>
<path d="M134.264 204.029L155.505 204.029C156.691 204.029 157.666 203.063 157.666 201.86L157.666 187.951C157.666 186.761 156.703 185.782 155.505 185.782L144.374 185.782L137.951 180.348L137.951 185.782L134.276 185.782C133.09 185.782 132.116 186.749 132.115 187.951L132.115 201.872C132.104 203.063 133.067 204.029 134.264 204.029Z" stroke="#FED402" stroke-width="2"/>
<path d="M328.699 204.029L349.94 204.029C351.126 204.029 352.101 203.063 352.101 201.86L352.101 187.951C352.101 186.761 351.138 185.782 349.94 185.782L338.809 185.782L332.386 180.348L332.386 185.782L328.711 185.782C327.525 185.782 326.55 186.749 326.55 187.951L326.55 201.872C326.538 203.063 327.501 204.029 328.699 204.029Z" stroke="#FED402" stroke-width="2"/>
<path d="M166.671 48.8555L187.912 48.8555C189.098 48.8555 190.072 47.8889 190.072 46.6866L190.072 32.7773C190.072 31.5868 189.109 30.6084 187.912 30.6084L176.78 30.6084L170.358 25.1744L170.358 30.6084L166.682 30.6084C165.496 30.6084 164.522 31.575 164.522 32.7773L164.522 46.6984C164.51 47.8889 165.473 48.8555 166.671 48.8555Z" stroke="#FED402" stroke-width="2"/>
<path d="M361.104 48.8555L382.345 48.8555C383.531 48.8555 384.506 47.8889 384.506 46.6866L384.506 32.7773C384.506 31.5868 383.543 30.6084 382.345 30.6084L371.214 30.6084L364.791 25.1744L364.791 30.6084L361.116 30.6084C359.93 30.6084 358.955 31.575 358.955 32.7773L358.955 46.6984C358.944 47.8889 359.906 48.8555 361.104 48.8555Z" stroke="#FED402" stroke-width="2"/>
<path d="M166.671 204.029L187.912 204.029C189.098 204.029 190.072 203.063 190.072 201.86L190.072 187.951C190.072 186.761 189.109 185.782 187.912 185.782L176.78 185.782L170.358 180.348L170.358 185.782L166.682 185.782C165.496 185.782 164.522 186.749 164.522 187.951L164.522 201.872C164.51 203.063 165.473 204.029 166.671 204.029Z" stroke="#FED402" stroke-width="2"/>
<path d="M361.104 204.029L382.345 204.029C383.531 204.029 384.506 203.063 384.506 201.86L384.506 187.951C384.506 186.761 383.543 185.782 382.345 185.782L371.214 185.782L364.791 180.348L364.791 185.782L361.116 185.782C359.93 185.782 358.955 186.749 358.955 187.951L358.955 201.872C358.944 203.063 359.906 204.029 361.104 204.029Z" stroke="#FED402" stroke-width="2"/>
<path d="M4.64221 48.8555L25.8834 48.8555C27.0694 48.8555 28.0439 47.8889 28.0439 46.6866L28.0439 32.7773C28.0439 31.5868 27.0811 30.6084 25.8834 30.6084L14.752 30.6084L8.32919 25.1744L8.32919 30.6084L4.65395 30.6084C3.46801 30.6084 2.49343 31.575 2.49343 32.7773L2.49343 46.6984C2.48169 47.8889 3.44453 48.8555 4.64221 48.8555Z" stroke="#FED402" stroke-width="2"/>
<path d="M199.076 48.8555L220.317 48.8555C221.503 48.8555 222.478 47.8889 222.478 46.6866L222.478 32.7773C222.478 31.5868 221.515 30.6084 220.317 30.6084L209.186 30.6084L202.763 25.1744L202.763 30.6084L199.088 30.6084C197.902 30.6084 196.927 31.575 196.927 32.7773L196.927 46.6984C196.915 47.8889 197.878 48.8555 199.076 48.8555Z" stroke="#FED402" stroke-width="2"/>
<path d="M393.51 48.8555L414.752 48.8555C415.938 48.8555 416.912 47.8889 416.912 46.6866L416.912 32.7773C416.912 31.5868 415.949 30.6084 414.752 30.6084L403.62 30.6084L397.197 25.1744L397.197 30.6084L393.522 30.6084C392.336 30.6084 391.362 31.575 391.362 32.7773L391.362 46.6984C391.35 47.8889 392.313 48.8555 393.51 48.8555Z" stroke="#FED402" stroke-width="2"/>
<path d="M4.64221 204.029L25.8834 204.029C27.0694 204.029 28.0439 203.063 28.0439 201.86L28.0439 187.951C28.0439 186.761 27.0811 185.782 25.8834 185.782L14.752 185.782L8.32919 180.348L8.32919 185.782L4.65395 185.782C3.46801 185.782 2.49343 186.749 2.49343 187.951L2.49343 201.872C2.48169 203.063 3.44453 204.029 4.64221 204.029Z" stroke="#FED402" stroke-width="2"/>
<path d="M199.076 204.029L220.317 204.029C221.503 204.029 222.478 203.063 222.478 201.86L222.478 187.951C222.478 186.761 221.515 185.782 220.317 185.782L209.186 185.782L202.763 180.348L202.763 185.782L199.088 185.782C197.902 185.782 196.927 186.749 196.927 187.951L196.927 201.872C196.915 203.063 197.878 204.029 199.076 204.029Z" stroke="#FED402" stroke-width="2"/>
<path d="M393.51 204.029L414.752 204.029C415.938 204.029 416.912 203.063 416.912 201.86L416.912 187.951C416.912 186.761 415.949 185.782 414.752 185.782L403.62 185.782L397.197 180.348L397.197 185.782L393.522 185.782C392.336 185.782 391.362 186.749 391.362 187.951L391.362 201.872C391.35 203.063 392.313 204.029 393.51 204.029Z" stroke="#FED402" stroke-width="2"/>
<path d="M37.0475 48.8555L58.2887 48.8555C59.4746 48.8555 60.4492 47.8889 60.4492 46.6866L60.4492 32.7773C60.4492 31.5868 59.4864 30.6084 58.2887 30.6084L47.1573 30.6084L40.7345 25.1744L40.7345 30.6084L37.0592 30.6084C35.8733 30.6084 34.8987 31.575 34.8987 32.7773L34.8987 46.6984C34.887 47.8889 35.8498 48.8555 37.0475 48.8555Z" stroke="#FED402" stroke-width="2"/>
<path d="M231.481 48.8555L252.722 48.8555C253.908 48.8555 254.883 47.8889 254.883 46.6866L254.883 32.7773C254.883 31.5868 253.92 30.6084 252.722 30.6084L241.591 30.6084L235.168 25.1744L235.168 30.6084L231.493 30.6084C230.307 30.6084 229.332 31.575 229.332 32.7773L229.332 46.6984C229.321 47.8889 230.283 48.8555 231.481 48.8555Z" stroke="#FED402" stroke-width="2"/>
<path d="M425.916 48.8555L447.157 48.8555C448.343 48.8555 449.317 47.8889 449.317 46.6866L449.317 32.7773C449.317 31.5868 448.355 30.6084 447.157 30.6084L436.025 30.6084L429.603 25.1744L429.603 30.6084L425.927 30.6084C424.741 30.6084 423.767 31.575 423.767 32.7773L423.767 46.6984C423.755 47.8889 424.718 48.8555 425.916 48.8555Z" stroke="#FED402" stroke-width="2"/>
<path d="M37.0475 204.029L58.2887 204.029C59.4746 204.029 60.4492 203.063 60.4492 201.86L60.4492 187.951C60.4492 186.761 59.4864 185.782 58.2887 185.782L47.1573 185.782L40.7345 180.348L40.7345 185.782L37.0592 185.782C35.8733 185.782 34.8987 186.749 34.8987 187.951L34.8987 201.872C34.887 203.063 35.8498 204.029 37.0475 204.029Z" stroke="#FED402" stroke-width="2"/>
<path d="M231.481 204.029L252.722 204.029C253.908 204.029 254.883 203.063 254.883 201.86L254.883 187.951C254.883 186.761 253.92 185.782 252.722 185.782L241.591 185.782L235.168 180.348L235.168 185.782L231.493 185.782C230.307 185.782 229.332 186.749 229.332 187.951L229.332 201.872C229.321 203.063 230.283 204.029 231.481 204.029Z" stroke="#FED402" stroke-width="2"/>
<path d="M425.916 204.029L447.157 204.029C448.343 204.029 449.317 203.063 449.317 201.86L449.317 187.951C449.317 186.761 448.355 185.782 447.157 185.782L436.025 185.782L429.603 180.348L429.603 185.782L425.927 185.782C424.741 185.782 423.767 186.749 423.767 187.951L423.767 201.872C423.755 203.063 424.718 204.029 425.916 204.029Z" stroke="#FED402" stroke-width="2"/>
<path d="M69.4528 48.8555L90.694 48.8555C91.8799 48.8555 92.8545 47.8889 92.8545 46.6866L92.8545 32.7773C92.8545 31.5868 91.8917 30.6084 90.694 30.6084L79.5626 30.6084L73.1397 25.1744L73.1397 30.6084L69.4645 30.6084C68.2786 30.6084 67.304 31.575 67.304 32.7773L67.304 46.6984C67.2922 47.8889 68.2551 48.8555 69.4528 48.8555Z" stroke="#FED402" stroke-width="2"/>
<path d="M263.887 48.8555L285.129 48.8555C286.314 48.8555 287.289 47.8889 287.289 46.6866L287.289 32.7773C287.289 31.5868 286.326 30.6084 285.129 30.6084L273.997 30.6084L267.574 25.1744L267.574 30.6084L263.899 30.6084C262.713 30.6084 261.739 31.575 261.739 32.7773L261.739 46.6984C261.727 47.8889 262.69 48.8555 263.887 48.8555Z" stroke="#FED402" stroke-width="2"/>
<path d="M69.4528 204.029L90.694 204.029C91.8799 204.029 92.8545 203.063 92.8545 201.86L92.8545 187.951C92.8545 186.761 91.8917 185.782 90.694 185.782L79.5626 185.782L73.1397 180.348L73.1397 185.782L69.4645 185.782C68.2786 185.782 67.304 186.749 67.304 187.951L67.304 201.872C67.2922 203.063 68.2551 204.029 69.4528 204.029Z" stroke="#FED402" stroke-width="2"/>
<path d="M263.887 204.029L285.129 204.029C286.314 204.029 287.289 203.063 287.289 201.86L287.289 187.951C287.289 186.761 286.326 185.782 285.129 185.782L273.997 185.782L267.574 180.348L267.574 185.782L263.899 185.782C262.713 185.782 261.739 186.749 261.739 187.951L261.739 201.872C261.727 203.063 262.69 204.029 263.887 204.029Z" stroke="#FED402" stroke-width="2"/>
<path d="M101.859 48.8555L123.1 48.8555C124.286 48.8555 125.261 47.8889 125.261 46.6866L125.261 32.7773C125.261 31.5868 124.298 30.6084 123.1 30.6084L111.969 30.6084L105.546 25.1744L105.546 30.6084L101.871 30.6084C100.685 30.6084 99.7102 31.575 99.7102 32.7773L99.7102 46.6984C99.6985 47.8889 100.661 48.8555 101.859 48.8555Z" stroke="#FED402" stroke-width="2"/>
<path d="M296.293 48.8555L317.534 48.8555C318.72 48.8555 319.694 47.8889 319.694 46.6866L319.694 32.7773C319.694 31.5868 318.731 30.6084 317.534 30.6084L306.402 30.6084L299.98 25.1744L299.98 30.6084L296.304 30.6084C295.118 30.6084 294.144 31.575 294.144 32.7773L294.144 46.6984C294.132 47.8889 295.095 48.8555 296.293 48.8555Z" stroke="#FED402" stroke-width="2"/>
<path d="M101.859 204.029L123.1 204.029C124.286 204.029 125.261 203.063 125.261 201.86L125.261 187.951C125.261 186.761 124.298 185.782 123.1 185.782L111.969 185.782L105.546 180.348L105.546 185.782L101.871 185.782C100.685 185.782 99.7102 186.749 99.7102 187.951L99.7102 201.872C99.6985 203.063 100.661 204.029 101.859 204.029Z" stroke="#FED402" stroke-width="2"/>
<path d="M296.293 204.029L317.534 204.029C318.72 204.029 319.694 203.063 319.694 201.86L319.694 187.951C319.694 186.761 318.731 185.782 317.534 185.782L306.402 185.782L299.98 180.348L299.98 185.782L296.304 185.782C295.118 185.782 294.144 186.749 294.144 187.951L294.144 201.872C294.132 203.063 295.095 204.029 296.293 204.029Z" stroke="#FED402" stroke-width="2"/>
<path d="M134.264 152.305L155.505 152.305C156.691 152.305 157.666 151.338 157.666 150.136L157.666 136.227C157.666 135.036 156.703 134.058 155.505 134.058L144.374 134.058L137.951 128.624L137.951 134.058L134.276 134.058C133.09 134.058 132.116 135.024 132.115 136.227L132.115 150.148C132.104 151.338 133.067 152.305 134.264 152.305Z" stroke="#FED402" stroke-width="2"/>
<path d="M328.699 152.305L349.94 152.305C351.126 152.305 352.101 151.338 352.101 150.136L352.101 136.227C352.101 135.036 351.138 134.058 349.94 134.058L338.809 134.058L332.386 128.624L332.386 134.058L328.711 134.058C327.525 134.058 326.55 135.024 326.55 136.227L326.55 150.148C326.538 151.338 327.501 152.305 328.699 152.305Z" stroke="#FED402" stroke-width="2"/>
<path d="M134.264 100.58L155.505 100.58C156.691 100.58 157.666 99.6135 157.666 98.4112L157.666 84.5019C157.666 83.3114 156.703 82.333 155.505 82.333L144.374 82.333L137.951 76.899L137.951 82.333L134.276 82.333C133.09 82.333 132.116 83.2996 132.115 84.5019L132.115 98.423C132.104 99.6135 133.067 100.58 134.264 100.58Z" stroke="#FED402" stroke-width="2"/>
<path d="M328.699 100.58L349.94 100.58C351.126 100.58 352.101 99.6135 352.101 98.4112L352.101 84.5019C352.101 83.3114 351.138 82.333 349.94 82.333L338.809 82.333L332.386 76.899L332.386 82.333L328.711 82.333C327.525 82.333 326.55 83.2996 326.55 84.5019L326.55 98.423C326.538 99.6135 327.501 100.58 328.699 100.58Z" stroke="#FED402" stroke-width="2"/>
<path d="M134.264 255.754L155.505 255.754C156.691 255.754 157.666 254.787 157.666 253.585L157.666 239.676C157.666 238.485 156.703 237.507 155.505 237.507L144.374 237.507L137.951 232.073L137.951 237.507L134.276 237.507C133.09 237.507 132.116 238.473 132.115 239.676L132.115 253.597C132.104 254.787 133.067 255.754 134.264 255.754Z" stroke="#FED402" stroke-width="2"/>
<path d="M328.699 255.754L349.94 255.754C351.126 255.754 352.101 254.787 352.101 253.585L352.101 239.676C352.101 238.485 351.138 237.507 349.94 237.507L338.809 237.507L332.386 232.073L332.386 237.507L328.711 237.507C327.525 237.507 326.55 238.473 326.55 239.676L326.55 253.597C326.538 254.787 327.501 255.754 328.699 255.754Z" stroke="#FED402" stroke-width="2"/>
<path d="M166.671 152.305L187.912 152.305C189.098 152.305 190.072 151.338 190.072 150.136L190.072 136.227C190.072 135.036 189.109 134.058 187.912 134.058L176.78 134.058L170.358 128.624L170.358 134.058L166.682 134.058C165.496 134.058 164.522 135.024 164.522 136.227L164.522 150.148C164.51 151.338 165.473 152.305 166.671 152.305Z" stroke="#FED402" stroke-width="2"/>
<path d="M361.104 152.305L382.345 152.305C383.531 152.305 384.506 151.338 384.506 150.136L384.506 136.227C384.506 135.036 383.543 134.058 382.345 134.058L371.214 134.058L364.791 128.624L364.791 134.058L361.116 134.058C359.93 134.058 358.955 135.024 358.955 136.227L358.955 150.148C358.944 151.338 359.906 152.305 361.104 152.305Z" stroke="#FED402" stroke-width="2"/>
<path d="M166.671 100.58L187.912 100.58C189.098 100.58 190.072 99.6135 190.072 98.4112L190.072 84.5019C190.072 83.3114 189.109 82.333 187.912 82.333L176.78 82.333L170.358 76.899L170.358 82.333L166.682 82.333C165.496 82.333 164.522 83.2996 164.522 84.5019L164.522 98.423C164.51 99.6135 165.473 100.58 166.671 100.58Z" stroke="#FED402" stroke-width="2"/>
<path d="M361.104 100.58L382.345 100.58C383.531 100.58 384.506 99.6135 384.506 98.4112L384.506 84.5019C384.506 83.3114 383.543 82.333 382.345 82.333L371.214 82.333L364.791 76.899L364.791 82.333L361.116 82.333C359.93 82.333 358.955 83.2996 358.955 84.5019L358.955 98.423C358.944 99.6135 359.906 100.58 361.104 100.58Z" stroke="#FED402" stroke-width="2"/>
<path d="M166.671 255.754L187.912 255.754C189.098 255.754 190.072 254.787 190.072 253.585L190.072 239.676C190.072 238.485 189.109 237.507 187.912 237.507L176.78 237.507L170.358 232.073L170.358 237.507L166.682 237.507C165.496 237.507 164.522 238.473 164.522 239.676L164.522 253.597C164.51 254.787 165.473 255.754 166.671 255.754Z" stroke="#FED402" stroke-width="2"/>
<path d="M361.104 255.754L382.345 255.754C383.531 255.754 384.506 254.787 384.506 253.585L384.506 239.676C384.506 238.485 383.543 237.507 382.345 237.507L371.214 237.507L364.791 232.073L364.791 237.507L361.116 237.507C359.93 237.507 358.955 238.473 358.955 239.676L358.955 253.597C358.944 254.787 359.906 255.754 361.104 255.754Z" stroke="#FED402" stroke-width="2"/>
<path d="M4.64221 152.305L25.8834 152.305C27.0694 152.305 28.0439 151.338 28.0439 150.136L28.0439 136.227C28.0439 135.036 27.0811 134.058 25.8834 134.058L14.752 134.058L8.32919 128.624L8.32919 134.058L4.65395 134.058C3.46801 134.058 2.49343 135.024 2.49343 136.227L2.49343 150.148C2.48169 151.338 3.44453 152.305 4.64221 152.305Z" stroke="#FED402" stroke-width="2"/>
<path d="M199.076 152.305L220.317 152.305C221.503 152.305 222.478 151.338 222.478 150.136L222.478 136.227C222.478 135.036 221.515 134.058 220.317 134.058L209.186 134.058L202.763 128.624L202.763 134.058L199.088 134.058C197.902 134.058 196.927 135.024 196.927 136.227L196.927 150.148C196.915 151.338 197.878 152.305 199.076 152.305Z" stroke="#FED402" stroke-width="2"/>
<path d="M393.51 152.305L414.752 152.305C415.938 152.305 416.912 151.338 416.912 150.136L416.912 136.227C416.912 135.036 415.949 134.058 414.752 134.058L403.62 134.058L397.197 128.624L397.197 134.058L393.522 134.058C392.336 134.058 391.362 135.024 391.362 136.227L391.362 150.148C391.35 151.338 392.313 152.305 393.51 152.305Z" stroke="#FED402" stroke-width="2"/>
<path d="M4.64221 100.58L25.8834 100.58C27.0694 100.58 28.0439 99.6135 28.0439 98.4112L28.0439 84.5019C28.0439 83.3114 27.0811 82.333 25.8834 82.333L14.752 82.333L8.32919 76.899L8.32919 82.333L4.65395 82.333C3.46801 82.333 2.49343 83.2996 2.49343 84.5019L2.49343 98.423C2.48169 99.6135 3.44453 100.58 4.64221 100.58Z" stroke="#FED402" stroke-width="2"/>
<path d="M199.076 100.58L220.317 100.58C221.503 100.58 222.478 99.6135 222.478 98.4112L222.478 84.5019C222.478 83.3114 221.515 82.333 220.317 82.333L209.186 82.333L202.763 76.899L202.763 82.333L199.088 82.333C197.902 82.333 196.927 83.2996 196.927 84.5019L196.927 98.423C196.915 99.6135 197.878 100.58 199.076 100.58Z" stroke="#FED402" stroke-width="2"/>
<path d="M393.51 100.58L414.752 100.58C415.938 100.58 416.912 99.6135 416.912 98.4112L416.912 84.5019C416.912 83.3114 415.949 82.333 414.752 82.333L403.62 82.333L397.197 76.899L397.197 82.333L393.522 82.333C392.336 82.333 391.362 83.2996 391.362 84.5019L391.362 98.423C391.35 99.6135 392.313 100.58 393.51 100.58Z" stroke="#FED402" stroke-width="2"/>
<path d="M4.64221 255.754L25.8834 255.754C27.0694 255.754 28.0439 254.787 28.0439 253.585L28.0439 239.676C28.0439 238.485 27.0811 237.507 25.8834 237.507L14.752 237.507L8.32919 232.073L8.32919 237.507L4.65395 237.507C3.46801 237.507 2.49343 238.473 2.49343 239.676L2.49343 253.597C2.48169 254.787 3.44453 255.754 4.64221 255.754Z" stroke="#FED402" stroke-width="2"/>
<path d="M199.076 255.754L220.317 255.754C221.503 255.754 222.478 254.787 222.478 253.585L222.478 239.676C222.478 238.485 221.515 237.507 220.317 237.507L209.186 237.507L202.763 232.073L202.763 237.507L199.088 237.507C197.902 237.507 196.927 238.473 196.927 239.676L196.927 253.597C196.915 254.787 197.878 255.754 199.076 255.754Z" stroke="#FED402" stroke-width="2"/>
<path d="M393.51 255.754L414.752 255.754C415.938 255.754 416.912 254.787 416.912 253.585L416.912 239.676C416.912 238.485 415.949 237.507 414.752 237.507L403.62 237.507L397.197 232.073L397.197 237.507L393.522 237.507C392.336 237.507 391.362 238.473 391.362 239.676L391.362 253.597C391.35 254.787 392.313 255.754 393.51 255.754Z" stroke="#FED402" stroke-width="2"/>
<path d="M37.0475 152.305L58.2887 152.305C59.4746 152.305 60.4492 151.338 60.4492 150.136L60.4492 136.227C60.4492 135.036 59.4864 134.058 58.2887 134.058L47.1573 134.058L40.7345 128.624L40.7345 134.058L37.0592 134.058C35.8733 134.058 34.8987 135.024 34.8987 136.227L34.8987 150.148C34.887 151.338 35.8498 152.305 37.0475 152.305Z" stroke="#FED402" stroke-width="2"/>
<path d="M231.481 152.305L252.722 152.305C253.908 152.305 254.883 151.338 254.883 150.136L254.883 136.227C254.883 135.036 253.92 134.058 252.722 134.058L241.591 134.058L235.168 128.624L235.168 134.058L231.493 134.058C230.307 134.058 229.332 135.024 229.332 136.227L229.332 150.148C229.321 151.338 230.283 152.305 231.481 152.305Z" stroke="#FED402" stroke-width="2"/>
<path d="M425.916 152.305L447.157 152.305C448.343 152.305 449.317 151.338 449.317 150.136L449.317 136.227C449.317 135.036 448.355 134.058 447.157 134.058L436.025 134.058L429.603 128.624L429.603 134.058L425.927 134.058C424.741 134.058 423.767 135.024 423.767 136.227L423.767 150.148C423.755 151.338 424.718 152.305 425.916 152.305Z" stroke="#FED402" stroke-width="2"/>
<path d="M37.0475 100.58L58.2887 100.58C59.4746 100.58 60.4492 99.6135 60.4492 98.4112L60.4492 84.5019C60.4492 83.3114 59.4864 82.333 58.2887 82.333L47.1573 82.333L40.7345 76.899L40.7345 82.333L37.0592 82.333C35.8733 82.333 34.8987 83.2996 34.8987 84.5019L34.8987 98.423C34.887 99.6135 35.8498 100.58 37.0475 100.58Z" stroke="#FED402" stroke-width="2"/>
<path d="M231.481 100.58L252.722 100.58C253.908 100.58 254.883 99.6135 254.883 98.4112L254.883 84.5019C254.883 83.3114 253.92 82.333 252.722 82.333L241.591 82.333L235.168 76.899L235.168 82.333L231.493 82.333C230.307 82.333 229.332 83.2996 229.332 84.5019L229.332 98.423C229.321 99.6135 230.283 100.58 231.481 100.58Z" stroke="#FED402" stroke-width="2"/>
<path d="M425.916 100.58L447.157 100.58C448.343 100.58 449.317 99.6135 449.317 98.4112L449.317 84.5019C449.317 83.3114 448.355 82.333 447.157 82.333L436.025 82.333L429.603 76.899L429.603 82.333L425.927 82.333C424.741 82.333 423.767 83.2996 423.767 84.5019L423.767 98.423C423.755 99.6135 424.718 100.58 425.916 100.58Z" stroke="#FED402" stroke-width="2"/>
<path d="M37.0475 255.754L58.2887 255.754C59.4746 255.754 60.4492 254.787 60.4492 253.585L60.4492 239.676C60.4492 238.485 59.4864 237.507 58.2887 237.507L47.1573 237.507L40.7345 232.073L40.7345 237.507L37.0592 237.507C35.8733 237.507 34.8987 238.473 34.8987 239.676L34.8987 253.597C34.887 254.787 35.8498 255.754 37.0475 255.754Z" stroke="#FED402" stroke-width="2"/>
<path d="M231.481 255.754L252.722 255.754C253.908 255.754 254.883 254.787 254.883 253.585L254.883 239.676C254.883 238.485 253.92 237.507 252.722 237.507L241.591 237.507L235.168 232.073L235.168 237.507L231.493 237.507C230.307 237.507 229.332 238.473 229.332 239.676L229.332 253.597C229.321 254.787 230.283 255.754 231.481 255.754Z" stroke="#FED402" stroke-width="2"/>
<path d="M425.916 255.754L447.157 255.754C448.343 255.754 449.317 254.787 449.317 253.585L449.317 239.676C449.317 238.485 448.355 237.507 447.157 237.507L436.025 237.507L429.603 232.073L429.603 237.507L425.927 237.507C424.741 237.507 423.767 238.473 423.767 239.676L423.767 253.597C423.755 254.787 424.718 255.754 425.916 255.754Z" stroke="#FED402" stroke-width="2"/>
<path d="M69.4528 152.305L90.694 152.305C91.8799 152.305 92.8545 151.338 92.8545 150.136L92.8545 136.227C92.8545 135.036 91.8917 134.058 90.694 134.058L79.5626 134.058L73.1397 128.624L73.1397 134.058L69.4645 134.058C68.2786 134.058 67.304 135.024 67.304 136.227L67.304 150.148C67.2922 151.338 68.2551 152.305 69.4528 152.305Z" stroke="#FED402" stroke-width="2"/>
<path d="M263.887 152.305L285.129 152.305C286.314 152.305 287.289 151.338 287.289 150.136L287.289 136.227C287.289 135.036 286.326 134.058 285.129 134.058L273.997 134.058L267.574 128.624L267.574 134.058L263.899 134.058C262.713 134.058 261.739 135.024 261.739 136.227L261.739 150.148C261.727 151.338 262.69 152.305 263.887 152.305Z" stroke="#FED402" stroke-width="2"/>
<path d="M69.4528 100.58L90.694 100.58C91.8799 100.58 92.8545 99.6135 92.8545 98.4112L92.8545 84.5019C92.8545 83.3114 91.8917 82.333 90.694 82.333L79.5626 82.333L73.1397 76.899L73.1397 82.333L69.4645 82.333C68.2786 82.333 67.304 83.2996 67.304 84.5019L67.304 98.423C67.2922 99.6135 68.2551 100.58 69.4528 100.58Z" stroke="#FED402" stroke-width="2"/>
<path d="M263.887 100.58L285.129 100.58C286.314 100.58 287.289 99.6135 287.289 98.4112L287.289 84.5019C287.289 83.3114 286.326 82.333 285.129 82.333L273.997 82.333L267.574 76.899L267.574 82.333L263.899 82.333C262.713 82.333 261.739 83.2996 261.739 84.5019L261.739 98.423C261.727 99.6135 262.69 100.58 263.887 100.58Z" stroke="#FED402" stroke-width="2"/>
<path d="M69.4528 255.754L90.694 255.754C91.8799 255.754 92.8545 254.787 92.8545 253.585L92.8545 239.676C92.8545 238.485 91.8917 237.507 90.694 237.507L79.5626 237.507L73.1397 232.073L73.1397 237.507L69.4645 237.507C68.2786 237.507 67.304 238.473 67.304 239.676L67.304 253.597C67.2922 254.787 68.2551 255.754 69.4528 255.754Z" stroke="#FED402" stroke-width="2"/>
<path d="M263.887 255.754L285.129 255.754C286.314 255.754 287.289 254.787 287.289 253.585L287.289 239.676C287.289 238.485 286.326 237.507 285.129 237.507L273.997 237.507L267.574 232.073L267.574 237.507L263.899 237.507C262.713 237.507 261.739 238.473 261.739 239.676L261.739 253.597C261.727 254.787 262.69 255.754 263.887 255.754Z" stroke="#FED402" stroke-width="2"/>
<path d="M101.859 152.305L123.1 152.305C124.286 152.305 125.261 151.338 125.261 150.136L125.261 136.227C125.261 135.036 124.298 134.058 123.1 134.058L111.969 134.058L105.546 128.624L105.546 134.058L101.871 134.058C100.685 134.058 99.7102 135.024 99.7102 136.227L99.7102 150.148C99.6985 151.338 100.661 152.305 101.859 152.305Z" stroke="#FED402" stroke-width="2"/>
<path d="M296.293 152.305L317.534 152.305C318.72 152.305 319.694 151.338 319.694 150.136L319.694 136.227C319.694 135.036 318.731 134.058 317.534 134.058L306.402 134.058L299.98 128.624L299.98 134.058L296.304 134.058C295.118 134.058 294.144 135.024 294.144 136.227L294.144 150.148C294.132 151.338 295.095 152.305 296.293 152.305Z" stroke="#FED402" stroke-width="2"/>
<path d="M101.859 100.58L123.1 100.58C124.286 100.58 125.261 99.6135 125.261 98.4112L125.261 84.5019C125.261 83.3114 124.298 82.333 123.1 82.333L111.969 82.333L105.546 76.899L105.546 82.333L101.871 82.333C100.685 82.333 99.7102 83.2996 99.7102 84.5019L99.7102 98.423C99.6985 99.6135 100.661 100.58 101.859 100.58Z" stroke="#FED402" stroke-width="2"/>
<path d="M296.293 100.58L317.534 100.58C318.72 100.58 319.694 99.6135 319.694 98.4112L319.694 84.5019C319.694 83.3114 318.731 82.333 317.534 82.333L306.402 82.333L299.98 76.899L299.98 82.333L296.304 82.333C295.118 82.333 294.144 83.2996 294.144 84.5019L294.144 98.423C294.132 99.6135 295.095 100.58 296.293 100.58Z" stroke="#FED402" stroke-width="2"/>
<path d="M101.859 255.754L123.1 255.754C124.286 255.754 125.261 254.787 125.261 253.585L125.261 239.676C125.261 238.485 124.298 237.507 123.1 237.507L111.969 237.507L105.546 232.073L105.546 237.507L101.871 237.507C100.685 237.507 99.7102 238.473 99.7102 239.676L99.7102 253.597C99.6985 254.787 100.661 255.754 101.859 255.754Z" stroke="#FED402" stroke-width="2"/>
<path d="M296.293 255.754L317.534 255.754C318.72 255.754 319.694 254.787 319.694 253.585L319.694 239.676C319.694 238.485 318.731 237.507 317.534 237.507L306.402 237.507L299.98 232.073L299.98 237.507L296.304 237.507C295.118 237.507 294.144 238.473 294.144 239.676L294.144 253.597C294.132 254.787 295.095 255.754 296.293 255.754Z" stroke="#FED402" stroke-width="2"/>
</g>
<rect x="2" y="2" width="426" height="259" rx="27" fill="url(#paint0_linear_2005_7)"/>
</g>
<path d="M401.405 1.36642L401.406 1.36642C416.794 1.36642 429.151 13.7759 429 29.05L429 29.0598L429 204.142C429 219.583 416.479 231.992 401.25 231.992L236 231.992L235.474 231.992L235.176 232.425L215.011 261.714L195.362 232.435L195.065 231.994L194.534 231.992L28.7521 231.626L28.7498 231.626C13.3715 231.626 0.999962 219.066 0.999964 203.776L1.00005 28.8502C1.00005 13.4097 13.5208 1 28.7499 1.00001L248.01 1.18319L248.011 1.18319L401.405 1.36642Z" stroke="url(#paint1_linear_2005_7)" stroke-width="2"/>
<defs>
<linearGradient id="paint0_linear_2005_7" x1="2" y1="2" x2="449.915" y2="214.891" gradientUnits="userSpaceOnUse">
<stop/>
<stop offset="1" stop-opacity="0"/>
</linearGradient>
<linearGradient id="paint1_linear_2005_7" x1="0" y1="0" x2="168.349" y2="-116.198" gradientUnits="userSpaceOnUse">
<stop stop-color="#999999" stop-opacity="0.5"/>
<stop offset="1" stop-color="#FED402" stop-opacity="0.5"/>
</linearGradient>
</defs>
</svg>
