<svg width="280" height="206" viewBox="0 0 280 206" fill="none" xmlns="http://www.w3.org/2000/svg" preserveAspectRatio="none">
<path d="M261.38 0.239188L161.495 0.119584L18.7208 3.27325e-06C8.4447 1.47652e-06 -1.46744e-06 8.39276 -3.29278e-06 18.8325L-2.32577e-05 165.519C-2.50652e-05 175.856 8.34294 184.351 18.7208 184.351L207.741 184.59L234.744 204.5L234.744 184.59L261.278 184.59C271.554 184.59 279.999 176.198 279.999 165.758L279.999 18.9694C280.101 8.63196 271.758 0.239189 261.38 0.239188Z" fill="#120D0C"/>
<mask id="mask0_247_2696" style="mask-type:alpha" maskUnits="userSpaceOnUse" x="0" y="0" width="280" height="205">
<path d="M257.474 0.609375H22.6468C6.5116 0.609375 0 9.41204 0 21.9818L6.9765e-05 162.29C6.9765e-05 174.737 4.88378 184.64 22.6469 184.64L207.72 184.965L234.092 204.5V184.965H257.351C272.511 184.965 279.998 179.105 279.998 162.29L279.998 21.8585C280.121 9.41204 272.185 0.609375 257.474 0.609375Z" fill="#FFD500"/>
</mask>
<g mask="url(#mask0_247_2696)">
<g opacity="0.08">
<path d="M101.381 33.5977H87.584C86.8137 33.5977 86.1807 34.2255 86.1807 35.0064V44.041C86.1807 44.8143 86.8061 45.4498 87.584 45.4498H94.8143L98.9862 48.9794V45.4498H101.373C102.144 45.4498 102.777 44.822 102.777 44.041V34.9988C102.784 34.2255 102.159 33.5977 101.381 33.5977Z" fill="#FED402"/>
<path d="M227.674 33.5977H213.877C213.107 33.5977 212.474 34.2255 212.474 35.0064V44.041C212.474 44.8143 213.099 45.4498 213.877 45.4498H221.107L225.279 48.9794V45.4498H227.666C228.437 45.4498 229.07 44.822 229.07 44.041V34.9988C229.077 34.2255 228.452 33.5977 227.674 33.5977Z" fill="#FED402"/>
<path d="M101.381 134.389H87.584C86.8137 134.389 86.1807 135.016 86.1807 135.797V144.832C86.1807 145.605 86.8061 146.241 87.584 146.241H94.8143L98.9862 149.77V146.241H101.373C102.144 146.241 102.777 145.613 102.777 144.832V135.79C102.784 135.017 102.159 134.389 101.381 134.389Z" fill="#FED402"/>
<path d="M227.674 134.389H213.877C213.107 134.389 212.474 135.016 212.474 135.797V144.832C212.474 145.605 213.099 146.241 213.877 146.241H221.107L225.279 149.77V146.241H227.666C228.437 146.241 229.07 145.613 229.07 144.832V135.79C229.077 135.017 228.452 134.389 227.674 134.389Z" fill="#FED402"/>
<path d="M122.43 33.5977H108.633C107.863 33.5977 107.229 34.2255 107.229 35.0064V44.041C107.229 44.8143 107.855 45.4498 108.633 45.4498H115.863L120.035 48.9794V45.4498H122.422C123.193 45.4498 123.826 44.822 123.826 44.041V34.9988C123.833 34.2255 123.208 33.5977 122.43 33.5977Z" fill="#FED402"/>
<path d="M248.723 33.5977H234.926C234.155 33.5977 233.522 34.2255 233.522 35.0064V44.041C233.522 44.8143 234.148 45.4498 234.926 45.4498H242.156L246.328 48.9794V45.4498H248.715C249.485 45.4498 250.119 44.822 250.119 44.041V34.9988C250.126 34.2255 249.501 33.5977 248.723 33.5977Z" fill="#FED402"/>
<path d="M122.43 134.389H108.633C107.863 134.389 107.229 135.016 107.229 135.797V144.832C107.229 145.605 107.855 146.241 108.633 146.241H115.863L120.035 149.77V146.241H122.422C123.193 146.241 123.826 145.613 123.826 144.832V135.79C123.833 135.017 123.208 134.389 122.43 134.389Z" fill="#FED402"/>
<path d="M248.723 134.389H234.926C234.155 134.389 233.522 135.016 233.522 135.797V144.832C233.522 145.605 234.148 146.241 234.926 146.241H242.156L246.328 149.77V146.241H248.715C249.485 146.241 250.119 145.613 250.119 144.832V135.79C250.126 135.017 249.501 134.389 248.723 134.389Z" fill="#FED402"/>
<path d="M17.1867 33.5977H3.38967C2.61936 33.5977 1.98633 34.2255 1.98633 35.0064V44.041C1.98633 44.8143 2.61173 45.4498 3.38967 45.4498H10.6199L14.7918 48.9794V45.4498H17.1791C17.9494 45.4498 18.5824 44.822 18.5824 44.041V34.9988C18.59 34.2255 17.9646 33.5977 17.1867 33.5977Z" fill="#FED402"/>
<path d="M143.479 33.5977H129.682C128.911 33.5977 128.278 34.2255 128.278 35.0064V44.041C128.278 44.8143 128.904 45.4498 129.682 45.4498H136.912L141.084 48.9794V45.4498H143.471C144.241 45.4498 144.874 44.822 144.874 44.041V34.9988C144.882 34.2255 144.257 33.5977 143.479 33.5977Z" fill="#FED402"/>
<path d="M269.772 33.5977H255.975C255.204 33.5977 254.571 34.2255 254.571 35.0064V44.041C254.571 44.8143 255.197 45.4498 255.975 45.4498H263.205L267.377 48.9794V45.4498H269.764C270.534 45.4498 271.167 44.822 271.167 44.041V34.9988C271.175 34.2255 270.55 33.5977 269.772 33.5977Z" fill="#FED402"/>
<path d="M17.1867 134.389H3.38967C2.61936 134.389 1.98633 135.016 1.98633 135.797V144.832C1.98633 145.605 2.61173 146.241 3.38967 146.241H10.6199L14.7918 149.77V146.241H17.1791C17.9494 146.241 18.5824 145.613 18.5824 144.832V135.79C18.59 135.017 17.9646 134.389 17.1867 134.389Z" fill="#FED402"/>
<path d="M143.479 134.389H129.682C128.911 134.389 128.278 135.016 128.278 135.797V144.832C128.278 145.605 128.904 146.241 129.682 146.241H136.912L141.084 149.77V146.241H143.471C144.241 146.241 144.874 145.613 144.874 144.832V135.79C144.882 135.017 144.257 134.389 143.479 134.389Z" fill="#FED402"/>
<path d="M269.772 134.389H255.975C255.204 134.389 254.571 135.016 254.571 135.797V144.832C254.571 145.605 255.197 146.241 255.975 146.241H263.205L267.377 149.77V146.241H269.764C270.534 146.241 271.167 145.613 271.167 144.832V135.79C271.175 135.017 270.55 134.389 269.772 134.389Z" fill="#FED402"/>
<path d="M38.2345 33.5977H24.4375C23.6672 33.5977 23.0342 34.2255 23.0342 35.0064V44.041C23.0342 44.8143 23.6596 45.4498 24.4375 45.4498H31.6678L35.8397 48.9794V45.4498H38.2269C38.9972 45.4498 39.6302 44.822 39.6302 44.041V34.9988C39.6379 34.2255 39.0125 33.5977 38.2345 33.5977Z" fill="#FED402"/>
<path d="M164.528 33.5977H150.731C149.961 33.5977 149.328 34.2255 149.328 35.0064V44.041C149.328 44.8143 149.954 45.4498 150.731 45.4498H157.962L162.134 48.9794V45.4498H164.521C165.291 45.4498 165.924 44.822 165.924 44.041V34.9988C165.932 34.2255 165.306 33.5977 164.528 33.5977Z" fill="#FED402"/>
<path d="M290.82 33.5977H277.023C276.253 33.5977 275.62 34.2255 275.62 35.0064V44.041C275.62 44.8143 276.246 45.4498 277.023 45.4498H284.254L288.426 48.9794V45.4498H290.813C291.583 45.4498 292.216 44.822 292.216 44.041V34.9988C292.224 34.2255 291.598 33.5977 290.82 33.5977Z" fill="#FED402"/>
<path d="M38.2345 134.389H24.4375C23.6672 134.389 23.0342 135.016 23.0342 135.797V144.832C23.0342 145.605 23.6596 146.241 24.4375 146.241H31.6678L35.8397 149.77V146.241H38.2269C38.9972 146.241 39.6302 145.613 39.6302 144.832V135.79C39.6379 135.017 39.0125 134.389 38.2345 134.389Z" fill="#FED402"/>
<path d="M164.528 134.389H150.731C149.961 134.389 149.328 135.016 149.328 135.797V144.832C149.328 145.605 149.954 146.241 150.731 146.241H157.962L162.134 149.77V146.241H164.521C165.291 146.241 165.924 145.613 165.924 144.832V135.79C165.932 135.017 165.306 134.389 164.528 134.389Z" fill="#FED402"/>
<path d="M290.82 134.389H277.023C276.253 134.389 275.62 135.016 275.62 135.797V144.832C275.62 145.605 276.246 146.241 277.023 146.241H284.254L288.426 149.77V146.241H290.813C291.583 146.241 292.216 145.613 292.216 144.832V135.79C292.224 135.017 291.598 134.389 290.82 134.389Z" fill="#FED402"/>
<path d="M59.2843 33.5977H45.4873C44.717 33.5977 44.084 34.2255 44.084 35.0064V44.041C44.084 44.8143 44.7094 45.4498 45.4873 45.4498H52.7176L56.8895 48.9794V45.4498H59.2767C60.047 45.4498 60.6801 44.822 60.6801 44.041V34.9988C60.6877 34.2255 60.0623 33.5977 59.2843 33.5977Z" fill="#FED402"/>
<path d="M185.576 33.5977H171.779C171.009 33.5977 170.376 34.2255 170.376 35.0064V44.041C170.376 44.8143 171.001 45.4498 171.779 45.4498H179.01L183.181 48.9794V45.4498H185.569C186.339 45.4498 186.972 44.822 186.972 44.041V34.9988C186.98 34.2255 186.354 33.5977 185.576 33.5977Z" fill="#FED402"/>
<path d="M59.2843 134.389H45.4873C44.717 134.389 44.084 135.016 44.084 135.797V144.832C44.084 145.605 44.7094 146.241 45.4873 146.241H52.7176L56.8895 149.77V146.241H59.2767C60.047 146.241 60.6801 145.613 60.6801 144.832V135.79C60.6877 135.017 60.0623 134.389 59.2843 134.389Z" fill="#FED402"/>
<path d="M185.576 134.389H171.779C171.009 134.389 170.376 135.016 170.376 135.797V144.832C170.376 145.605 171.001 146.241 171.779 146.241H179.01L183.181 149.77V146.241H185.569C186.339 146.241 186.972 145.613 186.972 144.832V135.79C186.98 135.017 186.354 134.389 185.576 134.389Z" fill="#FED402"/>
<path d="M80.3332 33.5977H66.5362C65.7658 33.5977 65.1328 34.2255 65.1328 35.0064V44.041C65.1328 44.8143 65.7582 45.4498 66.5362 45.4498H73.7664L77.9383 48.9794V45.4498H80.3255C81.0958 45.4498 81.7289 44.822 81.7289 44.041V34.9988C81.7365 34.2255 81.1111 33.5977 80.3332 33.5977Z" fill="#FED402"/>
<path d="M206.625 33.5977H192.828C192.058 33.5977 191.425 34.2255 191.425 35.0064V44.041C191.425 44.8143 192.05 45.4498 192.828 45.4498H200.058L204.23 48.9794V45.4498H206.618C207.388 45.4498 208.021 44.822 208.021 44.041V34.9988C208.028 34.2255 207.403 33.5977 206.625 33.5977Z" fill="#FED402"/>
<path d="M80.3332 134.389H66.5362C65.7658 134.389 65.1328 135.016 65.1328 135.797V144.832C65.1328 145.605 65.7582 146.241 66.5362 146.241H73.7664L77.9383 149.77V146.241H80.3255C81.0958 146.241 81.7289 145.613 81.7289 144.832V135.79C81.7365 135.017 81.1111 134.389 80.3332 134.389Z" fill="#FED402"/>
<path d="M206.625 134.389H192.828C192.058 134.389 191.425 135.016 191.425 135.797V144.832C191.425 145.605 192.05 146.241 192.828 146.241H200.058L204.23 149.77V146.241H206.618C207.388 146.241 208.021 145.613 208.021 144.832V135.79C208.028 135.017 207.403 134.389 206.625 134.389Z" fill="#FED402"/>
<path d="M101.381 0H87.584C86.8137 0 86.1807 0.627828 86.1807 1.40878V10.4434C86.1807 11.2167 86.8061 11.8522 87.584 11.8522H94.8143L98.9862 15.3818V11.8522H101.373C102.144 11.8522 102.777 11.2243 102.777 10.4434V1.40113C102.784 0.627828 102.159 0 101.381 0Z" fill="#FED402"/>
<path d="M227.674 0H213.877C213.107 0 212.474 0.627828 212.474 1.40878V10.4434C212.474 11.2167 213.099 11.8522 213.877 11.8522H221.107L225.279 15.3818V11.8522H227.666C228.437 11.8522 229.07 11.2243 229.07 10.4434V1.40113C229.077 0.627828 228.452 0 227.674 0Z" fill="#FED402"/>
<path d="M101.381 100.791H87.584C86.8137 100.791 86.1807 101.419 86.1807 102.2V111.234C86.1807 112.008 86.8061 112.643 87.584 112.643H94.8143L98.9862 116.173V112.643H101.373C102.144 112.643 102.777 112.015 102.777 111.234V102.192C102.784 101.419 102.159 100.791 101.381 100.791Z" fill="#FED402"/>
<path d="M227.674 100.791H213.877C213.107 100.791 212.474 101.419 212.474 102.2V111.234C212.474 112.008 213.099 112.643 213.877 112.643H221.107L225.279 116.173V112.643H227.666C228.437 112.643 229.07 112.015 229.07 111.234V102.192C229.077 101.419 228.452 100.791 227.674 100.791Z" fill="#FED402"/>
<path d="M101.381 67.1934H87.584C86.8137 67.1934 86.1807 67.8212 86.1807 68.6021V77.6367C86.1807 78.41 86.8061 79.0455 87.584 79.0455H94.8143L98.9862 82.5751V79.0455H101.373C102.144 79.0455 102.777 78.4177 102.777 77.6367V68.5945C102.784 67.8212 102.159 67.1934 101.381 67.1934Z" fill="#FED402"/>
<path d="M227.674 67.1934H213.877C213.107 67.1934 212.474 67.8212 212.474 68.6021V77.6367C212.474 78.41 213.099 79.0455 213.877 79.0455H221.107L225.279 82.5751V79.0455H227.666C228.437 79.0455 229.07 78.4177 229.07 77.6367V68.5945C229.077 67.8212 228.452 67.1934 227.674 67.1934Z" fill="#FED402"/>
<path d="M101.381 167.984H87.584C86.8137 167.984 86.1807 168.612 86.1807 169.393V178.428C86.1807 179.201 86.8061 179.837 87.584 179.837H94.8143L98.9862 183.366V179.837H101.373C102.144 179.837 102.777 179.209 102.777 178.428V169.386C102.784 168.612 102.159 167.984 101.381 167.984Z" fill="#FED402"/>
<path d="M227.674 167.984H213.877C213.107 167.984 212.474 168.612 212.474 169.393V178.428C212.474 179.201 213.099 179.837 213.877 179.837H221.107L225.279 183.366V179.837H227.666C228.437 179.837 229.07 179.209 229.07 178.428V169.386C229.077 168.612 228.452 167.984 227.674 167.984Z" fill="#FED402"/>
<path d="M122.43 0H108.633C107.863 0 107.229 0.627828 107.229 1.40878V10.4434C107.229 11.2167 107.855 11.8522 108.633 11.8522H115.863L120.035 15.3818V11.8522H122.422C123.193 11.8522 123.826 11.2243 123.826 10.4434V1.40113C123.833 0.627828 123.208 0 122.43 0Z" fill="#FED402"/>
<path d="M248.723 0H234.926C234.155 0 233.522 0.627828 233.522 1.40878V10.4434C233.522 11.2167 234.148 11.8522 234.926 11.8522H242.156L246.328 15.3818V11.8522H248.715C249.485 11.8522 250.119 11.2243 250.119 10.4434V1.40113C250.126 0.627828 249.501 0 248.723 0Z" fill="#FED402"/>
<path d="M122.43 100.791H108.633C107.863 100.791 107.229 101.419 107.229 102.2V111.234C107.229 112.008 107.855 112.643 108.633 112.643H115.863L120.035 116.173V112.643H122.422C123.193 112.643 123.826 112.015 123.826 111.234V102.192C123.833 101.419 123.208 100.791 122.43 100.791Z" fill="#FED402"/>
<path d="M248.723 100.791H234.926C234.155 100.791 233.522 101.419 233.522 102.2V111.234C233.522 112.008 234.148 112.643 234.926 112.643H242.156L246.328 116.173V112.643H248.715C249.485 112.643 250.119 112.015 250.119 111.234V102.192C250.126 101.419 249.501 100.791 248.723 100.791Z" fill="#FED402"/>
<path d="M122.43 67.1934H108.633C107.863 67.1934 107.229 67.8212 107.229 68.6021V77.6367C107.229 78.41 107.855 79.0455 108.633 79.0455H115.863L120.035 82.5751V79.0455H122.422C123.193 79.0455 123.826 78.4177 123.826 77.6367V68.5945C123.833 67.8212 123.208 67.1934 122.43 67.1934Z" fill="#FED402"/>
<path d="M248.723 67.1934H234.926C234.155 67.1934 233.522 67.8212 233.522 68.6021V77.6367C233.522 78.41 234.148 79.0455 234.926 79.0455H242.156L246.328 82.5751V79.0455H248.715C249.485 79.0455 250.119 78.4177 250.119 77.6367V68.5945C250.126 67.8212 249.501 67.1934 248.723 67.1934Z" fill="#FED402"/>
<path d="M122.43 167.984H108.633C107.863 167.984 107.229 168.612 107.229 169.393V178.428C107.229 179.201 107.855 179.837 108.633 179.837H115.863L120.035 183.366V179.837H122.422C123.193 179.837 123.826 179.209 123.826 178.428V169.386C123.833 168.612 123.208 167.984 122.43 167.984Z" fill="#FED402"/>
<path d="M248.723 167.984H234.926C234.155 167.984 233.522 168.612 233.522 169.393V178.428C233.522 179.201 234.148 179.837 234.926 179.837H242.156L246.328 183.366V179.837H248.715C249.485 179.837 250.119 179.209 250.119 178.428V169.386C250.126 168.612 249.501 167.984 248.723 167.984Z" fill="#FED402"/>
<path d="M17.1867 0H3.38967C2.61936 0 1.98633 0.627828 1.98633 1.40878V10.4434C1.98633 11.2167 2.61173 11.8522 3.38967 11.8522H10.6199L14.7918 15.3818V11.8522H17.1791C17.9494 11.8522 18.5824 11.2243 18.5824 10.4434V1.40113C18.59 0.627828 17.9646 0 17.1867 0Z" fill="#FED402"/>
<path d="M143.479 0H129.682C128.911 0 128.278 0.627828 128.278 1.40878V10.4434C128.278 11.2167 128.904 11.8522 129.682 11.8522H136.912L141.084 15.3818V11.8522H143.471C144.241 11.8522 144.874 11.2243 144.874 10.4434V1.40113C144.882 0.627828 144.257 0 143.479 0Z" fill="#FED402"/>
<path d="M269.772 0H255.975C255.204 0 254.571 0.627828 254.571 1.40878V10.4434C254.571 11.2167 255.197 11.8522 255.975 11.8522H263.205L267.377 15.3818V11.8522H269.764C270.534 11.8522 271.167 11.2243 271.167 10.4434V1.40113C271.175 0.627828 270.55 0 269.772 0Z" fill="#FED402"/>
<path d="M17.1867 100.791H3.38967C2.61936 100.791 1.98633 101.419 1.98633 102.2V111.234C1.98633 112.008 2.61173 112.643 3.38967 112.643H10.6199L14.7918 116.173V112.643H17.1791C17.9494 112.643 18.5824 112.015 18.5824 111.234V102.192C18.59 101.419 17.9646 100.791 17.1867 100.791Z" fill="#FED402"/>
<path d="M143.479 100.791H129.682C128.911 100.791 128.278 101.419 128.278 102.2V111.234C128.278 112.008 128.904 112.643 129.682 112.643H136.912L141.084 116.173V112.643H143.471C144.241 112.643 144.874 112.015 144.874 111.234V102.192C144.882 101.419 144.257 100.791 143.479 100.791Z" fill="#FED402"/>
<path d="M269.772 100.791H255.975C255.204 100.791 254.571 101.419 254.571 102.2V111.234C254.571 112.008 255.197 112.643 255.975 112.643H263.205L267.377 116.173V112.643H269.764C270.534 112.643 271.167 112.015 271.167 111.234V102.192C271.175 101.419 270.55 100.791 269.772 100.791Z" fill="#FED402"/>
<path d="M17.1867 67.1934H3.38967C2.61936 67.1934 1.98633 67.8212 1.98633 68.6021V77.6367C1.98633 78.41 2.61173 79.0455 3.38967 79.0455H10.6199L14.7918 82.5751V79.0455H17.1791C17.9494 79.0455 18.5824 78.4177 18.5824 77.6367V68.5945C18.59 67.8212 17.9646 67.1934 17.1867 67.1934Z" fill="#FED402"/>
<path d="M143.479 67.1934H129.682C128.911 67.1934 128.278 67.8212 128.278 68.6021V77.6367C128.278 78.41 128.904 79.0455 129.682 79.0455H136.912L141.084 82.5751V79.0455H143.471C144.241 79.0455 144.874 78.4177 144.874 77.6367V68.5945C144.882 67.8212 144.257 67.1934 143.479 67.1934Z" fill="#FED402"/>
<path d="M269.772 67.1934H255.975C255.204 67.1934 254.571 67.8212 254.571 68.6021V77.6367C254.571 78.41 255.197 79.0455 255.975 79.0455H263.205L267.377 82.5751V79.0455H269.764C270.534 79.0455 271.167 78.4177 271.167 77.6367V68.5945C271.175 67.8212 270.55 67.1934 269.772 67.1934Z" fill="#FED402"/>
<path d="M17.1867 167.984H3.38967C2.61936 167.984 1.98633 168.612 1.98633 169.393V178.428C1.98633 179.201 2.61173 179.837 3.38967 179.837H10.6199L14.7918 183.366V179.837H17.1791C17.9494 179.837 18.5824 179.209 18.5824 178.428V169.386C18.59 168.612 17.9646 167.984 17.1867 167.984Z" fill="#FED402"/>
<path d="M143.479 167.984H129.682C128.911 167.984 128.278 168.612 128.278 169.393V178.428C128.278 179.201 128.904 179.837 129.682 179.837H136.912L141.084 183.366V179.837H143.471C144.241 179.837 144.874 179.209 144.874 178.428V169.386C144.882 168.612 144.257 167.984 143.479 167.984Z" fill="#FED402"/>
<path d="M269.772 167.984H255.975C255.204 167.984 254.571 168.612 254.571 169.393V178.428C254.571 179.201 255.197 179.837 255.975 179.837H263.205L267.377 183.366V179.837H269.764C270.534 179.837 271.167 179.209 271.167 178.428V169.386C271.175 168.612 270.55 167.984 269.772 167.984Z" fill="#FED402"/>
<path d="M38.2345 0H24.4375C23.6672 0 23.0342 0.627828 23.0342 1.40878V10.4434C23.0342 11.2167 23.6596 11.8522 24.4375 11.8522H31.6678L35.8397 15.3818V11.8522H38.2269C38.9972 11.8522 39.6302 11.2243 39.6302 10.4434V1.40113C39.6379 0.627828 39.0125 0 38.2345 0Z" fill="#FED402"/>
<path d="M164.528 0H150.731C149.961 0 149.328 0.627828 149.328 1.40878V10.4434C149.328 11.2167 149.954 11.8522 150.731 11.8522H157.962L162.134 15.3818V11.8522H164.521C165.291 11.8522 165.924 11.2243 165.924 10.4434V1.40113C165.932 0.627828 165.306 0 164.528 0Z" fill="#FED402"/>
<path d="M290.82 0H277.023C276.253 0 275.62 0.627828 275.62 1.40878V10.4434C275.62 11.2167 276.246 11.8522 277.023 11.8522H284.254L288.426 15.3818V11.8522H290.813C291.583 11.8522 292.216 11.2243 292.216 10.4434V1.40113C292.224 0.627828 291.598 0 290.82 0Z" fill="#FED402"/>
<path d="M38.2345 100.791H24.4375C23.6672 100.791 23.0342 101.419 23.0342 102.2V111.234C23.0342 112.008 23.6596 112.643 24.4375 112.643H31.6678L35.8397 116.173V112.643H38.2269C38.9972 112.643 39.6302 112.015 39.6302 111.234V102.192C39.6379 101.419 39.0125 100.791 38.2345 100.791Z" fill="#FED402"/>
<path d="M164.528 100.791H150.731C149.961 100.791 149.328 101.419 149.328 102.2V111.234C149.328 112.008 149.954 112.643 150.731 112.643H157.962L162.134 116.173V112.643H164.521C165.291 112.643 165.924 112.015 165.924 111.234V102.192C165.932 101.419 165.306 100.791 164.528 100.791Z" fill="#FED402"/>
<path d="M290.82 100.791H277.023C276.253 100.791 275.62 101.419 275.62 102.2V111.234C275.62 112.008 276.246 112.643 277.023 112.643H284.254L288.426 116.173V112.643H290.813C291.583 112.643 292.216 112.015 292.216 111.234V102.192C292.224 101.419 291.598 100.791 290.82 100.791Z" fill="#FED402"/>
<path d="M38.2345 67.1934H24.4375C23.6672 67.1934 23.0342 67.8212 23.0342 68.6021V77.6367C23.0342 78.41 23.6596 79.0455 24.4375 79.0455H31.6678L35.8397 82.5751V79.0455H38.2269C38.9972 79.0455 39.6302 78.4177 39.6302 77.6367V68.5945C39.6379 67.8212 39.0125 67.1934 38.2345 67.1934Z" fill="#FED402"/>
<path d="M164.528 67.1934H150.731C149.961 67.1934 149.328 67.8212 149.328 68.6021V77.6367C149.328 78.41 149.954 79.0455 150.731 79.0455H157.962L162.134 82.5751V79.0455H164.521C165.291 79.0455 165.924 78.4177 165.924 77.6367V68.5945C165.932 67.8212 165.306 67.1934 164.528 67.1934Z" fill="#FED402"/>
<path d="M290.82 67.1934H277.023C276.253 67.1934 275.62 67.8212 275.62 68.6021V77.6367C275.62 78.41 276.246 79.0455 277.023 79.0455H284.254L288.426 82.5751V79.0455H290.813C291.583 79.0455 292.216 78.4177 292.216 77.6367V68.5945C292.224 67.8212 291.598 67.1934 290.82 67.1934Z" fill="#FED402"/>
<path d="M38.2345 167.984H24.4375C23.6672 167.984 23.0342 168.612 23.0342 169.393V178.428C23.0342 179.201 23.6596 179.837 24.4375 179.837H31.6678L35.8397 183.366V179.837H38.2269C38.9972 179.837 39.6302 179.209 39.6302 178.428V169.386C39.6379 168.612 39.0125 167.984 38.2345 167.984Z" fill="#FED402"/>
<path d="M164.528 167.984H150.731C149.961 167.984 149.328 168.612 149.328 169.393V178.428C149.328 179.201 149.954 179.837 150.731 179.837H157.962L162.134 183.366V179.837H164.521C165.291 179.837 165.924 179.209 165.924 178.428V169.386C165.932 168.612 165.306 167.984 164.528 167.984Z" fill="#FED402"/>
<path d="M290.82 167.984H277.023C276.253 167.984 275.62 168.612 275.62 169.393V178.428C275.62 179.201 276.246 179.837 277.023 179.837H284.254L288.426 183.366V179.837H290.813C291.583 179.837 292.216 179.209 292.216 178.428V169.386C292.224 168.612 291.598 167.984 290.82 167.984Z" fill="#FED402"/>
<path d="M59.2843 0H45.4873C44.717 0 44.084 0.627828 44.084 1.40878V10.4434C44.084 11.2167 44.7094 11.8522 45.4873 11.8522H52.7176L56.8895 15.3818V11.8522H59.2767C60.047 11.8522 60.6801 11.2243 60.6801 10.4434V1.40113C60.6877 0.627828 60.0623 0 59.2843 0Z" fill="#FED402"/>
<path d="M185.576 0H171.779C171.009 0 170.376 0.627828 170.376 1.40878V10.4434C170.376 11.2167 171.001 11.8522 171.779 11.8522H179.01L183.181 15.3818V11.8522H185.569C186.339 11.8522 186.972 11.2243 186.972 10.4434V1.40113C186.98 0.627828 186.354 0 185.576 0Z" fill="#FED402"/>
<path d="M59.2843 100.791H45.4873C44.717 100.791 44.084 101.419 44.084 102.2V111.234C44.084 112.008 44.7094 112.643 45.4873 112.643H52.7176L56.8895 116.173V112.643H59.2767C60.047 112.643 60.6801 112.015 60.6801 111.234V102.192C60.6877 101.419 60.0623 100.791 59.2843 100.791Z" fill="#FED402"/>
<path d="M185.576 100.791H171.779C171.009 100.791 170.376 101.419 170.376 102.2V111.234C170.376 112.008 171.001 112.643 171.779 112.643H179.01L183.181 116.173V112.643H185.569C186.339 112.643 186.972 112.015 186.972 111.234V102.192C186.98 101.419 186.354 100.791 185.576 100.791Z" fill="#FED402"/>
<path d="M59.2843 67.1934H45.4873C44.717 67.1934 44.084 67.8212 44.084 68.6021V77.6367C44.084 78.41 44.7094 79.0455 45.4873 79.0455H52.7176L56.8895 82.5751V79.0455H59.2767C60.047 79.0455 60.6801 78.4177 60.6801 77.6367V68.5945C60.6877 67.8212 60.0623 67.1934 59.2843 67.1934Z" fill="#FED402"/>
<path d="M185.576 67.1934H171.779C171.009 67.1934 170.376 67.8212 170.376 68.6021V77.6367C170.376 78.41 171.001 79.0455 171.779 79.0455H179.01L183.181 82.5751V79.0455H185.569C186.339 79.0455 186.972 78.4177 186.972 77.6367V68.5945C186.98 67.8212 186.354 67.1934 185.576 67.1934Z" fill="#FED402"/>
<path d="M59.2843 167.984H45.4873C44.717 167.984 44.084 168.612 44.084 169.393V178.428C44.084 179.201 44.7094 179.837 45.4873 179.837H52.7176L56.8895 183.366V179.837H59.2767C60.047 179.837 60.6801 179.209 60.6801 178.428V169.386C60.6877 168.612 60.0623 167.984 59.2843 167.984Z" fill="#FED402"/>
<path d="M185.576 167.984H171.779C171.009 167.984 170.376 168.612 170.376 169.393V178.428C170.376 179.201 171.001 179.837 171.779 179.837H179.01L183.181 183.366V179.837H185.569C186.339 179.837 186.972 179.209 186.972 178.428V169.386C186.98 168.612 186.354 167.984 185.576 167.984Z" fill="#FED402"/>
<path d="M80.3332 0H66.5362C65.7658 0 65.1328 0.627828 65.1328 1.40878V10.4434C65.1328 11.2167 65.7582 11.8522 66.5362 11.8522H73.7664L77.9383 15.3818V11.8522H80.3255C81.0958 11.8522 81.7289 11.2243 81.7289 10.4434V1.40113C81.7365 0.627828 81.1111 0 80.3332 0Z" fill="#FED402"/>
<path d="M206.625 0H192.828C192.058 0 191.425 0.627828 191.425 1.40878V10.4434C191.425 11.2167 192.05 11.8522 192.828 11.8522H200.058L204.23 15.3818V11.8522H206.618C207.388 11.8522 208.021 11.2243 208.021 10.4434V1.40113C208.028 0.627828 207.403 0 206.625 0Z" fill="#FED402"/>
<path d="M80.3332 100.791H66.5362C65.7658 100.791 65.1328 101.419 65.1328 102.2V111.234C65.1328 112.008 65.7582 112.643 66.5362 112.643H73.7664L77.9383 116.173V112.643H80.3255C81.0958 112.643 81.7289 112.015 81.7289 111.234V102.192C81.7365 101.419 81.1111 100.791 80.3332 100.791Z" fill="#FED402"/>
<path d="M206.625 100.791H192.828C192.058 100.791 191.425 101.419 191.425 102.2V111.234C191.425 112.008 192.05 112.643 192.828 112.643H200.058L204.23 116.173V112.643H206.618C207.388 112.643 208.021 112.015 208.021 111.234V102.192C208.028 101.419 207.403 100.791 206.625 100.791Z" fill="#FED402"/>
<path d="M80.3332 67.1934H66.5362C65.7658 67.1934 65.1328 67.8212 65.1328 68.6021V77.6367C65.1328 78.41 65.7582 79.0455 66.5362 79.0455H73.7664L77.9383 82.5751V79.0455H80.3255C81.0958 79.0455 81.7289 78.4177 81.7289 77.6367V68.5945C81.7365 67.8212 81.1111 67.1934 80.3332 67.1934Z" fill="#FED402"/>
<path d="M206.625 67.1934H192.828C192.058 67.1934 191.425 67.8212 191.425 68.6021V77.6367C191.425 78.41 192.05 79.0455 192.828 79.0455H200.058L204.23 82.5751V79.0455H206.618C207.388 79.0455 208.021 78.4177 208.021 77.6367V68.5945C208.028 67.8212 207.403 67.1934 206.625 67.1934Z" fill="#FED402"/>
<path d="M80.3332 167.984H66.5362C65.7658 167.984 65.1328 168.612 65.1328 169.393V178.428C65.1328 179.201 65.7582 179.837 66.5362 179.837H73.7664L77.9383 183.366V179.837H80.3255C81.0958 179.837 81.7289 179.209 81.7289 178.428V169.386C81.7365 168.612 81.1111 167.984 80.3332 167.984Z" fill="#FED402"/>
<path d="M206.625 167.984H192.828C192.058 167.984 191.425 168.612 191.425 169.393V178.428C191.425 179.201 192.05 179.837 192.828 179.837H200.058L204.23 183.366V179.837H206.618C207.388 179.837 208.021 179.209 208.021 178.428V169.386C208.028 168.612 207.403 167.984 206.625 167.984Z" fill="#FED402"/>
<path d="M87.577 63.5508L101.374 63.5508C102.144 63.5508 102.777 62.923 102.777 62.142L102.777 53.1074C102.777 52.3341 102.152 51.6986 101.374 51.6986L94.1437 51.6986L89.9718 48.169L89.9718 51.6986L87.5846 51.6986C86.8143 51.6986 86.1813 52.3264 86.1813 53.1074L86.1813 62.1497C86.1736 62.923 86.7991 63.5508 87.577 63.5508Z" stroke="#FED402" stroke-width="2"/>
<path d="M213.87 63.5508L227.667 63.5508C228.437 63.5508 229.07 62.923 229.07 62.142L229.07 53.1074C229.07 52.3341 228.445 51.6986 227.667 51.6986L220.437 51.6986L216.265 48.169L216.265 51.6986L213.878 51.6986C213.107 51.6986 212.474 52.3264 212.474 53.1074L212.474 62.1497C212.467 62.923 213.092 63.5508 213.87 63.5508Z" stroke="#FED402" stroke-width="2"/>
<path d="M87.577 164.342L101.374 164.342C102.144 164.342 102.777 163.714 102.777 162.933L102.777 153.898C102.777 153.125 102.152 152.49 101.374 152.49L94.1437 152.49L89.9718 148.96L89.9718 152.49L87.5846 152.49C86.8143 152.49 86.1813 153.117 86.1813 153.898L86.1813 162.941C86.1736 163.714 86.7991 164.342 87.577 164.342Z" stroke="#FED402" stroke-width="2"/>
<path d="M213.87 164.342L227.667 164.342C228.437 164.342 229.07 163.714 229.07 162.933L229.07 153.898C229.07 153.125 228.445 152.49 227.667 152.49L220.437 152.49L216.265 148.96L216.265 152.49L213.878 152.49C213.107 152.49 212.474 153.117 212.474 153.898L212.474 162.941C212.467 163.714 213.092 164.342 213.87 164.342Z" stroke="#FED402" stroke-width="2"/>
<path d="M108.626 63.5508L122.423 63.5508C123.193 63.5508 123.826 62.923 123.826 62.142L123.826 53.1074C123.826 52.3341 123.201 51.6986 122.423 51.6986L115.193 51.6986L111.021 48.169L111.021 51.6986L108.633 51.6986C107.863 51.6986 107.23 52.3264 107.23 53.1074L107.23 62.1497C107.222 62.923 107.848 63.5508 108.626 63.5508Z" stroke="#FED402" stroke-width="2"/>
<path d="M234.918 63.5508L248.715 63.5508C249.485 63.5508 250.118 62.923 250.118 62.142L250.118 53.1074C250.118 52.3341 249.493 51.6986 248.715 51.6986L241.485 51.6986L237.313 48.169L237.313 51.6986L234.925 51.6986C234.155 51.6986 233.522 52.3264 233.522 53.1074L233.522 62.1497C233.514 62.923 234.14 63.5508 234.918 63.5508Z" stroke="#FED402" stroke-width="2"/>
<path d="M108.626 164.342L122.423 164.342C123.193 164.342 123.826 163.714 123.826 162.933L123.826 153.898C123.826 153.125 123.201 152.49 122.423 152.49L115.193 152.49L111.021 148.96L111.021 152.49L108.633 152.49C107.863 152.49 107.23 153.117 107.23 153.898L107.23 162.941C107.222 163.714 107.848 164.342 108.626 164.342Z" stroke="#FED402" stroke-width="2"/>
<path d="M234.918 164.342L248.715 164.342C249.485 164.342 250.118 163.714 250.118 162.933L250.118 153.898C250.118 153.125 249.493 152.49 248.715 152.49L241.485 152.49L237.313 148.96L237.313 152.49L234.925 152.49C234.155 152.49 233.522 153.117 233.522 153.898L233.522 162.941C233.514 163.714 234.14 164.342 234.918 164.342Z" stroke="#FED402" stroke-width="2"/>
<path d="M3.38266 63.5508L17.1797 63.5508C17.95 63.5508 18.583 62.923 18.583 62.142L18.583 53.1074C18.583 52.3341 17.9576 51.6986 17.1797 51.6986L9.94939 51.6986L5.7775 48.169L5.7775 51.6986L3.39029 51.6986C2.61997 51.6986 1.98694 52.3264 1.98694 53.1074L1.98694 62.1497C1.97931 62.923 2.60472 63.5508 3.38266 63.5508Z" stroke="#FED402" stroke-width="2"/>
<path d="M129.675 63.5508L143.472 63.5508C144.242 63.5508 144.875 62.923 144.875 62.142L144.875 53.1074C144.875 52.3341 144.25 51.6986 143.472 51.6986L136.241 51.6986L132.069 48.169L132.069 51.6986L129.682 51.6986C128.912 51.6986 128.279 52.3264 128.279 53.1074L128.279 62.1497C128.271 62.923 128.897 63.5508 129.675 63.5508Z" stroke="#FED402" stroke-width="2"/>
<path d="M255.968 63.5508L269.765 63.5508C270.535 63.5508 271.168 62.923 271.168 62.142L271.168 53.1074C271.168 52.3341 270.543 51.6986 269.765 51.6986L262.534 51.6986L258.362 48.169L258.362 51.6986L255.975 51.6986C255.205 51.6986 254.572 52.3264 254.572 53.1074L254.572 62.1497C254.564 62.923 255.19 63.5508 255.968 63.5508Z" stroke="#FED402" stroke-width="2"/>
<path d="M3.38266 164.342L17.1797 164.342C17.95 164.342 18.583 163.714 18.583 162.933L18.583 153.898C18.583 153.125 17.9576 152.49 17.1797 152.49L9.94939 152.49L5.7775 148.96L5.7775 152.49L3.39029 152.49C2.61997 152.49 1.98694 153.117 1.98694 153.898L1.98694 162.941C1.97931 163.714 2.60472 164.342 3.38266 164.342Z" stroke="#FED402" stroke-width="2"/>
<path d="M129.675 164.342L143.472 164.342C144.242 164.342 144.875 163.714 144.875 162.933L144.875 153.898C144.875 153.125 144.25 152.49 143.472 152.49L136.241 152.49L132.069 148.96L132.069 152.49L129.682 152.49C128.912 152.49 128.279 153.117 128.279 153.898L128.279 162.941C128.271 163.714 128.897 164.342 129.675 164.342Z" stroke="#FED402" stroke-width="2"/>
<path d="M255.968 164.342L269.765 164.342C270.535 164.342 271.168 163.714 271.168 162.933L271.168 153.898C271.168 153.125 270.543 152.49 269.765 152.49L262.534 152.49L258.362 148.96L258.362 152.49L255.975 152.49C255.205 152.49 254.572 153.117 254.572 153.898L254.572 162.941C254.564 163.714 255.19 164.342 255.968 164.342Z" stroke="#FED402" stroke-width="2"/>
<path d="M24.4305 63.5508L38.2275 63.5508C38.9978 63.5508 39.6309 62.923 39.6309 62.142L39.6309 53.1074C39.6309 52.3341 39.0055 51.6986 38.2275 51.6986L30.9972 51.6986L26.8253 48.169L26.8253 51.6986L24.4381 51.6986C23.6678 51.6986 23.0348 52.3264 23.0348 53.1074L23.0348 62.1497C23.0272 62.923 23.6526 63.5508 24.4305 63.5508Z" stroke="#FED402" stroke-width="2"/>
<path d="M150.723 63.5508L164.52 63.5508C165.291 63.5508 165.924 62.923 165.924 62.142L165.924 53.1074C165.924 52.3341 165.298 51.6986 164.52 51.6986L157.29 51.6986L153.118 48.169L153.118 51.6986L150.731 51.6986C149.961 51.6986 149.328 52.3264 149.328 53.1074L149.328 62.1497C149.32 62.923 149.946 63.5508 150.723 63.5508Z" stroke="#FED402" stroke-width="2"/>
<path d="M277.016 63.5508L290.813 63.5508C291.584 63.5508 292.217 62.923 292.217 62.142L292.217 53.1074C292.217 52.3341 291.591 51.6986 290.813 51.6986L283.583 51.6986L279.411 48.169L279.411 51.6986L277.024 51.6986C276.254 51.6986 275.621 52.3264 275.621 53.1074L275.621 62.1497C275.613 62.923 276.239 63.5508 277.016 63.5508Z" stroke="#FED402" stroke-width="2"/>
<path d="M24.4305 164.342L38.2275 164.342C38.9978 164.342 39.6309 163.714 39.6309 162.933L39.6309 153.898C39.6309 153.125 39.0055 152.49 38.2275 152.49L30.9972 152.49L26.8253 148.96L26.8253 152.49L24.4381 152.49C23.6678 152.49 23.0348 153.117 23.0348 153.898L23.0348 162.941C23.0272 163.714 23.6526 164.342 24.4305 164.342Z" stroke="#FED402" stroke-width="2"/>
<path d="M150.723 164.342L164.52 164.342C165.291 164.342 165.924 163.714 165.924 162.933L165.924 153.898C165.924 153.125 165.298 152.49 164.52 152.49L157.29 152.49L153.118 148.96L153.118 152.49L150.731 152.49C149.961 152.49 149.328 153.117 149.328 153.898L149.328 162.941C149.32 163.714 149.946 164.342 150.723 164.342Z" stroke="#FED402" stroke-width="2"/>
<path d="M277.016 164.342L290.813 164.342C291.584 164.342 292.217 163.714 292.217 162.933L292.217 153.898C292.217 153.125 291.591 152.49 290.813 152.49L283.583 152.49L279.411 148.96L279.411 152.49L277.024 152.49C276.254 152.49 275.621 153.117 275.621 153.898L275.621 162.941C275.613 163.714 276.239 164.342 277.016 164.342Z" stroke="#FED402" stroke-width="2"/>
<path d="M45.4793 63.5508L59.2763 63.5508C60.0467 63.5508 60.6797 62.923 60.6797 62.142L60.6797 53.1074C60.6797 52.3341 60.0543 51.6986 59.2763 51.6986L52.0461 51.6986L47.8742 48.169L47.8742 51.6986L45.487 51.6986C44.7167 51.6986 44.0836 52.3264 44.0836 53.1074L44.0836 62.1497C44.076 62.923 44.7014 63.5508 45.4793 63.5508Z" stroke="#FED402" stroke-width="2"/>
<path d="M171.772 63.5508L185.569 63.5508C186.34 63.5508 186.973 62.923 186.973 62.142L186.973 53.1074C186.973 52.3341 186.347 51.6986 185.569 51.6986L178.339 51.6986L174.167 48.169L174.167 51.6986L171.78 51.6986C171.01 51.6986 170.377 52.3264 170.377 53.1074L170.377 62.1497C170.369 62.923 170.994 63.5508 171.772 63.5508Z" stroke="#FED402" stroke-width="2"/>
<path d="M45.4793 164.342L59.2763 164.342C60.0467 164.342 60.6797 163.714 60.6797 162.933L60.6797 153.898C60.6797 153.125 60.0543 152.49 59.2763 152.49L52.0461 152.49L47.8742 148.96L47.8742 152.49L45.487 152.49C44.7167 152.49 44.0836 153.117 44.0836 153.898L44.0836 162.941C44.076 163.714 44.7014 164.342 45.4793 164.342Z" stroke="#FED402" stroke-width="2"/>
<path d="M171.772 164.342L185.569 164.342C186.34 164.342 186.973 163.714 186.973 162.933L186.973 153.898C186.973 153.125 186.347 152.49 185.569 152.49L178.339 152.49L174.167 148.96L174.167 152.49L171.78 152.49C171.01 152.49 170.377 153.117 170.377 153.898L170.377 162.941C170.369 163.714 170.994 164.342 171.772 164.342Z" stroke="#FED402" stroke-width="2"/>
<path d="M66.5282 63.5508L80.3252 63.5508C81.0955 63.5508 81.7285 62.923 81.7285 62.142L81.7285 53.1074C81.7285 52.3341 81.1031 51.6986 80.3252 51.6986L73.0949 51.6986L68.923 48.169L68.923 51.6986L66.5358 51.6986C65.7655 51.6986 65.1324 52.3264 65.1324 53.1074L65.1324 62.1497C65.1248 62.923 65.7502 63.5508 66.5282 63.5508Z" stroke="#FED402" stroke-width="2"/>
<path d="M192.821 63.5508L206.618 63.5508C207.388 63.5508 208.021 62.923 208.021 62.142L208.021 53.1074C208.021 52.3341 207.396 51.6986 206.618 51.6986L199.388 51.6986L195.216 48.169L195.216 51.6986L192.829 51.6986C192.058 51.6986 191.425 52.3264 191.425 53.1074L191.425 62.1497C191.418 62.923 192.043 63.5508 192.821 63.5508Z" stroke="#FED402" stroke-width="2"/>
<path d="M66.5282 164.342L80.3252 164.342C81.0955 164.342 81.7285 163.714 81.7285 162.933L81.7285 153.898C81.7285 153.125 81.1031 152.49 80.3252 152.49L73.0949 152.49L68.923 148.96L68.923 152.49L66.5358 152.49C65.7655 152.49 65.1324 153.117 65.1324 153.898L65.1324 162.941C65.1248 163.714 65.7502 164.342 66.5282 164.342Z" stroke="#FED402" stroke-width="2"/>
<path d="M192.821 164.342L206.618 164.342C207.388 164.342 208.021 163.714 208.021 162.933L208.021 153.898C208.021 153.125 207.396 152.49 206.618 152.49L199.388 152.49L195.216 148.96L195.216 152.49L192.829 152.49C192.058 152.49 191.425 153.117 191.425 153.898L191.425 162.941C191.418 163.714 192.043 164.342 192.821 164.342Z" stroke="#FED402" stroke-width="2"/>
<path d="M87.577 29.9551L101.374 29.9551C102.144 29.9551 102.777 29.3273 102.777 28.5463L102.777 19.5117C102.777 18.7384 102.152 18.1029 101.374 18.1029L94.1437 18.1029L89.9718 14.5733L89.9718 18.1029L87.5846 18.1029C86.8143 18.1029 86.1813 18.7307 86.1813 19.5117L86.1813 28.5539C86.1736 29.3272 86.7991 29.9551 87.577 29.9551Z" stroke="#FED402" stroke-width="2"/>
<path d="M213.87 29.9551L227.667 29.9551C228.437 29.9551 229.07 29.3273 229.07 28.5463L229.07 19.5117C229.07 18.7384 228.445 18.1029 227.667 18.1029L220.437 18.1029L216.265 14.5733L216.265 18.1029L213.878 18.1029C213.107 18.1029 212.474 18.7307 212.474 19.5117L212.474 28.5539C212.467 29.3272 213.092 29.9551 213.87 29.9551Z" stroke="#FED402" stroke-width="2"/>
<path d="M87.577 130.746L101.374 130.746C102.144 130.746 102.777 130.118 102.777 129.337L102.777 120.303C102.777 119.529 102.152 118.894 101.374 118.894L94.1437 118.894L89.9718 115.364L89.9718 118.894L87.5846 118.894C86.8143 118.894 86.1813 119.522 86.1813 120.303L86.1813 129.345C86.1736 130.118 86.7991 130.746 87.577 130.746Z" stroke="#FED402" stroke-width="2"/>
<path d="M213.87 130.746L227.667 130.746C228.437 130.746 229.07 130.118 229.07 129.337L229.07 120.303C229.07 119.529 228.445 118.894 227.667 118.894L220.437 118.894L216.265 115.364L216.265 118.894L213.878 118.894C213.107 118.894 212.474 119.522 212.474 120.303L212.474 129.345C212.467 130.118 213.092 130.746 213.87 130.746Z" stroke="#FED402" stroke-width="2"/>
<path d="M87.577 97.1465L101.374 97.1465C102.144 97.1465 102.777 96.5187 102.777 95.7377L102.777 86.7031C102.777 85.9298 102.152 85.2943 101.374 85.2943L94.1437 85.2943L89.9718 81.7647L89.9718 85.2943L87.5846 85.2943C86.8143 85.2943 86.1813 85.9221 86.1813 86.7031L86.1813 95.7454C86.1736 96.5187 86.7991 97.1465 87.577 97.1465Z" stroke="#FED402" stroke-width="2"/>
<path d="M213.87 97.1465L227.667 97.1465C228.437 97.1465 229.07 96.5187 229.07 95.7377L229.07 86.7031C229.07 85.9298 228.445 85.2943 227.667 85.2943L220.437 85.2943L216.265 81.7647L216.265 85.2943L213.878 85.2943C213.107 85.2943 212.474 85.9221 212.474 86.7031L212.474 95.7454C212.467 96.5187 213.092 97.1465 213.87 97.1465Z" stroke="#FED402" stroke-width="2"/>
<path d="M87.577 197.939L101.374 197.939C102.144 197.939 102.777 197.312 102.777 196.531L102.777 187.496C102.777 186.723 102.152 186.087 101.374 186.087L94.1437 186.087L89.9718 182.558L89.9718 186.087L87.5846 186.087C86.8143 186.087 86.1813 186.715 86.1813 187.496L86.1813 196.538C86.1736 197.312 86.7991 197.939 87.577 197.939Z" stroke="#FED402" stroke-width="2"/>
<path d="M213.87 197.939L227.667 197.939C228.437 197.939 229.07 197.312 229.07 196.531L229.07 187.496C229.07 186.723 228.445 186.087 227.667 186.087L220.437 186.087L216.265 182.558L216.265 186.087L213.878 186.087C213.107 186.087 212.474 186.715 212.474 187.496L212.474 196.538C212.467 197.312 213.092 197.939 213.87 197.939Z" stroke="#FED402" stroke-width="2"/>
<path d="M108.626 29.9551L122.423 29.9551C123.193 29.9551 123.826 29.3273 123.826 28.5463L123.826 19.5117C123.826 18.7384 123.201 18.1029 122.423 18.1029L115.193 18.1029L111.021 14.5733L111.021 18.1029L108.633 18.1029C107.863 18.1029 107.23 18.7307 107.23 19.5117L107.23 28.5539C107.222 29.3272 107.848 29.9551 108.626 29.9551Z" stroke="#FED402" stroke-width="2"/>
<path d="M234.918 29.9551L248.715 29.9551C249.485 29.9551 250.118 29.3273 250.118 28.5463L250.118 19.5117C250.118 18.7384 249.493 18.1029 248.715 18.1029L241.485 18.1029L237.313 14.5733L237.313 18.1029L234.925 18.1029C234.155 18.1029 233.522 18.7307 233.522 19.5117L233.522 28.5539C233.514 29.3272 234.14 29.9551 234.918 29.9551Z" stroke="#FED402" stroke-width="2"/>
<path d="M108.626 130.746L122.423 130.746C123.193 130.746 123.826 130.118 123.826 129.337L123.826 120.303C123.826 119.529 123.201 118.894 122.423 118.894L115.193 118.894L111.021 115.364L111.021 118.894L108.633 118.894C107.863 118.894 107.23 119.522 107.23 120.303L107.23 129.345C107.222 130.118 107.848 130.746 108.626 130.746Z" stroke="#FED402" stroke-width="2"/>
<path d="M234.918 130.746L248.715 130.746C249.485 130.746 250.118 130.118 250.118 129.337L250.118 120.303C250.118 119.529 249.493 118.894 248.715 118.894L241.485 118.894L237.313 115.364L237.313 118.894L234.925 118.894C234.155 118.894 233.522 119.522 233.522 120.303L233.522 129.345C233.514 130.118 234.14 130.746 234.918 130.746Z" stroke="#FED402" stroke-width="2"/>
<path d="M108.626 97.1465L122.423 97.1465C123.193 97.1465 123.826 96.5187 123.826 95.7377L123.826 86.7031C123.826 85.9298 123.201 85.2943 122.423 85.2943L115.193 85.2943L111.021 81.7647L111.021 85.2943L108.633 85.2943C107.863 85.2943 107.23 85.9221 107.23 86.7031L107.23 95.7454C107.222 96.5187 107.848 97.1465 108.626 97.1465Z" stroke="#FED402" stroke-width="2"/>
<path d="M234.918 97.1465L248.715 97.1465C249.485 97.1465 250.118 96.5187 250.118 95.7377L250.118 86.7031C250.118 85.9298 249.493 85.2943 248.715 85.2943L241.485 85.2943L237.313 81.7647L237.313 85.2943L234.925 85.2943C234.155 85.2943 233.522 85.9221 233.522 86.7031L233.522 95.7454C233.514 96.5187 234.14 97.1465 234.918 97.1465Z" stroke="#FED402" stroke-width="2"/>
<path d="M108.626 197.939L122.423 197.939C123.193 197.939 123.826 197.312 123.826 196.531L123.826 187.496C123.826 186.723 123.201 186.087 122.423 186.087L115.193 186.087L111.021 182.558L111.021 186.087L108.633 186.087C107.863 186.087 107.23 186.715 107.23 187.496L107.23 196.538C107.222 197.312 107.848 197.939 108.626 197.939Z" stroke="#FED402" stroke-width="2"/>
<path d="M234.918 197.939L248.715 197.939C249.485 197.939 250.118 197.312 250.118 196.531L250.118 187.496C250.118 186.723 249.493 186.087 248.715 186.087L241.485 186.087L237.313 182.558L237.313 186.087L234.925 186.087C234.155 186.087 233.522 186.715 233.522 187.496L233.522 196.538C233.514 197.312 234.14 197.939 234.918 197.939Z" stroke="#FED402" stroke-width="2"/>
<path d="M3.38266 29.9551L17.1797 29.9551C17.95 29.9551 18.583 29.3273 18.583 28.5463L18.583 19.5117C18.583 18.7384 17.9576 18.1029 17.1797 18.1029L9.94939 18.1029L5.7775 14.5733L5.7775 18.1029L3.39029 18.1029C2.61997 18.1029 1.98694 18.7307 1.98694 19.5117L1.98694 28.5539C1.97931 29.3272 2.60472 29.9551 3.38266 29.9551Z" stroke="#FED402" stroke-width="2"/>
<path d="M129.675 29.9551L143.472 29.9551C144.242 29.9551 144.875 29.3273 144.875 28.5463L144.875 19.5117C144.875 18.7384 144.25 18.1029 143.472 18.1029L136.241 18.1029L132.069 14.5733L132.069 18.1029L129.682 18.1029C128.912 18.1029 128.279 18.7307 128.279 19.5117L128.279 28.5539C128.271 29.3272 128.897 29.9551 129.675 29.9551Z" stroke="#FED402" stroke-width="2"/>
<path d="M255.968 29.9551L269.765 29.9551C270.535 29.9551 271.168 29.3273 271.168 28.5463L271.168 19.5117C271.168 18.7384 270.543 18.1029 269.765 18.1029L262.534 18.1029L258.362 14.5733L258.362 18.1029L255.975 18.1029C255.205 18.1029 254.572 18.7307 254.572 19.5117L254.572 28.5539C254.564 29.3272 255.19 29.9551 255.968 29.9551Z" stroke="#FED402" stroke-width="2"/>
<path d="M3.38266 130.746L17.1797 130.746C17.95 130.746 18.583 130.118 18.583 129.337L18.583 120.303C18.583 119.529 17.9576 118.894 17.1797 118.894L9.94939 118.894L5.7775 115.364L5.7775 118.894L3.39029 118.894C2.61997 118.894 1.98694 119.522 1.98694 120.303L1.98694 129.345C1.97931 130.118 2.60472 130.746 3.38266 130.746Z" stroke="#FED402" stroke-width="2"/>
<path d="M129.675 130.746L143.472 130.746C144.242 130.746 144.875 130.118 144.875 129.337L144.875 120.303C144.875 119.529 144.25 118.894 143.472 118.894L136.241 118.894L132.069 115.364L132.069 118.894L129.682 118.894C128.912 118.894 128.279 119.522 128.279 120.303L128.279 129.345C128.271 130.118 128.897 130.746 129.675 130.746Z" stroke="#FED402" stroke-width="2"/>
<path d="M255.968 130.746L269.765 130.746C270.535 130.746 271.168 130.118 271.168 129.337L271.168 120.303C271.168 119.529 270.543 118.894 269.765 118.894L262.534 118.894L258.362 115.364L258.362 118.894L255.975 118.894C255.205 118.894 254.572 119.522 254.572 120.303L254.572 129.345C254.564 130.118 255.19 130.746 255.968 130.746Z" stroke="#FED402" stroke-width="2"/>
<path d="M3.38266 97.1465L17.1797 97.1465C17.95 97.1465 18.583 96.5187 18.583 95.7377L18.583 86.7031C18.583 85.9298 17.9576 85.2943 17.1797 85.2943L9.94939 85.2943L5.7775 81.7647L5.7775 85.2943L3.39029 85.2943C2.61997 85.2943 1.98694 85.9221 1.98694 86.7031L1.98694 95.7454C1.97931 96.5187 2.60472 97.1465 3.38266 97.1465Z" stroke="#FED402" stroke-width="2"/>
<path d="M129.675 97.1465L143.472 97.1465C144.242 97.1465 144.875 96.5187 144.875 95.7377L144.875 86.7031C144.875 85.9298 144.25 85.2943 143.472 85.2943L136.241 85.2943L132.069 81.7647L132.069 85.2943L129.682 85.2943C128.912 85.2943 128.279 85.9221 128.279 86.7031L128.279 95.7454C128.271 96.5187 128.897 97.1465 129.675 97.1465Z" stroke="#FED402" stroke-width="2"/>
<path d="M255.968 97.1465L269.765 97.1465C270.535 97.1465 271.168 96.5187 271.168 95.7377L271.168 86.7031C271.168 85.9298 270.543 85.2943 269.765 85.2943L262.534 85.2943L258.362 81.7647L258.362 85.2943L255.975 85.2943C255.205 85.2943 254.572 85.9221 254.572 86.7031L254.572 95.7454C254.564 96.5187 255.19 97.1465 255.968 97.1465Z" stroke="#FED402" stroke-width="2"/>
<path d="M3.38266 197.939L17.1797 197.939C17.95 197.939 18.583 197.312 18.583 196.531L18.583 187.496C18.583 186.723 17.9576 186.087 17.1797 186.087L9.94939 186.087L5.7775 182.558L5.7775 186.087L3.39029 186.087C2.61997 186.087 1.98694 186.715 1.98694 187.496L1.98694 196.538C1.97931 197.312 2.60472 197.939 3.38266 197.939Z" stroke="#FED402" stroke-width="2"/>
<path d="M129.675 197.939L143.472 197.939C144.242 197.939 144.875 197.312 144.875 196.531L144.875 187.496C144.875 186.723 144.25 186.087 143.472 186.087L136.241 186.087L132.069 182.558L132.069 186.087L129.682 186.087C128.912 186.087 128.279 186.715 128.279 187.496L128.279 196.538C128.271 197.312 128.897 197.939 129.675 197.939Z" stroke="#FED402" stroke-width="2"/>
<path d="M255.968 197.939L269.765 197.939C270.535 197.939 271.168 197.312 271.168 196.531L271.168 187.496C271.168 186.723 270.543 186.087 269.765 186.087L262.534 186.087L258.362 182.558L258.362 186.087L255.975 186.087C255.205 186.087 254.572 186.715 254.572 187.496L254.572 196.538C254.564 197.312 255.19 197.939 255.968 197.939Z" stroke="#FED402" stroke-width="2"/>
<path d="M24.4305 29.9551L38.2275 29.9551C38.9978 29.9551 39.6309 29.3273 39.6309 28.5463L39.6309 19.5117C39.6309 18.7384 39.0055 18.1029 38.2275 18.1029L30.9972 18.1029L26.8253 14.5733L26.8253 18.1029L24.4381 18.1029C23.6678 18.1029 23.0348 18.7307 23.0348 19.5117L23.0348 28.5539C23.0272 29.3272 23.6526 29.9551 24.4305 29.9551Z" stroke="#FED402" stroke-width="2"/>
<path d="M150.723 29.9551L164.52 29.9551C165.291 29.9551 165.924 29.3273 165.924 28.5463L165.924 19.5117C165.924 18.7384 165.298 18.1029 164.52 18.1029L157.29 18.1029L153.118 14.5733L153.118 18.1029L150.731 18.1029C149.961 18.1029 149.328 18.7307 149.328 19.5117L149.328 28.5539C149.32 29.3272 149.946 29.9551 150.723 29.9551Z" stroke="#FED402" stroke-width="2"/>
<path d="M277.016 29.9551L290.813 29.9551C291.584 29.9551 292.217 29.3273 292.217 28.5463L292.217 19.5117C292.217 18.7384 291.591 18.1029 290.813 18.1029L283.583 18.1029L279.411 14.5733L279.411 18.1029L277.024 18.1029C276.254 18.1029 275.621 18.7307 275.621 19.5117L275.621 28.5539C275.613 29.3272 276.239 29.9551 277.016 29.9551Z" stroke="#FED402" stroke-width="2"/>
<path d="M24.4305 130.746L38.2275 130.746C38.9978 130.746 39.6309 130.118 39.6309 129.337L39.6309 120.303C39.6309 119.529 39.0055 118.894 38.2275 118.894L30.9972 118.894L26.8253 115.364L26.8253 118.894L24.4381 118.894C23.6678 118.894 23.0348 119.522 23.0348 120.303L23.0348 129.345C23.0272 130.118 23.6526 130.746 24.4305 130.746Z" stroke="#FED402" stroke-width="2"/>
<path d="M150.723 130.746L164.52 130.746C165.291 130.746 165.924 130.118 165.924 129.337L165.924 120.303C165.924 119.529 165.298 118.894 164.52 118.894L157.29 118.894L153.118 115.364L153.118 118.894L150.731 118.894C149.961 118.894 149.328 119.522 149.328 120.303L149.328 129.345C149.32 130.118 149.946 130.746 150.723 130.746Z" stroke="#FED402" stroke-width="2"/>
<path d="M277.016 130.746L290.813 130.746C291.584 130.746 292.217 130.118 292.217 129.337L292.217 120.303C292.217 119.529 291.591 118.894 290.813 118.894L283.583 118.894L279.411 115.364L279.411 118.894L277.024 118.894C276.254 118.894 275.621 119.522 275.621 120.303L275.621 129.345C275.613 130.118 276.239 130.746 277.016 130.746Z" stroke="#FED402" stroke-width="2"/>
<path d="M24.4305 97.1465L38.2275 97.1465C38.9978 97.1465 39.6309 96.5187 39.6309 95.7377L39.6309 86.7031C39.6309 85.9298 39.0055 85.2943 38.2275 85.2943L30.9972 85.2943L26.8253 81.7647L26.8253 85.2943L24.4381 85.2943C23.6678 85.2943 23.0348 85.9221 23.0348 86.7031L23.0348 95.7454C23.0272 96.5187 23.6526 97.1465 24.4305 97.1465Z" stroke="#FED402" stroke-width="2"/>
<path d="M150.723 97.1465L164.52 97.1465C165.291 97.1465 165.924 96.5187 165.924 95.7377L165.924 86.7031C165.924 85.9298 165.298 85.2943 164.52 85.2943L157.29 85.2943L153.118 81.7647L153.118 85.2943L150.731 85.2943C149.961 85.2943 149.328 85.9221 149.328 86.7031L149.328 95.7454C149.32 96.5187 149.946 97.1465 150.723 97.1465Z" stroke="#FED402" stroke-width="2"/>
<path d="M277.016 97.1465L290.813 97.1465C291.584 97.1465 292.217 96.5187 292.217 95.7377L292.217 86.7031C292.217 85.9298 291.591 85.2943 290.813 85.2943L283.583 85.2943L279.411 81.7647L279.411 85.2943L277.024 85.2943C276.254 85.2943 275.621 85.9221 275.621 86.7031L275.621 95.7454C275.613 96.5187 276.239 97.1465 277.016 97.1465Z" stroke="#FED402" stroke-width="2"/>
<path d="M24.4305 197.939L38.2275 197.939C38.9978 197.939 39.6309 197.312 39.6309 196.531L39.6309 187.496C39.6309 186.723 39.0055 186.087 38.2275 186.087L30.9972 186.087L26.8253 182.558L26.8253 186.087L24.4381 186.087C23.6678 186.087 23.0348 186.715 23.0348 187.496L23.0348 196.538C23.0272 197.312 23.6526 197.939 24.4305 197.939Z" stroke="#FED402" stroke-width="2"/>
<path d="M150.723 197.939L164.52 197.939C165.291 197.939 165.924 197.312 165.924 196.531L165.924 187.496C165.924 186.723 165.298 186.087 164.52 186.087L157.29 186.087L153.118 182.558L153.118 186.087L150.731 186.087C149.961 186.087 149.328 186.715 149.328 187.496L149.328 196.538C149.32 197.312 149.946 197.939 150.723 197.939Z" stroke="#FED402" stroke-width="2"/>
<path d="M277.016 197.939L290.813 197.939C291.584 197.939 292.217 197.312 292.217 196.531L292.217 187.496C292.217 186.723 291.591 186.087 290.813 186.087L283.583 186.087L279.411 182.558L279.411 186.087L277.024 186.087C276.254 186.087 275.621 186.715 275.621 187.496L275.621 196.538C275.613 197.312 276.239 197.939 277.016 197.939Z" stroke="#FED402" stroke-width="2"/>
<path d="M45.4793 29.9551L59.2763 29.9551C60.0467 29.9551 60.6797 29.3273 60.6797 28.5463L60.6797 19.5117C60.6797 18.7384 60.0543 18.1029 59.2763 18.1029L52.0461 18.1029L47.8742 14.5733L47.8742 18.1029L45.487 18.1029C44.7167 18.1029 44.0836 18.7307 44.0836 19.5117L44.0836 28.5539C44.076 29.3272 44.7014 29.9551 45.4793 29.9551Z" stroke="#FED402" stroke-width="2"/>
<path d="M171.772 29.9551L185.569 29.9551C186.34 29.9551 186.973 29.3273 186.973 28.5463L186.973 19.5117C186.973 18.7384 186.347 18.1029 185.569 18.1029L178.339 18.1029L174.167 14.5733L174.167 18.1029L171.78 18.1029C171.01 18.1029 170.377 18.7307 170.377 19.5117L170.377 28.5539C170.369 29.3272 170.994 29.9551 171.772 29.9551Z" stroke="#FED402" stroke-width="2"/>
<path d="M45.4793 130.746L59.2763 130.746C60.0467 130.746 60.6797 130.118 60.6797 129.337L60.6797 120.303C60.6797 119.529 60.0543 118.894 59.2763 118.894L52.0461 118.894L47.8742 115.364L47.8742 118.894L45.487 118.894C44.7167 118.894 44.0836 119.522 44.0836 120.303L44.0836 129.345C44.076 130.118 44.7014 130.746 45.4793 130.746Z" stroke="#FED402" stroke-width="2"/>
<path d="M171.772 130.746L185.569 130.746C186.34 130.746 186.973 130.118 186.973 129.337L186.973 120.303C186.973 119.529 186.347 118.894 185.569 118.894L178.339 118.894L174.167 115.364L174.167 118.894L171.78 118.894C171.01 118.894 170.377 119.522 170.377 120.303L170.377 129.345C170.369 130.118 170.994 130.746 171.772 130.746Z" stroke="#FED402" stroke-width="2"/>
<path d="M45.4793 97.1465L59.2763 97.1465C60.0467 97.1465 60.6797 96.5187 60.6797 95.7377L60.6797 86.7031C60.6797 85.9298 60.0543 85.2943 59.2763 85.2943L52.0461 85.2943L47.8742 81.7647L47.8742 85.2943L45.487 85.2943C44.7167 85.2943 44.0836 85.9221 44.0836 86.7031L44.0836 95.7454C44.076 96.5187 44.7014 97.1465 45.4793 97.1465Z" stroke="#FED402" stroke-width="2"/>
<path d="M171.772 97.1465L185.569 97.1465C186.34 97.1465 186.973 96.5187 186.973 95.7377L186.973 86.7031C186.973 85.9298 186.347 85.2943 185.569 85.2943L178.339 85.2943L174.167 81.7647L174.167 85.2943L171.78 85.2943C171.01 85.2943 170.377 85.9221 170.377 86.7031L170.377 95.7454C170.369 96.5187 170.994 97.1465 171.772 97.1465Z" stroke="#FED402" stroke-width="2"/>
<path d="M45.4793 197.939L59.2763 197.939C60.0467 197.939 60.6797 197.312 60.6797 196.531L60.6797 187.496C60.6797 186.723 60.0543 186.087 59.2763 186.087L52.0461 186.087L47.8742 182.558L47.8742 186.087L45.487 186.087C44.7167 186.087 44.0836 186.715 44.0836 187.496L44.0836 196.538C44.076 197.312 44.7014 197.939 45.4793 197.939Z" stroke="#FED402" stroke-width="2"/>
<path d="M171.772 197.939L185.569 197.939C186.34 197.939 186.973 197.312 186.973 196.531L186.973 187.496C186.973 186.723 186.347 186.087 185.569 186.087L178.339 186.087L174.167 182.558L174.167 186.087L171.78 186.087C171.01 186.087 170.377 186.715 170.377 187.496L170.377 196.538C170.369 197.312 170.994 197.939 171.772 197.939Z" stroke="#FED402" stroke-width="2"/>
<path d="M66.5282 29.9551L80.3252 29.9551C81.0955 29.9551 81.7285 29.3273 81.7285 28.5463L81.7285 19.5117C81.7285 18.7384 81.1031 18.1029 80.3252 18.1029L73.0949 18.1029L68.923 14.5733L68.923 18.1029L66.5358 18.1029C65.7655 18.1029 65.1324 18.7307 65.1324 19.5117L65.1324 28.5539C65.1248 29.3272 65.7502 29.9551 66.5282 29.9551Z" stroke="#FED402" stroke-width="2"/>
<path d="M192.821 29.9551L206.618 29.9551C207.388 29.9551 208.021 29.3273 208.021 28.5463L208.021 19.5117C208.021 18.7384 207.396 18.1029 206.618 18.1029L199.388 18.1029L195.216 14.5733L195.216 18.1029L192.829 18.1029C192.058 18.1029 191.425 18.7307 191.425 19.5117L191.425 28.5539C191.418 29.3272 192.043 29.9551 192.821 29.9551Z" stroke="#FED402" stroke-width="2"/>
<path d="M66.5282 130.746L80.3252 130.746C81.0955 130.746 81.7285 130.118 81.7285 129.337L81.7285 120.303C81.7285 119.529 81.1031 118.894 80.3252 118.894L73.0949 118.894L68.923 115.364L68.923 118.894L66.5358 118.894C65.7655 118.894 65.1324 119.522 65.1324 120.303L65.1324 129.345C65.1248 130.118 65.7502 130.746 66.5282 130.746Z" stroke="#FED402" stroke-width="2"/>
<path d="M192.821 130.746L206.618 130.746C207.388 130.746 208.021 130.118 208.021 129.337L208.021 120.303C208.021 119.529 207.396 118.894 206.618 118.894L199.388 118.894L195.216 115.364L195.216 118.894L192.829 118.894C192.058 118.894 191.425 119.522 191.425 120.303L191.425 129.345C191.418 130.118 192.043 130.746 192.821 130.746Z" stroke="#FED402" stroke-width="2"/>
<path d="M66.5282 97.1465L80.3252 97.1465C81.0955 97.1465 81.7285 96.5187 81.7285 95.7377L81.7285 86.7031C81.7285 85.9298 81.1031 85.2943 80.3252 85.2943L73.0949 85.2943L68.923 81.7647L68.923 85.2943L66.5358 85.2943C65.7655 85.2943 65.1324 85.9221 65.1324 86.7031L65.1324 95.7454C65.1248 96.5187 65.7502 97.1465 66.5282 97.1465Z" stroke="#FED402" stroke-width="2"/>
<path d="M192.821 97.1465L206.618 97.1465C207.388 97.1465 208.021 96.5187 208.021 95.7377L208.021 86.7031C208.021 85.9298 207.396 85.2943 206.618 85.2943L199.388 85.2943L195.216 81.7647L195.216 85.2943L192.829 85.2943C192.058 85.2943 191.425 85.9221 191.425 86.7031L191.425 95.7454C191.418 96.5187 192.043 97.1465 192.821 97.1465Z" stroke="#FED402" stroke-width="2"/>
<path d="M66.5282 197.939L80.3252 197.939C81.0955 197.939 81.7285 197.312 81.7285 196.531L81.7285 187.496C81.7285 186.723 81.1031 186.087 80.3252 186.087L73.0949 186.087L68.923 182.558L68.923 186.087L66.5358 186.087C65.7655 186.087 65.1324 186.715 65.1324 187.496L65.1324 196.538C65.1248 197.312 65.7502 197.939 66.5282 197.939Z" stroke="#FED402" stroke-width="2"/>
<path d="M192.821 197.939L206.618 197.939C207.388 197.939 208.021 197.312 208.021 196.531L208.021 187.496C208.021 186.723 207.396 186.087 206.618 186.087L199.388 186.087L195.216 182.558L195.216 186.087L192.829 186.087C192.058 186.087 191.425 186.715 191.425 187.496L191.425 196.538C191.418 197.312 192.043 197.939 192.821 197.939Z" stroke="#FED402" stroke-width="2"/>
</g>
<rect x="1" y="1" width="278" height="205" rx="18" fill="url(#paint0_linear_247_2696)"/>
</g>
<path d="M261.379 1.23919L261.38 1.23919C271.205 1.23919 279.095 9.18191 278.999 18.9595L278.999 18.9694L278.999 167.258C278.999 177.147 271 185.09 261.278 185.09L234.744 185.09L233.744 185.09L233.744 186.09L233.744 204.02L208.334 185.286L208.07 185.091L207.742 185.09L18.722 184.851L18.7208 184.851C8.90435 184.851 0.999975 176.813 0.999977 167.019L0.999997 18.8325C0.999998 8.94297 8.99906 1 18.7208 1L161.494 1.11958L161.495 1.11958L261.379 1.23919Z" stroke="url(#paint1_linear_247_2696)" stroke-width="2"/>
<defs>
<linearGradient id="paint0_linear_247_2696" x1="1" y1="1" x2="311.632" y2="122.728" gradientUnits="userSpaceOnUse">
<stop/>
<stop offset="1" stop-opacity="0"/>
</linearGradient>
<linearGradient id="paint1_linear_247_2696" x1="1.49746e-05" y1="2.17632e-05" x2="109.797" y2="-75.597" gradientUnits="userSpaceOnUse">
<stop stop-color="#999999" stop-opacity="0.5"/>
<stop offset="1" stop-color="#FED402" stop-opacity="0.5"/>
</linearGradient>
</defs>
</svg>
