<svg width="280" height="166" viewBox="0 0 280 166" fill="none" xmlns="http://www.w3.org/2000/svg" preserveAspectRatio="none">
<path d="M261.38 0.239188L161.495 0.119584L18.7208 3.27326e-06C8.44475 1.47653e-06 4.42517e-05 8.39276 4.24264e-05 18.8325L-2.2018e-05 125.928C-2.38254e-05 136.266 8.34294 144.761 18.7208 144.761L45.2557 145L45.2557 164.909L72.2585 145L261.278 145C271.554 145 279.999 136.607 279.999 126.167L279.999 18.9694C280.101 8.63196 271.758 0.239189 261.38 0.239188Z" fill="#120D0C"/>
<mask id="mask0_247_2921" style="mask-type:alpha" maskUnits="userSpaceOnUse" x="0" y="0" width="280" height="165">
<path d="M257.474 0.5H22.6468C6.51162 0.5 1.66148e-05 9.30266 1.66148e-05 21.8724L0 122.326C0 134.772 4.88371 145 22.6468 145H46.2324V164.535L71.9533 145H257.351C272.511 145 279.998 139.14 279.998 122.326L279.998 21.7492C280.121 9.30266 272.185 0.5 257.474 0.5Z" fill="#FFD500"/>
</mask>
<g mask="url(#mask0_247_2921)">
<g opacity="0.08">
<path d="M101.267 1.74219H87.4352C86.6629 1.74219 86.0283 2.37158 86.0283 3.15449V12.2116C86.0283 12.9869 86.6553 13.6239 87.4352 13.6239H94.6835L98.8658 17.1624V13.6239H101.259C102.031 13.6239 102.666 12.9945 102.666 12.2116V3.14681C102.673 2.37158 102.046 1.74219 101.267 1.74219Z" fill="#FED402"/>
<path d="M227.875 1.74219H214.044C213.271 1.74219 212.637 2.37158 212.637 3.15449V12.2116C212.637 12.9869 213.264 13.6239 214.044 13.6239H221.292L225.474 17.1624V13.6239H227.867C228.64 13.6239 229.274 12.9945 229.274 12.2116V3.14681C229.282 2.37158 228.655 1.74219 227.875 1.74219Z" fill="#FED402"/>
<path d="M101.267 102.785H87.4352C86.6629 102.785 86.0283 103.415 86.0283 104.197V113.255C86.0283 114.03 86.6553 114.667 87.4352 114.667H94.6835L98.8658 118.205V114.667H101.259C102.031 114.667 102.666 114.038 102.666 113.255V104.19C102.673 103.415 102.046 102.785 101.267 102.785Z" fill="#FED402"/>
<path d="M227.875 102.785H214.044C213.271 102.785 212.637 103.415 212.637 104.197V113.255C212.637 114.03 213.264 114.667 214.044 114.667H221.292L225.474 118.205V114.667H227.867C228.64 114.667 229.274 114.038 229.274 113.255V104.19C229.282 103.415 228.655 102.785 227.875 102.785Z" fill="#FED402"/>
<path d="M122.368 1.74219H108.537C107.764 1.74219 107.13 2.37158 107.13 3.15449V12.2116C107.13 12.9869 107.757 13.6239 108.537 13.6239H115.785L119.967 17.1624V13.6239H122.361C123.133 13.6239 123.767 12.9945 123.767 12.2116V3.14681C123.775 2.37158 123.148 1.74219 122.368 1.74219Z" fill="#FED402"/>
<path d="M248.976 1.74219H235.144C234.372 1.74219 233.737 2.37158 233.737 3.15449V12.2116C233.737 12.9869 234.364 13.6239 235.144 13.6239H242.392L246.575 17.1624V13.6239H248.968C249.74 13.6239 250.375 12.9945 250.375 12.2116V3.14681C250.382 2.37158 249.755 1.74219 248.976 1.74219Z" fill="#FED402"/>
<path d="M122.368 102.785H108.537C107.764 102.785 107.13 103.415 107.13 104.197V113.255C107.13 114.03 107.757 114.667 108.537 114.667H115.785L119.967 118.205V114.667H122.361C123.133 114.667 123.767 114.038 123.767 113.255V104.19C123.775 103.415 123.148 102.785 122.368 102.785Z" fill="#FED402"/>
<path d="M248.976 102.785H235.144C234.372 102.785 233.737 103.415 233.737 104.197V113.255C233.737 114.03 234.364 114.667 235.144 114.667H242.392L246.575 118.205V114.667H248.968C249.74 114.667 250.375 114.038 250.375 113.255V104.19C250.382 103.415 249.755 102.785 248.976 102.785Z" fill="#FED402"/>
<path d="M16.8623 1.74219H3.03087C2.25863 1.74219 1.62402 2.37158 1.62402 3.15449V12.2116C1.62402 12.9869 2.25099 13.6239 3.03087 13.6239H10.2792L14.4615 17.1624V13.6239H16.8547C17.6269 13.6239 18.2615 12.9945 18.2615 12.2116V3.14681C18.2692 2.37158 17.6422 1.74219 16.8623 1.74219Z" fill="#FED402"/>
<path d="M143.47 1.74219H129.638C128.866 1.74219 128.231 2.37158 128.231 3.15449V12.2116C128.231 12.9869 128.858 13.6239 129.638 13.6239H136.887L141.069 17.1624V13.6239H143.462C144.234 13.6239 144.869 12.9945 144.869 12.2116V3.14681C144.877 2.37158 144.25 1.74219 143.47 1.74219Z" fill="#FED402"/>
<path d="M270.078 1.74219H256.247C255.474 1.74219 254.84 2.37158 254.84 3.15449V12.2116C254.84 12.9869 255.467 13.6239 256.247 13.6239H263.495L267.677 17.1624V13.6239H270.07C270.843 13.6239 271.477 12.9945 271.477 12.2116V3.14681C271.485 2.37158 270.858 1.74219 270.078 1.74219Z" fill="#FED402"/>
<path d="M16.8623 102.785H3.03087C2.25863 102.785 1.62402 103.415 1.62402 104.197V113.255C1.62402 114.03 2.25099 114.667 3.03087 114.667H10.2792L14.4615 118.205V114.667H16.8547C17.6269 114.667 18.2615 114.038 18.2615 113.255V104.19C18.2692 103.415 17.6422 102.785 16.8623 102.785Z" fill="#FED402"/>
<path d="M143.47 102.785H129.638C128.866 102.785 128.231 103.415 128.231 104.197V113.255C128.231 114.03 128.858 114.667 129.638 114.667H136.887L141.069 118.205V114.667H143.462C144.234 114.667 144.869 114.038 144.869 113.255V104.19C144.877 103.415 144.25 102.785 143.47 102.785Z" fill="#FED402"/>
<path d="M270.078 102.785H256.247C255.474 102.785 254.84 103.415 254.84 104.197V113.255C254.84 114.03 255.467 114.667 256.247 114.667H263.495L267.677 118.205V114.667H270.07C270.843 114.667 271.477 114.038 271.477 113.255V104.19C271.485 103.415 270.858 102.785 270.078 102.785Z" fill="#FED402"/>
<path d="M37.9629 1.74219H24.1315C23.3592 1.74219 22.7246 2.37158 22.7246 3.15449V12.2116C22.7246 12.9869 23.3516 13.6239 24.1315 13.6239H31.3798L35.5621 17.1624V13.6239H37.9553C38.7275 13.6239 39.3621 12.9945 39.3621 12.2116V3.14681C39.3698 2.37158 38.7428 1.74219 37.9629 1.74219Z" fill="#FED402"/>
<path d="M164.571 1.74219H150.74C149.968 1.74219 149.333 2.37158 149.333 3.15449V12.2116C149.333 12.9869 149.96 13.6239 150.74 13.6239H157.988L162.17 17.1624V13.6239H164.564C165.336 13.6239 165.971 12.9945 165.971 12.2116V3.14681C165.978 2.37158 165.351 1.74219 164.571 1.74219Z" fill="#FED402"/>
<path d="M291.179 1.74219H277.347C276.575 1.74219 275.94 2.37158 275.94 3.15449V12.2116C275.94 12.9869 276.567 13.6239 277.347 13.6239H284.596L288.778 17.1624V13.6239H291.171C291.943 13.6239 292.578 12.9945 292.578 12.2116V3.14681C292.586 2.37158 291.959 1.74219 291.179 1.74219Z" fill="#FED402"/>
<path d="M37.9629 102.785H24.1315C23.3592 102.785 22.7246 103.415 22.7246 104.197V113.255C22.7246 114.03 23.3516 114.667 24.1315 114.667H31.3798L35.5621 118.205V114.667H37.9553C38.7275 114.667 39.3621 114.038 39.3621 113.255V104.19C39.3698 103.415 38.7428 102.785 37.9629 102.785Z" fill="#FED402"/>
<path d="M164.571 102.785H150.74C149.968 102.785 149.333 103.415 149.333 104.197V113.255C149.333 114.03 149.96 114.667 150.74 114.667H157.988L162.17 118.205V114.667H164.564C165.336 114.667 165.971 114.038 165.971 113.255V104.19C165.978 103.415 165.351 102.785 164.571 102.785Z" fill="#FED402"/>
<path d="M291.179 102.785H277.347C276.575 102.785 275.94 103.415 275.94 104.197V113.255C275.94 114.03 276.567 114.667 277.347 114.667H284.596L288.778 118.205V114.667H291.171C291.943 114.667 292.578 114.038 292.578 113.255V104.19C292.586 103.415 291.959 102.785 291.179 102.785Z" fill="#FED402"/>
<path d="M59.0645 1.74219H45.233C44.4608 1.74219 43.8262 2.37158 43.8262 3.15449V12.2116C43.8262 12.9869 44.4531 13.6239 45.233 13.6239H52.4813L56.6637 17.1624V13.6239H59.0568C59.8291 13.6239 60.4637 12.9945 60.4637 12.2116V3.14681C60.4713 2.37158 59.8443 1.74219 59.0645 1.74219Z" fill="#FED402"/>
<path d="M185.672 1.74219H171.84C171.068 1.74219 170.434 2.37158 170.434 3.15449V12.2116C170.434 12.9869 171.061 13.6239 171.84 13.6239H179.089L183.271 17.1624V13.6239H185.664C186.436 13.6239 187.071 12.9945 187.071 12.2116V3.14681C187.079 2.37158 186.452 1.74219 185.672 1.74219Z" fill="#FED402"/>
<path d="M59.0645 102.785H45.233C44.4608 102.785 43.8262 103.415 43.8262 104.197V113.255C43.8262 114.03 44.4531 114.667 45.233 114.667H52.4813L56.6637 118.205V114.667H59.0568C59.8291 114.667 60.4637 114.038 60.4637 113.255V104.19C60.4713 103.415 59.8443 102.785 59.0645 102.785Z" fill="#FED402"/>
<path d="M185.672 102.785H171.84C171.068 102.785 170.434 103.415 170.434 104.197V113.255C170.434 114.03 171.061 114.667 171.84 114.667H179.089L183.271 118.205V114.667H185.664C186.436 114.667 187.071 114.038 187.071 113.255V104.19C187.079 103.415 186.452 102.785 185.672 102.785Z" fill="#FED402"/>
<path d="M80.166 1.74219H66.3346C65.5623 1.74219 64.9277 2.37158 64.9277 3.15449V12.2116C64.9277 12.9869 65.5547 13.6239 66.3346 13.6239H73.5829L77.7652 17.1624V13.6239H80.1584C80.9306 13.6239 81.5652 12.9945 81.5652 12.2116V3.14681C81.5729 2.37158 80.9459 1.74219 80.166 1.74219Z" fill="#FED402"/>
<path d="M206.773 1.74219H192.942C192.17 1.74219 191.535 2.37158 191.535 3.15449V12.2116C191.535 12.9869 192.162 13.6239 192.942 13.6239H200.19L204.373 17.1624V13.6239H206.766C207.538 13.6239 208.173 12.9945 208.173 12.2116V3.14681C208.18 2.37158 207.553 1.74219 206.773 1.74219Z" fill="#FED402"/>
<path d="M80.166 102.785H66.3346C65.5623 102.785 64.9277 103.415 64.9277 104.197V113.255C64.9277 114.03 65.5547 114.667 66.3346 114.667H73.5829L77.7652 118.205V114.667H80.1584C80.9306 114.667 81.5652 114.038 81.5652 113.255V104.19C81.5729 103.415 80.9459 102.785 80.166 102.785Z" fill="#FED402"/>
<path d="M206.773 102.785H192.942C192.17 102.785 191.535 103.415 191.535 104.197V113.255C191.535 114.03 192.162 114.667 192.942 114.667H200.19L204.373 118.205V114.667H206.766C207.538 114.667 208.173 114.038 208.173 113.255V104.19C208.18 103.415 207.553 102.785 206.773 102.785Z" fill="#FED402"/>
<path d="M101.267 69.1035H87.4352C86.6629 69.1035 86.0283 69.7329 86.0283 70.5158V79.573C86.0283 80.3482 86.6553 80.9853 87.4352 80.9853H94.6835L98.8658 84.5237V80.9853H101.259C102.031 80.9853 102.666 80.3559 102.666 79.573V70.5081C102.673 69.7329 102.046 69.1035 101.267 69.1035Z" fill="#FED402"/>
<path d="M227.875 69.1035H214.044C213.271 69.1035 212.637 69.7329 212.637 70.5158V79.573C212.637 80.3482 213.264 80.9853 214.044 80.9853H221.292L225.474 84.5237V80.9853H227.867C228.64 80.9853 229.274 80.3559 229.274 79.573V70.5081C229.282 69.7329 228.655 69.1035 227.875 69.1035Z" fill="#FED402"/>
<path d="M101.267 35.4219H87.4352C86.6629 35.4219 86.0283 36.0513 86.0283 36.8342V45.8913C86.0283 46.6666 86.6553 47.3036 87.4352 47.3036H94.6835L98.8658 50.8421V47.3036H101.259C102.031 47.3036 102.666 46.6742 102.666 45.8913V36.8265C102.673 36.0513 102.046 35.4219 101.267 35.4219Z" fill="#FED402"/>
<path d="M227.875 35.4219H214.044C213.271 35.4219 212.637 36.0513 212.637 36.8342V45.8913C212.637 46.6666 213.264 47.3036 214.044 47.3036H221.292L225.474 50.8421V47.3036H227.867C228.64 47.3036 229.274 46.6742 229.274 45.8913V36.8265C229.282 36.0513 228.655 35.4219 227.875 35.4219Z" fill="#FED402"/>
<path d="M101.267 136.465H87.4352C86.6629 136.465 86.0283 137.094 86.0283 137.877V146.934C86.0283 147.71 86.6553 148.347 87.4352 148.347H94.6835L98.8658 151.885V148.347H101.259C102.031 148.347 102.666 147.717 102.666 146.934V137.869C102.673 137.094 102.046 136.465 101.267 136.465Z" fill="#FED402"/>
<path d="M227.875 136.465H214.044C213.271 136.465 212.637 137.094 212.637 137.877V146.934C212.637 147.71 213.264 148.347 214.044 148.347H221.292L225.474 151.885V148.347H227.867C228.64 148.347 229.274 147.717 229.274 146.934V137.869C229.282 137.094 228.655 136.465 227.875 136.465Z" fill="#FED402"/>
<path d="M122.368 69.1035H108.537C107.764 69.1035 107.13 69.7329 107.13 70.5158V79.573C107.13 80.3482 107.757 80.9853 108.537 80.9853H115.785L119.967 84.5237V80.9853H122.361C123.133 80.9853 123.767 80.3559 123.767 79.573V70.5081C123.775 69.7329 123.148 69.1035 122.368 69.1035Z" fill="#FED402"/>
<path d="M248.976 69.1035H235.144C234.372 69.1035 233.737 69.7329 233.737 70.5158V79.573C233.737 80.3482 234.364 80.9853 235.144 80.9853H242.392L246.575 84.5237V80.9853H248.968C249.74 80.9853 250.375 80.3559 250.375 79.573V70.5081C250.382 69.7329 249.755 69.1035 248.976 69.1035Z" fill="#FED402"/>
<path d="M122.368 35.4219H108.537C107.764 35.4219 107.13 36.0513 107.13 36.8342V45.8913C107.13 46.6666 107.757 47.3036 108.537 47.3036H115.785L119.967 50.8421V47.3036H122.361C123.133 47.3036 123.767 46.6742 123.767 45.8913V36.8265C123.775 36.0513 123.148 35.4219 122.368 35.4219Z" fill="#FED402"/>
<path d="M248.976 35.4219H235.144C234.372 35.4219 233.737 36.0513 233.737 36.8342V45.8913C233.737 46.6666 234.364 47.3036 235.144 47.3036H242.392L246.575 50.8421V47.3036H248.968C249.74 47.3036 250.375 46.6742 250.375 45.8913V36.8265C250.382 36.0513 249.755 35.4219 248.976 35.4219Z" fill="#FED402"/>
<path d="M122.368 136.465H108.537C107.764 136.465 107.13 137.094 107.13 137.877V146.934C107.13 147.71 107.757 148.347 108.537 148.347H115.785L119.967 151.885V148.347H122.361C123.133 148.347 123.767 147.717 123.767 146.934V137.869C123.775 137.094 123.148 136.465 122.368 136.465Z" fill="#FED402"/>
<path d="M248.976 136.465H235.144C234.372 136.465 233.737 137.094 233.737 137.877V146.934C233.737 147.71 234.364 148.347 235.144 148.347H242.392L246.575 151.885V148.347H248.968C249.74 148.347 250.375 147.717 250.375 146.934V137.869C250.382 137.094 249.755 136.465 248.976 136.465Z" fill="#FED402"/>
<path d="M16.8623 69.1035H3.03087C2.25863 69.1035 1.62402 69.7329 1.62402 70.5158V79.573C1.62402 80.3482 2.25099 80.9853 3.03087 80.9853H10.2792L14.4615 84.5237V80.9853H16.8547C17.6269 80.9853 18.2615 80.3559 18.2615 79.573V70.5081C18.2692 69.7329 17.6422 69.1035 16.8623 69.1035Z" fill="#FED402"/>
<path d="M143.47 69.1035H129.638C128.866 69.1035 128.231 69.7329 128.231 70.5158V79.573C128.231 80.3482 128.858 80.9853 129.638 80.9853H136.887L141.069 84.5237V80.9853H143.462C144.234 80.9853 144.869 80.3559 144.869 79.573V70.5081C144.877 69.7329 144.25 69.1035 143.47 69.1035Z" fill="#FED402"/>
<path d="M270.078 69.1035H256.247C255.474 69.1035 254.84 69.7329 254.84 70.5158V79.573C254.84 80.3482 255.467 80.9853 256.247 80.9853H263.495L267.677 84.5237V80.9853H270.07C270.843 80.9853 271.477 80.3559 271.477 79.573V70.5081C271.485 69.7329 270.858 69.1035 270.078 69.1035Z" fill="#FED402"/>
<path d="M16.8623 35.4219H3.03087C2.25863 35.4219 1.62402 36.0513 1.62402 36.8342V45.8913C1.62402 46.6666 2.25099 47.3036 3.03087 47.3036H10.2792L14.4615 50.8421V47.3036H16.8547C17.6269 47.3036 18.2615 46.6742 18.2615 45.8913V36.8265C18.2692 36.0513 17.6422 35.4219 16.8623 35.4219Z" fill="#FED402"/>
<path d="M143.47 35.4219H129.638C128.866 35.4219 128.231 36.0513 128.231 36.8342V45.8913C128.231 46.6666 128.858 47.3036 129.638 47.3036H136.887L141.069 50.8421V47.3036H143.462C144.234 47.3036 144.869 46.6742 144.869 45.8913V36.8265C144.877 36.0513 144.25 35.4219 143.47 35.4219Z" fill="#FED402"/>
<path d="M270.078 35.4219H256.247C255.474 35.4219 254.84 36.0513 254.84 36.8342V45.8913C254.84 46.6666 255.467 47.3036 256.247 47.3036H263.495L267.677 50.8421V47.3036H270.07C270.843 47.3036 271.477 46.6742 271.477 45.8913V36.8265C271.485 36.0513 270.858 35.4219 270.078 35.4219Z" fill="#FED402"/>
<path d="M16.8623 136.465H3.03087C2.25863 136.465 1.62402 137.094 1.62402 137.877V146.934C1.62402 147.71 2.25099 148.347 3.03087 148.347H10.2792L14.4615 151.885V148.347H16.8547C17.6269 148.347 18.2615 147.717 18.2615 146.934V137.869C18.2692 137.094 17.6422 136.465 16.8623 136.465Z" fill="#FED402"/>
<path d="M143.47 136.465H129.638C128.866 136.465 128.231 137.094 128.231 137.877V146.934C128.231 147.71 128.858 148.347 129.638 148.347H136.887L141.069 151.885V148.347H143.462C144.234 148.347 144.869 147.717 144.869 146.934V137.869C144.877 137.094 144.25 136.465 143.47 136.465Z" fill="#FED402"/>
<path d="M270.078 136.465H256.247C255.474 136.465 254.84 137.094 254.84 137.877V146.934C254.84 147.71 255.467 148.347 256.247 148.347H263.495L267.677 151.885V148.347H270.07C270.843 148.347 271.477 147.717 271.477 146.934V137.869C271.485 137.094 270.858 136.465 270.078 136.465Z" fill="#FED402"/>
<path d="M37.9629 69.1035H24.1315C23.3592 69.1035 22.7246 69.7329 22.7246 70.5158V79.573C22.7246 80.3482 23.3516 80.9853 24.1315 80.9853H31.3798L35.5621 84.5237V80.9853H37.9553C38.7275 80.9853 39.3621 80.3559 39.3621 79.573V70.5081C39.3698 69.7329 38.7428 69.1035 37.9629 69.1035Z" fill="#FED402"/>
<path d="M164.571 69.1035H150.74C149.968 69.1035 149.333 69.7329 149.333 70.5158V79.573C149.333 80.3482 149.96 80.9853 150.74 80.9853H157.988L162.17 84.5237V80.9853H164.564C165.336 80.9853 165.971 80.3559 165.971 79.573V70.5081C165.978 69.7329 165.351 69.1035 164.571 69.1035Z" fill="#FED402"/>
<path d="M291.179 69.1035H277.347C276.575 69.1035 275.94 69.7329 275.94 70.5158V79.573C275.94 80.3482 276.567 80.9853 277.347 80.9853H284.596L288.778 84.5237V80.9853H291.171C291.943 80.9853 292.578 80.3559 292.578 79.573V70.5081C292.586 69.7329 291.959 69.1035 291.179 69.1035Z" fill="#FED402"/>
<path d="M37.9629 35.4219H24.1315C23.3592 35.4219 22.7246 36.0513 22.7246 36.8342V45.8913C22.7246 46.6666 23.3516 47.3036 24.1315 47.3036H31.3798L35.5621 50.8421V47.3036H37.9553C38.7275 47.3036 39.3621 46.6742 39.3621 45.8913V36.8265C39.3698 36.0513 38.7428 35.4219 37.9629 35.4219Z" fill="#FED402"/>
<path d="M164.571 35.4219H150.74C149.968 35.4219 149.333 36.0513 149.333 36.8342V45.8913C149.333 46.6666 149.96 47.3036 150.74 47.3036H157.988L162.17 50.8421V47.3036H164.564C165.336 47.3036 165.971 46.6742 165.971 45.8913V36.8265C165.978 36.0513 165.351 35.4219 164.571 35.4219Z" fill="#FED402"/>
<path d="M291.179 35.4219H277.347C276.575 35.4219 275.94 36.0513 275.94 36.8342V45.8913C275.94 46.6666 276.567 47.3036 277.347 47.3036H284.596L288.778 50.8421V47.3036H291.171C291.943 47.3036 292.578 46.6742 292.578 45.8913V36.8265C292.586 36.0513 291.959 35.4219 291.179 35.4219Z" fill="#FED402"/>
<path d="M37.9629 136.465H24.1315C23.3592 136.465 22.7246 137.094 22.7246 137.877V146.934C22.7246 147.71 23.3516 148.347 24.1315 148.347H31.3798L35.5621 151.885V148.347H37.9553C38.7275 148.347 39.3621 147.717 39.3621 146.934V137.869C39.3698 137.094 38.7428 136.465 37.9629 136.465Z" fill="#FED402"/>
<path d="M164.571 136.465H150.74C149.968 136.465 149.333 137.094 149.333 137.877V146.934C149.333 147.71 149.96 148.347 150.74 148.347H157.988L162.17 151.885V148.347H164.564C165.336 148.347 165.971 147.717 165.971 146.934V137.869C165.978 137.094 165.351 136.465 164.571 136.465Z" fill="#FED402"/>
<path d="M291.179 136.465H277.347C276.575 136.465 275.94 137.094 275.94 137.877V146.934C275.94 147.71 276.567 148.347 277.347 148.347H284.596L288.778 151.885V148.347H291.171C291.943 148.347 292.578 147.717 292.578 146.934V137.869C292.586 137.094 291.959 136.465 291.179 136.465Z" fill="#FED402"/>
<path d="M59.0645 69.1035H45.233C44.4608 69.1035 43.8262 69.7329 43.8262 70.5158V79.573C43.8262 80.3482 44.4531 80.9853 45.233 80.9853H52.4813L56.6637 84.5237V80.9853H59.0568C59.8291 80.9853 60.4637 80.3559 60.4637 79.573V70.5081C60.4713 69.7329 59.8443 69.1035 59.0645 69.1035Z" fill="#FED402"/>
<path d="M185.672 69.1035H171.84C171.068 69.1035 170.434 69.7329 170.434 70.5158V79.573C170.434 80.3482 171.061 80.9853 171.84 80.9853H179.089L183.271 84.5237V80.9853H185.664C186.436 80.9853 187.071 80.3559 187.071 79.573V70.5081C187.079 69.7329 186.452 69.1035 185.672 69.1035Z" fill="#FED402"/>
<path d="M59.0645 35.4219H45.233C44.4608 35.4219 43.8262 36.0513 43.8262 36.8342V45.8913C43.8262 46.6666 44.4531 47.3036 45.233 47.3036H52.4813L56.6637 50.8421V47.3036H59.0568C59.8291 47.3036 60.4637 46.6742 60.4637 45.8913V36.8265C60.4713 36.0513 59.8443 35.4219 59.0645 35.4219Z" fill="#FED402"/>
<path d="M185.672 35.4219H171.84C171.068 35.4219 170.434 36.0513 170.434 36.8342V45.8913C170.434 46.6666 171.061 47.3036 171.84 47.3036H179.089L183.271 50.8421V47.3036H185.664C186.436 47.3036 187.071 46.6742 187.071 45.8913V36.8265C187.079 36.0513 186.452 35.4219 185.672 35.4219Z" fill="#FED402"/>
<path d="M59.0645 136.465H45.233C44.4608 136.465 43.8262 137.094 43.8262 137.877V146.934C43.8262 147.71 44.4531 148.347 45.233 148.347H52.4813L56.6637 151.885V148.347H59.0568C59.8291 148.347 60.4637 147.717 60.4637 146.934V137.869C60.4713 137.094 59.8443 136.465 59.0645 136.465Z" fill="#FED402"/>
<path d="M185.672 136.465H171.84C171.068 136.465 170.434 137.094 170.434 137.877V146.934C170.434 147.71 171.061 148.347 171.84 148.347H179.089L183.271 151.885V148.347H185.664C186.436 148.347 187.071 147.717 187.071 146.934V137.869C187.079 137.094 186.452 136.465 185.672 136.465Z" fill="#FED402"/>
<path d="M80.166 69.1035H66.3346C65.5623 69.1035 64.9277 69.7329 64.9277 70.5158V79.573C64.9277 80.3482 65.5547 80.9853 66.3346 80.9853H73.5829L77.7652 84.5237V80.9853H80.1584C80.9306 80.9853 81.5652 80.3559 81.5652 79.573V70.5081C81.5729 69.7329 80.9459 69.1035 80.166 69.1035Z" fill="#FED402"/>
<path d="M206.773 69.1035H192.942C192.17 69.1035 191.535 69.7329 191.535 70.5158V79.573C191.535 80.3482 192.162 80.9853 192.942 80.9853H200.19L204.373 84.5237V80.9853H206.766C207.538 80.9853 208.173 80.3559 208.173 79.573V70.5081C208.18 69.7329 207.553 69.1035 206.773 69.1035Z" fill="#FED402"/>
<path d="M80.166 35.4219H66.3346C65.5623 35.4219 64.9277 36.0513 64.9277 36.8342V45.8913C64.9277 46.6666 65.5547 47.3036 66.3346 47.3036H73.5829L77.7652 50.8421V47.3036H80.1584C80.9306 47.3036 81.5652 46.6742 81.5652 45.8913V36.8265C81.5729 36.0513 80.9459 35.4219 80.166 35.4219Z" fill="#FED402"/>
<path d="M206.773 35.4219H192.942C192.17 35.4219 191.535 36.0513 191.535 36.8342V45.8913C191.535 46.6666 192.162 47.3036 192.942 47.3036H200.19L204.373 50.8421V47.3036H206.766C207.538 47.3036 208.173 46.6742 208.173 45.8913V36.8265C208.18 36.0513 207.553 35.4219 206.773 35.4219Z" fill="#FED402"/>
<path d="M80.166 136.465H66.3346C65.5623 136.465 64.9277 137.094 64.9277 137.877V146.934C64.9277 147.71 65.5547 148.347 66.3346 148.347H73.5829L77.7652 151.885V148.347H80.1584C80.9306 148.347 81.5652 147.717 81.5652 146.934V137.869C81.5729 137.094 80.9459 136.465 80.166 136.465Z" fill="#FED402"/>
<path d="M206.773 136.465H192.942C192.17 136.465 191.535 137.094 191.535 137.877V146.934C191.535 147.71 192.162 148.347 192.942 148.347H200.19L204.373 151.885V148.347H206.766C207.538 148.347 208.173 147.717 208.173 146.934V137.869C208.18 137.094 207.553 136.465 206.773 136.465Z" fill="#FED402"/>
<path d="M87.4277 31.7695L101.259 31.7695C102.031 31.7695 102.666 31.1401 102.666 30.3572L102.666 21.3001C102.666 20.5248 102.039 19.8878 101.259 19.8878L94.0108 19.8878L89.8285 16.3493L89.8285 19.8878L87.4354 19.8878C86.6631 19.8878 86.0285 20.5172 86.0285 21.3001L86.0285 30.3649C86.0209 31.1401 86.6478 31.7695 87.4277 31.7695Z" stroke="#FED402" stroke-width="2"/>
<path d="M214.036 31.7695L227.868 31.7695C228.64 31.7695 229.274 31.1401 229.274 30.3572L229.274 21.3001C229.274 20.5248 228.647 19.8878 227.868 19.8878L220.619 19.8878L216.437 16.3493L216.437 19.8878L214.044 19.8878C213.272 19.8878 212.637 20.5172 212.637 21.3001L212.637 30.3649C212.629 31.1401 213.256 31.7695 214.036 31.7695Z" stroke="#FED402" stroke-width="2"/>
<path d="M87.4277 132.812L101.259 132.812C102.031 132.812 102.666 132.183 102.666 131.4L102.666 122.343C102.666 121.568 102.039 120.931 101.259 120.931L94.0108 120.931L89.8285 117.392L89.8285 120.931L87.4354 120.931C86.6631 120.931 86.0285 121.56 86.0285 122.343L86.0285 131.408C86.0209 132.183 86.6478 132.812 87.4277 132.812Z" stroke="#FED402" stroke-width="2"/>
<path d="M214.036 132.812L227.868 132.812C228.64 132.812 229.274 132.183 229.274 131.4L229.274 122.343C229.274 121.568 228.647 120.931 227.868 120.931L220.619 120.931L216.437 117.392L216.437 120.931L214.044 120.931C213.272 120.931 212.637 121.56 212.637 122.343L212.637 131.408C212.629 132.183 213.256 132.812 214.036 132.812Z" stroke="#FED402" stroke-width="2"/>
<path d="M108.529 31.7695L122.361 31.7695C123.133 31.7695 123.768 31.1401 123.768 30.3572L123.768 21.3001C123.768 20.5248 123.141 19.8878 122.361 19.8878L115.112 19.8878L110.93 16.3493L110.93 19.8878L108.537 19.8878C107.765 19.8878 107.13 20.5172 107.13 21.3001L107.13 30.3649C107.122 31.1401 107.749 31.7695 108.529 31.7695Z" stroke="#FED402" stroke-width="2"/>
<path d="M235.137 31.7695L248.968 31.7695C249.74 31.7695 250.375 31.1401 250.375 30.3572L250.375 21.3001C250.375 20.5248 249.748 19.8878 248.968 19.8878L241.72 19.8878L237.538 16.3493L237.538 19.8878L235.144 19.8878C234.372 19.8878 233.738 20.5172 233.738 21.3001L233.738 30.3649C233.73 31.1401 234.357 31.7695 235.137 31.7695Z" stroke="#FED402" stroke-width="2"/>
<path d="M108.529 132.812L122.361 132.812C123.133 132.812 123.768 132.183 123.768 131.4L123.768 122.343C123.768 121.568 123.141 120.931 122.361 120.931L115.112 120.931L110.93 117.392L110.93 120.931L108.537 120.931C107.765 120.931 107.13 121.56 107.13 122.343L107.13 131.408C107.122 132.183 107.749 132.812 108.529 132.812Z" stroke="#FED402" stroke-width="2"/>
<path d="M235.137 132.812L248.968 132.812C249.74 132.812 250.375 132.183 250.375 131.4L250.375 122.343C250.375 121.568 249.748 120.931 248.968 120.931L241.72 120.931L237.538 117.392L237.538 120.931L235.144 120.931C234.372 120.931 233.738 121.56 233.738 122.343L233.738 131.408C233.73 132.183 234.357 132.812 235.137 132.812Z" stroke="#FED402" stroke-width="2"/>
<path d="M3.02342 31.7695L16.8549 31.7695C17.6271 31.7695 18.2617 31.1401 18.2617 30.3572L18.2617 21.3001C18.2617 20.5248 17.6348 19.8878 16.8549 19.8878L9.60655 19.8878L5.42424 16.3493L5.42424 19.8878L3.03107 19.8878C2.25883 19.8878 1.62422 20.5172 1.62422 21.3001L1.62422 30.3649C1.61658 31.1401 2.24354 31.7695 3.02342 31.7695Z" stroke="#FED402" stroke-width="2"/>
<path d="M129.631 31.7695L143.462 31.7695C144.235 31.7695 144.869 31.1401 144.869 30.3572L144.869 21.3001C144.869 20.5248 144.242 19.8878 143.462 19.8878L136.214 19.8878L132.032 16.3493L132.032 19.8878L129.638 19.8878C128.866 19.8878 128.232 20.5172 128.232 21.3001L128.232 30.3649C128.224 31.1401 128.851 31.7695 129.631 31.7695Z" stroke="#FED402" stroke-width="2"/>
<path d="M256.238 31.7695L270.07 31.7695C270.842 31.7695 271.477 31.1401 271.477 30.3572L271.477 21.3001C271.477 20.5248 270.85 19.8878 270.07 19.8878L262.821 19.8878L258.639 16.3493L258.639 19.8878L256.246 19.8878C255.474 19.8878 254.839 20.5172 254.839 21.3001L254.839 30.3649C254.831 31.1401 255.458 31.7695 256.238 31.7695Z" stroke="#FED402" stroke-width="2"/>
<path d="M3.02342 132.812L16.8549 132.812C17.6271 132.812 18.2617 132.183 18.2617 131.4L18.2617 122.343C18.2617 121.568 17.6348 120.931 16.8549 120.931L9.60655 120.931L5.42424 117.392L5.42424 120.931L3.03107 120.931C2.25883 120.931 1.62422 121.56 1.62422 122.343L1.62422 131.408C1.61658 132.183 2.24354 132.812 3.02342 132.812Z" stroke="#FED402" stroke-width="2"/>
<path d="M129.631 132.812L143.462 132.812C144.235 132.812 144.869 132.183 144.869 131.4L144.869 122.343C144.869 121.568 144.242 120.931 143.462 120.931L136.214 120.931L132.032 117.392L132.032 120.931L129.638 120.931C128.866 120.931 128.232 121.56 128.232 122.343L128.232 131.408C128.224 132.183 128.851 132.812 129.631 132.812Z" stroke="#FED402" stroke-width="2"/>
<path d="M256.238 132.812L270.07 132.812C270.842 132.812 271.477 132.183 271.477 131.4L271.477 122.343C271.477 121.568 270.85 120.931 270.07 120.931L262.821 120.931L258.639 117.392L258.639 120.931L256.246 120.931C255.474 120.931 254.839 121.56 254.839 122.343L254.839 131.408C254.831 132.183 255.458 132.812 256.238 132.812Z" stroke="#FED402" stroke-width="2"/>
<path d="M24.124 31.7695L37.9555 31.7695C38.7277 31.7695 39.3623 31.1401 39.3623 30.3572L39.3623 21.3001C39.3623 20.5248 38.7353 19.8878 37.9555 19.8878L30.7071 19.8878L26.5248 16.3493L26.5248 19.8878L24.1317 19.8878C23.3594 19.8878 22.7248 20.5172 22.7248 21.3001L22.7248 30.3649C22.7172 31.1401 23.3441 31.7695 24.124 31.7695Z" stroke="#FED402" stroke-width="2"/>
<path d="M150.731 31.7695L164.563 31.7695C165.335 31.7695 165.97 31.1401 165.97 30.3572L165.97 21.3001C165.97 20.5248 165.343 19.8878 164.563 19.8878L157.315 19.8878L153.132 16.3493L153.132 19.8878L150.739 19.8878C149.967 19.8878 149.332 20.5172 149.332 21.3001L149.332 30.3649C149.325 31.1401 149.952 31.7695 150.731 31.7695Z" stroke="#FED402" stroke-width="2"/>
<path d="M277.34 31.7695L291.171 31.7695C291.944 31.7695 292.578 31.1401 292.578 30.3572L292.578 21.3001C292.578 20.5248 291.951 19.8878 291.171 19.8878L283.923 19.8878L279.741 16.3493L279.741 19.8878L277.347 19.8878C276.575 19.8878 275.941 20.5172 275.941 21.3001L275.941 30.3649C275.933 31.1401 276.56 31.7695 277.34 31.7695Z" stroke="#FED402" stroke-width="2"/>
<path d="M24.124 132.812L37.9555 132.812C38.7277 132.812 39.3623 132.183 39.3623 131.4L39.3623 122.343C39.3623 121.568 38.7353 120.931 37.9555 120.931L30.7071 120.931L26.5248 117.392L26.5248 120.931L24.1317 120.931C23.3594 120.931 22.7248 121.56 22.7248 122.343L22.7248 131.408C22.7172 132.183 23.3441 132.812 24.124 132.812Z" stroke="#FED402" stroke-width="2"/>
<path d="M150.731 132.812L164.563 132.812C165.335 132.812 165.97 132.183 165.97 131.4L165.97 122.343C165.97 121.568 165.343 120.931 164.563 120.931L157.315 120.931L153.132 117.392L153.132 120.931L150.739 120.931C149.967 120.931 149.332 121.56 149.332 122.343L149.332 131.408C149.325 132.183 149.952 132.812 150.731 132.812Z" stroke="#FED402" stroke-width="2"/>
<path d="M277.34 132.812L291.171 132.812C291.944 132.812 292.578 132.183 292.578 131.4L292.578 122.343C292.578 121.568 291.951 120.931 291.171 120.931L283.923 120.931L279.741 117.392L279.741 120.931L277.347 120.931C276.575 120.931 275.941 121.56 275.941 122.343L275.941 131.408C275.933 132.183 276.56 132.812 277.34 132.812Z" stroke="#FED402" stroke-width="2"/>
<path d="M45.2256 31.7695L59.057 31.7695C59.8293 31.7695 60.4639 31.1401 60.4639 30.3572L60.4639 21.3001C60.4639 20.5248 59.8369 19.8878 59.057 19.8878L51.8087 19.8878L47.6264 16.3493L47.6264 19.8878L45.2332 19.8878C44.461 19.8878 43.8264 20.5172 43.8264 21.3001L43.8264 30.3649C43.8187 31.1401 44.4457 31.7695 45.2256 31.7695Z" stroke="#FED402" stroke-width="2"/>
<path d="M171.833 31.7695L185.664 31.7695C186.437 31.7695 187.071 31.1401 187.071 30.3572L187.071 21.3001C187.071 20.5248 186.444 19.8878 185.664 19.8878L178.416 19.8878L174.234 16.3493L174.234 19.8878L171.841 19.8878C171.068 19.8878 170.434 20.5172 170.434 21.3001L170.434 30.3649C170.426 31.1401 171.053 31.7695 171.833 31.7695Z" stroke="#FED402" stroke-width="2"/>
<path d="M45.2256 132.812L59.057 132.812C59.8293 132.812 60.4639 132.183 60.4639 131.4L60.4639 122.343C60.4639 121.568 59.8369 120.931 59.057 120.931L51.8087 120.931L47.6264 117.392L47.6264 120.931L45.2332 120.931C44.461 120.931 43.8264 121.56 43.8264 122.343L43.8264 131.408C43.8187 132.183 44.4457 132.812 45.2256 132.812Z" stroke="#FED402" stroke-width="2"/>
<path d="M171.833 132.812L185.664 132.812C186.437 132.812 187.071 132.183 187.071 131.4L187.071 122.343C187.071 121.568 186.444 120.931 185.664 120.931L178.416 120.931L174.234 117.392L174.234 120.931L171.841 120.931C171.068 120.931 170.434 121.56 170.434 122.343L170.434 131.408C170.426 132.183 171.053 132.812 171.833 132.812Z" stroke="#FED402" stroke-width="2"/>
<path d="M66.3271 31.7695L80.1586 31.7695C80.9308 31.7695 81.5654 31.1401 81.5654 30.3572L81.5654 21.3001C81.5654 20.5248 80.9385 19.8878 80.1586 19.8878L72.9103 19.8878L68.728 16.3493L68.728 19.8878L66.3348 19.8878C65.5625 19.8878 64.9279 20.5172 64.9279 21.3001L64.9279 30.3649C64.9203 31.1401 65.5473 31.7695 66.3271 31.7695Z" stroke="#FED402" stroke-width="2"/>
<path d="M192.935 31.7695L206.766 31.7695C207.538 31.7695 208.173 31.1401 208.173 30.3572L208.173 21.3001C208.173 20.5248 207.546 19.8878 206.766 19.8878L199.518 19.8878L195.335 16.3493L195.335 19.8878L192.942 19.8878C192.17 19.8878 191.535 20.5172 191.535 21.3001L191.535 30.3649C191.528 31.1401 192.155 31.7695 192.935 31.7695Z" stroke="#FED402" stroke-width="2"/>
<path d="M66.3271 132.812L80.1586 132.812C80.9308 132.812 81.5654 132.183 81.5654 131.4L81.5654 122.343C81.5654 121.568 80.9385 120.931 80.1586 120.931L72.9103 120.931L68.728 117.392L68.728 120.931L66.3348 120.931C65.5625 120.931 64.9279 121.56 64.9279 122.343L64.9279 131.408C64.9203 132.183 65.5473 132.812 66.3271 132.812Z" stroke="#FED402" stroke-width="2"/>
<path d="M192.935 132.812L206.766 132.812C207.538 132.812 208.173 132.183 208.173 131.4L208.173 122.343C208.173 121.568 207.546 120.931 206.766 120.931L199.518 120.931L195.335 117.392L195.335 120.931L192.942 120.931C192.17 120.931 191.535 121.56 191.535 122.343L191.535 131.408C191.528 132.183 192.155 132.812 192.935 132.812Z" stroke="#FED402" stroke-width="2"/>
<path d="M87.4277 99.1328L101.259 99.1328C102.031 99.1328 102.666 98.5034 102.666 97.7205L102.666 88.6634C102.666 87.8881 102.039 87.2511 101.259 87.2511L94.0108 87.2511L89.8285 83.7126L89.8285 87.2511L87.4354 87.2511C86.6631 87.2511 86.0285 87.8805 86.0285 88.6634L86.0285 97.7282C86.0209 98.5034 86.6478 99.1328 87.4277 99.1328Z" stroke="#FED402" stroke-width="2"/>
<path d="M214.036 99.1328L227.868 99.1328C228.64 99.1328 229.274 98.5034 229.274 97.7205L229.274 88.6634C229.274 87.8881 228.647 87.2511 227.868 87.2511L220.619 87.2511L216.437 83.7126L216.437 87.2511L214.044 87.2511C213.272 87.2511 212.637 87.8805 212.637 88.6634L212.637 97.7282C212.629 98.5034 213.256 99.1328 214.036 99.1328Z" stroke="#FED402" stroke-width="2"/>
<path d="M87.4277 65.4512L101.259 65.4512C102.031 65.4512 102.666 64.8218 102.666 64.0389L102.666 54.9817C102.666 54.2065 102.039 53.5694 101.259 53.5694L94.0108 53.5694L89.8285 50.031L89.8285 53.5694L87.4354 53.5694C86.6631 53.5694 86.0285 54.1988 86.0285 54.9817L86.0285 64.0465C86.0209 64.8218 86.6478 65.4512 87.4277 65.4512Z" stroke="#FED402" stroke-width="2"/>
<path d="M214.036 65.4512L227.868 65.4512C228.64 65.4512 229.274 64.8218 229.274 64.0389L229.274 54.9817C229.274 54.2065 228.647 53.5694 227.868 53.5694L220.619 53.5694L216.437 50.031L216.437 53.5694L214.044 53.5694C213.272 53.5694 212.637 54.1988 212.637 54.9817L212.637 64.0465C212.629 64.8218 213.256 65.4512 214.036 65.4512Z" stroke="#FED402" stroke-width="2"/>
<path d="M87.4277 166.494L101.259 166.494C102.031 166.494 102.666 165.865 102.666 165.082L102.666 156.025C102.666 155.249 102.039 154.612 101.259 154.612L94.0108 154.612L89.8285 151.074L89.8285 154.612L87.4354 154.612C86.6631 154.612 86.0285 155.242 86.0285 156.025L86.0285 165.09C86.0209 165.865 86.6478 166.494 87.4277 166.494Z" stroke="#FED402" stroke-width="2"/>
<path d="M214.036 166.494L227.868 166.494C228.64 166.494 229.274 165.865 229.274 165.082L229.274 156.025C229.274 155.249 228.647 154.612 227.868 154.612L220.619 154.612L216.437 151.074L216.437 154.612L214.044 154.612C213.272 154.612 212.637 155.242 212.637 156.025L212.637 165.09C212.629 165.865 213.256 166.494 214.036 166.494Z" stroke="#FED402" stroke-width="2"/>
<path d="M108.529 99.1328L122.361 99.1328C123.133 99.1328 123.768 98.5034 123.768 97.7205L123.768 88.6634C123.768 87.8881 123.141 87.2511 122.361 87.2511L115.112 87.2511L110.93 83.7126L110.93 87.2511L108.537 87.2511C107.765 87.2511 107.13 87.8805 107.13 88.6634L107.13 97.7282C107.122 98.5034 107.749 99.1328 108.529 99.1328Z" stroke="#FED402" stroke-width="2"/>
<path d="M235.137 99.1328L248.968 99.1328C249.74 99.1328 250.375 98.5034 250.375 97.7205L250.375 88.6634C250.375 87.8881 249.748 87.2511 248.968 87.2511L241.72 87.2511L237.538 83.7126L237.538 87.2511L235.144 87.2511C234.372 87.2511 233.738 87.8805 233.738 88.6634L233.738 97.7282C233.73 98.5034 234.357 99.1328 235.137 99.1328Z" stroke="#FED402" stroke-width="2"/>
<path d="M108.529 65.4512L122.361 65.4512C123.133 65.4512 123.768 64.8218 123.768 64.0389L123.768 54.9817C123.768 54.2065 123.141 53.5694 122.361 53.5694L115.112 53.5694L110.93 50.031L110.93 53.5694L108.537 53.5694C107.765 53.5694 107.13 54.1988 107.13 54.9817L107.13 64.0465C107.122 64.8218 107.749 65.4512 108.529 65.4512Z" stroke="#FED402" stroke-width="2"/>
<path d="M235.137 65.4512L248.968 65.4512C249.74 65.4512 250.375 64.8218 250.375 64.0389L250.375 54.9817C250.375 54.2065 249.748 53.5694 248.968 53.5694L241.72 53.5694L237.538 50.031L237.538 53.5694L235.144 53.5694C234.372 53.5694 233.738 54.1988 233.738 54.9817L233.738 64.0465C233.73 64.8218 234.357 65.4512 235.137 65.4512Z" stroke="#FED402" stroke-width="2"/>
<path d="M108.529 166.494L122.361 166.494C123.133 166.494 123.768 165.865 123.768 165.082L123.768 156.025C123.768 155.249 123.141 154.612 122.361 154.612L115.112 154.612L110.93 151.074L110.93 154.612L108.537 154.612C107.765 154.612 107.13 155.242 107.13 156.025L107.13 165.09C107.122 165.865 107.749 166.494 108.529 166.494Z" stroke="#FED402" stroke-width="2"/>
<path d="M235.137 166.494L248.968 166.494C249.74 166.494 250.375 165.865 250.375 165.082L250.375 156.025C250.375 155.249 249.748 154.612 248.968 154.612L241.72 154.612L237.538 151.074L237.538 154.612L235.144 154.612C234.372 154.612 233.738 155.242 233.738 156.025L233.738 165.09C233.73 165.865 234.357 166.494 235.137 166.494Z" stroke="#FED402" stroke-width="2"/>
<path d="M3.02342 99.1328L16.8549 99.1328C17.6271 99.1328 18.2617 98.5034 18.2617 97.7205L18.2617 88.6634C18.2617 87.8881 17.6348 87.2511 16.8549 87.2511L9.60655 87.2511L5.42424 83.7126L5.42424 87.2511L3.03107 87.2511C2.25883 87.2511 1.62422 87.8805 1.62422 88.6634L1.62422 97.7282C1.61658 98.5034 2.24354 99.1328 3.02342 99.1328Z" stroke="#FED402" stroke-width="2"/>
<path d="M129.631 99.1328L143.462 99.1328C144.235 99.1328 144.869 98.5034 144.869 97.7205L144.869 88.6634C144.869 87.8881 144.242 87.2511 143.462 87.2511L136.214 87.2511L132.032 83.7126L132.032 87.2511L129.638 87.2511C128.866 87.2511 128.232 87.8805 128.232 88.6634L128.232 97.7282C128.224 98.5034 128.851 99.1328 129.631 99.1328Z" stroke="#FED402" stroke-width="2"/>
<path d="M256.238 99.1328L270.07 99.1328C270.842 99.1328 271.477 98.5034 271.477 97.7205L271.477 88.6634C271.477 87.8881 270.85 87.2511 270.07 87.2511L262.821 87.2511L258.639 83.7126L258.639 87.2511L256.246 87.2511C255.474 87.2511 254.839 87.8805 254.839 88.6634L254.839 97.7282C254.831 98.5034 255.458 99.1328 256.238 99.1328Z" stroke="#FED402" stroke-width="2"/>
<path d="M3.02342 65.4512L16.8549 65.4512C17.6271 65.4512 18.2617 64.8218 18.2617 64.0389L18.2617 54.9817C18.2617 54.2065 17.6348 53.5694 16.8549 53.5694L9.60655 53.5694L5.42424 50.031L5.42424 53.5694L3.03107 53.5694C2.25883 53.5694 1.62422 54.1988 1.62422 54.9817L1.62422 64.0465C1.61658 64.8218 2.24354 65.4512 3.02342 65.4512Z" stroke="#FED402" stroke-width="2"/>
<path d="M129.631 65.4512L143.462 65.4512C144.235 65.4512 144.869 64.8218 144.869 64.0389L144.869 54.9817C144.869 54.2065 144.242 53.5694 143.462 53.5694L136.214 53.5694L132.032 50.031L132.032 53.5694L129.638 53.5694C128.866 53.5694 128.232 54.1988 128.232 54.9817L128.232 64.0465C128.224 64.8218 128.851 65.4512 129.631 65.4512Z" stroke="#FED402" stroke-width="2"/>
<path d="M256.238 65.4512L270.07 65.4512C270.842 65.4512 271.477 64.8218 271.477 64.0389L271.477 54.9817C271.477 54.2065 270.85 53.5694 270.07 53.5694L262.821 53.5694L258.639 50.031L258.639 53.5694L256.246 53.5694C255.474 53.5694 254.839 54.1988 254.839 54.9817L254.839 64.0465C254.831 64.8218 255.458 65.4512 256.238 65.4512Z" stroke="#FED402" stroke-width="2"/>
<path d="M3.02342 166.494L16.8549 166.494C17.6271 166.494 18.2617 165.865 18.2617 165.082L18.2617 156.025C18.2617 155.249 17.6348 154.612 16.8549 154.612L9.60655 154.612L5.42424 151.074L5.42424 154.612L3.03107 154.612C2.25883 154.612 1.62422 155.242 1.62422 156.025L1.62422 165.09C1.61658 165.865 2.24354 166.494 3.02342 166.494Z" stroke="#FED402" stroke-width="2"/>
<path d="M129.631 166.494L143.462 166.494C144.235 166.494 144.869 165.865 144.869 165.082L144.869 156.025C144.869 155.249 144.242 154.612 143.462 154.612L136.214 154.612L132.032 151.074L132.032 154.612L129.638 154.612C128.866 154.612 128.232 155.242 128.232 156.025L128.232 165.09C128.224 165.865 128.851 166.494 129.631 166.494Z" stroke="#FED402" stroke-width="2"/>
<path d="M256.238 166.494L270.07 166.494C270.842 166.494 271.477 165.865 271.477 165.082L271.477 156.025C271.477 155.249 270.85 154.612 270.07 154.612L262.821 154.612L258.639 151.074L258.639 154.612L256.246 154.612C255.474 154.612 254.839 155.242 254.839 156.025L254.839 165.09C254.831 165.865 255.458 166.494 256.238 166.494Z" stroke="#FED402" stroke-width="2"/>
<path d="M24.124 99.1328L37.9555 99.1328C38.7277 99.1328 39.3623 98.5034 39.3623 97.7205L39.3623 88.6634C39.3623 87.8881 38.7353 87.2511 37.9555 87.2511L30.7071 87.2511L26.5248 83.7126L26.5248 87.2511L24.1317 87.2511C23.3594 87.2511 22.7248 87.8805 22.7248 88.6634L22.7248 97.7282C22.7172 98.5034 23.3441 99.1328 24.124 99.1328Z" stroke="#FED402" stroke-width="2"/>
<path d="M150.731 99.1328L164.563 99.1328C165.335 99.1328 165.97 98.5034 165.97 97.7205L165.97 88.6634C165.97 87.8881 165.343 87.2511 164.563 87.2511L157.315 87.2511L153.132 83.7126L153.132 87.2511L150.739 87.2511C149.967 87.2511 149.332 87.8805 149.332 88.6634L149.332 97.7282C149.325 98.5034 149.952 99.1328 150.731 99.1328Z" stroke="#FED402" stroke-width="2"/>
<path d="M277.34 99.1328L291.171 99.1328C291.944 99.1328 292.578 98.5034 292.578 97.7205L292.578 88.6634C292.578 87.8881 291.951 87.2511 291.171 87.2511L283.923 87.2511L279.741 83.7126L279.741 87.2511L277.347 87.2511C276.575 87.2511 275.941 87.8805 275.941 88.6634L275.941 97.7282C275.933 98.5034 276.56 99.1328 277.34 99.1328Z" stroke="#FED402" stroke-width="2"/>
<path d="M24.124 65.4512L37.9555 65.4512C38.7277 65.4512 39.3623 64.8218 39.3623 64.0389L39.3623 54.9817C39.3623 54.2065 38.7353 53.5694 37.9555 53.5694L30.7071 53.5694L26.5248 50.031L26.5248 53.5694L24.1317 53.5694C23.3594 53.5694 22.7248 54.1988 22.7248 54.9817L22.7248 64.0465C22.7172 64.8218 23.3441 65.4512 24.124 65.4512Z" stroke="#FED402" stroke-width="2"/>
<path d="M150.731 65.4512L164.563 65.4512C165.335 65.4512 165.97 64.8218 165.97 64.0389L165.97 54.9817C165.97 54.2065 165.343 53.5694 164.563 53.5694L157.315 53.5694L153.132 50.031L153.132 53.5694L150.739 53.5694C149.967 53.5694 149.332 54.1988 149.332 54.9817L149.332 64.0465C149.325 64.8218 149.952 65.4512 150.731 65.4512Z" stroke="#FED402" stroke-width="2"/>
<path d="M277.34 65.4512L291.171 65.4512C291.944 65.4512 292.578 64.8218 292.578 64.0389L292.578 54.9817C292.578 54.2065 291.951 53.5694 291.171 53.5694L283.923 53.5694L279.741 50.031L279.741 53.5694L277.347 53.5694C276.575 53.5694 275.941 54.1988 275.941 54.9817L275.941 64.0465C275.933 64.8218 276.56 65.4512 277.34 65.4512Z" stroke="#FED402" stroke-width="2"/>
<path d="M24.124 166.494L37.9555 166.494C38.7277 166.494 39.3623 165.865 39.3623 165.082L39.3623 156.025C39.3623 155.249 38.7353 154.612 37.9555 154.612L30.7071 154.612L26.5248 151.074L26.5248 154.612L24.1317 154.612C23.3594 154.612 22.7248 155.242 22.7248 156.025L22.7248 165.09C22.7172 165.865 23.3441 166.494 24.124 166.494Z" stroke="#FED402" stroke-width="2"/>
<path d="M150.731 166.494L164.563 166.494C165.335 166.494 165.97 165.865 165.97 165.082L165.97 156.025C165.97 155.249 165.343 154.612 164.563 154.612L157.315 154.612L153.132 151.074L153.132 154.612L150.739 154.612C149.967 154.612 149.332 155.242 149.332 156.025L149.332 165.09C149.325 165.865 149.952 166.494 150.731 166.494Z" stroke="#FED402" stroke-width="2"/>
<path d="M277.34 166.494L291.171 166.494C291.944 166.494 292.578 165.865 292.578 165.082L292.578 156.025C292.578 155.249 291.951 154.612 291.171 154.612L283.923 154.612L279.741 151.074L279.741 154.612L277.347 154.612C276.575 154.612 275.941 155.242 275.941 156.025L275.941 165.09C275.933 165.865 276.56 166.494 277.34 166.494Z" stroke="#FED402" stroke-width="2"/>
<path d="M45.2256 99.1328L59.057 99.1328C59.8293 99.1328 60.4639 98.5034 60.4639 97.7205L60.4639 88.6634C60.4639 87.8881 59.8369 87.2511 59.057 87.2511L51.8087 87.2511L47.6264 83.7126L47.6264 87.2511L45.2332 87.2511C44.461 87.2511 43.8264 87.8805 43.8264 88.6634L43.8264 97.7282C43.8187 98.5034 44.4457 99.1328 45.2256 99.1328Z" stroke="#FED402" stroke-width="2"/>
<path d="M171.833 99.1328L185.664 99.1328C186.437 99.1328 187.071 98.5034 187.071 97.7205L187.071 88.6634C187.071 87.8881 186.444 87.2511 185.664 87.2511L178.416 87.2511L174.234 83.7126L174.234 87.2511L171.841 87.2511C171.068 87.2511 170.434 87.8805 170.434 88.6634L170.434 97.7282C170.426 98.5034 171.053 99.1328 171.833 99.1328Z" stroke="#FED402" stroke-width="2"/>
<path d="M45.2256 65.4512L59.057 65.4512C59.8293 65.4512 60.4639 64.8218 60.4639 64.0389L60.4639 54.9817C60.4639 54.2065 59.8369 53.5694 59.057 53.5694L51.8087 53.5694L47.6264 50.031L47.6264 53.5694L45.2332 53.5694C44.461 53.5694 43.8264 54.1988 43.8264 54.9817L43.8264 64.0465C43.8187 64.8218 44.4457 65.4512 45.2256 65.4512Z" stroke="#FED402" stroke-width="2"/>
<path d="M171.833 65.4512L185.664 65.4512C186.437 65.4512 187.071 64.8218 187.071 64.0389L187.071 54.9817C187.071 54.2065 186.444 53.5694 185.664 53.5694L178.416 53.5694L174.234 50.031L174.234 53.5694L171.841 53.5694C171.068 53.5694 170.434 54.1988 170.434 54.9817L170.434 64.0465C170.426 64.8218 171.053 65.4512 171.833 65.4512Z" stroke="#FED402" stroke-width="2"/>
<path d="M45.2256 166.494L59.057 166.494C59.8293 166.494 60.4639 165.865 60.4639 165.082L60.4639 156.025C60.4639 155.249 59.8369 154.612 59.057 154.612L51.8087 154.612L47.6264 151.074L47.6264 154.612L45.2332 154.612C44.461 154.612 43.8264 155.242 43.8264 156.025L43.8264 165.09C43.8187 165.865 44.4457 166.494 45.2256 166.494Z" stroke="#FED402" stroke-width="2"/>
<path d="M171.833 166.494L185.664 166.494C186.437 166.494 187.071 165.865 187.071 165.082L187.071 156.025C187.071 155.249 186.444 154.612 185.664 154.612L178.416 154.612L174.234 151.074L174.234 154.612L171.841 154.612C171.068 154.612 170.434 155.242 170.434 156.025L170.434 165.09C170.426 165.865 171.053 166.494 171.833 166.494Z" stroke="#FED402" stroke-width="2"/>
<path d="M66.3271 99.1328L80.1586 99.1328C80.9308 99.1328 81.5654 98.5034 81.5654 97.7205L81.5654 88.6634C81.5654 87.8881 80.9385 87.2511 80.1586 87.2511L72.9103 87.2511L68.728 83.7126L68.728 87.2511L66.3348 87.2511C65.5625 87.2511 64.9279 87.8805 64.9279 88.6634L64.9279 97.7282C64.9203 98.5034 65.5473 99.1328 66.3271 99.1328Z" stroke="#FED402" stroke-width="2"/>
<path d="M192.935 99.1328L206.766 99.1328C207.538 99.1328 208.173 98.5034 208.173 97.7205L208.173 88.6634C208.173 87.8881 207.546 87.2511 206.766 87.2511L199.518 87.2511L195.335 83.7126L195.335 87.2511L192.942 87.2511C192.17 87.2511 191.535 87.8805 191.535 88.6634L191.535 97.7282C191.528 98.5034 192.155 99.1328 192.935 99.1328Z" stroke="#FED402" stroke-width="2"/>
<path d="M66.3271 65.4512L80.1586 65.4512C80.9308 65.4512 81.5654 64.8218 81.5654 64.0389L81.5654 54.9817C81.5654 54.2065 80.9385 53.5694 80.1586 53.5694L72.9103 53.5694L68.728 50.031L68.728 53.5694L66.3348 53.5694C65.5625 53.5694 64.9279 54.1988 64.9279 54.9817L64.9279 64.0465C64.9203 64.8218 65.5473 65.4512 66.3271 65.4512Z" stroke="#FED402" stroke-width="2"/>
<path d="M192.935 65.4512L206.766 65.4512C207.538 65.4512 208.173 64.8218 208.173 64.0389L208.173 54.9817C208.173 54.2065 207.546 53.5694 206.766 53.5694L199.518 53.5694L195.335 50.031L195.335 53.5694L192.942 53.5694C192.17 53.5694 191.535 54.1988 191.535 54.9817L191.535 64.0465C191.528 64.8218 192.155 65.4512 192.935 65.4512Z" stroke="#FED402" stroke-width="2"/>
<path d="M66.3271 166.494L80.1586 166.494C80.9308 166.494 81.5654 165.865 81.5654 165.082L81.5654 156.025C81.5654 155.249 80.9385 154.612 80.1586 154.612L72.9103 154.612L68.728 151.074L68.728 154.612L66.3348 154.612C65.5625 154.612 64.9279 155.242 64.9279 156.025L64.9279 165.09C64.9203 165.865 65.5473 166.494 66.3271 166.494Z" stroke="#FED402" stroke-width="2"/>
<path d="M192.935 166.494L206.766 166.494C207.538 166.494 208.173 165.865 208.173 165.082L208.173 156.025C208.173 155.249 207.546 154.612 206.766 154.612L199.518 154.612L195.335 151.074L195.335 154.612L192.942 154.612C192.17 154.612 191.535 155.242 191.535 156.025L191.535 165.09C191.528 165.865 192.155 166.494 192.935 166.494Z" stroke="#FED402" stroke-width="2"/>
</g>
<rect x="1" y="1" width="278" height="165" rx="17" fill="url(#paint0_linear_247_2921)"/>
</g>
<path d="M261.379 1.23918L261.38 1.23918C271.205 1.23919 279.095 9.1819 278.999 18.9595L278.999 18.9694L278.999 127.167C278.999 137.057 271 145 261.278 145L72.2585 145L71.9297 145L71.665 145.195L46.2557 163.93L46.2557 146L46.2557 145.009L45.2647 145L18.7298 144.761L18.7208 144.761C8.90435 144.761 0.999976 136.722 0.999978 126.928L1.00005 18.8325C1.00005 8.94297 8.99912 0.999998 18.7208 1L161.494 1.11958L161.495 1.11958L261.379 1.23918Z" stroke="url(#paint1_linear_247_2921)" stroke-width="2"/>
<defs>
<linearGradient id="paint0_linear_247_2921" x1="1" y1="1" x2="290.67" y2="142.031" gradientUnits="userSpaceOnUse">
<stop/>
<stop offset="1" stop-opacity="0"/>
</linearGradient>
<linearGradient id="paint1_linear_247_2921" x1="5.34726e-07" y1="3.14832e-07" x2="109.797" y2="-75.5971" gradientUnits="userSpaceOnUse">
<stop stop-color="#999999" stop-opacity="0.5"/>
<stop offset="1" stop-color="#FED402" stop-opacity="0.5"/>
</linearGradient>
</defs>
</svg>
