<svg width="80" height="30" viewBox="0 0 80 30" fill="none" xmlns="http://www.w3.org/2000/svg">
<path d="M26.937 2.64185H2.48691C1.12181 2.64185 0 3.7585 0 5.14752V21.2165C0 22.5919 1.1083 23.7222 2.48691 23.7222H15.2999L22.693 30V23.7222H26.9235C28.2886 23.7222 29.4104 22.6055 29.4104 21.2165V5.1339C29.4239 3.75851 28.3156 2.64185 26.937 2.64185Z" fill="#000006"/>
<path d="M35.006 12.5964C35.9115 13.0594 36.9523 13.2773 38.1281 13.2773C39.1688 13.2773 40.1014 13.1003 40.9529 12.7326C41.8044 12.3649 42.4937 11.8611 43.0344 11.2074C43.575 10.5538 43.9129 9.80477 44.0345 8.96047H41.6557C41.4936 9.70945 41.1016 10.295 40.4664 10.7444C39.8311 11.1938 39.0472 11.4253 38.1281 11.4253C37.3983 11.4253 36.7765 11.2891 36.2224 11.0031C35.6818 10.7172 35.2628 10.3086 34.9654 9.77754C34.6681 9.24644 34.5194 8.60641 34.5194 7.88466C34.5194 7.1493 34.6681 6.50927 34.9654 5.97817C35.2628 5.44708 35.6818 5.03854 36.2224 4.75257C36.763 4.4666 37.3983 4.33042 38.1281 4.33042C39.0337 4.33042 39.8041 4.54831 40.4393 4.98407C41.0746 5.41984 41.48 6.03264 41.6557 6.80886H44.0345C43.9129 5.95094 43.5885 5.18834 43.0344 4.53469C42.4937 3.88103 41.7909 3.37717 40.9529 3.00949C40.1014 2.64181 39.1688 2.46478 38.1281 2.46478C36.9387 2.46478 35.898 2.69629 35.006 3.14567C34.1004 3.60868 33.3976 4.2351 32.8975 5.05216C32.3839 5.86923 32.1406 6.80886 32.1406 7.88466C32.1406 8.96047 32.3974 9.9001 32.8975 10.7172C33.4111 11.507 34.1139 12.1334 35.006 12.5964Z" fill="#000006"/>
<path d="M56.4553 9.9955C55.8335 10.4449 55.1037 10.7989 54.2792 11.0441C53.4548 11.2892 52.6573 11.4117 51.8734 11.4117C51.0084 11.4117 50.2515 11.262 49.6163 10.9624C48.981 10.6628 48.4945 10.2406 48.143 9.68229C47.9538 9.3827 47.8322 9.05587 47.7376 8.70181H56.7256C56.7256 7.43535 56.4958 6.33231 56.0363 5.39268C55.5767 4.45306 54.928 3.73131 54.09 3.21384C53.252 2.69636 52.2518 2.43762 51.1165 2.43762C49.9677 2.43762 48.954 2.66912 48.0619 3.11851C47.1699 3.58152 46.4806 4.20794 45.9805 5.01139C45.4804 5.81483 45.2236 6.75446 45.2236 7.83027C45.2236 8.91969 45.4939 9.85932 46.0211 10.6764C46.5482 11.4935 47.278 12.1335 48.2106 12.5829C49.1432 13.0459 50.1974 13.2638 51.4003 13.2638C52.3329 13.2638 53.2385 13.1276 54.1441 12.8416C55.0496 12.5556 55.8065 12.1743 56.4282 11.6977V9.9955H56.4553ZM49.2784 4.72541C49.792 4.43944 50.3867 4.30326 51.076 4.30326C51.7247 4.30326 52.2924 4.43944 52.7654 4.69818C53.2385 4.95691 53.6169 5.33821 53.9008 5.81484C54.09 6.12804 54.2116 6.49572 54.2927 6.89064H47.7105C47.7781 6.52296 47.8998 6.19613 48.0619 5.89654C48.3593 5.39268 48.7648 4.99777 49.2784 4.72541Z" fill="#000006"/>
<path d="M78.8104 11.153C78.4049 11.2755 77.9319 11.33 77.3913 11.33C76.5533 11.33 75.9586 11.153 75.5937 10.8125C75.2287 10.4721 75.0395 9.85928 75.0395 9.00136V4.53473H78.7293V2.69632H75.053V0L72.7013 2.88697L70.5117 3.45892V4.53473H72.7013V9.36904C72.7013 10.1316 72.8364 10.8125 73.1203 11.3981C73.4041 11.9837 73.8501 12.4467 74.4718 12.7871C75.0936 13.1276 75.891 13.291 76.9047 13.291C77.5129 13.291 78.0941 13.2229 78.6753 13.0731C79.2429 12.9233 79.6889 12.7735 79.9998 12.6101V10.6627C79.6079 10.867 79.2159 11.044 78.8104 11.153Z" fill="#000006"/>
<path d="M36.2634 20.1816C36.804 19.8956 37.4393 19.7594 38.1691 19.7594C39.0747 19.7594 39.8451 19.9773 40.4803 20.4131C41.1156 20.8489 41.5211 21.4617 41.6968 22.2379H44.0755C43.9539 21.38 43.616 20.6174 43.0754 19.9637C42.5347 19.31 41.8319 18.8062 40.9939 18.4385C40.1424 18.0708 39.2099 17.8938 38.1691 17.8938C36.9797 17.8938 35.939 18.1253 35.047 18.5747C34.1414 19.0377 33.4386 19.6641 32.9385 20.4812C32.4249 21.2982 32.1816 22.2379 32.1816 23.3137C32.1816 24.3895 32.4384 25.3291 32.9385 26.1462C33.4521 26.9632 34.1549 27.6033 35.047 28.0527C35.9525 28.5157 36.9933 28.7336 38.1691 28.7336C39.2099 28.7336 40.1424 28.5565 40.9939 28.1889C41.8454 27.8212 42.5347 27.3173 43.0754 26.6637C43.616 26.01 43.9539 25.261 44.0755 24.4167H41.6968C41.5346 25.1657 41.1426 25.7513 40.5074 26.2007C39.8721 26.65 39.0882 26.8815 38.1691 26.8815C37.4393 26.8815 36.8176 26.7454 36.2634 26.4594C35.7228 26.1734 35.3038 25.7649 35.0064 25.2338C34.7091 24.7027 34.5604 24.0627 34.5604 23.3409C34.5604 22.6056 34.7091 21.9655 35.0064 21.4344C35.2903 20.8761 35.7093 20.4676 36.2634 20.1816Z" fill="#000006"/>
<path d="M48.2111 14.4349H45.8594V28.4884H48.2111V14.4349Z" fill="#000006"/>
<path d="M51.8865 14.5983C51.4405 14.5983 51.0756 14.7208 50.7782 14.9659C50.4944 15.2111 50.3457 15.5379 50.3457 15.9464C50.3457 16.355 50.4944 16.6682 50.7782 16.9269C51.062 17.172 51.4405 17.2946 51.8865 17.2946C52.346 17.2946 52.711 17.172 52.9948 16.9269C53.2786 16.6818 53.4138 16.355 53.4138 15.9464C53.4138 15.5379 53.2651 15.2247 52.9948 14.9659C52.711 14.7208 52.346 14.5983 51.8865 14.5983Z" fill="#000006"/>
<path d="M50.7109 28.4748H53.0627V18.0844L50.7109 19.4598V28.4748Z" fill="#000006"/>
<path d="M58.4421 20.1816C58.9828 19.8956 59.618 19.7594 60.3478 19.7594C61.2534 19.7594 62.0238 19.9773 62.659 20.4131C63.2943 20.8489 63.6998 21.4617 63.8755 22.2379H66.2543C66.1326 21.38 65.8082 20.6174 65.2541 19.9637C64.7134 19.31 64.0106 18.8062 63.1727 18.4385C62.3212 18.0708 61.3886 17.8938 60.3478 17.8938C59.1585 17.8938 58.1177 18.1253 57.2257 18.5747C56.3201 19.0377 55.6173 19.6641 55.1172 20.4812C54.6036 21.2982 54.3604 22.2379 54.3604 23.3137C54.3604 24.3895 54.6171 25.3291 55.1172 26.1462C55.6308 26.9632 56.3337 27.6033 57.2257 28.0527C58.1313 28.5157 59.172 28.7336 60.3478 28.7336C61.3886 28.7336 62.3212 28.5565 63.1727 28.1889C64.0241 27.8212 64.7134 27.3173 65.2541 26.6637C65.7947 26.01 66.1326 25.261 66.2543 24.4167H63.862C63.6998 25.1657 63.3078 25.7513 62.6726 26.2007C62.0373 26.65 61.2534 26.8815 60.3343 26.8815C59.6045 26.8815 58.9828 26.7454 58.4286 26.4594C57.888 26.1734 57.469 25.7649 57.1716 25.2338C56.8743 24.7027 56.7256 24.0627 56.7256 23.3409C56.7256 22.6056 56.8743 21.9655 57.1716 21.4344C57.469 20.8761 57.888 20.4676 58.4421 20.1816Z" fill="#000006"/>
<path d="M78.3378 18.1526H75.6211L69.7958 25.3155V13.0186V7.31279C69.7958 6.29146 69.6201 5.41992 69.2551 4.69818C68.9037 3.97643 68.3766 3.4181 67.7008 3.02319C67.025 2.62827 66.2006 2.43762 65.241 2.43762C64.3759 2.43762 63.592 2.64189 62.8892 3.05042C62.1864 3.45896 61.6187 4.04452 61.1727 4.7935C61.0916 4.91606 61.0375 5.05224 60.97 5.18842L60.551 2.69636H58.1992L58.821 6.07357V13.0186H61.1727V7.98006C61.1727 7.25832 61.3079 6.6319 61.5782 6.10081C61.8485 5.56971 62.2404 5.14756 62.7405 4.84797C63.2406 4.54838 63.8218 4.39858 64.4841 4.39858C65.4437 4.39858 66.1871 4.67094 66.6871 5.22927C67.1872 5.7876 67.444 6.60467 67.444 7.68047V11.0577V28.4748H69.6336L73.2288 24.2125L75.8779 28.4748H78.6486L74.729 22.4422L78.3378 18.1526Z" fill="#000006"/>
<path d="M6.51438 17.4989C5.82508 17.4989 5.18983 17.3218 4.62217 16.9678C4.05451 16.6137 3.60849 16.1371 3.27059 15.5243C2.9327 14.9251 2.77051 14.2578 2.77051 13.5225C2.77051 12.9642 2.86512 12.4467 3.06785 11.9701C3.25708 11.4934 3.52739 11.0713 3.8788 10.7036C4.2167 10.3359 4.62217 10.0499 5.06819 9.84568C5.52773 9.64141 6.0143 9.53247 6.5279 9.53247C7.21721 9.53247 7.85245 9.7095 8.42011 10.0636C8.98777 10.4176 9.4338 10.9079 9.77169 11.5071C10.1096 12.1062 10.2718 12.7871 10.2718 13.5225C10.2718 14.0672 10.1772 14.5847 9.97443 15.0613C9.78521 15.5379 9.51489 15.9601 9.16348 16.3278C8.82558 16.6954 8.42011 16.9814 7.97409 17.1857C7.51455 17.4036 7.0415 17.4989 6.51438 17.4989ZM6.51438 15.6605C6.87931 15.6605 7.20369 15.5652 7.50104 15.3609C7.78487 15.1702 8.01464 14.9115 8.19034 14.5847C8.35253 14.2578 8.44714 13.9038 8.44714 13.5225C8.44714 13.1276 8.36605 12.7735 8.19034 12.4467C8.01464 12.1199 7.78487 11.8611 7.48752 11.6705C7.19017 11.4798 6.87931 11.3845 6.5279 11.3845C6.16297 11.3845 5.83859 11.4798 5.55476 11.6841C5.27093 11.8747 5.04116 12.1471 4.86546 12.4739C4.68975 12.8007 4.60866 13.1548 4.60866 13.5361C4.60866 13.931 4.68975 14.2987 4.86546 14.6119C5.04116 14.9387 5.27093 15.1839 5.56828 15.3745C5.85211 15.5652 6.17649 15.6605 6.51438 15.6605Z" fill="#FED402"/>
<path d="M18.3141 12.5283V17.3082H16.4895V13.0186C16.4895 12.719 16.4219 12.4466 16.2732 12.2015C16.1245 11.9564 15.9353 11.7657 15.692 11.6159C15.4488 11.4661 15.1784 11.398 14.8811 11.398C14.5838 11.398 14.3134 11.4661 14.0702 11.6159C13.8269 11.7657 13.6376 11.9564 13.489 12.2015C13.3403 12.4466 13.2727 12.719 13.2727 13.0186V17.3082H11.4481L11.4346 9.75029H13.2592L13.2727 10.4176C13.5295 10.1452 13.8269 9.92732 14.1918 9.77752C14.5432 9.61411 14.9352 9.54602 15.3406 9.54602C15.8813 9.54602 16.3814 9.6822 16.8274 9.95455C17.2734 10.2269 17.6383 10.581 17.9086 11.0304C18.179 11.4797 18.3141 11.9836 18.3141 12.5283Z" fill="#FED402"/>
<path d="M22.9636 17.4988C22.2743 17.4988 21.6391 17.3218 21.0714 16.9677C20.5037 16.6137 20.0577 16.1234 19.7198 15.5242C19.3819 14.925 19.2197 14.2578 19.2197 13.5224C19.2197 12.9777 19.3143 12.4602 19.5171 11.9836C19.7063 11.507 19.9766 11.0848 20.328 10.7171C20.6659 10.3495 21.0714 10.0635 21.5174 9.85923C21.9769 9.65496 22.4635 9.54602 22.9771 9.54602C23.5583 9.54602 24.0989 9.66858 24.5855 9.9137C25.0721 10.1588 25.4911 10.4993 25.829 10.935C26.1668 11.3708 26.4101 11.861 26.5723 12.4194C26.721 12.9777 26.7615 13.5497 26.6804 14.1625H21.193C21.2606 14.4484 21.3823 14.6935 21.5444 14.925C21.7066 15.1429 21.9094 15.3336 22.1527 15.4561C22.3959 15.5923 22.6798 15.6604 22.9906 15.6604C23.315 15.6604 23.5988 15.5923 23.8692 15.4289C24.126 15.2655 24.3557 15.0612 24.5314 14.7889L26.3966 15.2246C26.0857 15.8919 25.6397 16.4366 25.0315 16.8724C24.3828 17.2945 23.707 17.4988 22.9636 17.4988ZM21.1119 12.7734H24.8018C24.7477 12.4738 24.626 12.2015 24.4503 11.9564C24.2746 11.7112 24.0584 11.5206 23.7881 11.3708C23.5313 11.221 23.2474 11.1529 22.9501 11.1529C22.6527 11.1529 22.3689 11.221 22.1121 11.3708C21.8553 11.5206 21.6391 11.7112 21.4633 11.9564C21.3012 12.1879 21.1795 12.4738 21.1119 12.7734Z" fill="#FED402"/>
</svg>
