<svg width="120" height="45" viewBox="0 0 120 45" fill="none" xmlns="http://www.w3.org/2000/svg">
<g clip-path="url(#clip0_247_620)">
<path d="M40.4311 3.99127H3.82403C1.78018 3.99127 0.100586 5.66096 0.100586 7.73788V31.765C0.100586 33.8216 1.75995 35.5116 3.82403 35.5116H23.0078L34.077 44.8985V35.5116H40.4109C42.4547 35.5116 44.1343 33.842 44.1343 31.765V7.71752C44.1545 5.66096 42.4952 3.99127 40.4311 3.99127Z" fill="#FED402"/>
<path d="M52.5127 18.8759C53.8685 19.5682 55.4267 19.894 57.1872 19.894C58.7454 19.894 60.1417 19.6293 61.4166 19.0795C62.6915 18.5297 63.7235 17.7763 64.5329 16.799C65.3424 15.8216 65.8483 14.7017 66.0304 13.4392H62.4689C62.226 14.5591 61.6392 15.4347 60.6881 16.1067C59.737 16.7786 58.5633 17.1248 57.1872 17.1248C56.0945 17.1248 55.1636 16.9211 54.334 16.4935C53.5245 16.0659 52.8972 15.4551 52.452 14.661C52.0068 13.8668 51.7842 12.9098 51.7842 11.8306C51.7842 10.7311 52.0068 9.77407 52.452 8.97996C52.8972 8.18584 53.5245 7.57498 54.334 7.14738C55.1434 6.71977 56.0945 6.51615 57.1872 6.51615C58.5431 6.51615 59.6965 6.84195 60.6476 7.49353C61.5987 8.14511 62.2058 9.0614 62.4689 10.222H66.0304C65.8483 8.93923 65.3626 7.79896 64.5329 6.82158C63.7235 5.84421 62.6712 5.09082 61.4166 4.54104C60.1417 3.99127 58.7454 3.72656 57.1872 3.72656C55.4065 3.72656 53.8483 4.07272 52.5127 4.74466C51.1569 5.43697 50.1046 6.37362 49.3559 7.59534C48.5869 8.81706 48.2227 10.222 48.2227 11.8306C48.2227 13.4392 48.6071 14.8442 49.3559 16.0659C50.1248 17.2469 51.1771 18.1836 52.5127 18.8759Z" fill="white"/>
<path d="M84.6277 14.9865C83.6969 15.6584 82.6041 16.1878 81.3697 16.5543C80.1353 16.9208 78.9414 17.1041 77.7677 17.1041C76.4726 17.1041 75.3393 16.8801 74.3883 16.4322C73.4372 15.9842 72.7087 15.353 72.1825 14.5181C71.8992 14.0702 71.7171 13.5815 71.5754 13.0521H85.0324C85.0324 11.1584 84.6884 9.50908 84.0004 8.1041C83.3124 6.69912 82.341 5.61994 81.0864 4.84618C79.8318 4.07243 78.3343 3.68555 76.6345 3.68555C74.9144 3.68555 73.3967 4.0317 72.0611 4.70365C70.7255 5.39595 69.6935 6.33261 68.9447 7.53396C68.196 8.73532 67.8115 10.1403 67.8115 11.7489C67.8115 13.3779 68.2162 14.7828 69.0055 16.0046C69.7947 17.2263 70.8874 18.1833 72.2837 18.8552C73.68 19.5475 75.2584 19.8733 77.0594 19.8733C78.4557 19.8733 79.8115 19.6697 81.1673 19.2421C82.5232 18.8145 83.6564 18.2444 84.5872 17.5317V14.9865H84.6277ZM73.8823 7.10636C74.6513 6.67876 75.5417 6.47514 76.5737 6.47514C77.5451 6.47514 78.395 6.67876 79.1033 7.06564C79.8115 7.45251 80.3781 8.02265 80.8031 8.73532C81.0864 9.20365 81.2685 9.75342 81.3899 10.3439H71.535C71.6361 9.79415 71.8183 9.30546 72.0611 8.85749C72.5063 8.1041 73.1134 7.5136 73.8823 7.10636Z" fill="white"/>
<path d="M118.098 16.7175C117.491 16.9007 116.782 16.9822 115.973 16.9822C114.718 16.9822 113.828 16.7175 113.282 16.2084C112.735 15.6994 112.452 14.7831 112.452 13.5003V6.82156H117.976V4.07269H112.472V0.0410156L108.951 4.35776L105.673 5.21296V6.82156H108.951V14.0501C108.951 15.1903 109.153 16.2084 109.578 17.084C110.003 17.9596 110.671 18.6519 111.602 19.1609C112.533 19.67 113.727 19.9143 115.245 19.9143C116.155 19.9143 117.025 19.8125 117.895 19.5885C118.745 19.3645 119.413 19.1406 119.879 18.8962V15.9845C119.292 16.2899 118.705 16.5546 118.098 16.7175Z" fill="white"/>
<path d="M54.3945 30.2175C55.2039 29.7899 56.155 29.5863 57.2478 29.5863C58.6036 29.5863 59.7571 29.9121 60.7082 30.5637C61.6593 31.2152 62.2663 32.1315 62.5294 33.2922H66.091C65.9088 32.0094 65.4029 30.8691 64.5935 29.8917C63.784 28.9143 62.7318 28.1609 61.4771 27.6112C60.2023 27.0614 58.806 26.7967 57.2478 26.7967C55.467 26.7967 53.9088 27.1428 52.5733 27.8148C51.2174 28.5071 50.1652 29.4438 49.4164 30.6655C48.6475 31.8872 48.2832 33.2922 48.2832 34.9008C48.2832 36.5094 48.6677 37.9143 49.4164 39.1361C50.1854 40.3578 51.2377 41.3148 52.5733 41.9867C53.9291 42.679 55.4872 43.0048 57.2478 43.0048C58.806 43.0048 60.2023 42.7401 61.4771 42.1904C62.752 41.6406 63.784 40.8872 64.5935 39.9098C65.4029 38.9324 65.9088 37.8125 66.091 36.5501H62.5294C62.2866 37.67 61.6997 38.5456 60.7486 39.2175C59.7975 39.8895 58.6238 40.2356 57.2478 40.2356C56.155 40.2356 55.2242 40.032 54.3945 39.6044C53.5851 39.1768 52.9577 38.5659 52.5125 37.7718C52.0674 36.9777 51.8448 36.0207 51.8448 34.9415C51.8448 33.8419 52.0674 32.8849 52.5125 32.0908C52.9375 31.256 53.5648 30.6451 54.3945 30.2175Z" fill="white"/>
<path d="M72.2838 21.625H68.7627V42.6386H72.2838V21.625Z" fill="white"/>
<path d="M77.7874 21.8691C77.1196 21.8691 76.5732 22.0523 76.128 22.4189C75.7031 22.7854 75.4805 23.2741 75.4805 23.8849C75.4805 24.4958 75.7031 24.9641 76.128 25.351C76.553 25.7175 77.1196 25.9008 77.7874 25.9008C78.4754 25.9008 79.0218 25.7175 79.4467 25.351C79.8717 24.9845 80.0741 24.4958 80.0741 23.8849C80.0741 23.2741 79.8515 22.8057 79.4467 22.4189C79.0218 22.0523 78.4754 21.8691 77.7874 21.8691Z" fill="white"/>
<path d="M76.0264 42.6182H79.5474V27.082L76.0264 29.1386V42.6182Z" fill="white"/>
<path d="M87.6025 30.2175C88.412 29.7899 89.363 29.5863 90.4558 29.5863C91.8116 29.5863 92.9651 29.9121 93.9162 30.5637C94.8673 31.2152 95.4743 32.1315 95.7374 33.2922H99.299C99.1168 32.0094 98.6312 30.8691 97.8015 29.8917C96.992 28.9143 95.9398 28.1609 94.6851 27.6112C93.4103 27.0614 92.014 26.7967 90.4558 26.7967C88.675 26.7967 87.1168 27.1428 85.7813 27.8148C84.4254 28.5071 83.3732 29.4438 82.6244 30.6655C81.8555 31.8872 81.4912 33.2922 81.4912 34.9008C81.4912 36.5094 81.8757 37.9143 82.6244 39.1361C83.3934 40.3578 84.4457 41.3148 85.7813 41.9867C87.1371 42.679 88.6953 43.0048 90.4558 43.0048C92.014 43.0048 93.4103 42.7401 94.6851 42.1904C95.96 41.6406 96.992 40.8872 97.8015 39.9098C98.6109 38.9324 99.1168 37.8125 99.299 36.5501H95.7172C95.4743 37.67 94.8875 38.5456 93.9364 39.2175C92.9853 39.8895 91.8116 40.2356 90.4356 40.2356C89.3428 40.2356 88.4119 40.032 87.5823 39.6044C86.7728 39.1768 86.1455 38.5659 85.7003 37.7718C85.2551 36.9777 85.0325 36.0207 85.0325 34.9415C85.0325 33.8419 85.2551 32.8849 85.7003 32.0908C86.1455 31.256 86.7728 30.6451 87.6025 30.2175Z" fill="white"/>
<path d="M117.39 27.1833H113.323L104.601 37.8937V19.5068V10.9751C104.601 9.44799 104.338 8.14482 103.791 7.06564C103.265 5.98645 102.476 5.15161 101.464 4.56111C100.452 3.97062 99.2181 3.68555 97.7813 3.68555C96.4862 3.68555 95.3125 3.99098 94.2602 4.60184C93.2079 5.2127 92.358 6.08826 91.6902 7.20817C91.5688 7.39143 91.4879 7.59505 91.3867 7.79867L90.7594 4.07242H87.2383L88.1691 9.1222V19.5068H91.6902V11.9729C91.6902 10.8937 91.8926 9.95704 92.2973 9.16292C92.702 8.3688 93.2889 7.73758 94.0376 7.28962C94.7863 6.84166 95.6565 6.61767 96.6481 6.61767C98.0848 6.61767 99.1978 7.02491 99.9466 7.85975C100.695 8.6946 101.08 9.91632 101.08 11.5249V16.5747V42.6177H104.358L109.741 36.2444L113.707 42.6177H117.855L111.987 33.5973L117.39 27.1833Z" fill="white"/>
<path d="M9.85442 26.2057C8.82238 26.2057 7.87128 25.941 7.02137 25.4116C6.17145 24.8822 5.50366 24.1695 4.99776 23.2532C4.49186 22.3573 4.24902 21.3596 4.24902 20.26C4.24902 19.4252 4.39068 18.6514 4.69422 17.9387C4.97752 17.2261 5.38224 16.5949 5.90838 16.0451C6.41428 15.4953 7.02137 15.0677 7.68916 14.7623C8.37719 14.4568 9.10569 14.2939 9.87466 14.2939C10.9067 14.2939 11.8578 14.5587 12.7077 15.0881C13.5576 15.6175 14.2254 16.3505 14.7313 17.2464C15.2372 18.1424 15.4801 19.1605 15.4801 20.26C15.4801 21.0745 15.3384 21.8482 15.0349 22.5609C14.7516 23.2736 14.3468 23.9048 13.8207 24.4546C13.3148 25.0044 12.7077 25.432 12.0399 25.7374C11.3519 26.0632 10.6436 26.2057 9.85442 26.2057ZM9.85442 23.4568C10.4008 23.4568 10.8865 23.3143 11.3317 23.0089C11.7566 22.7238 12.1006 22.3369 12.3637 21.8482C12.6065 21.3596 12.7482 20.8301 12.7482 20.26C12.7482 19.6695 12.6268 19.1401 12.3637 18.6514C12.1006 18.1627 11.7566 17.7758 11.3114 17.4908C10.8662 17.2057 10.4008 17.0632 9.87466 17.0632C9.32828 17.0632 8.84262 17.2057 8.41766 17.5111C7.9927 17.7962 7.64869 18.2034 7.38562 18.6921C7.12255 19.1808 7.00113 19.7102 7.00113 20.2804C7.00113 20.8709 7.12255 21.4206 7.38562 21.889C7.64869 22.3777 7.9927 22.7442 8.43789 23.0292C8.86285 23.3143 9.34852 23.4568 9.85442 23.4568Z" fill="#000006"/>
<path d="M27.5209 18.7736V25.9207H24.789V19.5066C24.789 19.0587 24.6878 18.6514 24.4652 18.2849C24.2426 17.9184 23.9593 17.6333 23.5951 17.4094C23.2308 17.1854 22.8261 17.0836 22.3809 17.0836C21.9357 17.0836 21.531 17.1854 21.1667 17.4094C20.8025 17.6333 20.5192 17.9184 20.2966 18.2849C20.074 18.6514 19.9728 19.0587 19.9728 19.5066V25.9207H17.2409L17.2207 14.6198H19.9526L19.9728 15.6175C20.3573 15.2103 20.8025 14.8845 21.3489 14.6605C21.875 14.4161 22.4618 14.3143 23.0689 14.3143C23.8784 14.3143 24.6271 14.518 25.2949 14.9252C25.9627 15.3324 26.5091 15.8618 26.9138 16.5338C27.3185 17.2057 27.5209 17.9591 27.5209 18.7736Z" fill="#000006"/>
<path d="M34.4814 26.2057C33.4493 26.2057 32.4982 25.941 31.6483 25.4116C30.7984 24.8821 30.1306 24.1491 29.6247 23.2532C29.1188 22.3573 28.876 21.3595 28.876 20.26C28.876 19.4455 29.0176 18.6717 29.3212 17.9591C29.6045 17.2464 30.0092 16.6152 30.5353 16.0654C31.0412 15.5156 31.6483 15.088 32.3161 14.7826C33.0041 14.4772 33.7326 14.3143 34.5016 14.3143C35.3718 14.3143 36.1812 14.4975 36.9097 14.864C37.6382 15.2306 38.2655 15.7396 38.7714 16.3912C39.2773 17.0428 39.6416 17.7758 39.8844 18.6106C40.107 19.4455 40.1677 20.3007 40.0463 21.217H31.8304C31.9316 21.6446 32.1137 22.0111 32.3566 22.3573C32.5994 22.683 32.903 22.9681 33.2672 23.1514C33.6315 23.355 34.0564 23.4568 34.5218 23.4568C35.0075 23.4568 35.4325 23.355 35.8372 23.1107C36.2217 22.8663 36.5657 22.5609 36.8288 22.1536L39.6213 22.8052C39.1559 23.803 38.4881 24.6174 37.5775 25.269C36.6062 25.9002 35.5944 26.2057 34.4814 26.2057ZM31.709 19.1401H37.2335C37.1525 18.6921 36.9704 18.2849 36.7073 17.9183C36.4443 17.5518 36.1205 17.2668 35.7158 17.0428C35.3313 16.8188 34.9063 16.717 34.4611 16.717C34.0159 16.717 33.591 16.8188 33.2065 17.0428C32.822 17.2668 32.4982 17.5518 32.2352 17.9183C31.9923 18.2645 31.8102 18.6921 31.709 19.1401Z" fill="#000006"/>
</g>
<defs>
<clipPath id="clip0_247_620">
<rect width="120" height="45" fill="white"/>
</clipPath>
</defs>
</svg>
