<svg width="124" height="25" viewBox="0 0 124 25" fill="none" xmlns="http://www.w3.org/2000/svg">
<g clip-path="url(#clip0_247_295)">
<path d="M4.53189 16.4869C4.53189 17.9241 4.84458 19.0275 5.25328 19.695C5.78914 20.5694 6.58838 20.9398 7.40319 20.9398C8.45414 20.9398 9.41556 20.6767 11.2683 18.0916C12.7527 16.0196 14.5016 13.1113 15.6784 11.288L17.6714 8.19895C19.0558 6.05367 20.6581 3.66885 22.4953 2.05236C23.9952 0.732984 25.6132 0 27.2415 0C29.9752 0 32.5793 1.59817 34.5722 4.59555C36.7532 7.87827 37.812 12.0131 37.812 16.2801C37.812 18.8168 37.3163 20.6806 36.473 22.1531C35.6582 23.5772 34.0701 25 31.3986 25V20.9398C33.686 20.9398 34.2569 18.8194 34.2569 16.3927C34.2569 12.9346 33.4576 9.09686 31.697 6.35471C30.4475 4.40969 28.8283 3.2212 27.0469 3.2212C25.1201 3.2212 23.5696 4.68717 21.8271 7.30105C20.9008 8.68979 19.9497 10.3822 18.8819 12.2919L17.7064 14.3927C15.345 18.6165 14.7469 19.5785 13.5662 21.1662C11.4967 23.9463 9.72955 25 7.40319 25C4.64347 25 2.89838 23.7945 1.81759 21.9778C0.935308 20.4974 0.501953 18.555 0.501953 16.3416L4.53189 16.4869Z" fill="#343434"/>
<path d="M3.67969 4.8822C5.52728 2.00916 8.19358 0 11.2517 0C13.0228 0 14.7834 0.528796 16.6219 2.04319C18.633 3.69895 20.7764 6.42539 23.4505 10.9188L24.4093 12.5314C26.724 16.4215 28.041 18.4228 28.8116 19.3665C29.8029 20.5785 30.4971 20.9398 31.3988 20.9398C33.6862 20.9398 34.2571 18.8194 34.2571 16.3927L37.8122 16.2801C37.8122 18.8168 37.3166 20.6806 36.4732 22.1531C35.6584 23.5772 34.0703 25 31.3988 25C29.738 25 28.2667 24.6361 26.6397 23.0877C25.3889 21.8992 23.9267 19.788 22.8018 17.8901L19.4556 12.2513C17.7767 9.42147 16.2366 7.31152 15.3452 6.35602C14.3864 5.32853 13.1538 4.0877 11.1868 4.0877C9.59485 4.0877 8.24288 5.21466 7.11149 6.93848L3.67969 4.8822Z" fill="#343434"/>
<path d="M11.1866 4.0877C9.59461 4.0877 8.24265 5.21466 7.11126 6.93848C5.51148 9.37435 4.53189 13.0026 4.53189 16.4869C4.53189 17.9241 4.84458 19.0275 5.25328 19.695L1.81759 21.9778C0.935308 20.4974 0.501953 18.555 0.501953 16.3416C0.501953 12.3168 1.59702 8.12173 3.67945 4.8822C5.52705 2.00916 8.19335 0 11.2515 0L11.1866 4.0877Z" fill="#343434"/>
<path d="M45.6465 0.791016H50.3083L58.2345 15.257L66.1621 0.791016H70.7227V24.5606H66.9198V6.34337L59.9679 18.9586H56.3999L49.4494 6.34337V24.5606H45.6465V0.791016ZM82.6386 9.65358C79.9113 9.65358 78.2687 11.7243 77.8756 14.2884H87.1317C86.941 11.647 85.4308 9.65358 82.6386 9.65358ZM74.1052 15.7491C74.1052 10.3538 77.5616 6.42714 82.7048 6.42714C87.7636 6.42714 90.7841 10.3041 90.7841 16.0371V17.0908H77.8756C78.3336 19.88 80.1682 21.7596 83.1265 21.7596C85.4865 21.7596 86.9618 21.0332 88.3604 19.7046L90.3806 22.2007C88.4772 23.9664 86.0561 24.9847 82.9915 24.9847C77.4241 24.9847 74.1052 20.8892 74.1052 15.7491ZM95.3953 9.9939H91.8947V6.85253H95.3953V1.65751H99.0646V6.85253H104.383V9.9939H99.0646V17.9559C99.0646 20.6745 99.9261 21.6405 102.044 21.6405C103.01 21.6405 103.564 21.5567 104.383 21.4193V24.5266C103.363 24.8172 102.39 24.9507 101.336 24.9507C97.3752 24.9507 95.3953 22.7675 95.3953 18.397V9.9939ZM119.833 13.0489C119.096 11.1719 117.452 9.78971 115.036 9.78971C111.897 9.78971 109.887 12.0371 109.887 15.6981C109.887 19.2675 111.737 21.6235 114.886 21.6235C117.361 21.6235 119.129 20.1706 119.833 18.363V13.0489ZM123.502 24.5606H119.901V22.0816C118.894 23.541 117.062 24.9847 114.094 24.9847C109.322 24.9847 106.133 20.9546 106.133 15.6981C106.133 10.3918 109.399 6.42714 114.297 6.42714C116.718 6.42714 118.617 7.40358 119.901 9.1274V6.85253H123.502V24.5606Z" fill="#343434"/>
</g>
<defs>
<clipPath id="clip0_247_295">
<rect width="123" height="25" fill="white" transform="translate(0.501953)"/>
</clipPath>
</defs>
</svg>
