<svg width="137" height="41" viewBox="0 0 137 41" fill="none" xmlns="http://www.w3.org/2000/svg">
<g clip-path="url(#clip0_247_233)">
<path d="M136.502 33.7316H131.195L126.352 26.5747L124.814 28.0336V33.594H119.882V12.0361H124.807V22.014L124.868 22.0421L129.614 17.0097H135.779L129.54 23.3012C129.993 23.9794 130.439 24.6483 130.885 25.3167C132.701 28.0356 134.518 30.7545 136.335 33.4734C136.387 33.5442 136.443 33.612 136.502 33.6766V33.7316Z" fill="#343434"/>
<path d="M9.96589 31.9163L10.1099 32.0363C10.1335 32.0847 10.1611 32.131 10.1923 32.1745C11.574 33.8157 13.3229 34.4967 15.3896 34.1504C18.0334 33.7072 19.9524 31.3041 19.9524 28.5349C19.9524 19.6966 19.9524 10.8587 19.9524 2.02115V1.61816H24.6821L24.6757 1.62862C24.9163 3.0668 25.483 4.42529 26.329 5.59248C27.0087 6.52839 27.7978 7.34318 28.7831 7.93666L28.9744 8.11668C29.594 8.84228 30.3396 9.40163 31.1485 9.87839C31.9339 10.3408 32.781 10.637 33.652 10.8694V16.165C33.0674 16.1171 32.5419 16.0802 32.0173 16.0306C30.1903 15.8579 28.4116 15.3269 26.7759 14.466C26.0595 14.0922 25.3825 13.6369 24.6879 13.219C24.4754 13.2383 24.5779 13.4095 24.5774 13.5042C24.5714 17.1121 24.5698 20.7193 24.5726 24.3261C24.5726 25.3517 24.5774 26.3768 24.5795 27.4025C24.5264 27.8925 24.4887 28.3852 24.4121 28.8713C23.9296 31.9543 22.525 34.5104 20.2054 36.4924C17.6678 38.6604 14.7317 39.5754 11.4459 39.2891C9.96211 39.1617 8.51621 38.7377 7.18814 38.0405C6.77894 37.8263 6.38143 37.589 5.97808 37.3622L5.66826 37.0814C5.61512 37.0099 5.56197 36.9355 5.50617 36.8673C2.9107 33.7667 1.94563 30.1871 2.65402 26.1588C3.07544 23.7607 4.14201 21.6714 5.78943 19.9229C7.99324 17.5848 10.6711 16.3009 13.8336 16.1297L14.1354 16.1721V21.3989C14.0079 21.3692 13.9144 21.3504 13.8219 21.3257C13.1772 21.1588 12.5076 21.1214 11.8493 21.2156C10.3979 21.4077 9.17831 22.0843 8.25523 23.2729C7.23489 24.587 6.83101 26.0889 7.07547 27.7653C7.23948 28.9058 7.73926 29.9661 8.50659 30.8015C8.9227 31.2623 9.38824 31.6724 9.96589 31.9163Z" fill="#343434"/>
<path d="M83.0347 33.7231H77.7258L72.8898 26.5744L71.3487 28.0355V33.5959H66.4102V12.0364H71.3471V21.9895L71.4093 22.0291L76.2984 17.0105H82.3125L76.0752 23.3009L83.0347 33.7231Z" fill="#343434"/>
<path d="M107.562 16.0361H108.718C109.041 16.0763 109.367 16.1005 109.687 16.1589C111.681 16.5201 113.383 17.4455 114.722 19.0283C116.592 21.2398 117.255 23.8075 116.704 26.6851C116.352 28.5267 115.467 30.0797 114.13 31.352C112.893 32.5296 111.449 33.2789 109.791 33.5663C109.348 33.6428 108.898 33.672 108.451 33.7226H107.667C107.266 33.6643 106.859 33.629 106.462 33.5448C102.065 32.6138 99.0876 28.4546 99.6414 23.8631C100.078 20.2466 102.06 17.8072 105.344 16.541C106.046 16.2663 106.821 16.198 107.562 16.0361ZM108.23 20.5775C105.913 20.5819 104.046 22.5005 104.045 24.8761C104.045 27.261 105.924 29.1807 108.254 29.1758C110.562 29.1702 112.436 27.2346 112.429 24.8645C112.421 22.4945 110.542 20.5731 108.23 20.5775Z" fill="#343434"/>
<path d="M58.3663 12.041C57.8955 13.5743 57.43 15.0888 56.9565 16.6303H52.8305V33.5917H47.7517V16.5251H42.7031V12.0416L58.3663 12.041Z" fill="#343434"/>
<path d="M89.2888 33.5954V16.5189H84.2402V12.0381H99.9098L98.5005 16.6279H94.3761V33.5954H89.2888Z" fill="#343434"/>
<path d="M24.6898 13.2181C25.3844 13.6359 26.0614 14.0912 26.7778 14.465C28.4134 15.3259 30.1921 15.8569 32.0192 16.0296C32.5437 16.0792 33.0693 16.1161 33.6539 16.164V10.8684L33.7134 10.8535L35.5579 11.098V17.7919C32.2445 17.7666 29.2499 16.7718 26.4945 14.7893C26.4945 14.9649 26.4945 15.0794 26.4945 15.1945C26.4945 19.7639 26.5344 24.3372 26.4743 28.9078C26.4302 32.2468 25.1702 35.1029 22.876 37.4466C20.9629 39.4015 18.6533 40.5802 15.9813 40.9023C12.1801 41.3603 8.86928 40.2113 6.07771 37.489C6.04228 37.4487 6.00978 37.4059 5.98047 37.3607C6.38382 37.5875 6.78131 37.8248 7.19051 38.0389C8.51858 38.7362 9.9645 39.1602 11.4483 39.2876C14.7325 39.5738 17.6702 38.6588 20.2078 36.4908C22.5274 34.5089 23.932 31.9522 24.4145 28.8698C24.491 28.3837 24.5272 27.8909 24.5819 27.4009C24.6042 27.2578 24.6189 27.1136 24.626 26.9688C24.6289 22.5362 24.6304 18.1039 24.6308 13.6717C24.6303 13.5209 24.6691 13.3706 24.6898 13.2181Z" fill="#212121"/>
<path d="M24.6835 1.61662H19.9538V2.01961C19.9538 10.8575 19.9538 19.6955 19.9538 28.5334C19.9538 31.3042 18.0349 33.7084 15.391 34.1488C13.3243 34.4951 11.577 33.8141 10.1937 32.173C10.1625 32.1294 10.1349 32.0832 10.1113 32.0348C10.6619 32.1999 11.2034 32.4262 11.7646 32.5132C13.3312 32.756 14.7549 32.3513 15.9873 31.3158C17.3647 30.1597 18.0391 28.6363 18.0402 26.8053C18.0437 18.0209 18.0437 9.23658 18.0402 0.452238V-0.00195312H24.5336C24.5868 0.549683 24.6346 1.08315 24.6835 1.61662Z" fill="#565656"/>
<path d="M59.3301 18.9495H64.2484V33.5937H59.3301V18.9495Z" fill="#343434"/>
<path d="M13.8366 16.1285C10.6741 16.2997 7.99624 17.5835 5.79242 19.9216C4.14501 21.6701 3.07738 23.7594 2.65702 26.1576C1.94916 30.1858 2.91369 33.7654 5.50917 36.866C5.56657 36.9343 5.61546 37.0086 5.67126 37.0802C5.27641 36.7752 4.85393 36.5016 4.49203 36.1597C2.38546 34.1662 1.09091 31.708 0.650362 28.7853C0.291651 26.3899 0.586056 24.0694 1.54953 21.8595C2.9222 18.7116 5.18607 16.5149 8.28852 15.2531C9.37316 14.8127 10.5035 14.5314 11.671 14.4928C12.4459 14.4675 13.2228 14.5203 13.9987 14.5407C14.0734 14.5514 14.1473 14.5678 14.2197 14.5897V16.0762L13.8366 16.1285Z" fill="#565656"/>
<path d="M13.8369 16.1279L14.219 16.0762L16.0907 16.1676V23.0592C15.792 23.0008 15.5029 22.9331 15.2101 22.8879C11.8302 22.3715 8.80748 25.193 8.93927 28.7363C8.97289 29.7853 9.28793 30.8039 9.84906 31.6778C9.89277 31.7551 9.93233 31.8349 9.96757 31.9167C9.38991 31.6728 8.92438 31.2643 8.50828 30.8019C7.74095 29.9665 7.24117 28.9062 7.07716 27.7657C6.8327 26.0893 7.23658 24.5874 8.25692 23.2733C9.17894 22.0842 10.3986 21.4076 11.8525 21.2121C12.5108 21.1179 13.1805 21.1553 13.8252 21.3222C13.9176 21.347 14.0112 21.3657 14.1387 21.3954V16.1687L13.8369 16.1279Z" fill="#212121"/>
<path d="M108.451 33.7219C108.898 33.6713 109.348 33.6421 109.79 33.5655C111.448 33.2765 112.893 32.5289 114.13 31.3513C115.467 30.079 116.352 28.526 116.704 26.6844C117.255 23.8068 116.592 21.2391 114.722 19.0276C113.383 17.4448 111.681 16.5193 109.687 16.1582C109.368 16.0998 109.041 16.0756 108.717 16.0354C111.819 15.8658 114.441 16.8981 116.39 19.4526C120.356 24.6491 117.478 32.4083 111.175 33.5755C110.271 33.7428 109.363 33.7401 108.451 33.7219Z" fill="#212121"/>
<path d="M107.563 16.0371C106.821 16.199 106.046 16.2672 105.344 16.5392C102.061 17.8104 100.078 20.2476 99.6418 23.8641C99.088 28.4539 102.065 32.6176 106.463 33.5458C106.86 33.63 107.266 33.6652 107.668 33.7236C105.145 33.8442 102.895 33.1444 101.014 31.3436C99.4781 29.8737 98.5694 28.0613 98.3286 25.9148C98.0438 23.3532 98.7261 21.0701 100.348 19.1157C101.761 17.4134 103.566 16.4208 105.71 16.1175C106.321 16.0311 106.946 16.0602 107.563 16.0371Z" fill="#565656"/>
<path d="M64.267 14.5759C64.2635 15.2521 64.0016 15.8993 63.5386 16.376C63.0755 16.8527 62.4491 17.12 61.7964 17.1194C61.4709 17.1194 61.1487 17.0529 60.848 16.9239C60.5473 16.7948 60.2741 16.6057 60.044 16.3673C59.8139 16.1288 59.6313 15.8458 59.5068 15.5342C59.3823 15.2227 59.3183 14.8888 59.3184 14.5517C59.3263 13.1566 60.4503 12.0142 61.8065 12.0225C62.4593 12.0243 63.0848 12.294 63.546 12.7726C64.0071 13.2512 64.2664 13.8996 64.267 14.5759Z" fill="#343434"/>
<path d="M28.7851 7.93498C27.7999 7.34151 27.0107 6.52561 26.331 5.59081C25.485 4.42362 24.9184 3.06512 24.6777 1.62695H26.5138C26.5138 1.96939 26.4856 2.29806 26.5181 2.61792C26.7195 4.58938 27.4608 6.32082 28.7123 7.81992C28.739 7.85656 28.7633 7.895 28.7851 7.93498Z" fill="#212121"/>
<path d="M33.7137 10.853L33.6542 10.8679C32.7832 10.635 31.9361 10.3388 31.1506 9.87695C30.3418 9.40073 29.5962 8.84139 28.9766 8.11523C29.2789 8.26113 29.5808 8.40867 29.8837 8.55291C30.9092 9.04865 32.0188 9.33073 33.1493 9.38312C33.305 9.39027 33.4597 9.42606 33.6276 9.45028L33.7137 10.853Z" fill="#565656"/>
<path d="M24.6906 13.2178C24.6697 13.3692 24.6307 13.5206 24.6307 13.672C24.6275 18.1045 24.6259 22.5369 24.6259 26.969C24.6187 27.1138 24.6039 27.2581 24.5815 27.4012C24.5815 26.3756 24.575 25.3505 24.5745 24.3248C24.5745 20.7177 24.5761 17.1104 24.5793 13.503C24.5799 13.4083 24.4761 13.237 24.6906 13.2178Z" fill="#343434"/>
</g>
<defs>
<clipPath id="clip0_247_233">
<rect width="136" height="41" fill="white" transform="translate(0.501953)"/>
</clipPath>
</defs>
</svg>
