<svg width="134" height="27" viewBox="0 0 134 27" fill="none" xmlns="http://www.w3.org/2000/svg">
<g clip-path="url(#clip0_247_217)">
<path d="M133.502 26.7834C133.096 26.7763 132.69 26.7648 132.284 26.7632C131.34 26.7605 130.396 26.7561 129.452 26.7676C129.254 26.7703 129.14 26.7065 129.036 26.5308C127.418 23.8497 125.795 21.1714 124.169 18.4961C124.124 18.4225 124.077 18.351 123.992 18.2185V26.7468H118.955V0.50994L123.986 0.0332031V17.6065C124.073 17.4706 124.119 17.4008 124.162 17.3294C125.718 14.7253 127.273 12.1204 128.827 9.51449C128.925 9.35085 129.028 9.28212 129.218 9.28375C130.56 9.29248 131.902 9.28812 133.245 9.28921C133.33 9.28921 133.416 9.3023 133.501 9.30884V10.7271C133.474 10.7446 133.448 10.7663 133.426 10.7914C132.017 13.1162 130.61 15.4435 129.207 17.7734C129.163 17.8465 129.173 17.9997 129.218 18.0783C129.444 18.4748 129.686 18.8594 129.928 19.2478C131.119 21.1809 132.31 23.1138 133.501 25.0466L133.502 26.7834Z" fill="#343434"/>
<path d="M11.6554 0C11.9252 0.0343643 12.1945 0.0714557 12.4647 0.103638C12.7039 0.131457 12.944 0.154367 13.1972 0.180549V4.25245C13.1176 4.25245 13.0355 4.25245 12.9539 4.25245C12.1576 4.25954 11.3565 4.21481 10.5659 4.28845C9.50447 4.38663 9.05172 4.84755 8.98102 5.96248C8.91137 7.05342 8.96595 8.15416 8.96595 9.28982H13.1473C13.0064 10.7424 12.8686 12.1562 12.7283 13.6034H8.95451V26.7382H3.89785V13.6208H0.501953V9.29364H3.87705C3.88276 9.17528 3.89056 9.07927 3.89108 8.98382C3.8994 7.92234 3.89108 6.86032 3.91863 5.79994C3.93852 4.97369 4.08545 4.15624 4.35372 3.37916C4.9858 1.55676 6.2931 0.597284 8.04848 0.220368C8.4846 0.126548 8.92852 0.0725466 9.36932 0.0021815L11.6554 0Z" fill="#343434"/>
<path d="M68.5544 24.1554V26.7513H63.8164V0.508964L68.8419 0.0322266V11.6643C68.9178 11.5448 68.9542 11.4925 68.9859 11.4374C69.7988 10.035 71.0079 9.2375 72.532 9.00459C74.2827 8.73622 75.9533 9.01441 77.44 10.0879C78.7686 11.0468 79.5296 12.4263 79.9792 14.0152C80.2362 14.9187 80.3761 15.8544 80.3951 16.7971C80.4216 18.1384 80.4653 19.4819 80.2391 20.8134C79.9522 22.5076 79.3742 24.0573 78.1854 25.296C77.4057 26.1077 76.4825 26.7415 75.3997 26.8691C74.239 27.0055 73.03 27.0644 71.8843 26.8751C70.4408 26.6362 69.3373 25.7051 68.6511 24.3114C68.6397 24.2842 68.6184 24.2564 68.5544 24.1554ZM68.8045 17.7189C68.8507 18.6517 68.8481 19.3166 68.9235 19.9717C69.12 21.6725 70.0416 22.7356 71.5584 22.9358C73.1901 23.1507 74.6523 22.5201 75.1248 20.5674C75.5271 18.9048 75.5089 17.1991 75.1393 15.5284C74.8217 14.0911 73.9245 13.2445 72.4946 13.0885C70.8119 12.9047 69.4381 13.6738 69.0326 15.5594C68.8637 16.3487 68.8585 17.1735 68.8045 17.7189Z" fill="#343434"/>
<path d="M25.157 26.7439V24.1552C25.0863 24.2724 25.0489 24.3248 25.0208 24.3821C24.3809 25.6808 23.3735 26.5012 22.0382 26.8912C21.9133 26.9256 21.7847 26.9426 21.6556 26.9419C20.9107 26.9463 20.1648 26.9119 19.4204 26.9518C18.3756 27.0063 17.4649 26.6354 16.6171 26.0616C15.21 25.1086 14.4085 23.6981 13.9401 22.0513C13.6282 20.9484 13.5139 19.8149 13.4978 18.6694C13.4754 17.0876 13.5014 15.5139 13.9401 13.9811C14.3923 12.402 15.1492 11.0356 16.4674 10.0767C17.8558 9.06812 19.4204 8.79484 21.0687 8.9563C22.3771 9.08503 23.5045 9.63213 24.3664 10.6931C24.6538 11.0476 24.882 11.4567 25.1513 11.8593V9.30322H29.9668V26.7439H25.157ZM24.9849 18.2478C24.933 17.3559 24.933 16.6905 24.8441 16.0381C24.6304 14.453 23.8091 13.2442 22.1764 13.0926C20.565 12.9453 19.2291 13.5938 18.7868 15.4452C18.4058 17.0385 18.4702 18.6634 18.7088 20.2753C18.82 21.0231 19.1163 21.7 19.6689 22.2166C21.4035 23.8377 24.2182 22.9142 24.7359 20.5256C24.9122 19.7123 24.9205 18.8598 24.9849 18.2478Z" fill="#343434"/>
<path d="M108.734 26.9465C108.318 26.9465 107.902 26.959 107.486 26.9465C104.554 26.8455 102.459 25.3886 101.196 22.6291C100.677 21.4951 100.476 20.27 100.43 19.0192C100.374 17.5115 100.388 16.0088 100.803 14.5464C101.655 11.5371 103.588 9.76647 106.498 9.15009C108.21 8.7879 109.924 8.81954 111.613 9.30991C114.198 10.0599 115.91 11.794 116.63 14.4918C117.263 16.8662 117.266 19.2887 116.6 21.6587C115.81 24.4657 113.967 26.1583 111.264 26.8352C110.961 26.9043 110.652 26.9409 110.342 26.9443C109.807 26.959 109.27 26.9465 108.734 26.9465ZM105.423 18.0297C105.483 18.7677 105.493 19.5156 105.615 20.2421C105.794 21.3042 106.283 22.1813 107.261 22.6667C107.781 22.9253 108.335 22.9875 108.904 22.9738C110.29 22.9406 111.364 22.1327 111.724 20.732C112.161 19.0241 112.133 17.2786 111.79 15.5642C111.502 14.1291 110.617 13.2504 109.181 13.0922C107.548 12.9122 106.193 13.612 105.691 15.4377C105.457 16.2886 105.477 17.1559 105.423 18.0297Z" fill="#343434"/>
<path d="M90.4318 26.9461C90.0248 26.9461 89.6178 26.9357 89.2113 26.9461C87.5786 26.9952 86.1616 26.3777 84.8969 25.3593C83.482 24.2193 82.6773 22.6593 82.3468 20.8521C81.9683 18.7848 81.9434 16.7 82.4736 14.6529C83.2606 11.6125 85.1932 9.80263 88.1078 9.15898C90.0009 8.74061 91.9023 8.79079 93.7456 9.44262C96.4356 10.3928 97.9856 12.4247 98.5174 15.2949C98.9 17.3611 98.9031 19.4525 98.3464 21.4925C97.5334 24.4724 95.6085 26.2326 92.7371 26.8855C92.5596 26.9225 92.3791 26.9408 92.1981 26.9401C91.6118 26.9504 91.0207 26.9461 90.4318 26.9461ZM93.7263 18.0195C93.6832 17.3693 93.6801 16.7131 93.5901 16.0706C93.3781 14.5504 92.5978 13.28 90.8716 13.0923C89.2726 12.9189 87.8967 13.5522 87.3722 15.428C87.0603 16.5369 87.0603 19.5299 87.38 20.6334C87.7652 21.9698 88.587 22.7923 89.9349 22.9473C91.5858 23.1376 92.9497 22.4498 93.4586 20.611C93.6946 19.7606 93.6957 18.8928 93.7263 18.0195Z" fill="#343434"/>
<path d="M60.3804 22.3521L61.2932 25.926C60.7385 26.1229 60.2016 26.3395 59.6469 26.5048C58.612 26.814 57.5604 26.9886 56.4735 26.9542C55.3144 26.9177 54.1526 26.922 52.9908 26.9542C51.7225 26.9875 50.5654 26.5997 49.4702 25.9893C47.7767 25.0456 46.749 23.5347 46.3358 21.6043C45.8419 19.2953 45.8019 16.9471 46.2926 14.6409C46.9164 11.7134 48.7357 9.9466 51.5031 9.25386C53.1764 8.83494 54.8647 8.79348 56.5453 9.19931C59.1443 9.82714 60.7198 11.553 61.3794 14.234C61.588 15.1052 61.6928 16.0002 61.6913 16.8986C61.6955 17.8777 61.6913 18.8562 61.6913 19.867H51.1029C50.9314 21.5454 51.9138 22.8987 53.5049 23.1889C54.8257 23.43 56.1497 23.3525 57.4554 23.0961C58.4275 22.9009 59.3834 22.6096 60.3804 22.3521ZM57.1633 16.3907C57.1903 15.6385 57.1477 14.9125 56.8842 14.217C56.5463 13.3252 55.9158 12.7928 55.0212 12.6352C54.6287 12.5699 54.2306 12.5498 53.834 12.5752C51.7646 12.6914 50.9896 14.4603 51.1045 16.3935L57.1633 16.3907Z" fill="#343434"/>
<path d="M44.21 13.826C43.4405 13.4494 42.6197 13.2013 41.7773 13.0908C41.0163 12.9931 40.2558 12.9882 39.5083 13.1906C38.2883 13.5206 37.4811 14.3317 37.1765 15.6026C36.7908 17.1828 36.7897 18.8394 37.1733 20.4202C37.5445 21.9442 38.6532 22.8202 40.1534 22.979C41.3453 23.1033 42.8938 22.8617 44.2079 22.2218C44.2328 22.284 44.2635 22.344 44.2827 22.4084C44.6149 23.5135 44.9398 24.6203 45.2808 25.7221C45.339 25.9103 45.3026 25.9992 45.1451 26.0859C44.2157 26.5998 43.2421 26.9423 42.1791 26.9456C41.0449 26.9483 39.9075 27.0039 38.7775 26.9347C36.141 26.771 34.08 25.571 32.808 23.0766C32.2794 22.0402 32.0283 20.9073 31.9373 19.7438C31.8225 18.2776 31.8147 16.8097 32.0637 15.3523C32.6308 12.0462 34.5686 9.91178 37.7077 9.21794C39.8483 8.74448 41.9878 8.77448 44.0909 9.47268C44.4667 9.59704 44.8186 9.79996 45.1794 9.9756C45.2834 10.0269 45.3556 10.0912 45.3073 10.2483C44.9538 11.4025 44.6102 12.5611 44.263 13.7175C44.2476 13.7549 44.2299 13.7911 44.21 13.826Z" fill="#343434"/>
</g>
<defs>
<clipPath id="clip0_247_217">
<rect width="133" height="27" fill="white" transform="translate(0.501953)"/>
</clipPath>
</defs>
</svg>
