<svg width="85" height="35" viewBox="0 0 85 35" fill="none" xmlns="http://www.w3.org/2000/svg">
<g clip-path="url(#clip0_247_251)">
<path d="M83.8881 7.59328C83.8881 7.59328 83.4011 4.19662 81.9058 2.70059C80.01 0.737828 77.8841 0.727859 76.9094 0.612715C69.9317 0.114258 59.4651 0.114258 59.4651 0.114258H59.4434C59.4434 0.114258 48.976 0.114258 41.9983 0.612715C41.0235 0.727859 38.8989 0.737828 37.0018 2.70059C35.5071 4.19662 35.0206 7.59328 35.0206 7.59328C35.0206 7.59328 34.5215 11.5814 34.5215 15.5701V19.3097C34.5215 23.2983 35.0206 27.2872 35.0206 27.2872C35.0206 27.2872 35.5071 30.6833 37.0018 32.1797C38.8989 34.1431 41.3909 34.0805 42.5003 34.286C46.4895 34.6648 59.4534 34.7816 59.4534 34.7816C59.4534 34.7816 69.9317 34.766 76.9094 34.2677C77.8839 34.1524 80.0095 34.1431 81.9053 32.1797C83.4006 30.6833 83.8876 27.2872 83.8876 27.2872C83.8876 27.2872 84.3862 23.2983 84.3862 19.3097V15.5701C84.3862 11.5814 83.8876 7.59311 83.8876 7.59311" fill="#343434"/>
<path d="M31.9489 28.1687H28.7763V26.3449C27.5732 27.714 26.5535 28.4052 25.4419 28.4052C24.4671 28.4052 23.7894 27.9487 23.4507 27.123C23.2449 26.6212 23.0988 25.8376 23.0988 24.6867V11.4217H26.2709V25.0185C26.345 25.483 26.5447 25.6537 26.9474 25.6537C27.5548 25.6537 28.1042 25.1298 28.7763 24.1887V11.4217H31.9489V28.1687ZM17.5878 23.1941C17.7544 24.8523 17.2364 25.6748 16.2513 25.6748C15.2662 25.6748 14.7487 24.8523 14.916 23.1941V16.5613C14.7487 14.9031 15.2662 14.126 16.2513 14.126C17.2369 14.126 17.7561 14.9031 17.5893 16.5613L17.5878 23.1941ZM20.7604 16.8931C20.7604 15.1037 20.3983 13.7595 19.7586 12.9138C18.9129 11.7678 17.5878 11.2988 16.2513 11.2988C14.7398 11.2988 13.5886 11.7678 12.7446 12.9138C12.0943 13.7595 11.7456 15.118 11.7456 16.9074L11.7429 22.8623C11.7429 24.6418 12.053 25.8713 12.7027 26.7092C13.5472 27.8512 14.916 28.456 16.2513 28.456C17.5876 28.456 18.9798 27.8512 19.8255 26.7092C20.4652 25.8713 20.7602 24.6418 20.7602 22.8623L20.7604 16.8931ZM8.23633 19.0486V28.1686H4.89641V19.0485C4.89641 19.0485 1.43585 7.8684 0.72168 5.78435H4.22826L6.57206 14.5181L8.90398 5.78418H12.4107L8.23633 19.0486Z" fill="#343434"/>
<path d="M74.1962 16.0582C74.1962 14.508 74.624 14.0853 75.6335 14.0853C76.6359 14.0853 77.0348 14.5468 77.0348 16.0787V17.8886L74.1962 17.8919V16.0582ZM80.2134 20.3759L80.2129 16.9864C80.2129 15.2158 79.8615 13.9199 79.229 13.0818C78.3823 11.9481 77.1787 11.3478 75.662 11.3478C74.1182 11.3478 72.9144 11.9481 72.0405 13.0818C71.3979 13.9199 71.0238 15.2883 71.0238 17.06V22.8632C71.0238 24.6237 71.4354 25.8561 72.0773 26.6852C72.9519 27.8172 74.1555 28.3826 75.7368 28.3826C77.3164 28.3826 78.5568 27.7901 79.393 26.5865C79.7611 26.0555 79.998 25.4533 80.1001 24.7882C80.1276 24.4875 80.2072 23.8024 80.2072 22.8354V22.3657H77.0346C77.0346 23.5698 77.0408 24.2859 77.0124 24.4493C76.8395 25.2524 76.4061 25.6539 75.662 25.6539C74.624 25.6539 74.1851 24.8836 74.1962 23.3538V20.3759H80.2134ZM65.8464 23.3606C65.8464 25.0188 65.4527 25.6545 64.5809 25.6545C64.0834 25.6545 63.5099 25.4003 63.0041 24.898L63.0074 14.842C63.5128 14.3469 64.0834 14.086 64.5809 14.086C65.4527 14.086 65.8464 14.5728 65.8464 16.231V23.3606ZM66.1984 11.3224C65.0862 11.3224 63.9808 12.0015 63.0041 13.1949L63.0074 5.9502H60.0017V28.1696H63.0074L63.012 26.4998C64.022 27.7409 65.1237 28.3828 66.1984 28.3828C67.4021 28.3828 68.2817 27.7431 68.6855 26.5107C68.8868 25.8086 69.019 24.7274 69.019 23.195V16.5628C69.019 14.9932 68.8165 13.9199 68.6147 13.2536C68.2114 12.0131 67.4021 11.3224 66.1984 11.3224ZM57.4974 28.1691H54.3255V26.3452C53.1219 27.7143 52.1028 28.4055 50.9913 28.4055C50.0162 28.4055 49.3385 27.9491 49 27.1233C48.7935 26.6215 48.6475 25.838 48.6475 24.687V11.5882H51.82V25.0188C51.8942 25.4834 52.0933 25.654 52.4966 25.654C53.104 25.654 53.6533 25.1302 54.3255 24.1891V11.5882H57.4976L57.4974 28.1691Z" fill="#120D0C"/>
<path d="M45.4738 28.1691H42.1345V9.10028H38.6279V5.95418L49.1478 5.9502V9.10044H45.4738V28.1691Z" fill="#120D0C"/>
</g>
<defs>
<clipPath id="clip0_247_251">
<rect width="84" height="35" fill="white" transform="translate(0.501953)"/>
</clipPath>
</defs>
</svg>
