<svg width="161" height="43" viewBox="0 0 161 43" fill="none" xmlns="http://www.w3.org/2000/svg">
<g clip-path="url(#clip0_247_269)">
<path d="M5.44525 15.5121C5.76957 15.1581 6.06893 14.7827 6.34125 14.3885C6.95278 13.3841 7.48369 12.3289 8.10642 11.3311C8.7941 10.2273 9.62962 9.89622 10.734 10.1633C11.9144 10.4503 12.3221 11.2847 12.3445 12.3708C12.3669 13.4172 12.3445 14.4635 12.3445 15.5099L12.6693 15.6313C12.9789 15.3702 13.2729 15.0916 13.5497 14.7969C14.43 13.7505 15.2431 12.6512 16.166 11.6446C16.5848 11.182 17.1114 10.8267 17.7004 10.6092C19.5529 9.9801 20.9753 11.1479 20.8365 13.0927C20.6871 15.2148 20.543 17.3362 20.4041 19.4569C20.3992 19.8151 20.4142 20.1732 20.4489 20.5298C21.8489 20.2406 23.3027 18.4547 23.3856 17.139C23.4886 15.4989 23.5088 13.8278 23.865 12.2362C24.313 10.2737 25.5696 9.49224 27.225 9.77922C29.1223 10.1081 30.0003 12.1236 28.9251 14.0287C28.0627 15.5541 28.0807 17.1346 28.3203 18.724C28.4077 19.3002 28.9699 20.1655 29.4247 20.2362C29.9175 20.3156 30.8403 19.7483 31.0487 19.2494C31.7341 17.6026 32.1978 15.8653 32.7086 14.1545C32.9326 13.3819 33.04 12.5717 33.2797 11.8035C33.7703 10.2428 34.8746 9.49887 36.1402 9.79909C37.6052 10.1479 38.4452 11.4062 38.1562 13C37.8673 14.5938 37.3812 16.2075 37.1191 17.83C36.931 18.9779 36.9691 20.1611 36.8951 21.426C38.2548 21.0088 39.5003 20.596 40.7681 20.2538C41.3787 20.092 42.0065 20.0024 42.6385 19.9867C44.1483 19.947 44.8674 20.5121 45.293 21.9735C46.8475 27.3068 51.5852 30.426 57.1785 29.8035C62.7718 29.181 67.1309 23.6711 66.3805 18.2163C66.3357 17.8896 66.2909 17.5541 66.2707 17.2318C66.1811 15.7903 66.9427 14.7814 68.2285 14.6092C69.5613 14.4326 70.6589 15.234 70.8986 16.6821C71.5303 20.5209 70.8807 24.139 68.7459 27.4371C62.4448 37.1722 47.9563 36.766 42.2129 26.7064C41.3012 25.1059 41.131 25.0861 39.4062 25.7925C37.4529 26.5916 36.25 27.6711 36.1716 30.0507C36.0798 32.8521 35.4548 35.6424 34.9441 38.4172C34.7337 39.4244 34.364 40.3928 33.8487 41.2869C32.9908 42.8499 31.3847 43.4172 29.7473 42.7174C24.808 40.6225 22.0012 35.2273 26.0064 30.2538C27.3728 28.5585 29.2679 27.2825 30.8919 25.7836C31.2687 25.4097 31.5337 24.9408 31.6579 24.4282C30.3139 25.4525 29.1223 26.7086 27.216 26.1346C25.4486 25.6048 24.752 24.0441 23.9792 22.8079C23.0294 23.6247 22.158 24.6048 21.0806 25.2538C18.7218 26.6711 16.3116 25.3333 16.1795 22.6313C16.1302 21.6424 16.1794 20.6446 16.1212 19.66C16.101 19.3576 15.8591 19.0684 15.7202 18.777C15.4089 18.9337 14.9765 19.0132 14.813 19.2627C14.4734 19.8297 14.1884 20.4269 13.9618 21.0463C13.5743 21.9956 13.2607 22.9801 12.8418 23.9161C12.2616 25.1876 11.238 25.7616 10.1202 25.5386C8.85682 25.2869 8.25428 24.6092 8.1826 23.0905C8.12884 21.9602 8.29235 20.8234 8.28563 19.6887C8.28563 19.3112 8.0504 18.936 7.92272 18.5585C7.60464 18.8167 7.15218 19 6.99313 19.3421C6.28081 20.8322 5.67152 22.3708 4.97712 23.8719C4.76 24.4142 4.44252 24.912 4.04081 25.3399C2.876 26.4437 0.665071 25.9249 0.59563 24.4238C0.429869 20.7748 0.450044 17.1081 0.611325 13.4591C0.665086 12.2494 1.52971 11.2251 2.99244 11.0463C4.29389 10.8874 4.89647 11.3223 4.97039 12.6203C5.02191 13.5474 4.97039 14.479 4.97039 15.4084L5.44525 15.5121ZM30.7956 36.4834C31.0196 34.5695 31.2436 32.7903 31.4676 30.8454C28.6653 32.9691 28.5645 35.5541 30.7956 36.4768V36.4834Z" fill="#343434"/>
<path d="M69.0332 2.81928C69.0332 3.51465 69.0332 4.21222 69.0332 4.90758C69.0332 5.89875 69.4812 6.37116 70.5362 6.33142C71.8802 6.28286 73.2242 6.29831 74.5682 6.33142C74.8975 6.33142 75.4643 6.52568 75.4912 6.68463C75.5172 7.06433 75.3899 7.4388 75.1372 7.72657C73.9881 8.92524 72.7852 10.0776 71.5957 11.2387C70.7311 12.0842 69.6402 12.2895 68.4956 12.1548C67.0978 11.9893 66.045 12.3756 65.0885 13.4595C63.8184 14.8921 62.3377 16.1416 61.0049 17.5213C60.7094 17.8643 60.5537 18.3033 60.5681 18.7531C60.7406 21.5742 58.7537 23.8303 55.9783 23.8789C52.9678 23.9319 50.9092 21.7862 51.066 18.7553C51.2004 16.1526 53.6196 14.2784 56.4286 14.5235C56.9191 14.5438 57.3992 14.3806 57.7726 14.0665C59.3764 12.5949 60.9377 11.0739 62.4565 9.50361C62.8243 9.11772 63.0273 8.60703 63.0232 8.07756C62.7768 5.75747 63.5608 3.9407 65.4088 2.48595C66.2466 1.8237 66.9231 0.971602 67.7295 0.2652C67.8673 0.15924 68.0256 0.082078 68.1946 0.0384297C68.3637 -0.00521866 68.5401 -0.0144376 68.7129 0.0113365C68.8741 0.0444491 69.004 0.53893 69.0264 0.832529C69.0712 1.49478 69.0399 2.15703 69.0399 2.81928H69.0332Z" fill="#343434"/>
<path d="M130.353 20.1435H126.05V17.2936H133.471C133.471 19.1214 133.485 20.947 133.456 22.7748C133.426 23.0574 133.303 23.3226 133.106 23.5298C130.405 26.5231 124.955 26.9205 121.568 24.3885C118.378 22.0022 117.576 17.1037 119.819 13.6887C122.86 9.05294 130.519 9.00879 133.236 13.6733L130.548 15.1192C129.316 13.585 127.762 12.8587 125.772 13.2604C123.871 13.6446 122.451 15.1457 122.074 17.192C121.698 19.2384 122.603 21.3465 124.256 22.3686C125.835 23.3443 128.223 23.373 129.616 22.2207C130.062 21.8543 130.076 20.9823 130.353 20.1435Z" fill="#343434"/>
<path d="M114.033 20.0065L117.483 25.788C116.157 25.788 114.994 25.8167 113.838 25.7615C113.639 25.7615 113.413 25.4083 113.276 25.1765C112.649 24.0992 112.053 23.0021 111.439 21.916C110.433 20.1346 110.431 20.1368 108.18 20.4193V25.7372H104.892V10.543C107.687 10.543 110.476 10.373 113.233 10.5937C115.59 10.7814 117.041 12.4502 117.308 14.607C117.61 17.0816 116.636 18.841 114.383 19.8432L114.033 20.0065ZM108.276 13.4039V17.4193H111.37C111.52 17.4193 111.668 17.4193 111.818 17.4193C113.065 17.3134 113.912 16.501 113.919 15.4105C113.926 14.9073 113.737 14.4205 113.391 14.0507C113.044 13.681 112.567 13.4565 112.057 13.4237C110.81 13.3421 109.546 13.4039 108.276 13.4039Z" fill="#343434"/>
<path d="M139.009 16.5402H146.338V19.4387H138.959V22.8206H146.537V25.7279H135.624V10.4961H146.537V13.3416H139.013L139.009 16.5402Z" fill="#343434"/>
<path d="M103.487 25.7792H99.6788C99.354 24.947 99.0247 24.1015 98.6708 23.1876C96.6772 23.1876 92.1747 23.2141 92.1747 23.2141C92.1747 23.2141 92.0246 23.5099 91.8992 23.7616C91.5994 24.4198 91.3333 25.0925 91.1017 25.777H87.3564C87.4438 25.4746 87.4976 25.2053 87.5961 24.9558C89.3882 20.3863 91.7132 15.0574 93.4829 10.4812C93.9309 10.4812 94.7418 10.4812 95.4228 10.4812H97.4388C97.4388 10.4812 98.2496 12.4282 98.6349 13.4061C100.245 17.479 101.838 21.5695 103.487 25.7792ZM95.3869 13.8344C94.5379 16.1611 93.8055 18.1722 93.0662 20.2008H97.7255C96.9616 18.1214 96.2381 16.1479 95.3869 13.8344Z" fill="#343434"/>
<path d="M55.8638 8.7284C51.6951 8.86526 48.5949 10.5893 46.4557 13.9558C45.5194 15.4348 44.2874 15.9028 43.0307 15.2008C41.7741 14.4988 41.5344 13.0882 42.4483 11.5628C45.7792 6.00434 52.4926 3.08381 58.8005 4.44584C60.2341 4.75709 61.0226 5.84319 60.7627 7.15003C60.5029 8.45687 59.3672 9.18314 57.9313 8.96019C57.2078 8.8476 56.4641 8.79462 55.8638 8.7284Z" fill="#343434"/>
<path d="M152.72 13.3867H148.24V10.4971H160.511V13.3668H156.114V25.7289H152.731L152.72 13.3867Z" fill="#343434"/>
<path d="M89.2334 13.3441H84.8923V25.726H81.4359V13.4059H76.9268V10.5361H89.2334V13.3441Z" fill="#343434"/>
</g>
<defs>
<clipPath id="clip0_247_269">
<rect width="160" height="43" fill="white" transform="translate(0.501953)"/>
</clipPath>
</defs>
</svg>
