<svg width="122" height="40" viewBox="0 0 122 40" fill="none" xmlns="http://www.w3.org/2000/svg">
<g clip-path="url(#clip0_247_226)">
<path d="M26.7416 4.26963L23.7347 7.28268C23.5438 7.12561 23.3186 6.93598 23.0896 6.75017C16.7722 1.63584 7.22836 4.93047 5.37608 12.8567C4.17177 18.0142 6.44201 23.1218 11.0665 25.5889C14.9037 27.6356 20.6228 27.2458 23.979 23.6955C25.3541 22.2416 25.9448 20.4688 26.2301 18.493H16.1748V14.2694H29.7047C30.3727 14.2694 30.4023 14.2694 30.4681 14.9398C30.8317 18.6261 30.3193 22.1449 28.1368 25.224C25.8876 28.3989 22.7775 30.2627 18.9193 30.8392C14.8674 31.4445 11.0445 30.7971 7.62437 28.4957C2.62485 25.1302 0.0683274 20.3874 0.555969 14.3336C1.03311 8.43196 4.17748 4.12501 9.48619 1.61477C14.5964 -0.800647 19.6799 -0.519071 24.5124 2.5457C25.2978 3.04851 25.9973 3.68541 26.7416 4.26963Z" fill="#343434"/>
<path d="M76.174 34.1067L79.9453 32.5322C80.4225 33.5435 81.0475 34.4112 81.935 35.0702C83.9638 36.5767 87.1636 36.3535 88.8469 34.5741C89.7163 33.6546 90.1037 32.514 90.2125 31.2881C90.2841 30.4778 90.2259 29.6599 90.2259 28.775C90.1459 28.8231 90.0697 28.8772 89.9978 28.9368C87.9356 31.0438 85.4172 31.4403 82.6994 30.7489C78.7639 29.749 75.9726 26.4304 75.4325 22.2729C74.8036 17.4238 77.948 12.6849 82.6526 11.4063C84.9611 10.779 87.969 11.0156 90.2469 13.3898V11.731H94.4009C94.4114 11.8708 94.4295 12.0068 94.4295 12.1438C94.4295 18.099 94.439 24.0543 94.4209 30.0085C94.4209 31.8062 94.1022 33.5522 93.3092 35.188C91.9312 38.0296 89.5789 39.4719 86.5337 39.8895C84.5402 40.1634 82.6049 39.946 80.7803 39.0429C78.7849 38.0554 77.3315 36.5269 76.3467 34.5415C76.2847 34.4132 76.2408 34.2781 76.174 34.1067ZM85.2674 27.1152C86.8381 27.1075 88.1646 26.5223 89.1389 25.2955C90.7918 23.2172 91.0217 20.8784 90.0722 18.4601C88.6141 14.7479 84.2663 13.8553 81.4789 16.6806C79.9377 18.2436 79.5121 20.1898 79.8461 22.3236C80.2774 25.0647 82.5916 27.1056 85.2664 27.1133L85.2674 27.1152Z" fill="#343434"/>
<path d="M42.2764 31.0496C36.6614 31.0592 32.2793 26.689 32.2793 21.0815C32.2793 15.4471 36.6146 11.121 42.2631 11.1152C47.9115 11.1095 52.2564 15.4346 52.2621 21.0671C52.2678 26.6804 47.9058 31.041 42.2764 31.0496ZM42.2898 27.1114C43.296 27.1215 44.2835 26.8383 45.1326 26.2964C47.3189 24.9421 48.3533 22.1637 47.693 19.4361C46.7101 15.3714 42.0216 13.6686 38.8496 16.2602C36.983 17.7859 36.4324 19.8422 36.7435 22.1743C37.1175 24.9824 39.5195 27.1172 42.2898 27.1114Z" fill="#343434"/>
<path d="M63.7968 31.0508C58.1026 31.0125 53.772 26.6366 53.8197 20.9677C53.8655 15.3707 58.239 11.0819 63.8674 11.1164C69.5159 11.1499 73.8502 15.522 73.8006 21.1334C73.751 26.7448 69.368 31.0862 63.7968 31.0508ZM63.2491 27.1097C65.0174 27.1222 66.13 26.7688 67.0748 26.0102C69.1819 24.3198 69.784 22.0758 69.2382 19.512C68.3698 15.4368 63.6498 13.664 60.4473 16.2145C58.4957 17.7679 57.9375 19.8884 58.3011 22.2875C58.7181 25.0439 61.0876 27.1068 63.2491 27.1097Z" fill="#343434"/>
<path d="M117.895 24.3642L121.35 26.6753C120.711 27.3533 120.154 28.0439 119.499 28.6243C114.283 33.2454 105.089 31.1747 103.341 23.2916C102.435 19.2049 104.043 14.874 107.308 12.6731C111.066 10.1399 117.187 10.2002 120.362 16.0482C120.791 16.8383 121.109 17.6888 121.507 18.567L108.183 24.0951C108.893 25.5241 109.915 26.5546 111.47 26.9195C114.167 27.5554 116.301 26.6609 117.895 24.3642ZM107.5 20.7545L116.325 17.0797C116.075 16.4147 115.585 15.868 114.953 15.5473C113.367 14.6853 111.781 14.7811 110.229 15.6431C108.414 16.6659 107.232 18.8544 107.5 20.7545Z" fill="#343434"/>
<path d="M97.04 1.22266H101.253V30.4165H97.04V1.22266Z" fill="#343434"/>
</g>
<defs>
<clipPath id="clip0_247_226">
<rect width="121" height="40" fill="white" transform="translate(0.501953)"/>
</clipPath>
</defs>
</svg>
