<svg width="52" height="28" viewBox="0 0 52 28" fill="none" xmlns="http://www.w3.org/2000/svg">
<g clip-path="url(#clip0_247_284)">
<path d="M0.501733 2.03207C0.63489 1.819 0.822523 1.64227 1.04675 1.5187C1.27097 1.39514 1.52432 1.32885 1.7827 1.32616C2.04705 1.31047 2.31256 1.28806 2.57691 1.28582C4.73592 1.27312 6.89456 1.26266 9.0528 1.25445C10.1626 1.24772 10.8916 1.71945 11.3818 2.71109C12.6713 5.29793 14.0039 7.86498 15.3796 10.4122C15.9525 11.4767 16.6897 12.4527 17.683 13.2135C17.9142 13.3941 18.1716 13.5413 18.4469 13.6505C19.0618 13.8813 19.5276 13.6852 19.8444 13.135C20.3241 12.3126 20.3602 11.396 20.4697 10.4952C20.7236 8.40431 20.6921 6.3258 20.2508 4.25288C19.9864 3.01362 19.2027 2.34805 17.9613 2.10378C17.3267 1.97829 17.2836 1.82141 17.7284 1.35641C18.2285 0.81249 18.9101 0.453472 19.6557 0.341244C22.5286 -0.0710976 25.4073 -0.130483 28.2824 0.303147C29.7032 0.518282 30.2377 0.98889 30.3658 2.6024C30.4624 3.83494 30.3564 5.09213 30.3413 6.33812C30.3215 7.99869 30.2808 9.65926 30.2982 11.3198C30.3099 11.8142 30.4092 12.303 30.5917 12.7653C30.9725 13.7423 31.7562 13.8858 32.5714 13.2292C33.9141 12.1591 34.8107 10.7562 35.733 9.37354C37.1169 7.26885 38.2916 5.04344 39.2417 2.72677C39.7576 1.49423 39.987 1.36313 41.3471 1.35305C44.0197 1.33288 46.6923 1.29142 49.366 1.27686C49.7792 1.27134 50.1911 1.32342 50.5888 1.43148C51.3515 1.64774 51.5902 2.06232 51.4528 2.81305C51.2432 3.9694 50.6866 4.99913 50.0053 5.93811C48.2679 8.3326 46.4629 10.6812 44.6905 13.0532C44.2934 13.5832 43.8846 14.111 43.5446 14.6757C42.9623 15.6393 43.0555 16.4999 43.8637 17.3021C45.0282 18.4585 46.2533 19.5633 47.4376 20.7062C48.7279 21.9522 49.9611 23.2475 50.8985 24.7714C51.0928 25.0851 51.2439 25.4219 51.348 25.7731C51.7067 27.0123 51.0837 27.6779 49.8342 27.8023C48.7139 27.9143 47.5797 27.8886 46.4571 27.9143C44.9968 27.9502 43.5364 28.0006 42.0761 28.0017C40.866 28.003 39.6974 27.5768 38.7922 26.8039C37.7814 25.9591 36.8882 24.9854 35.9461 24.0643C35.2602 23.392 34.5848 22.7141 33.8884 22.0542C33.6928 21.8809 33.4714 21.7366 33.2316 21.6261C32.6156 21.3214 32.1615 21.3886 31.6433 21.8401C30.7384 22.6245 30.5218 23.6912 30.3844 24.7781C30.325 25.2532 30.3297 25.735 30.2982 26.2134C30.2319 27.1883 29.7486 27.744 28.7436 27.8225C24.3615 28.1664 20.2089 27.6645 16.444 25.1602C13.9403 23.494 11.9105 21.4525 10.1067 19.1353C6.25211 14.1872 3.28378 8.76399 0.698558 3.12791C0.633345 2.98673 0.564612 2.84667 0.49707 2.70548L0.501733 2.03207Z" fill="#343434"/>
</g>
<defs>
<clipPath id="clip0_247_284">
<rect width="51" height="28" fill="white" transform="translate(0.501953)"/>
</clipPath>
</defs>
</svg>
