<svg width="72" height="33" viewBox="0 0 72 33" fill="none" xmlns="http://www.w3.org/2000/svg">
<g clip-path="url(#clip0_247_279)">
<path d="M33.4002 16.4915C33.4002 19.0883 33.4773 21.6883 33.3728 24.282C33.3031 26.0228 33.0781 27.7751 32.192 29.3545C31.3059 30.9339 29.9308 31.8955 28.1945 32.3594C25.6682 33.0342 23.0775 32.9867 20.4963 32.992C17.2424 33.0025 13.9873 33.0015 10.7334 32.9561C8.97701 32.9308 7.22066 32.7948 5.52451 32.2824C2.80284 31.46 1.42668 29.5063 0.928187 26.8093C0.592335 24.9895 0.497282 23.1539 0.505732 21.3088C0.519461 17.3255 0.466638 13.3411 0.568027 9.35986C0.618722 7.36926 0.839456 5.36178 1.86285 3.56096C2.66658 2.14708 3.89911 1.28989 5.42101 0.784861C7.51005 0.0900465 9.68253 0.0889922 11.8381 0.0468183C15.2178 -0.0143338 18.5974 -0.0269862 21.9675 0.0341659C23.741 0.0729705 25.5104 0.21909 27.2662 0.47172C28.9296 0.705785 30.4346 1.38162 31.5446 2.72697C32.3251 3.67588 32.7539 4.76291 33.0042 5.94694C33.5322 8.45523 33.4911 10.9994 33.509 13.5382C33.5164 14.5209 33.509 15.5046 33.509 16.4904L33.4002 16.4915ZM14.4489 28.3866L16.9952 22.7606C17.8792 24.7312 18.7072 26.5742 19.5162 28.3771H23.6426C23.6151 28.1346 23.65 27.9058 23.5623 27.7445C23.0965 26.8842 22.6001 26.0396 22.1154 25.1898C21.4574 24.0353 20.8005 22.8798 20.1013 21.6525C21.9316 21.0905 23.6225 20.3736 25.1106 19.0166L23.0934 16.2447C22.9026 16.3039 22.7174 16.3798 22.5399 16.4714C22.2305 16.6696 21.9475 16.9079 21.6401 17.1104C19.7285 18.3756 17.669 18.9238 15.3804 18.4399C13.8828 18.1236 12.608 17.3782 11.3977 16.4809C11.2519 16.3755 10.8749 16.3112 10.8147 16.3892C10.181 17.2031 9.59591 18.0498 9.00342 18.8922C8.97068 18.9375 9.00342 19.0272 9.00342 19.1442C10.3542 20.3904 12.0092 21.1074 13.8374 21.6272C13.7318 21.8381 13.6631 21.9899 13.5807 22.1354C12.5457 23.9629 11.5096 25.7905 10.4725 27.618C10.3151 27.8942 10.1916 28.1599 10.5496 28.3845L14.4489 28.3866ZM16.9752 4.72706C13.8067 4.53412 10.9267 7.36293 11.0365 10.7917C11.0857 12.3488 11.7474 13.824 12.8783 14.8976C14.0092 15.9711 15.5183 16.5566 17.0787 16.5273C20.3622 16.4767 22.9064 13.9136 22.9233 10.5565C22.9402 7.46942 20.3537 4.54888 16.9752 4.72706Z" fill="#343434"/>
<path d="M47.7023 24.6695C43.1714 24.8329 39.3303 21.3441 39.1739 16.9222C39.005 12.1776 42.4385 8.46841 47.1784 8.2839C51.761 8.10466 55.6592 11.622 55.7976 16.0629C55.9465 20.8612 52.5288 24.4945 47.7023 24.6695ZM42.599 16.4973C42.599 17.8679 43.0669 19.1563 43.8537 19.9766C45.7136 21.9092 48.9411 22.0252 50.8485 20.2286C52.7559 18.432 52.8868 14.8831 51.1305 13.0063C49.73 11.5113 47.4794 11.0621 45.4474 11.8718C43.6858 12.5667 42.5937 14.3411 42.599 16.4973Z" fill="#343434"/>
<path d="M60.7802 8.58968V14.9158L60.9164 14.9622C61.4318 14.4034 61.9493 13.8467 62.4615 13.2847C63.7849 11.8329 65.0924 10.3663 66.4411 8.93867C66.6523 8.71726 67.0388 8.57598 67.3515 8.56227C68.3865 8.51588 69.4257 8.54435 70.4628 8.54645C70.6329 8.54645 70.8029 8.56016 71.1377 8.57598C70.9476 8.85221 70.8526 9.042 70.7153 9.18644C68.5467 11.3837 66.3745 13.5781 64.1989 15.7698C64.0542 15.9163 63.9253 16.0766 63.7606 16.2632C66.3608 18.9339 68.9357 21.575 71.5031 24.2151L71.4261 24.3754C71.252 24.4125 71.0755 24.4375 70.898 24.4502C69.8418 24.4576 68.7857 24.4365 67.7296 24.4639C67.3156 24.4745 67.0357 24.3174 66.7727 24.0274C64.9491 22.0115 63.1213 19.9988 61.2892 17.9892C61.1786 17.8562 61.0749 17.7175 60.9787 17.5738L60.7907 17.656V24.387H57.5906C57.3794 23.9863 57.3171 9.3098 57.5325 8.58757L60.7802 8.58968Z" fill="#343434"/>
<path d="M19.5197 10.6486C19.6253 12.0192 18.1615 13.237 16.8983 13.1642C15.6035 13.0904 14.3995 11.995 14.4343 10.5284C14.466 9.17986 15.7017 7.95998 17.0176 7.99793C17.6994 8.02432 18.3436 8.31684 18.8115 8.81256C19.2794 9.30828 19.5337 9.96757 19.5197 10.6486Z" fill="#343434"/>
</g>
<defs>
<clipPath id="clip0_247_279">
<rect width="71" height="33" fill="white" transform="translate(0.501953)"/>
</clipPath>
</defs>
</svg>
