<svg width="136" height="33" viewBox="0 0 136 33" fill="none" xmlns="http://www.w3.org/2000/svg">
<g clip-path="url(#clip0_247_259)">
<path d="M17.645 0.000299301C18.4823 0.112897 19.3231 0.20973 20.156 0.352728C23.7191 0.964131 26.7459 2.58328 29.2569 5.14825C31.8702 7.8213 33.3814 11.0382 33.8097 14.719C34.0597 16.8584 33.9756 19.0101 33.195 21.0751C31.4907 25.5903 25.7847 25.9855 23.4509 22.6019C23.3869 22.5309 23.317 22.4654 23.2419 22.406C23.0965 22.5186 22.9533 22.6312 22.8158 22.7438C20.2241 24.8989 17.2973 25.4349 14.1727 24.229C11.105 23.0456 9.32116 20.7159 8.92576 17.4731C8.32244 12.5189 12.3185 8.18499 17.3643 8.24017C21.8296 8.29083 25.562 11.9446 25.6518 16.3618C25.67 17.3155 25.6518 18.276 25.662 19.2252C25.6779 20.4851 26.2846 21.2891 27.389 21.5447C28.4207 21.7845 29.4694 21.271 29.9943 20.2036C30.5556 19.0653 30.609 17.8211 30.6215 16.5859C30.6829 10.0293 25.6222 4.30151 19.0516 3.45703C15.7004 3.01 12.3025 3.83302 9.5373 5.76151C6.77206 7.69001 4.84328 10.5818 4.13666 13.8588C2.55507 21.2102 7.72934 28.5201 15.2533 29.592C18.363 30.0345 21.2751 29.5008 23.9906 27.9514C24.1202 27.8783 24.2565 27.8152 24.4712 27.706L26.5994 30.1279C25.5416 30.9296 24.4031 31.4633 23.2248 31.907C19.9784 33.1413 16.424 33.3396 13.0582 32.4742C9.69254 31.6087 6.68379 29.7228 4.45253 27.0799C2.13581 24.3281 0.843961 21.1449 0.626946 17.5531C0.600836 17.3516 0.559039 17.1525 0.501953 16.9574V16.1693C0.554218 15.7087 0.599681 15.2482 0.658763 14.7888C1.14392 11.0619 2.62553 7.79315 5.28992 5.09082C7.78956 2.55626 10.8062 0.955124 14.3432 0.349351C15.1749 0.207478 16.0145 0.114022 16.8496 -0.00195312L17.645 0.000299301ZM17.3166 11.5055C14.5897 11.4267 12.2525 13.6448 12.1537 16.4181C12.056 19.17 14.3125 21.5323 17.178 21.5706C17.8457 21.5822 18.5092 21.4632 19.1305 21.2204C19.7518 20.9776 20.3186 20.6157 20.7986 20.1555C21.2786 19.6954 21.6623 19.1459 21.9277 18.5386C22.1931 17.9313 22.3351 17.278 22.3454 16.6163C22.3977 13.8745 20.1514 11.5854 17.3166 11.5055Z" fill="#343434"/>
<path d="M55.1234 11.3044C55.6915 10.8596 56.1778 10.416 56.7243 10.0658C59.3887 8.32841 63.2586 8.68647 65.3038 10.8382C66.3491 11.9204 66.9443 13.3533 66.9706 14.8512C67.0467 17.8812 66.9978 20.9134 66.999 23.9457C66.9898 24.0381 66.9746 24.1299 66.9535 24.2204H64.113C64.0937 23.958 64.0608 23.7216 64.0608 23.4863C64.0562 20.9596 64.0562 18.4333 64.0608 15.9073C64.0608 14.331 63.4824 13.0564 62.0065 12.3042C59.6387 11.1051 56.7697 12.7265 56.697 15.3624C56.6232 18.0557 56.672 20.7513 56.6675 23.4457V24.2193H53.6736C53.6736 23.9715 53.6736 23.7542 53.6736 23.5369C53.6736 20.8413 53.6861 18.1469 53.6668 15.4524C53.6565 14.6301 53.3608 13.8363 52.8294 13.2045C52.298 12.5728 51.5634 12.1415 50.749 11.9833C48.4255 11.5408 46.3644 13.1802 46.3394 15.538C46.311 18.1942 46.3315 20.8526 46.3315 23.5099V24.2226H43.4023V9.39133H46.2838C46.3099 9.6672 46.3383 9.95432 46.3837 10.4205C47.7631 9.20217 49.3151 8.8306 51.0149 9.00625C52.7146 9.1819 54.0713 10.0095 55.1234 11.3044Z" fill="#343434"/>
<path d="M82.7346 10.6841V9.3813H85.6274V24.216H82.7346V22.6025C80.5326 24.5752 78.1216 25.0796 75.4629 24.3365C73.7877 23.8757 72.322 22.8609 71.309 21.4607C69.165 18.576 69.2513 14.616 71.5283 11.8731C72.911 10.2078 74.6926 9.21916 76.8684 9.00973C79.009 8.80368 80.9485 9.32951 82.5937 10.7989L82.7346 10.6841ZM77.8296 21.6251C80.6963 21.6139 82.7494 19.5916 82.7369 16.7902C82.7244 13.9888 80.627 11.9665 77.7865 11.9868C75.0471 12.0059 72.944 14.0991 72.9428 16.806C72.944 19.5511 75.0562 21.6353 77.8296 21.6251Z" fill="#343434"/>
<path d="M121.628 9.38159H124.518C124.531 9.63606 124.55 9.85563 124.55 10.0741C124.55 12.5992 124.55 15.1248 124.55 17.6507C124.55 18.8589 124.828 19.9635 125.772 20.7956C126.984 21.863 128.404 21.9823 129.863 21.4565C131.322 20.9307 132.181 19.825 132.461 18.3106C132.533 17.8869 132.568 17.4577 132.564 17.0281C132.573 14.7266 132.564 12.4251 132.564 10.1247V9.39961H135.501V24.232H132.6C132.578 23.7254 132.557 23.2536 132.529 22.6557C132.302 22.8471 132.157 22.9529 132.028 23.0723C129.425 25.4875 125.6 24.8198 123.751 23.3876C123.128 22.9202 122.62 22.3202 122.262 21.6319C121.905 20.9435 121.708 20.1844 121.687 19.4106C121.565 16.1453 121.596 12.8676 121.567 9.59553C121.58 9.52227 121.6 9.45054 121.628 9.38159Z" fill="#343434"/>
<path d="M112.761 10.8841C114.491 8.81008 116.687 8.70424 119.093 9.24809V12.0777C118.676 12.036 118.304 12.0056 117.936 11.9651C114.982 11.6081 112.723 13.4457 112.641 16.3631C112.573 18.7378 112.62 21.1158 112.612 23.4928C112.612 23.7303 112.584 23.9679 112.567 24.2382H109.669V9.39671H112.579C112.6 9.85949 112.622 10.3155 112.644 10.7727L112.761 10.8841Z" fill="#343434"/>
<path d="M95.9229 3.19336H98.8667V24.213H95.9229V3.19336Z" fill="#343434"/>
<path d="M89.3213 24.2146V9.39453H92.2504V24.2146H89.3213Z" fill="#343434"/>
<path d="M106.396 22.6648C106.392 22.9313 106.335 23.1945 106.228 23.4391C106.122 23.6838 105.967 23.9051 105.774 24.0901C105.58 24.2752 105.351 24.4205 105.101 24.5175C104.85 24.6146 104.583 24.6615 104.314 24.6555C103.195 24.6397 102.25 23.6939 102.269 22.6051C102.285 22.0569 102.518 21.5371 102.918 21.1578C103.317 20.7786 103.852 20.5704 104.405 20.5783C104.948 20.5945 105.462 20.8232 105.835 21.2142C106.208 21.6052 106.41 22.1268 106.396 22.6648Z" fill="#343434"/>
<path d="M90.8066 2.61753C91.0758 2.61423 91.343 2.66492 91.592 2.76654C91.8409 2.86817 92.0666 3.01864 92.2554 3.2089C92.4442 3.39917 92.5923 3.6253 92.6907 3.87371C92.789 4.12212 92.8357 4.38767 92.8279 4.65442C92.8318 4.92106 92.7822 5.18582 92.682 5.43332C92.5818 5.68082 92.433 5.90612 92.2442 6.09615C92.0554 6.28618 91.8304 6.43714 91.5822 6.54028C91.3341 6.64341 91.0677 6.69666 90.7986 6.69693C90.525 6.69592 90.2542 6.64112 90.0021 6.53572C89.75 6.43032 89.5215 6.2764 89.3298 6.08287C89.1381 5.88935 88.987 5.66007 88.8854 5.4083C88.7837 5.15653 88.7335 4.88728 88.7375 4.61613C88.7394 4.34983 88.7946 4.08655 88.8999 3.84153C89.0052 3.59652 89.1586 3.37465 89.351 3.18876C89.5434 3.00287 89.7712 2.85667 90.021 2.75862C90.2709 2.66056 90.5379 2.61261 90.8066 2.61753Z" fill="#343434"/>
</g>
<defs>
<clipPath id="clip0_247_259">
<rect width="135" height="33" fill="white" transform="translate(0.501953)"/>
</clipPath>
</defs>
</svg>
