<svg width="88" height="35" viewBox="0 0 88 35" fill="none" xmlns="http://www.w3.org/2000/svg">
<g clip-path="url(#clip0_247_286)">
<path d="M38.7897 13.2624C36.7988 13.2624 34.723 14.7462 34.723 14.7462V13.7926C34.723 13.5835 34.6412 13.4998 34.4364 13.4998H31.8952C31.6903 13.4998 31.5673 13.6253 31.5673 13.7926V34.1289C31.5673 34.3388 31.6494 34.4643 31.8543 34.4643H34.4362C34.5999 34.4643 34.7228 34.3388 34.7228 34.1289V16.7213C34.7228 16.7213 35.9212 15.946 37.3768 15.946C38.7626 15.946 39.8567 16.6483 39.8567 18.0882V34.1281C39.8567 34.338 39.9792 34.4635 40.1846 34.4635H42.7252C42.9301 34.4635 43.0119 34.2956 43.0119 34.1281V17.1767C43.0117 14.6237 41.4745 13.2624 38.7897 13.2624ZM58.5556 3.06152H56.0144C55.8093 3.06152 55.6867 3.18684 55.6867 3.35456V13.6137C54.7111 13.2318 53.823 13.0299 53.1052 13.0299C48.9784 13.0299 46.1454 17.0582 46.1454 24.8041C46.1454 31.4401 48.9012 34.9989 52.4978 34.9989C54.0136 34.9989 55.2653 34.112 56.1815 33.28L56.7363 34.2404C56.8298 34.4064 56.9064 34.4633 57.0946 34.4633L58.556 34.4648C58.7199 34.4648 58.843 34.3392 58.843 34.1293V3.35456C58.8426 3.14507 58.7602 3.06152 58.5556 3.06152ZM49.5056 24.1188C49.5056 19.8504 50.7291 15.6242 53.2274 15.6242C54.0738 15.6242 54.8863 15.9086 55.6871 16.5579V31.5948C55.0611 31.9426 54.2737 32.2628 53.4228 32.2628C50.706 32.2628 49.5056 28.973 49.5056 24.1188ZM68.289 13.0719C64.0573 13.0719 61.9688 18.7242 61.9688 24.875C61.9688 31.3135 64.9476 34.922 68.7775 34.922C70.461 34.922 72.137 34.2456 73.2359 33.622C73.4042 33.5263 73.4346 33.3917 73.3943 33.2252L73.0729 31.8651C73.0328 31.6986 72.9508 31.6159 72.7476 31.6159C72.6583 31.6159 71.2697 32.0305 69.919 32.0305C66.7846 32.0305 65.3474 29.1856 65.3474 25.4073V24.4891C65.3474 24.4891 66.9051 24.709 67.841 24.709H73.7542V22.964C73.7544 16.5217 71.545 13.0719 68.289 13.0719ZM68.0855 22.0907C67.1496 22.0907 65.4463 22.327 65.4463 22.327C65.4463 22.327 65.469 21.6334 65.5508 20.969C65.9174 17.4362 66.7425 15.649 68.1669 15.649C69.4054 15.649 70.2542 17.4774 70.458 20.6776C70.4983 21.3427 70.4983 22.0907 70.4983 22.0907H68.0855ZM26.7416 15.7136C25.8018 13.823 24.1283 12.9968 22.2111 12.9968C20.9795 12.9968 19.0574 13.4776 17.7735 14.067C17.5224 14.1824 17.3638 14.2837 17.3638 14.4854C17.3638 14.6053 17.4224 14.743 17.4866 14.862L18.3516 16.7529C18.4407 16.9664 18.5837 17.0154 18.7018 17.0154C18.8298 17.0154 18.9339 16.9535 19.0485 16.8785C20.3008 16.0616 21.2178 15.6122 21.9439 15.6122C22.9046 15.6122 23.5569 16.2628 23.9591 17.2414C24.334 18.1532 24.4788 19.413 24.4788 20.8687C24.4788 21.0542 24.4799 21.2963 24.4799 21.2963C23.6908 20.7922 22.3237 20.5144 21.6411 20.5144C17.9698 20.5144 15.9902 24.0761 15.9902 27.885C15.9902 31.9889 18.3042 34.9987 21.0848 34.9987C22.6334 34.9987 24.0353 34.0708 24.9742 32.9005C24.9742 32.9005 25.4743 34.1175 25.5395 34.2635C25.6053 34.4091 25.6746 34.4631 25.8628 34.4631L27.3488 34.4646C27.5124 34.4646 27.6353 34.339 27.6353 34.1291V22.3322C27.6347 19.4331 27.4913 17.2218 26.7416 15.7136ZM24.4795 31.1688C23.7513 31.8868 22.8796 32.2628 22.095 32.2628C21.3106 32.2628 20.7044 31.8928 20.2181 31.2072C19.6263 30.3736 19.3503 29.0898 19.3503 27.667C19.3503 25.417 20.1639 23.1083 21.888 23.1083C22.7415 23.1083 23.679 23.3921 24.4793 24.042L24.4795 31.1688ZM87.1737 13.4969H84.9086C84.6556 13.4969 84.5264 13.6321 84.4614 13.8077C83.9617 15.1486 83.4639 16.4903 82.9681 17.8326C82.6882 18.5945 81.9344 20.7758 81.9344 20.7758L81.8467 20.7752C81.8434 20.7673 81.2919 19.1882 80.993 18.3974C80.7514 17.7561 79.4892 14.3625 79.3298 13.9444C79.2443 13.7196 79.1489 13.4969 78.8249 13.4969H76.3454C76.0728 13.4969 75.9187 13.8023 76.0064 13.9917C76.0951 14.1818 80.0455 23.3701 80.0455 23.3701C80.0455 23.3701 75.8031 33.6589 75.6787 33.8897C75.5548 34.1206 75.7103 34.4627 76.0121 34.4627H78.1851C78.5547 34.4627 78.7007 34.2648 78.8117 33.9461C79.124 33.0527 79.589 31.8105 80.2477 29.8903C80.6837 28.6181 81.374 26.3849 81.374 26.3849H81.4499C81.4499 26.3849 82.2054 28.6609 82.4867 29.405C83.1966 31.2869 84.1045 33.7447 84.2011 34.0042C84.3014 34.2755 84.4417 34.4629 84.6957 34.4629H87.16C87.4038 34.4629 87.5168 34.1788 87.4018 33.9314C87.1276 33.3412 84.7873 27.5353 83.1621 23.7182C83.1621 23.7182 87.3793 14.2155 87.4617 13.9804C87.5456 13.7448 87.5213 13.4969 87.1737 13.4969Z" fill="#343434"/>
<path d="M18.5554 0.00195312H15.6985C15.4455 0.00195312 15.2877 0.128515 15.2511 0.312567C15.2148 0.497446 10.9673 13.7215 10.6584 14.8231C10.4395 15.6038 9.72594 18.3571 9.5546 19.0183L8.07731 14.9C7.71862 13.7668 4.27777 3.95246 4.17711 3.56036C4.12162 3.34488 4.0244 3.07687 3.65437 3.07687H0.865675C0.592659 3.07687 0.438936 3.38252 0.526633 3.57195C0.597115 3.72332 5.63455 17.4075 7.66981 22.6354V34.1294C7.66981 34.3393 7.75184 34.4648 7.9568 34.4648H10.5983C10.7621 34.4648 10.885 34.3393 10.885 34.1294V22.7258C12.5811 17.8877 18.778 0.67819 18.8455 0.485452C18.9275 0.2497 18.9032 0.00195312 18.5554 0.00195312Z" fill="#343434"/>
</g>
<defs>
<clipPath id="clip0_247_286">
<rect width="87" height="35" fill="white" transform="translate(0.501953)"/>
</clipPath>
</defs>
</svg>
