<svg width="147" height="37" viewBox="0 0 147 37" fill="none" xmlns="http://www.w3.org/2000/svg">
<g clip-path="url(#clip0_247_289)">
<path fill-rule="evenodd" clip-rule="evenodd" d="M25.9437 6.72949H11.9213C10.672 6.73343 9.47508 7.23327 8.59168 8.11991C7.70827 9.00655 7.21016 10.208 7.20605 11.462V25.5378C7.20909 26.7922 7.70684 27.9943 8.59046 28.8813C9.47407 29.7683 10.6716 30.2679 11.9213 30.271H25.9437C27.1935 30.2688 28.3915 29.7695 29.2752 28.8823C30.1589 27.9951 30.6563 26.7924 30.6582 25.5378V11.462C30.6554 10.2077 30.1577 9.00566 29.2742 8.11877C28.3907 7.23188 27.1932 6.73236 25.9437 6.72949ZM18.9321 27.1101C17.2357 27.1101 15.5774 26.6052 14.1669 25.6591C12.7564 24.713 11.657 23.3684 11.0078 21.7951C10.3586 20.2219 10.1888 18.4907 10.5197 16.8205C10.8507 15.1504 11.6676 13.6163 12.8671 12.4121C14.0667 11.208 15.595 10.388 17.2588 10.0558C18.9226 9.72359 20.6472 9.89409 22.2145 10.5458C23.7818 11.1974 25.1214 12.301 26.0638 13.7169C27.0063 15.1327 27.5094 16.7974 27.5094 18.5002C27.5095 19.631 27.2878 20.7506 26.8568 21.7953C26.4258 22.84 25.794 23.7892 24.9975 24.5887C24.201 25.3883 23.2554 26.0225 22.2147 26.4551C21.174 26.8877 20.0586 27.1103 18.9321 27.1101ZM27.347 11.4891C27.0738 11.4893 26.8068 11.4081 26.5796 11.2559C26.3524 11.1036 26.1753 10.8872 26.0707 10.6339C25.966 10.3806 25.9386 10.1019 25.9918 9.83293C26.045 9.56399 26.1765 9.31693 26.3696 9.123C26.5627 8.92907 26.8087 8.79698 27.0766 8.74344C27.3445 8.6899 27.6222 8.71731 27.8746 8.82221C28.127 8.9271 28.3427 9.10477 28.4945 9.33275C28.6462 9.56072 28.7272 9.82875 28.7272 10.1029C28.7282 10.2853 28.6932 10.4661 28.6242 10.6348C28.5553 10.8036 28.4537 10.9569 28.3254 11.0861C28.197 11.2152 28.0445 11.3175 27.8766 11.3872C27.7087 11.4568 27.5287 11.4924 27.347 11.4919V11.4891Z" fill="#343434"/>
<path fill-rule="evenodd" clip-rule="evenodd" d="M31.2147 0H6.64883C3.26585 0 0.501953 2.77782 0.501953 6.17029V30.8297C0.501953 34.2256 3.26923 37 6.64883 37H31.2147C34.5936 37 37.3616 34.2222 37.3616 30.8297V6.17029C37.3616 2.77782 34.5936 0 31.2147 0ZM32.2296 25.5369C32.2264 27.2096 31.5631 28.8128 30.3849 29.9956C29.2067 31.1784 27.6096 31.8444 25.9433 31.8478H11.9209C10.2548 31.8435 8.65817 31.1772 7.48007 29.9946C6.30197 28.812 5.63822 27.2093 5.63394 25.5369V11.4617C5.63394 7.99251 8.46414 5.15153 11.9209 5.15153H25.9433C29.4055 5.15153 32.2296 7.99251 32.2296 11.4617V25.5369Z" fill="#343434"/>
<path fill-rule="evenodd" clip-rule="evenodd" d="M18.9319 11.6768C17.5875 11.6768 16.2734 12.0769 15.1556 12.8266C14.0378 13.5764 13.1666 14.642 12.6522 15.8887C12.1377 17.1354 12.0031 18.5073 12.2654 19.8308C12.5276 21.1544 13.175 22.3701 14.1256 23.3243C15.0762 24.2785 16.2873 24.9283 17.6058 25.1916C18.9243 25.4549 20.291 25.3198 21.533 24.8033C22.775 24.2869 23.8365 23.4124 24.5834 22.2904C25.3303 21.1683 25.7289 19.8492 25.7289 18.4997C25.7284 16.6903 25.0121 14.9552 23.7375 13.6758C22.4629 12.3963 20.7344 11.6773 18.9319 11.6768Z" fill="#343434"/>
<path d="M104.953 22.9461C103.33 25.1297 100.298 25.5569 98.8377 22.7756C98.2287 24.0063 97.3796 24.9198 95.8918 24.6699C94.6401 24.46 93.9689 23.5927 93.7267 22.3118C93.5575 22.5603 93.4202 22.7702 93.2747 22.9746C92.6861 23.8019 91.9262 24.3894 90.9276 24.6311C89.5744 24.9585 88.3031 24.4158 87.575 23.1601C87.2956 22.6778 87.1014 22.146 86.8687 21.6353C86.7334 21.9226 86.6224 22.2466 86.4384 22.5142C86.0777 23.0432 85.7293 23.6008 85.2773 24.045C84.3084 24.9993 82.9329 24.9334 81.985 23.9452C81.2665 23.1981 80.9918 22.2432 80.8023 21.257C80.7428 20.9446 80.7028 20.6288 80.6426 20.2444C80.3463 20.7959 80.1088 21.2896 79.8267 21.7562C78.9214 23.2504 77.715 24.3676 75.9274 24.6699C74.6419 24.8879 73.3868 24.7446 72.2062 24.17C71.5458 23.8494 71.4531 23.5417 71.7562 22.8707C71.7996 22.7725 71.8493 22.6772 71.9051 22.5855C72.4105 21.7616 72.7346 21.7025 73.5167 22.2703C73.7515 22.449 74.0033 22.6039 74.2684 22.7329C75.1642 23.1404 75.9545 22.7166 76.1331 21.7453C76.2732 20.9819 76.0878 20.2749 75.5993 19.7078C74.9646 18.9675 74.2529 18.2945 73.5397 17.5569C72.8631 18.6979 72.2488 19.7703 71.5911 20.8169C71.0627 21.6564 70.5289 22.5013 69.8996 23.2653C69.4858 23.7586 68.9865 24.1727 68.426 24.4878C67.4037 25.0672 66.4761 24.6753 66.0897 23.5642C65.677 22.3743 65.6926 21.1293 65.7237 19.8932C65.765 18.2673 65.8455 16.642 65.9077 15.0168C65.9138 14.8606 65.9077 14.7043 65.9077 14.5488L65.8001 14.487C65.6486 14.6391 65.4835 14.7797 65.3489 14.9448C64.359 16.1557 63.6892 17.544 63.1655 19.0049C62.562 20.6879 62.0579 22.4007 61.8596 24.1863C61.8218 24.5306 61.6418 24.6862 61.3184 24.7147C61.2121 24.7235 61.1046 24.7276 60.997 24.7289C59.8529 24.7398 59.4577 24.4063 59.3833 23.2612C59.3244 22.3634 59.3197 21.4614 59.3231 20.5609C59.3339 18.0479 59.3596 15.535 59.3813 13.0173C59.386 12.5194 59.4855 12.3938 59.978 12.4644C60.4361 12.5324 60.8833 12.6838 61.3312 12.8183C61.6269 12.9079 61.7243 13.1273 61.7203 13.4404C61.7 15.027 61.6979 16.6135 61.6905 18.2007C61.6787 18.3613 61.709 18.5222 61.7785 18.6673C61.84 18.5084 61.8989 18.3488 61.9638 18.1919C62.4517 17.0156 62.88 15.8094 63.4524 14.6765C63.7704 14.0469 64.2731 13.4784 64.7927 12.9908C65.4693 12.3558 66.2907 12.2546 67.1317 12.7354C67.3177 12.8421 67.5072 12.9432 67.6912 13.0526C68.2494 13.384 68.5031 13.8581 68.4768 14.5257C68.405 16.46 68.3541 18.3952 68.3238 20.3313C68.3211 20.8558 68.3718 21.3793 68.4754 21.8934C68.5681 22.3688 68.8604 22.4605 69.2197 22.1284C69.5099 21.8696 69.7607 21.5694 69.9639 21.2373C70.809 19.8036 71.6182 18.3495 72.4578 16.9123C72.6006 16.6665 72.4578 16.5429 72.3455 16.3867C71.6642 15.4643 71.7684 14.521 72.3043 13.5912C72.8625 12.622 73.9085 12.097 74.8983 12.241C75.6487 12.351 76.0688 12.8604 75.828 13.5749C75.583 14.3009 75.1676 14.9699 74.8185 15.6593C74.7508 15.7863 74.6487 15.8936 74.5418 16.0376C75.2008 16.5368 75.8422 17.0176 76.4768 17.5073C76.7854 17.745 77.0966 17.9827 77.3794 18.2469C78.3077 19.1163 78.8003 20.1547 78.5296 21.5531C78.692 21.4051 78.7928 21.3236 78.8808 21.2305C79.6912 20.3812 80.2595 19.329 80.5263 18.1838C80.5552 18.0663 80.5711 17.9461 80.5736 17.8251C80.5926 15.9298 80.6093 14.034 80.6237 12.1378C80.6237 12.0698 80.6135 12.0067 80.6 11.8267C80.1311 11.8267 79.6677 11.8267 79.2049 11.8267C78.9342 11.8267 78.6683 11.8179 78.4004 11.8138C77.5689 11.8016 77.4302 11.6189 77.627 10.7842C77.6541 10.6667 77.6947 10.5526 77.7285 10.4371C77.8449 10.0439 78.0607 9.84758 78.5154 9.87407C79.2468 9.91685 79.983 9.88561 80.7563 9.88561C80.7631 9.77219 80.7766 9.61394 80.7827 9.45638C80.8172 8.57005 80.8449 7.68305 80.8869 6.79673C80.9146 6.21061 81.1332 6.00006 81.7076 6.10669C82.2563 6.20857 82.7901 6.39398 83.326 6.56038C83.6054 6.64731 83.7036 6.85514 83.6846 7.15534C83.6318 7.97374 83.6034 8.7935 83.5676 9.61326C83.5622 9.74434 83.5676 9.87678 83.5676 10.0656C84.4086 10.1125 85.234 10.1566 86.0595 10.2069C86.3538 10.2245 86.6481 10.249 86.939 10.287C87.0378 10.2999 87.2131 10.3638 87.2097 10.4025C87.2029 10.7651 87.1982 11.1339 87.1278 11.4891C87.075 11.7527 86.8836 11.9041 86.5689 11.9034C85.6305 11.9034 84.6914 11.9286 83.753 11.9455C83.6853 11.9455 83.623 11.9598 83.5087 11.9734C83.4681 12.8611 83.4133 13.7433 83.391 14.6262C83.3477 16.3602 83.2888 18.0948 83.3071 19.8287C83.3185 20.5662 83.4244 21.2992 83.6224 22.0095C83.8998 23.0106 84.5148 23.1512 85.2306 22.4021C86.1102 21.4811 86.6204 20.3754 86.6738 19.0809C86.734 17.6547 86.8694 16.2284 87.4945 14.9203C87.8 14.2638 88.2061 13.6595 88.6982 13.1293C89.9438 11.8308 91.7997 11.9286 92.9871 13.2781L93.2578 13.5837C93.2679 13.4323 93.2733 13.344 93.2794 13.2557C93.3038 12.8706 93.5101 12.6064 93.8762 12.6505C94.4028 12.721 94.9222 12.838 95.4283 13.0003C95.7504 13.0988 95.8079 13.3908 95.8004 13.7229C95.7524 15.8467 95.7003 17.9705 95.6989 20.0949C95.6989 20.7877 95.8282 21.4832 95.933 22.1719C95.9798 22.4092 96.0747 22.6344 96.2118 22.8334C96.502 23.2843 97.0914 23.3869 97.4642 23.012C98.0609 22.4136 98.4114 21.7046 98.3187 20.8094C98.063 18.3243 98.2619 15.9153 99.682 13.7576C100.507 12.5031 101.702 12.0067 103.029 12.3143C103.758 12.4828 104.27 12.9677 104.767 13.5701C104.782 13.4431 104.795 13.3725 104.8 13.2985C104.832 12.8563 105.045 12.6098 105.491 12.6458C105.938 12.6818 106.383 12.8061 106.821 12.9174C107.212 13.02 107.349 13.2903 107.341 13.706C107.297 16.1388 107.273 18.5729 107.248 21.0064C107.248 21.1646 107.248 21.3229 107.248 21.5735C107.322 21.5017 107.392 21.4257 107.457 21.346C108.614 19.648 109.514 17.8265 110.073 15.8447C110.156 15.552 110.145 15.3536 109.891 15.1152C109.271 14.5318 109.301 13.799 109.584 13.0628C109.855 12.3564 110.382 11.9673 111.14 11.9218C111.939 11.8749 112.445 12.3761 112.41 13.1755C112.401 13.3861 112.365 13.5953 112.332 13.8832C113.088 13.7426 113.791 13.6034 114.497 13.4846C114.812 13.4309 115.138 13.3684 115.452 13.3956C116.264 13.4635 116.723 14.0781 116.573 14.885C116.401 15.8087 116.167 16.7188 116.01 17.6465C115.77 19.0334 115.692 20.4311 116.055 21.8071C116.151 22.1696 116.309 22.5125 116.523 22.8205C116.885 23.3353 117.521 23.3794 117.943 22.9128C118.413 22.3953 118.68 21.801 118.578 21.0471C118.282 18.8568 118.361 16.695 119.349 14.6629C119.596 14.1506 119.911 13.6746 120.286 13.2482C121.56 11.8219 123.491 11.8579 124.747 13.2957C124.807 13.3637 124.866 13.4357 124.925 13.5049C124.956 13.4839 124.989 13.4716 124.993 13.4567C125.054 12.715 125.283 12.533 126.027 12.6417C126.146 12.6587 126.265 12.6818 126.383 12.7062C127.418 12.9208 127.533 13.1137 127.52 14.1637C127.488 16.5014 127.479 18.8398 127.492 21.1789C127.507 21.6489 127.597 22.1133 127.759 22.5542C128.03 23.3251 128.778 23.4596 129.296 22.8259C129.987 21.9851 130.389 20.9962 130.414 19.9055C130.466 17.6873 130.462 15.4684 130.482 13.2496C130.489 12.497 130.678 12.3429 131.413 12.4889C131.715 12.5493 132.016 12.6193 132.314 12.696C132.801 12.8217 132.927 12.9772 132.928 13.4913C132.928 14.688 132.923 15.8848 132.919 17.0821C132.911 17.1743 132.937 17.2662 132.991 17.3409C133.034 17.2309 133.081 17.1222 133.12 17.0101C133.511 15.8963 133.902 14.7822 134.293 13.6679C134.315 13.6048 134.344 13.5443 134.372 13.4832C134.82 12.4923 135.109 12.3048 135.928 12.4753C137.036 12.7062 137.578 13.2727 137.619 14.2147C137.693 15.8521 137.778 17.489 137.858 19.1264C137.86 19.1535 137.869 19.1796 137.883 19.2026C137.898 19.2255 137.917 19.2446 137.941 19.2582C137.965 19.1597 137.997 19.0626 138.013 18.9628C138.339 16.9633 138.973 15.0555 139.733 13.1864C140.004 12.5235 140.429 12.3035 141.111 12.5072C141.546 12.6427 141.968 12.8133 142.375 13.0173C142.898 13.2713 143.101 13.7053 143.089 14.2996C143.046 16.2746 143.012 18.2503 143.032 20.226C143.038 20.8475 143.205 21.4716 143.339 22.0849C143.404 22.3324 143.519 22.5637 143.678 22.7641C144.046 23.2558 144.638 23.2511 144.929 22.7098C145.187 22.2343 145.327 21.691 145.508 21.1742C145.588 20.9466 145.609 20.6933 145.718 20.4848C145.786 20.3564 145.989 20.1961 146.098 20.2186C146.239 20.2478 146.381 20.4223 146.457 20.5738C146.518 20.6933 146.5 20.8638 146.49 21.0098C146.427 21.8479 146.244 22.6575 145.848 23.4046C145.057 24.8987 143.377 25.1792 142.133 24.0301C141.281 23.2443 140.941 22.2004 140.868 21.1015C140.753 19.3608 140.745 17.6126 140.693 15.8671C140.689 15.7204 140.693 15.573 140.693 15.3312C140.625 15.4124 140.563 15.4989 140.508 15.59C139.433 17.98 138.824 20.4828 138.757 23.1084C138.747 23.4738 138.582 23.6518 138.262 23.736C137.306 23.9812 136.423 23.5322 136.193 22.5671C135.967 21.6005 135.807 20.6196 135.715 19.6311C135.589 18.361 135.551 17.0828 135.474 15.808C135.469 15.7184 135.45 15.6294 135.42 15.4086C135.26 15.6124 135.14 15.7238 135.069 15.8596C134.19 17.5431 133.662 19.3889 133.518 21.2842C133.45 22.1549 133.45 23.0303 133.398 23.9031C133.362 24.5381 133.228 24.6943 132.586 24.6991C132.081 24.692 131.577 24.6377 131.081 24.5367C130.73 24.4729 130.545 24.2202 130.54 23.8399C130.532 23.5288 130.497 23.219 130.435 22.9142C129.87 24.0511 129.123 24.9239 127.728 24.6882C126.443 24.4709 125.75 23.5954 125.455 22.2812C125.32 22.4951 125.22 22.6561 125.117 22.813C124.488 23.755 123.659 24.4131 122.533 24.6576C121.308 24.9232 120.111 24.4084 119.38 23.2932C119.301 23.1736 119.226 23.0514 119.133 22.9054C118.941 23.1838 118.784 23.4487 118.592 23.683C117.631 24.8743 116.264 25.0482 115.032 24.1381C114.058 23.4181 113.649 22.3858 113.481 21.2353C113.21 19.4124 113.445 17.618 113.83 15.8352C113.86 15.6939 113.88 15.5506 113.916 15.3475C113.537 15.3475 113.198 15.3428 112.861 15.3475C111.946 15.3631 111.951 15.3665 111.621 16.2175C110.642 18.7557 109.261 21.1181 107.531 23.213C107.379 23.4075 107.293 23.6453 107.284 23.8922C107.261 25.2356 107.345 26.5851 107.248 27.9224C107.179 28.9263 106.986 29.9177 106.675 30.8741C106.157 32.4362 105.042 33.4033 103.378 33.6363C101.807 33.8557 100.208 32.894 99.8485 31.5248C99.5941 30.5576 99.7572 29.6231 100.33 28.8332C100.929 28.0243 101.583 27.2582 102.288 26.5403C102.985 25.8149 103.738 25.1412 104.5 24.4838C104.86 24.1734 105.041 23.8487 104.956 23.3781C104.943 23.2344 104.942 23.0899 104.953 22.9461ZM93.2781 18.1749C93.2815 16.5877 93.1143 15.6239 92.7862 15.0174C92.2327 13.9933 91.0615 13.8506 90.3443 14.7641C90.0407 15.1553 89.8128 15.6001 89.6725 16.0756C89.2337 17.5769 89.1311 19.157 89.3721 20.7028C89.4732 21.3364 89.679 21.9486 89.981 22.5142C90.3795 23.2612 91.1678 23.3726 91.772 22.7804C92.1655 22.3833 92.4807 21.915 92.7009 21.4003C93.1847 20.2749 93.2625 19.0612 93.2781 18.1749ZM120.909 19.1258L121.044 19.1441C121.044 19.4667 121.023 19.7907 121.048 20.1112C121.116 20.9439 121.21 21.7739 121.675 22.4999C122.141 23.2259 122.885 23.3828 123.51 22.7777C123.897 22.394 124.204 21.9366 124.413 21.4322C125.034 19.934 125.102 18.3461 124.937 16.7568C124.881 16.1436 124.722 15.5443 124.467 14.9842C123.994 13.9946 122.822 13.8662 122.113 14.705C121.819 15.0534 121.554 15.4908 121.455 15.9275C121.216 16.9823 121.084 18.0608 120.909 19.1292V19.1258ZM100.694 19.2208L100.796 19.2412C100.813 19.6032 100.809 19.9679 100.849 20.3279C100.934 21.0899 101.046 21.8493 101.475 22.5114C101.938 23.2253 102.668 23.3815 103.28 22.7981C103.681 22.4098 103.997 21.9407 104.206 21.4214C104.841 19.8151 104.895 18.1233 104.744 16.424C104.707 16.0099 104.616 15.6025 104.473 15.2124C104.035 14.0265 102.776 13.7949 101.979 14.7757C101.645 15.1767 101.4 15.645 101.261 16.1489C101.009 17.1602 100.876 18.1987 100.694 19.2242V19.2208ZM105.096 25.8482C104.991 25.9251 104.891 26.0076 104.795 26.0954C104.281 26.6435 103.721 27.1577 103.27 27.7547C102.748 28.4447 102.301 29.1959 101.868 29.9477C101.714 30.216 101.665 30.559 101.625 30.8748C101.521 31.6409 101.845 32.2426 102.436 32.4559C103.058 32.6787 103.867 32.4145 104.229 31.8093C104.44 31.4519 104.599 31.0664 104.702 30.6642C105.112 29.1184 105.095 27.5326 105.096 25.8516V25.8482Z" fill="#343434"/>
<path d="M54.3009 7.62506C54.0661 7.81659 53.9173 7.90692 53.807 8.03256C52.0756 10.0076 51.3712 12.2957 51.8124 14.8956C51.8949 15.3819 52.1858 15.8342 52.3868 16.2988C52.4504 16.4462 52.5614 16.5766 52.6053 16.7273C52.6946 17.037 52.512 17.2401 52.1994 17.1708C51.9507 17.1183 51.7102 17.0327 51.4842 16.9161C49.9774 16.1297 49.1161 14.4888 49.4429 12.7569C49.9639 9.96685 51.4558 7.81794 53.9173 6.37266C54.8645 5.81914 55.7596 6.04394 56.5959 6.60086C56.7894 6.72991 56.9552 7.05931 56.9558 7.29702C56.9703 11.9638 56.9669 16.63 56.9457 21.2955C56.941 22.4555 56.8104 23.6046 56.3368 24.6839C55.9761 25.5043 55.464 26.1937 54.6886 26.6609C54.5177 26.7656 54.3363 26.8516 54.1473 26.9177C53.719 27.0616 53.5512 26.9115 53.6554 26.4735C53.7907 25.9125 54.0079 25.3637 54.0715 24.7959C54.1962 23.7421 54.2662 22.6825 54.2813 21.6215C54.3192 17.1973 54.3252 12.7732 54.3401 8.34906C54.3347 8.15413 54.3178 7.95785 54.3009 7.62506Z" fill="#343434"/>
</g>
<defs>
<clipPath id="clip0_247_289">
<rect width="146" height="37" fill="white" transform="translate(0.501953)"/>
</clipPath>
</defs>
</svg>
